<svg width="144" height="208" viewBox="0 0 144 208" fill="none" xmlns="http://www.w3.org/2000/svg">
<mask id="mask0_175_3512" style="mask-type:alpha" maskUnits="userSpaceOnUse" x="0" y="0" width="144" height="208">
<rect width="144" height="208" fill="#DEDEDE"/>
</mask>
<g mask="url(#mask0_175_3512)">
<path d="M-144 8C-144 3.58173 -140.418 0 -136 0H197.282V205H-136C-140.418 205 -144 201.418 -144 197V8Z" fill="url(#paint0_linear_175_3512)"/>
<path d="M71.9796 193.448C71.9796 193.448 68.5357 184.977 78.867 178.624L71.9796 193.448Z" fill="#C0CD9C"/>
<path d="M67.7442 193.294C67.7442 193.294 66.6937 187.256 58.5628 187.308L67.7442 193.294Z" fill="#C0CD9C"/>
<path d="M145.419 193.448C145.419 193.448 140.869 182.257 154.518 173.864L145.419 193.448Z" fill="#C0CD9C"/>
<path d="M139.823 193.244C139.823 193.244 138.436 185.268 127.694 185.336Z" fill="#C0CD9C"/>
<path d="M68.5366 74.0435L64.1816 71.1475L64.5075 70.9305L68.8625 73.8269L68.5366 74.0435Z" fill="white"/>
<path d="M64.5072 74.0435L64.1816 73.8269L68.5366 70.9305L68.8625 71.1475L64.5072 74.0435Z" fill="white"/>
<path d="M31.0691 54.2532L30.8519 54.6767L32.1232 55.3277L32.3404 54.9042L31.0691 54.2532Z" fill="white"/>
<path d="M57.7194 69.374L55.1435 67.8721L55.3645 67.3812L57.9404 68.8831L57.7194 69.374ZM52.5676 66.3702L49.9916 64.8682L50.2127 64.3772L52.7886 65.8793L52.5676 66.3702ZM47.4157 63.3662L44.8398 61.8644L45.0608 61.3734L47.6367 62.8753L47.4157 63.3662ZM42.2639 60.3624L39.6879 58.8605L39.909 58.3696L42.4849 59.8715L42.2639 60.3624ZM37.112 57.3586L34.5361 55.8567L34.7571 55.3658L37.333 56.8677L37.112 57.3586Z" fill="white"/>
<path d="M60.1737 69.1568L59.9565 69.5803L61.2278 70.2313L61.445 69.8078L60.1737 69.1568Z" fill="white"/>
<path d="M77.8337 52.6358C66.6798 51.9922 55.4923 52.16 44.364 53.1379C39.0004 53.6111 33.5514 54.1222 28.2868 55.2641C24.0464 56.1839 19.125 57.7384 16.4829 61.3592C15.9295 62.0887 15.5566 62.9334 15.3933 63.8269C15.23 64.7205 15.2808 65.6389 15.5416 66.5102C16.1716 68.5742 17.7387 70.2924 19.4077 71.638C23.2489 74.7352 28.0149 76.5375 32.2722 78.9981C40.0452 83.4908 47.1591 89.5462 51.7252 97.2386C53.7345 100.624 55.6458 105.124 53.4085 108.854C51.2166 112.508 46.3236 113.767 42.3333 114.361C37.3318 115.105 32.1799 114.903 27.1576 114.486C21.6514 113.985 16.176 113.202 10.7539 112.141C0.13166 110.151 -10.3939 107.618 -21.1638 106.467C-26.5638 105.847 -32.0094 105.693 -37.4372 106.008C-42.3391 106.33 -47.283 107.087 -51.888 108.812C-55.4365 110.141 -59.219 112.153 -61.1358 115.507C-62.9835 118.74 -62.2628 122.469 -60.2509 125.452C-57.8302 129.041 -54.0554 131.501 -50.1309 133.299C-45.6625 135.345 -40.8831 136.672 -36.0976 137.801C-33.6705 138.373 -31.2303 138.89 -28.7899 139.405C-28.2808 139.512 -28.0632 138.749 -28.5742 138.641C-33.4955 137.603 -38.4311 136.562 -43.2302 135.06C-47.6713 133.669 -52.2161 131.888 -55.8529 128.969C-58.7951 126.607 -61.5926 123.157 -61.4189 119.235C-61.2439 115.281 -57.8447 112.52 -54.5131 110.82C-50.3495 108.697 -45.619 107.662 -40.9837 107.122C-35.6762 106.544 -30.3237 106.473 -25.0021 106.909C-14.2577 107.707 -3.75329 110.096 6.78128 112.18C17.0154 114.204 27.5689 116.078 38.0569 115.559C42.2139 115.353 46.6681 114.772 50.3385 112.724C52.0191 111.786 53.5344 110.464 54.3885 108.743C55.158 107.106 55.4014 105.28 55.0865 103.505C54.4913 99.606 52.1186 95.9908 49.7513 92.8854C47.1562 89.5171 44.1458 86.4737 40.7883 83.8238C37.1036 80.9295 33.1305 78.4034 28.9289 76.2835C26.7007 75.1386 24.441 74.0376 22.3176 72.7115C20.2817 71.44 18.2733 69.9101 17.03 67.8459C15.9547 66.0606 15.7575 64.0231 16.8775 62.2124C18.0103 60.381 19.9621 59.1037 21.8868 58.1704C26.5241 55.9215 31.9155 55.3196 36.9891 54.7028C47.8831 53.3829 58.862 52.8486 69.8365 53.1043C72.504 53.1655 75.1697 53.2733 77.8337 53.4276C78.3553 53.4576 78.3535 52.6656 77.8337 52.6358Z" fill="black"/>
<path d="M70.7319 25.9318L71.983 24.2599C71.0111 24.0807 70.6118 24.9664 70.4483 25.6674C69.689 25.1406 68.8625 25.831 68.8625 25.831L71.3657 27.3494C71.2394 26.7858 71.0195 26.2941 70.7319 25.9318Z" fill="#3F3D56"/>
<path d="M62.305 30.601L64.1816 28.9291C62.7237 28.75 62.1247 29.6356 61.8796 30.3366C60.7406 29.8098 59.5007 30.5002 59.5007 30.5002L63.2555 32.0186C63.0661 31.4551 62.7364 30.9633 62.305 30.601Z" fill="#3F3D56"/>
<path d="M70.7319 35.9794L71.983 35.1435C71.0111 35.0539 70.6118 35.4967 70.4483 35.8472C69.689 35.5838 68.8625 35.929 68.8625 35.929L71.3657 36.6882C71.2394 36.4065 71.0195 36.1606 70.7319 35.9794Z" fill="#3F3D56"/>
<path d="M45.4999 38.6098C48.3034 38.6098 50.576 36.3387 50.576 33.5372C50.576 30.7357 48.3034 28.4647 45.4999 28.4647C42.6964 28.4647 40.4238 30.7357 40.4238 33.5372C40.4238 36.3387 42.6964 38.6098 45.4999 38.6098Z" fill="#FF6583"/>
<path d="M61.4178 49.1682H36.5157C36.4845 49.1685 36.4534 49.1661 36.4226 49.1608L48.2004 28.7759C48.2723 28.6489 48.3766 28.5432 48.5026 28.4697C48.6287 28.3962 48.7721 28.3575 48.9181 28.3575C49.0641 28.3575 49.2074 28.3962 49.3335 28.4697C49.4596 28.5432 49.5639 28.6489 49.6357 28.7759L57.5396 42.4553L57.9182 43.1097L61.4178 49.1682Z" fill="#ABB956"/>
<path d="M75.2819 49.1684H53.7442L57.9176 43.1105L58.2178 42.6739L63.6562 34.7793C63.7524 34.6586 63.8729 34.5593 64.01 34.4882C64.1471 34.417 64.2976 34.3755 64.4518 34.3663C64.6059 34.3571 64.7603 34.3804 64.9049 34.4348C65.0495 34.4891 65.181 34.5733 65.2908 34.6818C65.319 34.7126 65.3451 34.7452 65.3691 34.7793L75.2819 49.1684Z" fill="#ABB956"/>
<path d="M39.8756 95.834C42.2872 97.0761 43.7554 98.7165 43.7554 100.516C43.7554 104.392 36.949 107.534 28.553 107.534C24.9027 107.534 21.5538 106.939 18.9331 105.949C21.7166 107.383 25.7571 108.286 30.2557 108.286C38.6517 108.286 45.4581 105.144 45.4581 101.268C45.4581 99.0769 43.2826 97.121 39.8756 95.834Z" fill="white"/>
<path d="M44.2281 97.3905C46.7816 98.9431 48.3361 100.994 48.3361 103.243C48.3361 108.088 41.1294 112.015 32.2395 112.015C28.3744 112.015 24.8285 111.272 22.0537 110.035C25.0009 111.827 29.2791 112.955 34.0423 112.955C42.9322 112.955 50.139 109.028 50.139 104.183C50.139 101.444 47.8355 98.9993 44.2281 97.3905Z" fill="white"/>
<path d="M38.397 95.834C40.0993 96.7655 41.1357 97.9959 41.1357 99.3453C41.1357 102.252 36.3311 104.609 30.4046 104.609C28.0956 104.642 25.7987 104.24 23.614 103.421C25.5788 104.496 28.431 105.173 31.6064 105.173C37.533 105.173 42.3375 102.816 42.3375 99.9092C42.3375 98.2661 40.8019 96.7992 38.397 95.834Z" fill="white"/>
<path d="M14.2523 95.834C14.2523 95.834 14.6255 102.06 25.3242 102.06C36.0228 102.06 39.217 95.834 39.217 95.834H14.2523Z" fill="#3F3D56"/>
<path d="M28.9138 81.849C27.6191 80.6375 25.9941 80.09 24.379 80.3211C25.8223 80.7497 27.097 81.7907 27.9793 83.2615C28.8616 84.7323 29.2951 86.5388 29.2039 88.364C29.1126 90.1892 28.5023 91.9165 27.4801 93.2428C26.4579 94.569 25.0892 95.4095 23.614 95.6167C25.0251 96.0362 26.5103 95.8446 27.8201 95.074C29.1299 94.3035 30.1844 93.001 30.8062 91.3855C31.4281 89.77 31.5794 87.9401 31.2348 86.2034C30.8902 84.4666 30.0706 82.929 28.9138 81.849Z" fill="#3F3D56"/>
<path d="M26.7345 80.2693H25.1743V95.834H26.7345V80.2693Z" fill="#3F3D56"/>
<path d="M72.622 67.7059L72.6178 67.6988L72.607 67.2513L75.1037 63.7504L72.61 66.9163L72.601 67.0109L72.5157 63.4326L74.6721 59.8029L72.5096 62.8039L72.5321 55.3905L72.532 55.3658L72.5314 55.3901L72.3882 61.2329L70.4228 58.8595L72.3818 61.7362L72.3389 64.937L70.5303 61.8132L72.3323 65.4076L72.3083 67.1874L72.2422 72.1182L72.2374 72.4867C72.404 72.4879 72.5689 72.4852 72.732 72.4786L72.6189 67.7424L72.622 67.7059Z" fill="white"/>
<path d="M61.7 69.2625L61.6957 69.2554L61.6849 68.8079L64.1816 65.307L61.6879 68.4729L61.679 68.5675L61.5936 64.9892L63.75 61.3595L61.5875 64.3605L61.6101 56.947L61.61 56.9224L61.6093 56.9466L61.4661 62.7894L59.5007 60.4161L61.4597 63.2928L61.4168 66.4936L59.6083 63.3698L61.4102 66.9641L61.3862 68.7439L61.3202 73.6748L61.3154 74.0432C61.4819 74.0445 61.6468 74.0418 61.81 74.0352L61.6969 69.299L61.7 69.2625Z" fill="white"/>
<path d="M67.2081 65.0277L67.2052 65.0212L67.198 64.6144L68.8625 61.4317L67.2 64.3099L67.1941 64.3959L67.1372 61.1428L68.5748 57.8431L67.1331 60.5713L67.1482 53.8318L67.1481 53.8094L67.1476 53.8315L67.0522 59.1431L65.7419 56.9855L67.0479 59.6007L67.0193 62.5105L65.8136 59.6706L67.0149 62.9383L66.9989 64.5563L66.9549 69.0389L66.9517 69.3738C67.0627 69.3749 67.1726 69.3725 67.2814 69.3665L67.206 65.0609L67.2081 65.0277Z" fill="white"/>
<path d="M123.312 187.718L120.094 189.222L113.95 174.321L118.7 172.101L123.312 187.718Z" fill="#FFB7B7"/>
<path d="M126.433 189.405L114.322 193.892L114.265 193.739C113.801 192.492 113.852 191.113 114.407 189.904C114.963 188.695 115.977 187.756 117.227 187.293L124.624 184.553L126.433 189.405Z" fill="#2F2E41"/>
<path d="M90.5453 190.779L87.3738 190.778L85.865 176.77L90.5459 176.771L90.5453 190.779Z" fill="#FFB7B7"/>
<path d="M90.5457 193.892L78.0636 193.891V193.744C78.0637 192.545 78.5756 191.395 79.4867 190.547C80.3978 189.699 81.6335 189.222 82.922 189.222L90.5459 189.223L90.5457 193.892Z" fill="#2F2E41"/>
<path d="M107.597 91.9913L106.447 89.6082L96.6699 94.6723L96.9575 96.7576L95.0883 99.2896C95.0883 99.2896 91.9251 101.077 92.5002 107.035L93.0754 112.695L93.7943 119.993L88.7619 138.015L86.1739 161.846L84.3047 181.06L93.3629 180.613L101.702 149.335L116.368 182.996L126.433 180.315L112.63 146.952L110.904 132.951C110.904 132.951 112.054 125.504 106.591 120.44L107.453 117.759V114.455L110.329 98.6938L107.597 91.9913Z" fill="#2F2E41"/>
<path opacity="0.2" d="M107.485 125.723L100.841 149.263L101.182 149.36L107.826 125.82L107.485 125.723Z" fill="black"/>
<path d="M106.149 119.181H93.6665V120.738H106.149V119.181Z" fill="#3F3D56"/>
<path d="M102.637 87.3123C106.538 85.1812 107.972 80.2933 105.839 76.3949C103.707 72.4965 98.8155 71.0637 94.9143 73.1948C91.0132 75.3259 89.5794 80.2138 91.712 84.1122C93.8446 88.0106 98.7359 89.4434 102.637 87.3123Z" fill="#FFB7B7"/>
<path d="M110.83 77.1564C115.138 77.1564 118.631 74.0206 118.631 70.1523C118.631 66.284 115.138 63.1482 110.83 63.1482C106.521 63.1482 103.028 66.284 103.028 70.1523C103.028 74.0206 106.521 77.1564 110.83 77.1564Z" fill="#2F2E41"/>
<path d="M119.899 70.9305C120.177 71.7327 120.258 72.5757 120.137 73.4063C120.017 74.2369 119.697 75.037 119.199 75.7561C118.7 76.4753 118.034 77.0978 117.241 77.5844C116.448 78.071 115.546 78.4112 114.593 78.5834C113.639 78.7556 112.654 78.7561 111.701 78.5848C110.747 78.4136 109.845 78.0744 109.051 77.5886C108.258 77.1028 107.59 76.4809 107.091 75.7623C106.591 75.0437 106.27 74.2439 106.149 73.4135C106.654 74.87 107.778 76.1101 109.298 76.8877C110.818 77.6652 112.623 77.9232 114.355 77.6106C116.086 77.2979 117.617 76.4374 118.644 75.1999C119.671 73.9624 120.119 72.4384 119.899 70.9305Z" fill="#2F2E41"/>
<path d="M91.7154 78.5255C91.5163 80.397 91.9012 82.2864 92.8104 83.9009C93.7197 85.5153 95.1026 86.7647 96.7449 87.4554C98.3871 88.1461 100.197 88.2395 101.894 87.7213C103.591 87.203 105.081 86.102 106.132 84.5888C107.183 83.0755 107.737 81.2346 107.708 79.3513C107.679 77.468 107.069 75.6473 105.972 74.1716C104.875 72.6958 103.353 71.6473 101.641 71.1884C99.9289 70.7296 98.1228 70.8861 96.5026 71.6336C95.1626 70.4805 93.5013 70.8379 92.1507 72.0549C90.6234 73.4309 90.1701 74.3762 88.9856 76.6392C90.1503 76.8137 90.5506 78.3509 91.7154 78.5255Z" fill="#2F2E41"/>
<path d="M121.748 102.843C121.659 105.409 121.484 110.46 121.484 110.718C121.484 110.989 117.981 118.917 116.468 122.329V122.331C116.36 122.572 116.263 122.79 116.178 122.982C116.061 123.246 115.877 123.469 115.648 123.623C115.418 123.777 115.154 123.856 114.885 123.85L108.272 123.721C107.908 123.714 107.561 123.554 107.303 123.274C107.045 122.994 106.896 122.616 106.887 122.219L106.149 90.4145C106.147 90.3096 106.163 90.2053 106.198 90.1076C106.233 90.01 106.286 89.9209 106.353 89.8458C106.42 89.7707 106.5 89.7109 106.588 89.6701C106.677 89.6293 106.772 89.6083 106.868 89.6082H115.396C115.756 89.6084 116.109 89.7195 116.414 89.9288C116.719 90.1381 116.964 90.4372 117.121 90.7917L121.214 100.049C121.598 100.919 121.781 101.878 121.748 102.843Z" fill="#ABB956"/>
<path d="M105.584 119.181C103.794 118.094 102.185 116.733 100.817 115.146C97.6385 111.564 95.7053 107.047 95.3079 102.271C94.9533 98.1851 95.7626 95.1479 97.7134 93.2438C100.193 90.8234 103.569 91.1751 103.711 91.1913L103.862 91.2085L106.149 93.1468L105.502 93.9129L103.456 92.1785C102.829 92.1471 100.272 92.1404 98.4045 93.9706C96.6852 95.6552 95.9792 98.4187 96.306 102.184C96.6842 106.731 98.5201 111.034 101.54 114.449C102.843 115.959 104.37 117.258 106.067 118.302L105.584 119.181Z" fill="#ABB956"/>
<path d="M118.874 106.961L107.13 109.371L107.195 109.686L118.939 107.276L118.874 106.961Z" fill="#3F3D56"/>
<path d="M111.134 89.9094L110.812 89.9225L111.575 108.596L111.896 108.583L111.134 89.9094Z" fill="#3F3D56"/>
<path d="M121.747 103.362C121.642 105.65 121.434 110.154 121.434 110.383C121.434 110.626 117.298 117.695 115.51 120.737L118.842 104.774C118.97 104.159 119.295 103.585 119.781 103.108C120.268 102.631 120.899 102.269 121.61 102.06C121.722 102.487 121.768 102.925 121.747 103.362Z" fill="#3F3D56"/>
<path d="M102.54 136.931C102.748 136.66 102.895 136.345 102.971 136.009C103.046 135.674 103.047 135.326 102.975 134.99C102.903 134.654 102.759 134.338 102.553 134.064C102.348 133.79 102.085 133.566 101.784 133.406L102.262 128.051L99.1182 126.963L98.5478 134.535C98.316 135.064 98.284 135.661 98.4581 136.213C98.6322 136.764 99.0001 137.232 99.4922 137.528C99.9843 137.823 100.566 137.926 101.128 137.816C101.69 137.706 102.192 137.391 102.54 136.931Z" fill="#FFB7B7"/>
<path d="M104.002 130.076L96.787 129.83L97.0923 97.1272C97.0871 96.2018 97.3915 95.2983 97.9625 94.5443C98.5335 93.7903 99.3421 93.2241 100.274 92.9256C101.145 92.6536 102.086 92.6529 102.958 92.9234C103.946 93.2379 104.795 93.8527 105.37 94.6709C105.946 95.4891 106.215 96.4641 106.135 97.4419L104.002 130.076Z" fill="white"/>
</g>
<defs>
<linearGradient id="paint0_linear_175_3512" x1="26.6411" y1="0" x2="26.6411" y2="205" gradientUnits="userSpaceOnUse">
<stop stop-color="#CFD899"/>
<stop offset="1" stop-color="#F9FACB"/>
</linearGradient>
</defs>
</svg>
