<svg width="200" height="120" viewBox="0 0 200 120" fill="none" xmlns="http://www.w3.org/2000/svg">
<rect width="200" height="120" fill="url(#paint0_linear_193_4879)"/>
<path d="M134.036 119.695C134.036 119.695 131.672 113.864 138.766 109.49L134.036 119.695Z" fill="#C0CD9C"/>
<path d="M131.128 119.589C131.128 119.589 130.407 115.433 124.823 115.468L131.128 119.589Z" fill="#C0CD9C"/>
<path d="M184.466 119.695C184.466 119.695 181.342 111.991 190.714 106.213L184.466 119.695Z" fill="#C0CD9C"/>
<path d="M180.624 119.555C180.624 119.555 179.671 114.064 172.294 114.111Z" fill="#C0CD9C"/>
<path d="M114.419 37.5L111.429 35.5064L111.652 35.3571L114.643 37.3509L114.419 37.5Z" fill="white"/>
<path d="M111.652 37.5L111.429 37.3509L114.419 35.3571L114.643 35.5064L111.652 37.5Z" fill="white"/>
<path d="M88.6908 23.8769L88.5416 24.1685L89.4146 24.6166L89.5637 24.325L88.6908 23.8769Z" fill="white"/>
<path d="M106.991 34.2857L105.222 33.2519L105.374 32.9139L107.143 33.9478L106.991 34.2857ZM103.453 32.218L101.684 31.184L101.836 30.8461L103.605 31.8801L103.453 32.218ZM99.9157 30.1502L98.1468 29.1163L98.2986 28.7784L100.067 29.8122L99.9157 30.1502ZM96.378 28.0824L94.6091 27.0486L94.7609 26.7106L96.5298 27.7445L96.378 28.0824ZM92.8403 26.0147L91.0714 24.9808L91.2232 24.6429L92.9921 25.6767L92.8403 26.0147Z" fill="white"/>
<path d="M108.676 34.1362L108.527 34.4277L109.4 34.8759L109.549 34.5843L108.676 34.1362Z" fill="white"/>
<path d="M42.8571 45.6134C42.8571 45.7216 42.8536 45.8288 42.8467 45.9351C42.8081 46.5483 42.6557 47.1486 42.3977 47.7042C42.3957 47.709 42.3933 47.7134 42.3913 47.7178C42.3793 47.7436 42.367 47.7693 42.3543 47.7947C42.2776 47.9519 42.1924 48.1046 42.0992 48.2523C41.6737 48.9304 41.0905 49.4914 40.401 49.8858C39.7116 50.2803 38.9372 50.496 38.1463 50.514L38.194 53.3017L38.8158 52.9688L38.9269 53.1834L38.1987 53.5732L38.2877 58.7506L38.2887 58.8198L37.8079 58.9286L37.8089 58.8591L37.9603 50.5143C37.3237 50.505 36.6953 50.3672 36.1115 50.109C35.5277 49.8508 35.0001 49.4772 34.5595 49.0099C34.5292 48.9781 34.4992 48.9452 34.4698 48.9127L34.4665 48.9089C34.0994 48.5019 33.8025 48.0348 33.5883 47.5273C33.593 47.5327 33.598 47.5378 33.6027 47.5432C33.1186 46.3924 33.0858 45.0969 33.5109 43.9223C33.936 42.7477 34.7869 41.7828 35.8892 41.2255C35.9058 41.217 35.9228 41.2089 35.9395 41.2004C37.0299 40.6664 38.2777 40.5685 39.4358 40.9259C40.5939 41.2833 41.5776 42.07 42.1919 43.1301C42.2213 43.1803 42.2496 43.2315 42.277 43.283C42.6586 43.9984 42.858 44.7996 42.8571 45.6134Z" fill="#C0CD9C"/>
<path d="M41.7857 48.2143C45.3362 48.2143 48.2143 45.576 48.2143 42.3214C48.2143 39.0669 45.3362 36.4286 41.7857 36.4286C38.2353 36.4286 35.3572 39.0669 35.3572 42.3214C35.3572 45.576 38.2353 48.2143 41.7857 48.2143Z" fill="#C0CD9C"/>
<path opacity="0.2" d="M37.8428 37.5C37.3222 38.9038 37.2516 40.4752 37.6436 41.9334C38.0355 43.3917 38.8646 44.6417 39.9825 45.4603C41.1005 46.2788 42.4345 46.6124 43.7462 46.4015C45.058 46.1906 46.2619 45.449 47.1429 44.3091C46.8248 45.1667 46.3489 45.9344 45.7479 46.5589C45.1469 47.1835 44.4354 47.6499 43.6625 47.926C42.8896 48.2021 42.0739 48.2811 41.2719 48.1577C40.4698 48.0343 39.7007 47.7114 39.0177 47.2113C38.3347 46.7113 37.7541 46.046 37.3163 45.2617C36.8785 44.4773 36.5938 43.5926 36.4821 42.6688C36.3703 41.7451 36.4341 40.8044 36.6691 39.9118C36.9041 39.0193 37.3045 38.1964 37.8428 37.5Z" fill="black"/>
<path d="M42.8572 58.9286L41.7858 58.7523L41.788 58.6847L42.1091 48.4488L42.1251 47.9384L42.1255 47.9235L42.1817 46.1351L42.2629 43.543V43.5427L42.3181 41.7857H42.3476L42.4042 43.6892L42.4777 46.1667L42.5303 47.9246V47.9376L42.5326 48.0101V48.0105L42.6344 51.4372L42.645 51.7777L42.8553 58.8604L42.8572 58.9286Z" fill="#3F3D56"/>
<path d="M43.1224 50.8403L42.1193 51.3694L42.2591 51.6354L43.2622 51.1063L43.1224 50.8403Z" fill="#3F3D56"/>
<path d="M120.803 22.7636C113.144 22.3206 105.462 22.4361 97.8201 23.1093C94.137 23.435 90.3952 23.7868 86.7801 24.5729C83.8683 25.206 80.4888 26.2761 78.6745 28.7686C78.2946 29.2708 78.0385 29.8522 77.9264 30.4673C77.8142 31.0824 77.8491 31.7146 78.0282 32.3144C78.4608 33.7352 79.5369 34.9179 80.6829 35.8442C83.3207 37.9762 86.5934 39.2169 89.5168 40.9107C94.8544 44.0033 99.7394 48.1717 102.875 53.4669C104.255 55.797 105.567 58.8952 104.031 61.4627C102.526 63.9781 99.1657 64.8446 96.4256 65.2533C92.9912 65.7655 89.4535 65.6266 86.0047 65.3398C82.2237 64.9948 78.4638 64.456 74.7405 63.7256C67.4464 62.3552 60.2187 60.6121 52.8231 59.8194C49.115 59.3927 45.3756 59.2869 41.6484 59.5033C38.2823 59.7254 34.8875 60.2463 31.7253 61.4338C29.2886 62.3489 26.6912 63.7334 25.3749 66.0423C24.1062 68.268 24.601 70.8346 25.9826 72.8881C27.6448 75.3589 30.2369 77.0521 32.9318 78.2895C36.0002 79.6985 39.2822 80.6118 42.5683 81.3886C44.235 81.7825 45.9106 82.1386 47.5864 82.4929C47.936 82.5668 48.0854 82.0414 47.7345 81.9672C44.3551 81.2528 40.9659 80.536 37.6705 79.5018C34.6208 78.5447 31.5 77.3187 29.0026 75.309C26.9822 73.6831 25.0613 71.3084 25.1805 68.6083C25.3007 65.8864 27.6349 63.986 29.9227 62.8162C32.7818 61.3544 36.0301 60.6423 39.2131 60.2701C42.8576 59.8727 46.5331 59.8238 50.1874 60.124C57.5655 60.6733 64.7787 62.3177 72.0126 63.752C79.0402 65.1453 86.2872 66.4356 93.4891 66.0782C96.3437 65.9365 99.4023 65.5363 101.923 64.1266C103.077 63.4812 104.117 62.5709 104.704 61.3864C105.232 60.2593 105.399 59.0022 105.183 57.7804C104.774 55.0966 103.145 52.608 101.519 50.4703C99.7374 48.1517 97.6703 46.0567 95.3647 44.2326C92.8344 42.2402 90.1062 40.5013 87.221 39.042C85.691 38.2539 84.1393 37.496 82.6812 36.5832C81.2831 35.7079 79.904 34.6547 79.0503 33.2339C78.3119 32.0049 78.1764 30.6023 78.9455 29.3559C79.7234 28.0952 81.0637 27.216 82.3853 26.5735C85.5697 25.0255 89.2719 24.6111 92.7558 24.1865C100.237 23.2779 107.776 22.9102 115.312 23.0861C117.143 23.1283 118.974 23.2025 120.803 23.3087C121.161 23.3293 121.16 22.7842 120.803 22.7636Z" fill="black"/>
<path d="M115.927 4.38132L116.786 3.23041C116.118 3.10708 115.844 3.71675 115.732 4.19931C115.21 3.83666 114.643 4.31192 114.643 4.31192L116.362 5.35715C116.275 4.9692 116.124 4.63069 115.927 4.38132Z" fill="#3F3D56"/>
<path d="M110.14 7.59562L111.429 6.44471C110.427 6.32137 110.016 6.93104 109.848 7.4136C109.066 7.05096 108.214 7.52622 108.214 7.52622L110.793 8.57145C110.663 8.18349 110.436 7.84498 110.14 7.59562Z" fill="#3F3D56"/>
<path d="M115.927 11.2978L116.786 10.7224C116.118 10.6607 115.844 10.9655 115.732 11.2068C115.21 11.0255 114.643 11.2631 114.643 11.2631L116.362 11.7857C116.275 11.5917 116.124 11.4225 115.927 11.2978Z" fill="#3F3D56"/>
<path d="M98.6001 13.1085C100.525 13.1085 102.086 11.5451 102.086 9.61668C102.086 7.68821 100.525 6.12488 98.6001 6.12488C96.675 6.12488 95.1144 7.68821 95.1144 9.61668C95.1144 11.5451 96.675 13.1085 98.6001 13.1085Z" fill="#FF6583"/>
<path d="M109.531 20.3765H92.4309C92.4094 20.3768 92.388 20.3751 92.3669 20.3715L100.455 6.33908C100.504 6.25167 100.576 6.17895 100.662 6.12835C100.749 6.07775 100.847 6.05109 100.947 6.05109C101.048 6.05109 101.146 6.07775 101.233 6.12835C101.319 6.17895 101.391 6.25167 101.44 6.33908L106.868 15.7556L107.128 16.2061L109.531 20.3765Z" fill="#ABB956"/>
<path d="M119.051 20.3767H104.261L107.127 16.2066L107.333 15.9061L111.068 10.4717C111.134 10.3886 111.217 10.3203 111.311 10.2713C111.405 10.2223 111.508 10.1937 111.614 10.1874C111.72 10.181 111.826 10.1971 111.925 10.2345C112.025 10.272 112.115 10.3299 112.19 10.4046C112.21 10.4258 112.228 10.4482 112.244 10.4717L119.051 20.3767Z" fill="#ABB956"/>
<path d="M94.7381 52.5C96.3941 53.355 97.4023 54.4842 97.4023 55.7228C97.4023 58.3909 92.7284 60.5538 86.963 60.5538C84.4564 60.5538 82.1567 60.1446 80.3572 59.4632C82.2685 60.45 85.0431 61.0714 88.1322 61.0714C93.8976 61.0714 98.5715 58.9085 98.5715 56.2404C98.5715 54.7323 97.0776 53.3859 94.7381 52.5Z" fill="white"/>
<path d="M97.7268 53.5714C99.4802 54.6402 100.548 56.0517 100.548 57.5999C100.548 60.935 95.599 63.6387 89.4944 63.6387C86.8403 63.6387 84.4054 63.1272 82.5 62.2754C84.5238 63.509 87.4616 64.2857 90.7324 64.2857C96.8369 64.2857 101.786 61.582 101.786 58.2469C101.786 56.3618 100.204 54.6788 97.7268 53.5714Z" fill="white"/>
<path d="M93.7226 52.5C94.8916 53.1413 95.6032 53.9882 95.6032 54.9171C95.6032 56.9182 92.3041 58.5404 88.2344 58.5404C86.6488 58.5629 85.0716 58.2862 83.5714 57.7224C84.9206 58.4625 86.8791 58.9286 89.0597 58.9286C93.1294 58.9286 96.4286 57.3064 96.4286 55.3053C96.4286 54.1742 95.3741 53.1645 93.7226 52.5Z" fill="white"/>
<path d="M77.1428 52.5C77.1428 52.5 77.3991 56.7857 84.7457 56.7857C92.0923 56.7857 94.2857 52.5 94.2857 52.5H77.1428Z" fill="#3F3D56"/>
<path d="M87.2107 42.8731C86.3217 42.0392 85.2058 41.6623 84.0967 41.8214C85.0878 42.1164 85.9631 42.833 86.569 43.8455C87.1748 44.8579 87.4725 46.1014 87.4099 47.3579C87.3472 48.6143 86.9281 49.8033 86.2262 50.7163C85.5243 51.6292 84.5844 52.2078 83.5714 52.3504C84.5403 52.6392 85.5602 52.5073 86.4596 51.9769C87.3591 51.4464 88.0832 50.5498 88.5102 49.4378C88.9372 48.3257 89.0411 47.0661 88.8045 45.8706C88.5678 44.675 88.005 43.6166 87.2107 42.8731Z" fill="#3F3D56"/>
<path d="M85.7143 41.7857H84.6428V52.5H85.7143V41.7857Z" fill="#3F3D56"/>
<path d="M117.224 33.1375L117.221 33.1326L117.214 32.8245L118.929 30.4146L117.216 32.5939L117.21 32.6591L117.151 30.1958L118.632 27.6973L117.147 29.7631L117.163 24.6599L117.163 24.6429L117.162 24.6596L117.064 28.6816L115.714 27.0479L117.059 29.0281L117.03 31.2314L115.788 29.0811L117.025 31.5554L117.009 32.7805L116.964 36.1748L116.96 36.4284C117.075 36.4292 117.188 36.4274 117.3 36.4229L117.222 33.1626L117.224 33.1375Z" fill="white"/>
<path d="M109.724 34.2089L109.721 34.204L109.714 33.8959L111.429 31.486L109.716 33.6654L109.71 33.7305L109.651 31.2672L111.132 28.7687L109.647 30.8345L109.663 25.7313L109.663 25.7143L109.662 25.731L109.564 29.753L108.214 28.1193L109.559 30.0995L109.53 32.3028L108.288 30.1525L109.525 32.6268L109.509 33.8519L109.464 37.2462L109.46 37.4998C109.575 37.5007 109.688 37.4988 109.8 37.4943L109.722 34.234L109.724 34.2089Z" fill="white"/>
<path d="M113.507 31.2937L113.505 31.2893L113.5 31.0093L114.643 28.8184L113.501 30.7996L113.497 30.8588L113.458 28.6195L114.445 26.3481L113.455 28.2261L113.466 23.5869L113.466 23.5714L113.465 23.5866L113.4 27.243L112.5 25.7578L113.397 27.558L113.377 29.561L112.549 27.6061L113.374 29.8555L113.363 30.9693L113.333 34.0549L113.331 34.2855C113.407 34.2863 113.482 34.2846 113.557 34.2805L113.505 31.3166L113.507 31.2937Z" fill="white"/>
<path d="M52.5 85.7143C53.6835 85.7143 54.6429 84.7549 54.6429 83.5714C54.6429 82.388 53.6835 81.4286 52.5 81.4286C51.3166 81.4286 50.3572 82.388 50.3572 83.5714C50.3572 84.7549 51.3166 85.7143 52.5 85.7143Z" fill="#ABB956"/>
<path d="M169.286 115.75L167.076 116.786L162.857 106.528L166.119 105L169.286 115.75Z" fill="#FFB7B7"/>
<path d="M171.429 116.912L163.112 120L163.073 119.895C162.754 119.037 162.79 118.087 163.171 117.255C163.552 116.423 164.249 115.776 165.107 115.458L170.187 113.571L171.429 116.912Z" fill="#2F2E41"/>
<path d="M146.785 117.857L144.607 117.857L143.571 108.214L146.786 108.215L146.785 117.857Z" fill="#FFB7B7"/>
<path d="M146.786 120L138.214 120V119.899C138.214 119.073 138.566 118.281 139.191 117.697C139.817 117.114 140.666 116.786 141.55 116.786L146.786 116.786L146.786 120Z" fill="#2F2E41"/>
<path d="M158.495 49.8548L157.705 48.2143L150.991 51.7003L151.188 53.1357L149.905 54.8787C149.905 54.8787 147.733 56.109 148.128 60.2102L148.523 64.1063L149.016 69.1302L145.561 81.5362L143.784 97.9409L142.5 111.167L148.72 110.86L154.447 89.3284L164.517 112.5L171.429 110.654L161.95 87.688L160.765 78.0502C160.765 78.0502 161.555 72.9238 157.804 69.4378L158.396 67.5923V65.3181L160.371 54.4686L158.495 49.8548Z" fill="#2F2E41"/>
<path opacity="0.2" d="M158.417 73.0749L153.855 89.2793L154.089 89.3456L158.652 73.1412L158.417 73.0749Z" fill="black"/>
<path d="M157.5 68.5714H148.929V69.6428H157.5V68.5714Z" fill="#3F3D56"/>
<path d="M155.089 46.6338C157.767 45.1669 158.752 41.8022 157.288 39.1186C155.823 36.435 152.464 35.4488 149.785 36.9158C147.107 38.3827 146.122 41.7474 147.586 44.431C149.051 47.1146 152.41 48.1008 155.089 46.6338Z" fill="#FFB7B7"/>
<path d="M160.714 39.6429C163.673 39.6429 166.071 37.4842 166.071 34.8214C166.071 32.1586 163.673 30 160.714 30C157.756 30 155.357 32.1586 155.357 34.8214C155.357 37.4842 157.756 39.6429 160.714 39.6429Z" fill="#2F2E41"/>
<path d="M166.942 35.3571C167.133 35.9093 167.188 36.4896 167.106 37.0614C167.023 37.6331 166.804 38.1839 166.461 38.6789C166.119 39.1739 165.661 39.6025 165.117 39.9374C164.572 40.2724 163.953 40.5066 163.298 40.6251C162.644 40.7436 161.967 40.744 161.312 40.6261C160.657 40.5083 160.038 40.2747 159.493 39.9403C158.948 39.6059 158.49 39.1778 158.147 38.6832C157.804 38.1885 157.583 37.6379 157.5 37.0663C157.847 38.0689 158.619 38.9226 159.663 39.4578C160.706 39.9931 161.946 40.1707 163.135 39.9555C164.324 39.7402 165.375 39.1479 166.08 38.296C166.786 37.4442 167.093 36.3951 166.942 35.3571Z" fill="#2F2E41"/>
<path d="M147.589 40.5852C147.452 41.8736 147.716 43.1742 148.341 44.2855C148.965 45.3969 149.915 46.2569 151.042 46.7324C152.17 47.2078 153.413 47.2721 154.578 46.9154C155.744 46.5586 156.766 45.8007 157.488 44.759C158.21 43.7174 158.59 42.4501 158.571 41.1537C158.551 39.8573 158.132 38.604 157.379 37.5881C156.625 36.5723 155.58 35.8505 154.404 35.5346C153.229 35.2188 151.989 35.3265 150.876 35.8411C149.956 35.0473 148.815 35.2934 147.888 36.1311C146.839 37.0783 146.528 37.729 145.714 39.2868C146.514 39.4069 146.789 40.4651 147.589 40.5852Z" fill="#2F2E41"/>
<path d="M168.212 57.3248C168.151 59.0911 168.03 62.5679 168.03 62.7453C168.03 62.9323 165.625 68.3898 164.586 70.7386V70.7398C164.512 70.9053 164.445 71.0554 164.387 71.1876C164.306 71.3699 164.18 71.5231 164.023 71.6291C163.865 71.7351 163.683 71.7893 163.499 71.7855L158.958 71.6962C158.708 71.6915 158.47 71.5814 158.293 71.3887C158.115 71.1961 158.013 70.9358 158.007 70.6624L157.5 48.7693C157.498 48.6971 157.51 48.6253 157.534 48.5581C157.558 48.4908 157.594 48.4296 157.64 48.3778C157.686 48.3261 157.741 48.285 157.802 48.2569C157.862 48.2288 157.928 48.2143 157.994 48.2143H163.85C164.097 48.2144 164.34 48.2909 164.549 48.435C164.759 48.5791 164.927 48.7849 165.035 49.029L167.845 55.4012C168.109 56 168.235 56.6604 168.212 57.3248Z" fill="#ABB956"/>
<path d="M157.112 68.5714C155.883 67.8234 154.778 66.886 153.839 65.7936C151.656 63.3283 150.329 60.2185 150.056 56.9311C149.812 54.1184 150.368 52.0277 151.708 50.717C153.41 49.0508 155.728 49.2929 155.826 49.3041L155.93 49.3159L157.5 50.6502L157.056 51.1776L155.651 49.9836C155.221 49.962 153.465 49.9574 152.182 51.2172C151.001 52.3769 150.517 54.2792 150.741 56.8713C151.001 60.0012 152.261 62.963 154.335 65.3143C155.23 66.3534 156.278 67.2479 157.444 67.9664L157.112 68.5714Z" fill="#ABB956"/>
<path d="M166.238 60.1592L158.174 61.8184L158.218 62.0352L166.283 60.376L166.238 60.1592Z" fill="#3F3D56"/>
<path d="M160.923 48.4217L160.702 48.4307L161.226 61.2852L161.447 61.2762L160.923 48.4217Z" fill="#3F3D56"/>
<path d="M168.211 57.6821C168.139 59.2571 167.996 62.3572 167.996 62.5155C167.996 62.6822 165.156 67.5485 163.929 69.6428L166.216 58.6539C166.305 58.2311 166.527 57.8353 166.861 57.5071C167.195 57.1788 167.629 56.9299 168.117 56.7857C168.194 57.08 168.225 57.3812 168.211 57.6821Z" fill="#3F3D56"/>
<path d="M155.022 80.7902C155.165 80.6031 155.266 80.3865 155.318 80.1556C155.369 79.9247 155.37 79.6852 155.321 79.4538C155.271 79.2224 155.172 79.0048 155.031 78.8164C154.89 78.628 154.709 78.4734 154.503 78.3633L154.831 74.6774L152.672 73.9286L152.28 79.1404C152.121 79.5049 152.099 79.9159 152.219 80.2956C152.338 80.6754 152.591 80.9974 152.929 81.2008C153.267 81.4041 153.667 81.4747 154.052 81.399C154.438 81.3233 154.783 81.1067 155.022 80.7902Z" fill="#FFB7B7"/>
<path d="M156.026 76.0714L151.071 75.9021L151.281 53.3902C151.277 52.7532 151.487 52.1312 151.879 51.6122C152.271 51.0932 152.826 50.7034 153.466 50.4979C154.064 50.3107 154.71 50.3102 155.309 50.4964C155.987 50.7129 156.57 51.1361 156.965 51.6993C157.36 52.2626 157.545 52.9337 157.491 53.6068L156.026 76.0714Z" fill="white"/>
<defs>
<linearGradient id="paint0_linear_193_4879" x1="100" y1="0" x2="100" y2="120" gradientUnits="userSpaceOnUse">
<stop stop-color="#CFD899"/>
<stop offset="1" stop-color="#F9FACB"/>
</linearGradient>
</defs>
</svg>
