<svg width="208" height="218" viewBox="0 0 208 218" fill="none" xmlns="http://www.w3.org/2000/svg">
<g clip-path="url(#clip0_159_3210)">
<path d="M80.4614 218C124.899 218 160.923 211.626 160.923 203.763C160.923 195.9 124.899 189.525 80.4614 189.525C36.0238 189.525 0 195.9 0 203.763C0 211.626 36.0238 218 80.4614 218Z" fill="#3D4956"/>
<path d="M129.364 157.524C172.794 157.524 208 122.261 208 78.7621C208 35.263 172.794 0 129.364 0C85.9349 0 50.7285 35.263 50.7285 78.7621C50.7285 122.261 85.9349 157.524 129.364 157.524Z" fill="#3D4956"/>
<path opacity="0.05" d="M129.364 143.783C165.216 143.783 194.28 114.672 194.28 78.7621C194.28 42.8522 165.216 13.7415 129.364 13.7415C93.5118 13.7415 64.4478 42.8522 64.4478 78.7621C64.4478 114.672 93.5118 143.783 129.364 143.783Z" fill="black"/>
<path opacity="0.05" d="M129.364 132.052C158.748 132.052 182.569 108.193 182.569 78.7621C182.569 49.3308 158.748 25.472 129.364 25.472C99.9802 25.472 76.1597 49.3308 76.1597 78.7621C76.1597 108.193 99.9802 132.052 129.364 132.052Z" fill="black"/>
<path opacity="0.05" d="M129.364 116.97C150.432 116.97 167.511 99.8638 167.511 78.7621C167.511 57.6604 150.432 40.5541 129.364 40.5541C108.297 40.5541 91.2178 57.6604 91.2178 78.7621C91.2178 99.8638 108.297 116.97 129.364 116.97Z" fill="black"/>
<path d="M51.4252 85.8108C51.4252 85.8108 45.2429 103.241 47.9906 109.433C50.7383 115.625 55.0888 121.588 55.0888 121.588C55.0888 121.588 53.486 86.9575 51.4252 85.8108Z" fill="#D0CDE1"/>
<path opacity="0.1" d="M51.4252 85.8108C51.4252 85.8108 45.2429 103.241 47.9906 109.433C50.7383 115.625 55.0888 121.588 55.0888 121.588C55.0888 121.588 53.486 86.9575 51.4252 85.8108Z" fill="black"/>
<path d="M55.7754 126.175C55.7754 126.175 55.3175 130.533 55.0885 130.762C54.8595 130.992 55.3175 131.45 55.0885 132.138C54.8595 132.826 54.6305 133.744 55.0885 133.973C55.5464 134.202 52.5698 154.385 52.5698 154.385C52.5698 154.385 45.2425 164.017 48.2192 179.154L49.1351 194.52C49.1351 194.52 56.2334 194.978 56.2334 192.456C56.2334 192.456 55.7754 189.474 55.7754 188.098C55.7754 186.722 56.9203 186.722 56.2334 186.034C55.5464 185.346 55.5464 184.887 55.5464 184.887C55.5464 184.887 56.6913 183.97 56.4624 183.741C56.2334 183.511 58.5231 167.228 58.5231 167.228C58.5231 167.228 61.0419 164.705 61.0419 163.329V161.953C61.0419 161.953 62.1867 158.971 62.1867 158.742C62.1867 158.513 68.3691 144.523 68.3691 144.523L70.8878 154.614L73.6355 169.063C73.6355 169.063 75.0094 182.135 77.7571 187.181C77.7571 187.181 82.5656 203.694 82.5656 203.235C82.5656 202.776 90.5797 201.629 90.3507 199.565C90.1218 197.501 85.5423 168.604 85.5423 168.604L86.6871 125.717L55.7754 126.175Z" fill="#2F2E41"/>
<path d="M49.5933 193.373C49.5933 193.373 43.4109 205.528 47.5325 205.987C51.6541 206.446 53.2569 206.446 55.0887 204.611C56.0902 203.608 58.1182 202.262 59.751 201.248C60.7184 200.657 61.5 199.805 62.006 198.789C62.512 197.773 62.722 196.635 62.6118 195.506C62.4911 194.384 62.0725 193.459 61.0421 193.373C58.2944 193.144 55.0887 190.621 55.0887 190.621L49.5933 193.373Z" fill="#2F2E41"/>
<path d="M83.7105 202.317C83.7105 202.317 77.5281 214.473 81.6497 214.931C85.7713 215.39 87.3741 215.39 89.2059 213.555C90.2073 212.552 92.2353 211.206 93.8681 210.192C94.8356 209.601 95.6172 208.749 96.1232 207.733C96.6292 206.718 96.8392 205.58 96.729 204.45C96.6083 203.328 96.1897 202.403 95.1593 202.317C92.4116 202.088 89.2059 199.565 89.2059 199.565L83.7105 202.317Z" fill="#2F2E41"/>
<path d="M77.1765 65.9191C82.4924 65.9191 86.8018 61.6028 86.8018 56.2784C86.8018 50.9539 82.4924 46.6376 77.1765 46.6376C71.8606 46.6376 67.5513 50.9539 67.5513 56.2784C67.5513 61.6028 71.8606 65.9191 77.1765 65.9191Z" fill="#FFB8B8"/>
<path d="M70.9887 59.446C70.9887 59.446 64.1135 72.1167 63.5635 72.1167C63.0134 72.1167 75.9388 76.2485 75.9388 76.2485C75.9388 76.2485 79.5139 64.1287 80.0639 63.0269L70.9887 59.446Z" fill="#FFB8B8"/>
<path d="M81.5355 73.3116C81.5355 73.3116 67.7969 65.7432 66.4231 65.9726C65.0492 66.2019 50.3948 79.0452 50.6237 84.3201C50.8527 89.595 52.6845 98.3101 52.6845 98.3101C52.6845 98.3101 53.3715 122.62 54.7453 122.85C56.1192 123.079 54.5163 127.207 54.9743 127.207C55.4322 127.207 87.0309 127.207 87.2599 126.519C87.4888 125.831 81.5355 73.3116 81.5355 73.3116Z" fill="#D0CDE1"/>
<path d="M89.206 127.781C89.206 127.781 93.5565 141.083 89.8929 140.624C86.2293 140.165 84.6265 129.157 84.6265 129.157L89.206 127.781Z" fill="#FFB8B8"/>
<path d="M77.5282 72.5089C77.5282 72.5089 69.0561 74.3436 70.43 85.8108C71.8038 97.278 74.3226 108.745 74.3226 108.745L82.7947 127.322L83.7106 130.762L89.8929 129.157L85.3134 102.553C85.3134 102.553 83.7106 74.1143 81.6498 73.1969C80.3503 72.642 78.9372 72.4061 77.5282 72.5089Z" fill="#D0CDE1"/>
<path opacity="0.1" d="M72.376 108.401L82.909 127.207L74.0348 107.391L72.376 108.401Z" fill="black"/>
<path d="M86.7589 53.4396L86.7907 52.7029L88.2539 53.0677C88.2382 52.8312 88.1715 52.6009 88.0583 52.3927C87.9451 52.1846 87.7882 52.0035 87.5983 51.862L89.1569 51.7748C87.849 49.9133 86.1781 48.3366 84.2449 47.14C82.3118 45.9433 80.1565 45.1516 77.9093 44.8125C74.5381 44.3231 70.7843 45.0313 68.4725 47.5373C67.3512 48.7528 66.6467 50.2986 66.1455 51.8756C65.2224 54.78 65.0343 58.2423 66.9591 60.6032C68.9154 63.0027 72.3324 63.4727 75.4111 63.7697C76.4943 63.8742 77.6295 63.9714 78.6333 63.5505C78.745 62.3972 78.5976 61.2335 78.202 60.1448C78.0372 59.8077 77.9584 59.435 77.9728 59.06C78.1096 58.1427 79.3313 57.9115 80.249 58.0355C81.1668 58.1594 82.2703 58.349 82.8734 57.6451C83.2887 57.1602 83.2642 56.4541 83.3193 55.8176C83.4691 54.0846 86.7432 53.8029 86.7589 53.4396Z" fill="#2F2E41"/>
<path d="M145.796 205.722C151.99 205.722 157.011 200.693 157.011 194.489C157.011 188.285 151.99 183.256 145.796 183.256C139.602 183.256 134.581 188.285 134.581 194.489C134.581 200.693 139.602 205.722 145.796 205.722Z" fill="#3E8C97"/>
<path d="M14.0842 201.803C20.2781 201.803 25.2992 196.774 25.2992 190.57C25.2992 184.367 20.2781 179.337 14.0842 179.337C7.89029 179.337 2.86914 184.367 2.86914 190.57C2.86914 196.774 7.89029 201.803 14.0842 201.803Z" fill="#3E8C97"/>
<path d="M14.0838 183.778C18.5492 183.778 22.1691 180.153 22.1691 175.68C22.1691 171.207 18.5492 167.582 14.0838 167.582C9.61843 167.582 5.99854 171.207 5.99854 175.68C5.99854 180.153 9.61843 183.778 14.0838 183.778Z" fill="#3E8C97"/>
<path d="M14.0841 168.888C17.2531 168.888 19.8221 166.315 19.8221 163.141C19.8221 159.967 17.2531 157.394 14.0841 157.394C10.9152 157.394 8.34619 159.967 8.34619 163.141C8.34619 166.315 10.9152 168.888 14.0841 168.888Z" fill="#3E8C97"/>
</g>
<defs>
<clipPath id="clip0_159_3210">
<rect width="208" height="218" fill="white"/>
</clipPath>
</defs>
</svg>
