<svg width="201" height="120" viewBox="0 0 201 120" fill="none" xmlns="http://www.w3.org/2000/svg">
<rect x="0.203308" width="200" height="120" fill="url(#paint0_linear_219_4936)"/>
<path opacity="0.1" d="M122.399 111.257C144.019 111.257 161.546 109.489 161.546 107.307C161.546 105.125 144.019 103.356 122.399 103.356C100.778 103.356 83.2512 105.125 83.2512 107.307C83.2512 109.489 100.778 111.257 122.399 111.257Z" fill="#796EEC"/>
<path opacity="0.1" d="M110.962 26.4793C102.029 26.2198 93.5201 23.8174 85.3963 21.1879C77.2724 18.5584 69.2233 15.6483 60.5037 14.255C54.895 13.3594 48.4824 13.2321 43.9631 15.7381C39.6157 18.148 38.2098 22.3105 37.4545 26.1712C36.8862 29.0763 36.5521 32.1349 38.1089 34.8541C39.1907 36.7427 41.1101 38.3293 42.4375 40.138C47.0578 46.4323 43.7923 54.1922 38.7856 60.3368C36.4375 63.2195 33.7141 65.9699 31.9019 69.0385C30.0897 72.107 29.2534 75.6258 30.8375 78.753C32.4092 81.8552 36.1533 84.1853 40.2102 85.8244C48.4488 89.1536 58.158 90.1066 67.6305 90.6455C88.5808 91.8417 109.644 91.3228 130.662 90.8052C138.438 90.6143 146.242 90.4197 153.898 89.4181C158.146 88.8617 162.532 87.9786 165.614 85.8468C169.53 83.14 170.5 78.5584 167.876 75.1643C163.477 69.4725 151.309 68.0543 148.233 61.9509C146.541 58.5892 148.28 54.8408 150.74 51.7224C156.017 45.034 164.864 39.1651 165.33 31.5149C165.65 26.2635 161.398 21.0045 154.822 18.5198C147.929 15.9152 138.37 16.2433 133.286 20.5542C128.051 24.9999 118.85 26.7075 110.962 26.4793Z" fill="#796EEC"/>
<path opacity="0.5" d="M51.4762 90.0954C50.4891 89.6551 51.3242 84.8714 53.4704 77.4969C54.8414 72.7656 56.7584 66.9678 59.0791 60.5688C59.2461 60.1097 59.4156 59.6495 59.5851 59.1842C59.7763 58.6628 59.9699 58.1372 60.166 57.6075L60.1834 57.5639C60.2108 57.4878 60.2395 57.4129 60.2669 57.3381C61.0097 55.3423 61.7862 53.3003 62.5964 51.2122C62.6113 51.1698 62.6275 51.1286 62.6437 51.0875L62.6849 50.9815C62.8793 50.4825 63.0762 49.9836 63.2744 49.4759C63.2956 49.4235 63.3155 49.3686 63.3367 49.3162C63.3654 49.2426 63.3941 49.1715 63.4215 49.0992C63.4315 49.0767 63.4389 49.053 63.4489 49.0331C63.4651 48.9894 63.4826 48.947 63.4988 48.9083C63.6982 48.4094 63.8964 47.9042 64.0945 47.4115C64.4186 46.6048 64.7401 45.8061 65.0592 45.0153C65.1149 44.8764 65.171 44.7392 65.2275 44.6036C65.3878 44.2053 65.5486 43.8099 65.7098 43.4174C65.7721 43.2677 65.8345 43.1168 65.8943 42.9683C65.9417 42.8548 65.9878 42.74 66.0339 42.6278C66.5399 41.4029 67.0426 40.2016 67.542 39.0241C67.5432 39.0201 67.5432 39.0157 67.542 39.0116C69.4427 34.5298 71.2811 30.4147 72.9886 26.8173C72.9986 26.7986 73.0061 26.7786 73.0161 26.7599L73.1968 26.3782C77.579 17.1838 81.0265 11.5095 82.1919 12.0334C83.3909 12.5673 81.8977 19.5351 78.626 29.7786C78.5836 29.9145 78.54 30.048 78.4951 30.184C78.4883 30.2106 78.48 30.2369 78.4702 30.2626C78.304 30.7931 78.1291 31.3336 77.9455 31.8841C77.9355 31.9166 77.9243 31.949 77.9131 31.9814C77.4976 33.2538 77.0556 34.5677 76.5869 35.9231C76.5234 36.1053 76.4623 36.2911 76.395 36.4757C75.6721 38.5701 74.8993 40.7505 74.0705 42.9983C74.0206 43.1367 73.9695 43.2739 73.9184 43.4136C73.0896 45.6651 72.2159 47.9828 71.3011 50.3478C71.2425 50.4975 71.1839 50.6484 71.1266 50.7993C71.1141 50.8318 71.1016 50.863 71.0879 50.8954C70.8594 51.4816 70.6297 52.0704 70.3987 52.6617C70.3326 52.8263 70.274 52.991 70.2042 53.1544C70.0397 53.5723 69.8752 53.9901 69.7057 54.4018C69.692 54.4392 69.677 54.4766 69.6621 54.5128C69.6471 54.5489 69.6384 54.5714 69.6259 54.6001C69.5985 54.6724 69.5698 54.7435 69.5412 54.8146C69.4639 55.008 69.3879 55.2013 69.3106 55.3922C69.1772 55.7265 69.0439 56.057 68.9105 56.3901L68.8694 56.4899C68.8697 56.4944 68.8697 56.499 68.8694 56.5036C68.3276 57.8433 67.7875 59.1601 67.2491 60.454C67.068 60.8906 66.8872 61.3243 66.7069 61.755C66.5736 62.0731 66.4414 62.3899 66.3081 62.703C65.3185 65.0444 64.3463 67.2859 63.399 69.4102C57.6707 82.2369 52.8896 90.7266 51.4762 90.0954Z" fill="#796EEC"/>
<path opacity="0.5" d="M53.8157 81.1904C53.2074 80.9285 53.9627 77.5256 55.6752 72.2392C56.7721 68.8489 58.264 64.6826 60.0375 60.0748L60.4252 59.0769C60.5706 58.7019 60.7185 58.3235 60.8689 57.9418C60.8736 57.9312 60.8777 57.9204 60.8813 57.9094L60.9462 57.7472C61.512 56.3061 62.1024 54.8342 62.7173 53.3315C62.7285 53.3003 62.7409 53.2717 62.7534 53.2417C62.7659 53.2118 62.7733 53.1906 62.7846 53.1656C62.9316 52.8039 63.0799 52.4434 63.2295 52.0792L63.2781 51.9632L63.3417 51.8072C63.3492 51.791 63.3554 51.7736 63.3616 51.7586C63.3679 51.7436 63.3878 51.6975 63.4003 51.6675C63.5515 51.3033 63.7015 50.942 63.8502 50.5836C64.0945 50.0015 64.3367 49.4248 64.5768 48.8535L64.7015 48.5566C64.8261 48.2684 64.9433 47.984 65.0642 47.6996L65.2025 47.3753C65.2387 47.293 65.2723 47.2107 65.3072 47.1258C65.6869 46.2419 66.0638 45.3737 66.4377 44.5213C66.4384 44.5185 66.4384 44.5155 66.4377 44.5126C67.8585 41.2694 69.2246 38.2932 70.4784 35.6849C70.4859 35.6712 70.4921 35.6562 70.4996 35.6425L70.6317 35.3656C73.8548 28.6959 76.3177 24.5459 77.0356 24.8565C77.7747 25.1758 76.4959 30.1441 73.9321 37.4986L73.8299 37.7905C73.8237 37.8092 73.8175 37.8279 73.81 37.8466C73.677 38.2275 73.5403 38.6146 73.3999 39.0079L73.375 39.0778C73.0484 39.9925 72.7049 40.9368 72.3442 41.9106C72.2956 42.0428 72.247 42.1763 72.1959 42.3085C71.6376 43.8141 71.0405 45.3845 70.4099 47.0036L70.294 47.3017C69.6608 48.9233 68.9961 50.589 68.2998 52.2987C68.2561 52.4072 68.2125 52.5157 68.1676 52.6243C68.1577 52.648 68.1477 52.6704 68.139 52.6941L67.6167 53.9677L67.4697 54.3232C67.345 54.6251 67.2204 54.9269 67.0958 55.225C67.0858 55.2525 67.0746 55.2787 67.0634 55.3049C67.0521 55.3311 67.0459 55.3473 67.0359 55.3685L66.9724 55.5219C66.9138 55.6616 66.8565 55.8013 66.7979 55.9398L66.505 56.6658L66.4738 56.7381V56.7481C66.065 57.7161 65.6595 58.667 65.2574 59.6008C65.1219 59.9168 64.9861 60.2303 64.8498 60.5414C64.7501 60.7725 64.6504 61.0012 64.5507 61.2274C63.8103 62.9189 63.0862 64.5417 62.3832 66.0785C58.1269 75.3764 54.6869 81.5671 53.8157 81.1904Z" fill="#796EEC"/>
<path d="M93.9139 55.9498C93.9139 55.6018 93.5737 55.7814 93.5263 55.7963C93.3896 55.684 93.2408 55.5874 93.0826 55.5082C92.3235 55.1128 91.1769 54.872 90.2633 54.7311C90.2601 54.7299 90.2565 54.7299 90.2533 54.7311C89.4482 54.6063 88.8275 54.5639 88.8275 54.5639L88.3526 54.5702H88.1756C88.2378 54.4778 88.329 54.4088 88.4349 54.3743C88.567 54.3581 87.8765 54.307 87.5487 54.2845H87.535L87.3829 54.2745C86.6625 54.4442 85.3127 53.5174 85.3127 53.5174L85.1557 52.7266C85.6891 52.149 85.6118 50.7058 85.6118 50.7058C85.6118 50.7058 85.6567 50.2218 86.1104 49.5557C86.5641 48.8896 86.0343 48.468 86.0343 48.468L86.8183 47.631C86.7846 47.4867 86.7798 47.3371 86.8042 47.1908C86.8286 47.0446 86.8817 46.9047 86.9604 46.7791C87.0082 46.7081 87.0677 46.6457 87.1361 46.5945V46.5882L87.1486 46.577C87.6609 46.1841 88.0934 44.8194 88.0934 44.8194C88.0934 44.8194 87.9936 44.5762 88.5545 43.9163V43.9089C88.6293 43.8215 88.7165 43.728 88.8175 43.6232C88.8175 43.6145 88.8325 43.607 88.8399 43.5983C89.7398 42.6952 89.3859 42.1962 89.3859 42.1962L88.2928 40.8665C88.5508 40.4349 86.4793 37.3377 86.4793 37.3377C86.4793 37.3377 86.2151 36.7003 86.3646 36.0903C86.4065 35.9466 86.4108 35.7946 86.3771 35.6487C86.3574 35.5664 86.3171 35.4904 86.2599 35.428C86.2248 35.3903 86.1824 35.3602 86.1353 35.3394L86.0605 35.3332L86.149 35.2683C86.1852 35.2446 86.2201 35.2184 86.2562 35.1934C86.3335 35.2234 86.4108 35.2496 86.4893 35.2733C87.25 35.5192 88.0604 35.5698 88.8457 35.4202C89.6311 35.2707 90.3663 34.9259 90.9837 34.4176C91.0149 34.3939 91.0448 34.3677 91.0734 34.3415C91.1021 34.3153 91.152 34.2741 91.1906 34.238C91.208 34.2217 91.2255 34.2068 91.2405 34.1906C91.2554 34.1743 91.299 34.1332 91.3277 34.1032C91.3364 34.1307 91.3451 34.1569 91.3551 34.1843C91.3942 34.2949 91.4413 34.4024 91.496 34.5061C91.5006 34.5157 91.506 34.5249 91.5122 34.5336C91.5118 34.5373 91.5118 34.5411 91.5122 34.5448C91.5209 34.5635 91.5321 34.581 91.5421 34.5984C91.6131 34.7173 91.6994 34.8264 91.7988 34.9228C91.8231 34.9468 91.8489 34.9693 91.8761 34.9901C91.9149 35.0233 91.9566 35.053 92.0007 35.0787C92.0073 35.0844 92.0144 35.0894 92.0219 35.0937C92.0293 35.0994 92.0373 35.1044 92.0456 35.1086C92.078 35.0512 92.1092 34.9926 92.1391 34.934C92.4038 34.4173 92.5579 33.8509 92.5915 33.2712C92.593 33.2007 92.5988 33.1303 92.609 33.0604C92.6157 33.0071 92.6313 32.9552 92.6551 32.907C92.7012 32.8122 92.7757 32.7341 92.8682 32.6837C93.0177 32.6076 93.1748 32.5474 93.3368 32.5041L93.3755 32.4904L93.4228 32.4742L93.5151 32.438L93.53 32.4305C93.5575 32.4193 93.5824 32.4056 93.6086 32.3931C93.6164 32.3874 93.6248 32.3824 93.6335 32.3781C93.6633 32.3615 93.6917 32.3423 93.7182 32.3207L93.7307 32.3108C93.7549 32.2924 93.7774 32.2719 93.798 32.2496C93.808 32.2397 93.8142 32.2272 93.8242 32.2172C93.838 32.2021 93.8505 32.1858 93.8616 32.1686L93.8915 32.1249C93.8979 32.1111 93.9054 32.0977 93.9139 32.085C94.0093 31.8916 94.0523 31.6765 94.0386 31.4613C94.0211 31.152 93.9301 30.8526 93.9339 30.542C93.9451 29.7998 94.4798 29.0913 94.4324 28.3541C94.39 27.7154 93.9202 27.219 93.4353 26.8223C92.9505 26.4256 92.412 26.0552 92.1466 25.4876C91.9484 25.0623 91.921 24.5671 91.7427 24.133C91.3688 23.2236 90.272 22.711 89.2812 22.9816C88.6879 23.1451 88.1719 23.538 87.5948 23.7563C87.2134 23.8997 86.8133 23.9646 86.4332 24.1105C85.9842 24.2842 85.5818 24.56 85.2579 24.9163C85.2005 24.9787 85.1469 25.0411 85.0946 25.1109L85.046 25.177C85.0098 25.2269 84.9737 25.2768 84.9413 25.3292C84.9263 25.3517 84.9126 25.3729 84.8989 25.3966C84.8535 25.4688 84.8119 25.5433 84.7743 25.6198C84.7381 25.6909 84.707 25.7633 84.6758 25.8369C84.5026 26.256 84.3954 26.7026 84.1872 27.1017C84.1411 27.1926 84.0886 27.2802 84.0302 27.3637C83.9492 27.4797 83.8557 27.5882 83.7635 27.698C83.7385 27.7279 83.7136 27.7578 83.6887 27.7853C83.6785 27.7999 83.6673 27.8136 83.655 27.8265C83.6376 27.8502 83.6176 27.8726 83.5989 27.8963C83.5802 27.92 83.5765 27.925 83.5665 27.9387C83.5566 27.9524 83.5291 27.9899 83.5129 28.0161C83.4967 28.0422 83.4942 28.0398 83.4855 28.0535C83.4606 28.0921 83.4382 28.1321 83.4157 28.172V28.1807C83.3459 28.315 83.3076 28.4635 83.3035 28.6148C83.3021 28.6897 83.313 28.7643 83.336 28.8356C83.3419 28.8539 83.349 28.8718 83.3571 28.8892C83.3759 28.9293 83.4007 28.9664 83.4307 28.999C83.4157 29.0401 83.3983 29.0826 83.3846 29.1237C83.3522 29.2185 83.3222 29.3158 83.2948 29.4119C83.2774 29.478 83.2637 29.5366 83.2487 29.6052C83.1906 29.8578 83.1535 30.1148 83.1378 30.3736L83.058 30.4148C82.9177 30.4845 82.7732 30.5457 82.6255 30.5981H82.6106C82.4859 30.6256 81.6259 30.8052 81.3243 30.7528L80.2487 30.5644C80.2487 30.5644 79.9994 30.4609 79.7265 30.3299C79.5205 30.2398 79.3283 30.121 79.1556 29.9769C78.95 29.7549 77.5279 28.8393 77.2287 28.8406C77.1066 28.8215 76.9953 28.7596 76.9146 28.6659C76.8243 28.5553 76.741 28.4391 76.6654 28.3179C76.6654 28.3179 76.6367 28.3029 76.5918 28.2755C76.5357 28.1969 76.5008 28.1383 76.5008 28.1383C76.5008 28.1383 76.0783 27.9063 75.6483 27.6393L75.4651 28.0136C75.4551 28.0323 75.4464 28.0522 75.4364 28.0722C73.7015 31.6522 71.8045 35.7398 69.8278 40.1792C69.8285 40.1833 69.8285 40.1876 69.8278 40.1917C69.3068 41.3559 68.7812 42.5455 68.2511 43.7604L68.1053 44.0972L67.9108 44.5413L67.4036 45.7138L67.2266 46.1217C66.8901 46.9026 66.551 47.6926 66.2095 48.4917C66.0001 48.9815 65.7899 49.4759 65.5789 49.9748C65.5627 50.016 65.544 50.0584 65.5265 50.0996C65.5165 50.1208 65.5078 50.1432 65.4979 50.1657C65.4692 50.2368 65.438 50.3079 65.4081 50.3802C65.3857 50.4314 65.3632 50.4863 65.3408 50.5374C65.1314 51.0364 64.9233 51.5353 64.7176 52.0243L64.6229 52.0729L64.674 52.1291C64.6566 52.1702 64.6391 52.2101 64.6229 52.2538C63.7629 54.3095 62.932 56.324 62.1302 58.2973L62.0404 58.5194L62.0217 58.563C61.8107 59.0844 61.6029 59.6021 61.3985 60.116C61.2157 60.575 61.0342 61.0299 60.8539 61.4806C58.3474 67.7824 56.2273 73.4716 54.6507 78.0969C54.5759 78.1481 54.4961 78.2067 54.4151 78.2728C54.4961 78.2117 54.5746 78.1481 54.6469 78.1044C54.7093 78.0618 54.7742 78.023 54.8414 77.9884C54.9881 77.9104 55.1228 77.8117 55.2414 77.6953C55.295 77.6454 55.3474 77.5942 55.3985 77.5406C55.6909 77.2127 55.956 76.8614 56.1912 76.4903C56.2291 76.4453 56.2708 76.4035 56.3158 76.3656L56.3819 76.3057L56.3918 76.297C56.428 76.2658 56.4666 76.2308 56.5103 76.1947L56.5177 76.1884L56.5825 76.1348L56.59 76.1286L56.6598 76.0699C56.8729 75.8953 57.1334 75.6895 57.3815 75.4949L57.4712 75.4263L57.7741 75.1918L57.9236 75.0783L58.2539 74.8288C58.257 74.8236 58.2603 74.8186 58.2639 74.8138C58.2938 74.7752 58.3624 74.6891 58.4583 74.5706C58.4601 74.5678 58.4627 74.5656 58.4658 74.5643C58.4771 74.5488 58.4892 74.5338 58.502 74.5194C58.6341 74.3648 58.8061 74.1714 59.0005 73.9793C59.0242 73.9569 59.0479 73.9319 59.074 73.9095L59.1451 73.8409L59.261 73.7373C59.375 73.636 59.4948 73.5414 59.62 73.4542C59.7801 73.3386 59.9332 73.2136 60.0786 73.08L60.1098 73.0525C60.131 73.0313 60.1547 73.0089 60.1796 72.9877C60.1975 72.9724 60.2146 72.9562 60.2307 72.939L60.2843 72.8891L60.3728 72.8056L60.4289 72.7519L60.561 72.6272L60.7093 72.48L60.7317 72.4575C60.8077 72.3802 60.885 72.3016 60.9635 72.2243L61.0545 72.132C61.0919 72.0933 61.1293 72.0534 61.1667 72.016C61.2303 71.9523 61.2913 71.8912 61.3562 71.8226L61.4945 71.6779C61.5394 71.6293 61.5842 71.5844 61.6266 71.5395C61.6952 71.4684 61.76 71.401 61.821 71.3349L61.8348 71.3199L61.993 71.1528C61.993 71.1528 61.993 71.1528 62.0005 71.144C62.0392 71.1054 62.0728 71.0692 62.1052 71.033L62.1364 70.9994C62.1675 70.9694 62.195 70.9382 62.2186 70.9133C62.3121 70.8147 62.3657 70.7561 62.3657 70.7561L63.4875 69.4776L64.6304 68.1416L64.6815 68.0842C64.6815 68.0842 64.9731 67.6452 65.271 67.2822L65.3109 67.2335C65.4126 67.1058 65.5265 66.9884 65.6512 66.883C65.7516 66.7988 65.8438 66.7052 65.9266 66.6036C65.9328 66.6036 65.9378 66.5899 65.9453 66.5824C66.2818 66.1882 66.7168 65.5758 66.8564 65.3749L66.9025 65.3101C67.0184 65.2137 67.1252 65.1068 67.2216 64.9907C67.3386 64.8551 67.4329 64.7013 67.5008 64.5355C67.5665 64.3865 67.6502 64.2462 67.75 64.1176C67.7506 64.1155 67.7506 64.1134 67.75 64.1113L67.77 64.0839L67.841 63.9916C67.9291 64.0086 68.0182 64.0195 68.1078 64.024C68.5173 64.0397 68.9267 63.9874 69.3192 63.8694C69.3307 63.8664 69.3419 63.8626 69.3529 63.8581C69.4551 63.8344 69.5324 63.812 69.5735 63.7995L69.6096 63.7883L70.3836 62.6532L70.4023 62.627C70.4023 62.627 70.8111 62.239 71.2025 61.8237C71.2449 61.7788 71.286 61.7338 71.3271 61.6902C71.6063 61.3883 71.8531 61.0915 71.9017 60.9343C72.0264 60.5414 72.7131 59.743 72.7131 59.743C72.7131 59.743 73.8909 58.2362 74.3508 57.6674C74.3695 57.6437 74.3882 57.62 74.4044 57.6013L74.4668 57.5252C74.4808 57.535 74.4942 57.5459 74.5066 57.5576C74.5413 57.592 74.5726 57.6296 74.6001 57.6699C74.6026 57.6751 74.6055 57.6801 74.6088 57.6849L74.6475 57.63C74.6737 57.5951 74.7098 57.5414 74.7584 57.4753C74.7959 57.5106 74.829 57.5504 74.8569 57.5938L74.8681 57.61C74.8681 57.61 77.473 54.0101 77.8793 52.9947C77.973 52.7829 78.0905 52.5825 78.2296 52.3972C78.7618 51.66 79.6591 50.8093 80.0804 50.4239L80.2051 50.3129C80.2699 50.253 80.3085 50.2206 80.3085 50.2206L80.3534 50.3179C80.3534 50.3254 80.3534 50.3328 80.3621 50.3416C80.4693 50.5848 80.6862 51.1237 80.5702 51.2721C80.4219 51.4667 80.0243 53.4313 80.0243 53.4313C80.0243 53.4313 79.4822 54.2945 79.8336 55.6205C80.1851 56.9464 81.6533 57.4092 81.9811 57.3818C82.1918 57.363 84.0339 58.1302 85.3389 58.6927L85.6604 58.8312L85.9845 58.9697L86.4893 59.1905L86.5179 59.2029C86.5591 59.2229 86.6015 59.2416 86.6426 59.2578L86.6688 59.2229L86.6812 59.2042L86.8059 59.2628L86.6812 59.1917C86.7323 59.1194 86.8208 58.9884 86.9305 58.81C86.9359 58.7977 86.9426 58.786 86.9504 58.7751L86.9853 58.7164L87.0439 58.6167C87.0501 58.6029 87.0576 58.5917 87.0639 58.5805L87.1237 58.4732C87.1275 58.4681 87.1308 58.4627 87.1337 58.457C87.2159 58.3073 87.3019 58.1402 87.3829 57.958C87.3954 57.9343 87.4079 57.9082 87.4191 57.8832L87.7406 57.8558L87.9625 57.8371L88.0871 57.8271L88.2492 57.8109L88.3252 57.8258L91.3963 58.0479L91.6206 58.0653C91.9131 58.091 92.2077 58.0553 92.4856 57.9605C92.7635 57.8657 93.0185 57.7139 93.2344 57.5147C93.4503 57.3156 93.6222 57.0735 93.7392 56.804C93.8562 56.5346 93.9157 56.2436 93.9139 55.9498Z" fill="url(#paint1_linear_219_4936)"/>
<path d="M86.3946 59.3326C86.3946 59.3326 88.7303 56.1643 87.1337 54.4105L83.346 55.5618L83.5454 56.9526C83.5454 56.9526 85.1869 58.8499 86.3946 59.3326Z" fill="#65617D"/>
<path opacity="0.1" d="M83.346 55.5618L83.5454 56.9526C83.5454 56.9526 84.7046 58.2873 85.7889 59.0033C85.9809 59.1326 86.185 59.2429 86.3984 59.3326C86.3984 59.3326 86.4121 59.3164 86.4358 59.2815C86.4385 59.2775 86.441 59.2733 86.4432 59.269C86.7257 58.8593 86.9725 58.4261 87.1811 57.9742C87.2584 57.8033 87.3344 57.62 87.4042 57.4341C87.6535 56.7243 87.808 55.921 87.5912 55.21C87.513 54.9467 87.3824 54.7019 87.2073 54.4903C87.1923 54.4728 87.1774 54.4541 87.1599 54.4367C87.1532 54.4273 87.1457 54.4186 87.1375 54.4105L87.054 54.4354L85.7727 54.8246L83.346 55.5618Z" fill="black"/>
<path d="M67.5333 45.8398L67.2155 46.123L67.3924 45.7151L67.5333 45.8398Z" fill="#65617D"/>
<path opacity="0.1" d="M67.5333 45.8398L67.2155 46.123L67.3924 45.7151L67.5333 45.8398Z" fill="black"/>
<path d="M87.545 54.7086C87.545 54.7086 85.8973 56.506 86.8969 57.6449C86.8969 57.6449 87.378 57.7846 88.0872 57.9156C89.7212 58.2149 92.5592 58.4644 93.469 56.8253C94.7702 54.4778 88.5608 54.6898 88.5608 54.6898L88.0909 54.6986L87.545 54.7086Z" fill="#FBBEBE"/>
<path opacity="0.1" d="M87.545 54.7087C87.545 54.7087 85.8973 56.5062 86.8969 57.645C86.8969 57.645 87.378 57.7847 88.0872 57.9157L88.2966 57.897C88.0236 57.7998 87.7751 57.644 87.5687 57.4405C87.3045 57.1673 87.1175 56.7569 87.3344 56.1806C87.4552 55.8512 87.5963 55.5296 87.7569 55.2176C87.8494 55.0332 87.9614 54.8593 88.0909 54.6987L87.545 54.7087Z" fill="black"/>
<path d="M84.7618 58.1838L85.3152 58.1364L87.1773 57.9742L88.127 57.8906C87.8543 57.7936 87.6062 57.6377 87.4004 57.4341C87.1362 57.1597 86.948 56.7505 87.1648 56.1742C87.2862 55.8447 87.4273 55.5227 87.5874 55.21C87.8541 54.7111 88.0597 54.5215 88.1732 54.5065C88.2866 54.4915 87.621 54.4416 87.3007 54.4204H87.2882C87.1972 54.413 87.1374 54.4105 87.1374 54.4105L87.0502 54.4354L85.8088 54.7947L85.7689 54.8233C85.4648 55.0441 83.6326 56.4774 84.7618 58.1838Z" fill="#E7EFFD"/>
<path d="M70.4148 58.8724L68.4979 63.2569C68.4979 63.2569 68.1651 63.6062 67.866 63.9741C67.8613 63.9813 67.8559 63.988 67.8498 63.9941L67.7775 64.0877C67.7697 64.0958 67.7626 64.1045 67.7563 64.1139C67.7569 64.1159 67.7569 64.118 67.7563 64.1201C67.6278 64.2743 67.5205 64.4451 67.4373 64.6278C67.3839 64.7586 67.3131 64.8815 67.2266 64.9933C67.1185 65.1336 66.9961 65.2624 66.8614 65.3774C66.8557 65.3834 66.8494 65.3888 66.8427 65.3937C66.8427 65.3937 66.3442 66.1084 65.9503 66.5849C65.9429 66.5924 65.9379 66.6011 65.9316 66.6061C65.8312 66.7317 65.7199 66.8482 65.5989 66.9541C65.4959 67.039 65.4012 67.1334 65.3159 67.236L65.276 67.2847C64.9632 67.6589 64.6354 68.1441 64.6354 68.1441L63.4937 69.4451L62.3309 70.7611L62.2199 70.8859L62.1377 70.9719L62.1065 71.0056L62.0018 71.1166C62.0018 71.1166 61.9956 71.1166 61.9943 71.1254L61.8361 71.2925L61.8223 71.3075C61.76 71.3711 61.6977 71.4397 61.6279 71.512C61.5855 71.5569 61.5407 71.6018 61.4958 71.6505L61.3574 71.7952C61.2951 71.8588 61.2328 71.9199 61.168 71.9885C61.1306 72.026 61.0932 72.0659 61.0558 72.1045L60.9648 72.1968C60.8863 72.2742 60.809 72.3528 60.733 72.4301L60.7106 72.4526L60.5623 72.5997L60.4301 72.7245L60.3741 72.7781L60.2856 72.8617L60.232 72.9116C60.2159 72.9288 60.1988 72.945 60.1809 72.9602C60.1572 72.9839 60.1335 73.0051 60.1111 73.0251L60.0799 73.0525C59.9309 73.1943 59.7727 73.326 59.6063 73.4467C59.4448 73.5611 59.2912 73.6861 59.1464 73.8209L59.0753 73.8895C59.0492 73.912 59.0255 73.9369 59.0018 73.9594C58.8086 74.1515 58.6366 74.3448 58.5032 74.4995C58.4904 74.5138 58.4784 74.5288 58.4671 74.5444C58.464 74.5457 58.4614 74.5478 58.4596 74.5506C58.3637 74.6666 58.2951 74.7552 58.2652 74.7939L58.249 74.8138L57.9187 75.0633L57.7691 75.1768L57.4663 75.4113L57.3765 75.4799C57.1273 75.6745 56.868 75.8803 56.6549 76.055L56.5851 76.1136L56.5776 76.1198L56.5128 76.1735L56.5053 76.1797C56.4617 76.2159 56.423 76.2508 56.3869 76.282L56.3769 76.2907L56.3109 76.3506C56.2714 76.3851 56.2351 76.4231 56.2024 76.4641C55.9643 76.8392 55.695 77.1935 55.3973 77.5231C55.3462 77.5768 55.2938 77.6279 55.2402 77.6778C55.1286 77.7854 55.0028 77.8773 54.8663 77.951C54.7925 77.9877 54.7213 78.0294 54.6532 78.0757C56.2299 73.4505 58.3499 67.7612 60.8564 61.4594C61.0359 61.0079 61.2174 60.553 61.4011 60.0948C61.608 59.5809 61.8157 59.0632 62.0243 58.5418L62.0429 58.4982L62.1327 58.2761C62.9304 56.3053 63.7613 54.2908 64.6254 52.2326C64.6416 52.1914 64.6591 52.1515 64.6765 52.1079L64.6254 52.0517L64.7202 52.0031C64.9271 51.5041 65.1352 51.0152 65.3433 50.5162C65.3658 50.4651 65.3882 50.4102 65.4107 50.359C65.4406 50.2867 65.4717 50.2156 65.5004 50.1445C65.5104 50.122 65.5191 50.0996 65.5291 50.0784C65.5465 50.036 65.5652 49.9936 65.5814 49.9537C65.7933 49.4547 66.0035 48.9603 66.2121 48.4705L68.4082 50.9279L68.5004 51.0289L70.0335 52.7191L70.1269 52.8201L70.6043 53.3465L70.8623 53.6309L70.9869 53.7669L72.5225 55.4596L72.5424 55.482L72.6147 55.5606L70.4148 58.8724Z" fill="#3F3D56"/>
<path d="M81.3991 31.2804L81.0925 35.5851C81.0925 35.5851 84.7743 37.3314 84.8827 36.6902C84.9264 36.4408 85.4062 36.0291 85.9796 35.62C86.8832 34.9726 88.0186 34.3277 88.0186 34.3277C88.0186 34.3277 84.3156 28.7407 83.8757 29.9083C83.7149 30.3349 83.3422 30.633 82.9334 30.8388C82.4489 31.0673 81.9309 31.2164 81.3991 31.2804Z" fill="#FBBEBE"/>
<path opacity="0.1" d="M83.8757 29.9083C83.7149 30.3349 83.7511 30.4334 83.3435 30.6392C83.25 31.9041 83.2525 33.4022 84.1823 34.4063C84.6788 34.9454 85.2942 35.361 85.9796 35.62C86.8832 34.9726 88.0186 34.3277 88.0186 34.3277C88.0186 34.3277 84.3157 28.7407 83.8757 29.9083Z" fill="black"/>
<path d="M84.5275 27.6193C84.0704 28.0427 83.701 28.552 83.4406 29.1182C83.1801 29.6844 83.0336 30.2965 83.0095 30.9193C82.9854 31.5422 83.084 32.1637 83.2999 32.7484C83.5158 33.3331 83.8446 33.8696 84.2677 34.3271C84.6907 34.7846 85.1996 35.1542 85.7654 35.4149C86.3311 35.6756 86.9426 35.8222 87.565 35.8463C88.1874 35.8705 88.8084 35.7717 89.3927 35.5557C89.9769 35.3396 90.5129 35.0105 90.97 34.5872L91.0186 34.5397C91.9351 33.6783 92.4721 32.4877 92.5115 31.23C92.5509 29.9723 92.0894 28.7504 91.2287 27.8332C90.3679 26.916 89.1783 26.3786 87.9216 26.3392C86.6649 26.2998 85.444 26.7616 84.5275 27.6231V27.6193Z" fill="#FBBEBE"/>
<path opacity="0.1" d="M70.6616 57.7124C70.5046 57.9182 70.2441 57.8733 69.8253 57.3257C69.6307 57.087 69.4187 56.8631 69.1909 56.6558C69.1485 56.6159 69.1037 56.5748 69.06 56.5311C68.5951 56.1032 67.9994 55.5931 67.3575 55.0143L67.3164 54.9781C67.0309 54.7199 66.7331 54.4467 66.4364 54.1636L66.2594 53.9939C65.8531 53.601 65.4456 53.1844 65.0567 52.7466L65.0392 52.7291C64.8959 52.5694 64.7538 52.4073 64.613 52.2501C64.6292 52.2089 64.6466 52.169 64.6641 52.1254L64.613 52.0692L64.7077 52.0206C64.9146 51.5216 65.1227 51.0327 65.3309 50.5337C65.3533 50.4826 65.3758 50.4277 65.3982 50.3765C65.4281 50.3042 65.4593 50.2331 65.4879 50.162C65.4979 50.1395 65.5066 50.1171 65.5166 50.0959L65.6624 50.278C65.8992 50.5749 66.141 50.873 66.3853 51.1686L66.4065 51.1948C66.5449 51.3607 66.682 51.5266 66.8203 51.6938C66.8265 51.6938 66.8315 51.7075 66.8378 51.7125C66.9911 51.8959 67.1481 52.0755 67.3064 52.2476L67.3986 52.3462C67.5681 52.5295 67.7376 52.7017 67.9071 52.8688C68.306 53.2605 68.6998 53.6172 69.0625 53.9166C69.0974 53.9465 69.1311 53.9752 69.1672 54.0039C69.4875 54.2709 69.7829 54.5029 70.0397 54.685L70.1556 54.7723L70.3002 54.8758C70.6367 55.1178 70.8423 55.25 70.8423 55.25C70.8423 55.25 70.861 55.4209 70.876 55.6729C70.8847 55.8188 70.8935 55.9922 70.8972 56.1719C70.9022 56.7556 70.866 57.4442 70.6616 57.7124Z" fill="black"/>
<path d="M70.6616 57.7124C70.5009 57.8084 70.2603 57.7012 69.9138 57.2459C69.7113 56.9977 69.49 56.7654 69.252 56.5511L69.2395 56.5399L69.1211 56.4276C68.6724 56.016 68.1078 55.5295 67.5008 54.9806C67.4867 54.9696 67.4733 54.9575 67.4609 54.9445C67.1257 54.6451 66.7792 54.3208 66.4302 53.989C66.3716 53.9341 66.313 53.8767 66.2532 53.8181C65.8793 53.4539 65.5054 53.0697 65.1464 52.6693L65.1302 52.6505L64.6666 52.1316L64.6155 52.0755L64.7102 52.0269C64.9171 51.5279 65.1252 51.0389 65.3334 50.54C65.3558 50.4888 65.3783 50.434 65.4007 50.3828C65.4306 50.3105 65.4618 50.2394 65.4904 50.1683C65.5004 50.1458 65.5091 50.1234 65.5191 50.1022C65.5365 50.0597 65.5552 50.0173 65.5714 49.9774C65.8294 50.3005 66.0949 50.631 66.3629 50.9579C66.366 50.9602 66.3685 50.9632 66.3704 50.9666L66.495 51.1213C66.6383 51.2946 66.7817 51.4655 66.925 51.6377C67.0496 51.7911 67.1843 51.9395 67.3151 52.0842C67.3376 52.1104 67.3612 52.1354 67.3849 52.1603C67.4086 52.1853 67.446 52.2277 67.4759 52.2601C67.9978 52.8153 68.5526 53.3385 69.1373 53.8268C69.171 53.8568 69.2059 53.8854 69.2408 53.9141C69.5499 54.1711 69.8353 54.3944 70.0796 54.5777C70.1257 54.6102 70.1693 54.6438 70.2117 54.675L70.3563 54.7786C70.709 55.028 70.9246 55.169 70.9246 55.169C70.9246 55.169 70.9545 55.4559 70.9707 55.8388C70.977 55.9972 70.9807 56.1706 70.9795 56.3478C70.9757 56.9415 70.9084 57.5652 70.6616 57.7124Z" fill="#5F5D7E"/>
<path opacity="0.1" d="M85.3763 40.0382L72.5224 55.457L71.4119 56.7904L71.2486 56.9862C71.1717 56.7682 71.0818 56.5549 70.9794 56.3476C70.952 56.2927 70.9233 56.2341 70.8909 56.1742C70.6992 55.7893 70.44 55.442 70.1257 55.1489C70.0795 55.1089 70.0322 55.0715 69.9848 55.0378L69.9063 54.9855C69.8307 54.9381 69.7505 54.8984 69.667 54.867C69.382 54.7363 69.1228 54.5555 68.9017 54.3331L68.802 54.2408C68.2582 53.6893 67.7582 53.0962 67.3064 52.467C67.2777 52.4283 67.2503 52.3909 67.2253 52.3547C67.0783 52.1539 66.991 52.0267 66.991 52.0267C66.991 52.0267 66.8963 51.9119 66.7417 51.741C66.6171 51.5963 66.4563 51.4117 66.2831 51.2246C66.0151 50.916 65.7184 50.6337 65.3969 50.3814C65.4268 50.309 65.458 50.2379 65.4867 50.1668C65.4966 50.1444 65.5053 50.1219 65.5153 50.1007C65.5328 50.0583 65.5515 50.0159 65.5677 49.976C65.7795 49.477 65.9898 48.9827 66.1983 48.4929C66.5398 47.6946 66.8788 46.9045 67.2154 46.1229L67.3924 45.715L67.8996 44.5424L68.0941 44.0984L68.2399 43.7616C68.7708 42.5491 69.2964 41.3595 69.8166 40.1928L77.9516 32.9581L78.9313 32.4915L79.8748 32.045L80.5503 32.2396L80.6513 32.267L81.3069 32.4566H81.3156L81.4739 32.5028L81.7992 32.5963L81.96 34.753V34.7717V34.8316L82.2566 35.2582L82.4411 35.5264L82.5208 35.5576L82.8586 35.6886L82.9608 35.7272L82.9982 35.7422L83.2936 35.857L84.1324 36.1825L84.3331 36.8062L84.4577 37.2079L84.5263 37.4237L84.5923 37.5808L85.3763 40.0382Z" fill="black"/>
<path d="M85.5508 39.8762L72.5424 55.4796L71.4207 56.823L71.4095 56.7906C71.2903 56.4611 71.1426 56.1427 70.9683 55.8388C70.9371 55.7839 70.9022 55.7278 70.8673 55.6729C70.7017 55.3992 70.4934 55.1536 70.2504 54.9457C70.203 54.9083 70.1556 54.8733 70.107 54.8422C70.0709 54.8176 70.0335 54.7951 69.9949 54.7748C69.9453 54.7486 69.8941 54.7257 69.8415 54.7062C69.546 54.5701 69.2778 54.3811 69.0501 54.1486L68.9491 54.0551C68.577 53.6828 68.2281 53.2879 67.9047 52.8726C67.7314 52.6518 67.5781 52.4485 67.4547 52.2813L67.3737 52.169C67.3513 52.1391 67.3313 52.1104 67.3127 52.083C67.2154 51.9483 67.1594 51.8659 67.1594 51.8659C67.1594 51.8659 66.7854 51.4094 66.3654 50.9653C66.3636 50.9619 66.361 50.9589 66.3579 50.9566C66.1413 50.7164 65.9081 50.4917 65.66 50.2843C65.605 50.241 65.5466 50.2022 65.4855 50.1683C65.4954 50.1458 65.5042 50.1233 65.5141 50.1021C65.5316 50.0597 65.5503 50.0173 65.5665 49.9774C65.7784 49.4785 65.9886 48.9841 66.1972 48.4943C66.5387 47.696 66.8777 46.9059 67.2142 46.1243L67.3912 45.7164L67.8985 44.5438L68.0929 44.0998L68.2387 43.763C68.7697 42.5505 69.2952 41.361 69.8154 40.1942C69.8161 40.1901 69.8161 40.1859 69.8154 40.1818L78.1225 32.7923L78.9613 32.3932L80.0456 31.878L80.695 32.0651L80.7959 32.0938L81.3256 32.2472L81.4503 32.2821L81.5973 32.3246L81.9713 32.4331L82.1383 34.6684L82.223 34.7931L82.2367 34.8131L82.2542 34.8393L82.5122 35.2135L82.6169 35.3657L83.0332 35.5278L83.5517 35.7286L84.3095 36.023L84.5687 36.8351L84.6148 36.9798L84.6821 37.1893L84.7145 37.2916L84.7357 37.3552L85.5508 39.8762Z" fill="#E7EFFD"/>
<path opacity="0.1" d="M83.6127 36.754C83.6127 36.754 81.9749 36.8325 81.7979 37.0234C81.621 37.2142 81.1959 37.6633 81.1959 37.6633L80.5528 39.3448C80.5528 39.3448 79.3737 41.0349 79.0671 41.3193C78.7605 41.6037 76.5744 44.58 76.5744 44.58L73.0496 48.987L68.4032 54.7324L66.313 55.2026L66.2357 53.5349L74.645 43.4312L76.2865 41.4216C76.2865 41.4216 79.4199 38.0013 79.7763 37.6795C80.1328 37.3577 81.1972 36.6629 81.1972 36.6629C81.1972 36.6629 81.8976 35.665 81.3717 34.6796C80.8457 33.6941 81.4689 34.6983 81.4689 34.6983L82.2541 34.813L82.4585 35.3569C82.4585 35.3569 83.8046 36.1415 83.6127 36.754Z" fill="black"/>
<path d="M83.781 36.7602C83.781 36.7602 82.1432 36.8388 81.9662 37.0296C81.7893 37.2205 81.3643 37.6695 81.3643 37.6695L80.7286 39.351C80.7286 39.351 79.5433 41.0412 79.233 41.3231C78.9226 41.605 76.7402 44.585 76.7402 44.585L73.2167 48.9907L68.5702 54.7373L66.4801 55.2064L66.4053 53.5473L74.8133 43.4436L76.456 41.4328C76.456 41.4328 79.5894 38.0125 79.9396 37.6907C80.2899 37.3689 81.3605 36.6741 81.3605 36.6741C81.3605 36.6741 82.061 35.6762 81.535 34.692C81.009 33.7078 81.6335 34.7095 81.6335 34.7095L82.4187 34.8242L82.6231 35.3681C82.6231 35.3681 83.9692 36.1477 83.781 36.7602Z" fill="#796EEC"/>
<path opacity="0.1" d="M85.7901 35.8508C85.7901 35.8508 85.81 36.0492 85.2529 36.6205C84.6958 37.1918 83.7572 38.8196 83.7572 38.8196C83.7572 38.8196 83.402 36.3248 82.5819 35.6712L85.7901 35.8508Z" fill="black"/>
<path d="M85.9634 35.6887C85.9634 35.6887 85.9845 35.887 85.4274 36.4571C84.8703 37.0271 83.9318 38.6574 83.9318 38.6574C83.9318 38.6574 83.5765 36.1627 82.7552 35.5078L85.9634 35.6887Z" fill="#E7EFFD"/>
<path opacity="0.1" d="M82.4136 31.263L82.5283 35.6126C82.5283 35.6126 79.4622 34.7045 78.9263 34.712C78.3903 34.7195 81.3044 31.5312 81.3044 31.5312L82.4136 31.263Z" fill="black"/>
<path d="M82.5084 31.0121L82.623 35.3617C82.623 35.3617 79.557 34.4537 79.021 34.4611C78.4851 34.4686 81.3979 31.2803 81.3979 31.2803L82.5084 31.0121Z" fill="#E7EFFD"/>
<path opacity="0.1" d="M85.7141 35.7623C85.7141 35.7623 86.088 35.9045 85.9397 36.5107C85.7914 37.1169 86.0481 37.7419 86.0481 37.7419C86.0481 37.7419 88.0872 40.7967 87.8305 41.2245L88.9073 42.5355C88.9073 42.5355 89.2551 43.0282 88.3751 43.9251C87.4952 44.822 87.6273 45.1375 87.6273 45.1375C87.6273 45.1375 87.1948 46.4897 86.6863 46.8839C86.1778 47.278 86.351 47.9292 86.351 47.9292L79.9085 50.5025C79.9085 50.5025 77.8856 52.2488 77.4881 53.248C77.0905 54.2471 74.4968 57.8171 74.4968 57.8171C74.4968 57.8171 74.311 57.499 74.149 57.6762C73.987 57.8533 72.3567 59.9352 72.3567 59.9352C72.3567 59.9352 71.6787 60.7272 71.5503 61.1164C71.422 61.5056 70.0622 62.7954 70.0622 62.7954L69.2857 63.9492C69.2857 63.9492 67.5283 64.5455 66.9176 63.5338C66.3068 62.5222 68.1963 57.9132 68.1963 57.9132L70.8711 53.6147L73.7041 49.577L75.8977 47.1358L80.8832 41.8682L83.9181 38.1061C83.9181 38.1061 85.2704 35.7885 85.7141 35.7623Z" fill="black"/>
<path d="M85.9633 35.6887C85.9633 35.6887 86.3373 35.8296 86.1889 36.4308C86.0406 37.0321 86.2961 37.662 86.2961 37.662C86.2961 37.662 88.3364 40.7168 88.0797 41.1447L89.1566 42.4557C89.1566 42.4557 89.5043 42.9484 88.6244 43.8452C87.7444 44.7421 87.8765 45.0577 87.8765 45.0577C87.8765 45.0577 87.444 46.4098 86.9355 46.804C86.427 47.1982 86.6002 47.8493 86.6002 47.8493L80.1552 50.4177C80.1552 50.4177 78.1423 52.1752 77.7373 53.1731C77.3322 54.171 74.746 57.741 74.746 57.741C74.746 57.741 74.5603 57.4229 74.3982 57.6001C74.2362 57.7772 72.606 59.8591 72.606 59.8591C72.606 59.8591 71.9279 60.6511 71.7996 61.0416C71.6712 61.432 70.3114 62.7193 70.3114 62.7193L69.5336 63.8744C69.5336 63.8744 67.7775 64.4693 67.1655 63.4577C66.5536 62.4461 68.453 57.8371 68.453 57.8371L71.1315 53.5398L73.9645 49.5021L76.1544 47.061L81.1399 41.7933L84.1748 38.0312C84.1748 38.0312 85.5271 35.7099 85.9633 35.6887Z" fill="#65617D"/>
<path opacity="0.1" d="M83.346 55.5618L83.5454 56.9526C83.5454 56.9526 84.7046 58.2873 85.7889 59.0033L86.4358 59.2815L86.5604 59.3376L86.4358 59.269C85.8388 58.9135 85.4873 58.5293 85.314 58.1364C84.6073 56.5622 86.71 54.8583 87.2023 54.4903C87.2509 54.4529 87.2821 54.4292 87.2958 54.4205H87.302H87.2833C87.2422 54.4291 87.2006 54.4345 87.1587 54.4367C87.1234 54.4385 87.088 54.4385 87.0527 54.4367L85.8088 54.7947L85.769 54.8234L83.346 55.5618Z" fill="black"/>
<path d="M86.3373 47.3266L86.6003 47.8442L85.8213 48.675C85.8213 48.675 86.3398 49.0891 85.8923 49.749C85.4449 50.4088 85.3938 50.8866 85.3938 50.8866C85.3938 50.8866 85.4661 52.3148 84.9364 52.8824L85.0909 53.672C85.0909 53.672 86.4233 54.5838 87.1337 54.4142C87.1337 54.4142 82.8761 57.3817 86.3946 59.3363C86.3946 59.3363 82.1121 57.4652 81.7831 57.4952C81.454 57.5251 80.0082 57.0736 79.6642 55.7626C79.3202 54.4516 79.8599 53.5984 79.8599 53.5984C79.8599 53.5984 80.26 51.6525 80.4083 51.4604C80.5566 51.2683 80.1516 50.4213 80.1516 50.4213L82.0286 46.3461L86.3373 47.3266Z" fill="#65617D"/>
<path opacity="0.1" d="M82.5072 31.0134V31.0209L82.3252 31.2816L81.6011 32.3232L81.4765 32.5003L81.297 32.761L80.9779 33.225L79.6331 34.5572L79.4087 34.7793L77.2662 36.8998L72.5375 41.5874L69.0925 43.5832C69.0925 43.5832 68.6002 43.8327 68.0954 44.0947L68.2412 43.7579C68.7722 42.5454 69.2977 41.3558 69.8179 40.1891C69.8186 40.185 69.8186 40.1808 69.8179 40.1767C71.7984 35.7373 73.6954 31.6496 75.4266 28.0696C75.4557 28.0826 75.4836 28.098 75.5101 28.1158C75.9002 28.3765 76.3613 28.6384 76.5371 28.7395L76.6106 28.7806C76.6862 28.9018 76.7695 29.0181 76.8599 29.1287C77.0032 29.302 77.1815 29.4717 77.3285 29.4717C77.6252 29.4717 79.0286 30.3686 79.2317 30.5943C79.3246 30.6801 79.4291 30.7523 79.5421 30.8089C79.8699 30.9922 80.3086 31.1731 80.3086 31.1731L81.3331 31.3465L81.373 31.354H81.3855C81.6609 31.3902 82.2579 31.1295 82.4412 31.0421L82.4935 31.0184L82.5072 31.0134Z" fill="black"/>
<path d="M82.5096 31.0135L82.2828 31.2854L81.4602 32.2696L81.3268 32.4305L81.3168 32.4392L80.8183 33.0367L79.3525 34.4887L79.1232 34.7157L77.478 36.346L72.3778 41.4004L68.9329 43.3962L68.2486 43.7467C68.7796 42.5342 69.3051 41.3447 69.8253 40.1779C69.826 40.1738 69.826 40.1696 69.8253 40.1655C71.8057 35.7261 73.7027 31.6384 75.4339 28.0584C75.4439 28.0385 75.4526 28.0185 75.4626 27.9998C75.9325 28.3054 76.4597 28.5923 76.4597 28.5923C76.4597 28.5923 76.4934 28.6485 76.5482 28.727C76.6439 28.8669 76.7528 28.9973 76.8735 29.1162C76.9529 29.2063 77.0614 29.2655 77.1801 29.2834C77.4767 29.2834 78.8802 30.1802 79.0833 30.406C79.2327 30.5351 79.4008 30.6406 79.5819 30.7191C79.8685 30.8638 80.1602 30.9835 80.1602 30.9835L81.2233 31.1657C81.505 31.2131 82.2815 31.0534 82.4697 31.0122C82.4801 31.0133 82.4905 31.0133 82.5009 31.0122H82.5084L82.5096 31.0135Z" fill="#65617D"/>
<path opacity="0.1" d="M62.134 58.6964L62.0093 58.5617L62.028 58.5181C62.0591 58.5799 62.0945 58.6395 62.134 58.6964Z" fill="black"/>
<path opacity="0.1" d="M61.8797 60.1585L60.8427 61.4857C61.0222 61.0341 61.2037 60.5792 61.3874 60.121L61.8797 60.1585Z" fill="black"/>
<path d="M66.9225 51.6364L66.819 51.6962L66.7418 51.7411L65.1414 52.6742L65.1252 52.6555L64.6616 52.1366L64.6105 52.0804L64.7052 52.0318L66.2831 51.231L66.3841 51.1798L66.4937 51.1249C66.6371 51.2933 66.7792 51.4642 66.9225 51.6364Z" fill="#3F3D56"/>
<path opacity="0.1" d="M87.383 44.2631C87.383 44.2631 86.4956 43.8889 85.9509 44.1234C85.4062 44.3579 87.383 44.2631 87.383 44.2631Z" fill="black"/>
<path opacity="0.1" d="M84.8416 50.3154C84.8416 50.3154 84.5674 52.3112 83.7772 52.3336C82.987 52.3561 84.8416 50.3154 84.8416 50.3154Z" fill="black"/>
<path opacity="0.1" d="M68.6387 49.3536C68.645 49.184 69.7605 44.4028 69.0625 44.1783L68.6387 49.3536Z" fill="black"/>
<path opacity="0.1" d="M84.5276 27.6194C83.9543 28.15 83.521 28.8141 83.2662 29.5528L83.2949 29.5753C83.5442 29.7524 83.9094 29.6289 84.2259 29.6489C84.4201 29.6614 84.6055 29.7344 84.7562 29.8576C84.9068 29.9809 85.0152 30.1482 85.066 30.3362C85.1081 30.5351 85.0938 30.7418 85.0249 30.9331C84.956 31.1244 84.8351 31.2926 84.6759 31.4189C85.2467 31.0958 85.7116 30.6006 86.2812 30.275C86.8508 29.9495 87.6285 29.836 88.0523 30.275C88.2343 30.4646 88.3676 30.759 88.6418 30.7653C88.8064 30.7653 88.9609 30.6592 89.1254 30.6231C89.9393 30.4634 90.58 31.6821 90.6822 32.327C90.7831 32.9507 90.7893 33.8238 91.0187 34.5336C91.4725 34.107 91.8379 33.5952 92.094 33.0273C92.3502 32.4594 92.492 31.8466 92.5115 31.2239C92.531 30.6011 92.4278 29.9806 92.2077 29.3978C91.9876 28.815 91.6549 28.2812 91.2287 27.8271C90.8025 27.3729 90.2911 27.0072 89.7236 26.7509C89.1562 26.4945 88.5439 26.3525 87.9216 26.333C87.2994 26.3135 86.6794 26.4168 86.097 26.6371C85.5147 26.8574 84.9814 27.1903 84.5276 27.6169V27.6194Z" fill="black"/>
<path d="M89.2127 30.5444C89.0482 30.5793 88.8949 30.6904 88.7291 30.6866C88.4561 30.6866 88.3215 30.386 88.1396 30.1964C87.717 29.7548 86.9393 29.8671 86.3697 30.1964C85.8001 30.5257 85.3352 31.0184 84.7631 31.3415C84.9228 31.2156 85.044 31.0474 85.113 30.856C85.182 30.6646 85.1959 30.4577 85.1532 30.2588C85.1024 30.0708 84.9941 29.9035 84.8434 29.7802C84.6928 29.657 84.5074 29.584 84.3132 29.5715C83.9966 29.5515 83.6339 29.675 83.3834 29.4966C83.1329 29.3183 83.1478 28.9104 83.3061 28.616C83.4644 28.3216 83.7249 28.0896 83.9168 27.8139C84.2808 27.2925 84.3792 26.6489 84.6647 26.0826C85.0105 25.3981 85.5962 24.8652 86.3099 24.5857C86.6838 24.441 87.0851 24.3749 87.4615 24.2315C88.0336 24.0144 88.5446 23.6227 89.1317 23.4606C90.1138 23.1887 91.1969 23.6926 91.5633 24.5907C91.7391 25.0186 91.7628 25.5088 91.9572 25.9279C92.2189 26.4892 92.7511 26.8547 93.2273 27.2439C93.7034 27.6331 94.167 28.117 94.2057 28.7544C94.2505 29.4829 93.7196 30.1852 93.7071 30.9186C93.7071 31.2267 93.7906 31.5224 93.8056 31.828C93.8205 32.1336 93.7445 32.4816 93.4915 32.6787C93.1649 32.9344 92.619 32.892 92.437 33.2612C92.392 33.376 92.37 33.4984 92.3722 33.6217C92.333 34.2643 92.1453 34.889 91.8238 35.4466C90.8554 34.8903 90.9339 33.2425 90.7744 32.2533C90.6672 31.6034 90.0278 30.3848 89.2127 30.5444Z" fill="#7C5C5C"/>
<path opacity="0.1" d="M83.6065 46.6357C83.6065 46.6357 80.2737 49.7242 80.2088 50.3142C80.144 50.9042 83.6065 46.6357 83.6065 46.6357Z" fill="black"/>
<g opacity="0.1">
<path d="M92.6775 32.9481C92.852 32.5877 93.3804 32.6188 93.7082 32.3818C93.6604 32.4962 93.5846 32.5966 93.4876 32.6737C93.2483 32.8608 92.8906 32.8895 92.6451 33.0355C92.6529 33.0053 92.6638 32.9761 92.6775 32.9481Z" fill="black"/>
<path d="M85.0373 31.011C85.5944 30.6891 86.0543 30.2052 86.6139 29.8883C87.1735 29.5715 87.9613 29.4492 88.3838 29.8883C88.5657 30.0779 88.7004 30.3723 88.9733 30.3785C89.1391 30.3785 89.2924 30.2713 89.4569 30.2363C90.272 30.0767 90.9114 31.2954 91.0149 31.9403C91.1707 32.907 91.0996 34.4986 91.9983 35.0911C91.9434 35.2159 91.8861 35.3269 91.82 35.4416C90.8516 34.8853 90.9301 33.2375 90.7706 32.2484C90.6671 31.6035 90.0228 30.3848 89.2126 30.5444C89.0481 30.5794 88.8948 30.6904 88.729 30.6866C88.4561 30.6866 88.3215 30.386 88.1395 30.1964C87.717 29.7549 86.9392 29.8671 86.3696 30.1964C85.8 30.5257 85.3351 31.0184 84.7631 31.3415C84.8753 31.2505 84.9685 31.1382 85.0373 31.011Z" fill="black"/>
<path d="M83.5503 28.3041C83.392 28.5985 83.3721 29.0039 83.6276 29.1848C83.8831 29.3656 84.2408 29.2397 84.5574 29.2596C84.7516 29.2722 84.9371 29.3452 85.088 29.4685C85.2388 29.5917 85.3474 29.7589 85.3987 29.9469C85.4384 30.1363 85.427 30.3328 85.3657 30.5163C85.3044 30.6998 85.1953 30.8637 85.0497 30.991C85.1735 30.7668 85.2104 30.5047 85.1531 30.255C85.1023 30.0671 84.9939 29.8997 84.8433 29.7765C84.6926 29.6532 84.5072 29.5802 84.3131 29.5677C83.9965 29.5478 83.6338 29.6712 83.3833 29.4929C83.1327 29.3145 83.1477 28.9066 83.306 28.6122C83.404 28.4436 83.5198 28.286 83.6512 28.142C83.6145 28.1941 83.5808 28.2482 83.5503 28.3041Z" fill="black"/>
<path d="M84.9051 25.7707C84.6234 26.337 84.5312 26.9807 84.1573 27.5021C84.0838 27.6081 84.0003 27.7066 83.9167 27.8052C84.2782 27.285 84.3767 26.6426 84.6571 26.0788C84.784 25.8249 84.9459 25.5902 85.1382 25.3815C85.0504 25.505 84.9725 25.6351 84.9051 25.7707Z" fill="black"/>
</g>
<path d="M93.915 56.7327C93.9418 56.7327 93.9634 56.711 93.9634 56.6843C93.9634 56.6575 93.9418 56.6358 93.915 56.6358C93.8883 56.6358 93.8666 56.6575 93.8666 56.6843C93.8666 56.711 93.8883 56.7327 93.915 56.7327Z" fill="#E6E8EC"/>
<path d="M132.114 106.779C132.144 108.276 119.756 106.495 120.22 105.282L120.155 105.301C118.595 105.655 110.35 102.772 111.012 101.459C104.249 95.4067 101.194 89.9706 107.25 77.7625C107.277 77.682 107.293 77.598 107.297 77.5131C107.297 77.4831 107.309 77.4532 107.314 77.4245C107.335 77.3172 107.355 77.21 107.376 77.1027C107.376 77.0852 107.382 77.069 107.386 77.0528C107.39 77.0366 107.397 77.0004 107.402 76.9742C107.577 76.0736 107.771 75.1692 107.984 74.2612C109.04 69.6625 110.532 65.1752 112.44 60.8606C112.48 60.7745 112.517 60.6885 112.557 60.6036C112.58 60.5525 112.603 60.5014 112.627 60.4515L112.78 60.1172C112.787 60.1022 112.794 60.0885 112.8 60.0735C112.825 60.0236 112.848 59.9737 112.871 59.9251C114.444 56.5572 116.204 53.6009 118.055 51.1722C117.182 50.6733 114.362 46.8638 115.064 43.8601C115.811 40.6718 119.901 39.4544 120.915 39.6902C121.93 39.9259 122.149 42.7038 121.406 45.8921C121.235 46.6368 121.015 47.3694 120.747 48.085C123.988 44.8742 127.38 43.3375 130.481 44.0597C133.054 44.6597 135.117 46.7428 136.597 49.8987C136.627 49.7527 136.661 49.6055 136.694 49.4571C137.442 46.2688 138.859 43.8751 139.875 44.1109C140.891 44.3466 144.31 47.8717 143.567 51.06C143.075 53.1805 139.08 54.1959 138.305 55.0753C139.83 61.9159 140.249 72.0022 141.322 82.0822C142.746 95.4803 140.282 102.639 132.114 106.779Z" fill="#796EEC"/>
<path opacity="0.2" d="M130.424 62.3762C129.861 64.7936 126.613 66.1371 122.937 65.5994C122.618 65.5529 122.297 65.4922 121.974 65.4173C121.708 65.355 121.448 65.2847 121.195 65.2065C117.566 64.0926 115.166 61.4058 115.738 58.9509C116.167 57.1048 118.166 55.8836 120.723 55.6504C121.279 55.6022 121.838 55.5985 122.395 55.6391C122.999 55.6844 123.598 55.7774 124.187 55.9173C128.243 56.8566 131.035 59.7505 130.424 62.3762Z" fill="black"/>
<path d="M128.792 63.8692C129.176 62.2227 127.515 60.4282 125.084 59.861C122.652 59.2939 120.37 60.1688 119.987 61.8152C119.604 63.4617 121.264 65.2562 123.695 65.8233C126.127 66.3905 128.409 65.5156 128.792 63.8692Z" fill="#3F3D56"/>
<path d="M121.965 57.1648C121.42 58.4683 121.052 58.1365 120.594 57.9469C120.135 57.7573 119.767 57.7772 120.313 56.4737C120.432 56.1904 120.568 55.915 120.722 55.6492C121.278 55.6011 121.837 55.5973 122.394 55.638C122.318 56.1636 122.174 56.677 121.965 57.1648Z" fill="white"/>
<path d="M122.937 65.5994C122.618 65.5528 122.297 65.4921 121.974 65.4173C121.708 65.3549 121.448 65.2846 121.195 65.2065C121.487 63.8655 121.954 63.7583 122.426 63.8556C122.898 63.9529 123.207 64.236 122.937 65.5994Z" fill="white"/>
<path opacity="0.2" d="M125.492 53.0695C127.017 53.0695 128.253 51.8325 128.253 50.3066C128.253 48.7806 127.017 47.5436 125.492 47.5436C123.967 47.5436 122.731 48.7806 122.731 50.3066C122.731 51.8325 123.967 53.0695 125.492 53.0695Z" fill="black"/>
<path opacity="0.1" d="M119.619 45.5859C119.885 44.4447 119.601 43.403 118.985 43.2593C118.369 43.1156 117.654 43.9243 117.388 45.0655C117.122 46.2067 117.406 47.2484 118.022 47.3921C118.638 47.5358 119.353 46.7272 119.619 45.5859Z" fill="black"/>
<path opacity="0.12" d="M140.59 50.3228C141.297 49.3888 141.462 48.3217 140.958 47.9394C140.454 47.557 139.472 48.0043 138.764 48.9383C138.057 49.8723 137.893 50.9394 138.397 51.3217C138.901 51.7041 139.883 51.2568 140.59 50.3228Z" fill="black"/>
<path d="M125.598 48.9483C125.548 48.9366 125.497 48.9278 125.446 48.9221C125.513 49.0746 125.529 49.245 125.491 49.4073C125.457 49.555 125.38 49.6894 125.27 49.7937C125.16 49.8981 125.022 49.9679 124.873 49.9944C124.723 50.021 124.57 50.0031 124.431 49.9431C124.292 49.8831 124.173 49.7836 124.09 49.6568C124.042 49.7517 124.006 49.8517 123.982 49.9549C123.921 50.2143 123.939 50.4857 124.033 50.7348C124.127 50.9839 124.293 51.1996 124.509 51.3546C124.725 51.5097 124.982 51.5971 125.248 51.6059C125.514 51.6147 125.777 51.5445 126.003 51.4041C126.229 51.2636 126.408 51.0593 126.518 50.817C126.628 50.5746 126.664 50.305 126.621 50.0423C126.578 49.7795 126.459 49.5354 126.277 49.3407C126.096 49.146 125.861 49.0094 125.602 48.9483H125.598Z" fill="#3F3D56"/>
<path opacity="0.2" d="M121.652 53.9215C121.537 54.4142 121.393 54.2483 121.178 54.1984C120.964 54.1485 120.762 54.2333 120.877 53.7406C120.991 53.2479 121.595 52.4134 121.595 52.4134C121.595 52.4134 121.767 53.4288 121.652 53.9215Z" fill="black"/>
<path opacity="0.2" d="M126.93 46.2614C126.816 46.7603 126.671 46.5882 126.457 46.5383C126.242 46.4884 126.041 46.5732 126.155 46.0805C126.27 45.5878 126.873 44.7533 126.873 44.7533C126.873 44.7533 127.045 45.7674 126.93 46.2614Z" fill="black"/>
<path opacity="0.2" d="M131.83 49.4933C131.715 49.986 131.571 49.8201 131.356 49.7702C131.142 49.7203 130.94 49.8051 131.055 49.3124C131.169 48.8197 131.773 47.9852 131.773 47.9852C131.773 47.9852 131.943 49.0006 131.83 49.4933Z" fill="black"/>
<path opacity="0.2" d="M133.183 54.0301C133.069 54.5228 132.925 54.3569 132.711 54.307C132.497 54.2571 132.295 54.342 132.409 53.8492C132.524 53.3565 133.126 52.522 133.126 52.522C133.126 52.522 133.299 53.5361 133.183 54.0301Z" fill="black"/>
<path opacity="0.2" d="M120.22 105.02L120.155 105.296C118.595 105.65 110.35 102.767 111.012 101.454L120.22 105.02Z" fill="black"/>
<path opacity="0.2" d="M120.22 105.277L120.155 105.296L120.22 105.02C122.588 104.328 132.114 106.779 132.114 106.779C132.144 108.271 119.756 106.495 120.22 105.277Z" fill="black"/>
<g opacity="0.1">
<path d="M121.485 63.3755C120.854 66.2133 118.233 69.9379 114.343 73.1399C112.211 74.8863 109.848 76.3287 107.32 77.4259C107.344 77.3012 107.369 77.1764 107.392 77.0517C107.572 76.1261 107.771 75.1956 107.991 74.2601C109.046 69.6614 110.538 65.1741 112.446 60.8595C112.486 60.7734 112.524 60.6874 112.564 60.6026C112.586 60.5514 112.61 60.5003 112.633 60.4504C115.231 59.228 117.606 58.7365 119.27 59.1182C119.835 59.2319 120.358 59.499 120.781 59.8903C120.854 59.9605 120.923 60.035 120.988 60.1136C121.357 60.5842 121.575 61.1564 121.611 61.7539C121.652 62.2977 121.61 62.8446 121.485 63.3755Z" fill="black"/>
</g>
<g opacity="0.1">
<path d="M121.278 63.0511C120.647 65.8888 118.026 69.6135 114.135 72.8155C112.086 74.4947 109.823 75.8936 107.405 76.9755C107.579 76.0749 107.773 75.1706 107.987 74.2625C109.042 69.6638 110.534 65.1765 112.443 60.8619C112.482 60.7759 112.52 60.6898 112.56 60.605C112.582 60.5538 112.606 60.5027 112.63 60.4528L112.783 60.1185L112.874 59.9264C115.297 58.8536 117.498 58.437 119.065 58.7963C119.63 58.91 120.152 59.1777 120.575 59.5696C120.649 59.6394 120.718 59.7135 120.782 59.7917C121.154 60.2619 121.374 60.8346 121.413 61.4332C121.451 61.9762 121.405 62.5218 121.278 63.0511Z" fill="black"/>
</g>
<path d="M121.247 63.1833C120.613 66.0211 117.995 69.7458 114.105 72.9478C112.056 74.6258 109.793 76.0234 107.375 77.104C107.375 77.0866 107.381 77.0703 107.385 77.0541C107.389 77.0379 107.396 77.0017 107.401 76.9755C107.575 76.0749 107.77 75.1706 107.983 74.2625C109.038 69.6638 110.53 65.1766 112.439 60.8619C112.479 60.7759 112.516 60.6898 112.556 60.605C112.578 60.5538 112.602 60.5027 112.626 60.4528L112.779 60.1185C112.785 60.1035 112.793 60.0898 112.799 60.0749C115.238 58.9884 117.454 58.5655 119.031 58.9273C119.596 59.0419 120.118 59.3094 120.542 59.7006C120.615 59.7705 120.684 59.8451 120.748 59.9239C121.118 60.3944 121.336 60.9667 121.372 61.5642C121.413 62.1071 121.371 62.6532 121.247 63.1833Z" fill="#796EEC"/>
<path opacity="0.1" d="M131.835 91.2794C133.536 83.9743 129.211 76.7218 122.174 75.0803C115.137 73.4388 108.053 78.03 106.352 85.335C104.651 92.6401 108.976 99.8926 116.013 101.534C123.05 103.176 130.134 98.5844 131.835 91.2794Z" fill="black"/>
<path d="M131.775 91.5421C133.476 84.2371 129.15 76.9845 122.113 75.3431C115.076 73.7016 107.993 78.2928 106.291 85.5978C104.59 92.9028 108.916 100.155 115.953 101.797C122.99 103.438 130.073 98.8471 131.775 91.5421Z" fill="#796EEC"/>
<path d="M120.114 84.94C120.089 85.0491 120.042 85.152 119.977 85.243C119.912 85.334 119.829 85.4113 119.734 85.4704C119.543 85.5898 119.311 85.6281 119.091 85.5768C118.871 85.5256 118.681 85.3889 118.561 85.197C118.442 85.005 118.404 84.7735 118.455 84.5534C118.562 84.0943 118.879 84.4149 119.336 84.5209C119.794 84.627 120.217 84.4823 120.114 84.94Z" fill="#65617D"/>
<g opacity="0.1">
<path d="M129.212 44.1807C131.784 44.7807 133.848 46.8638 135.328 50.0184C135.358 49.8738 135.391 49.7266 135.426 49.5781C135.515 49.1914 135.616 48.8172 135.724 48.4555C134.324 46.0917 132.519 44.535 130.353 44.0298C129.345 43.8015 128.299 43.7964 127.288 44.0148C127.934 43.9786 128.582 44.0345 129.212 44.1807Z" fill="black"/>
<path d="M141.191 82.0535C140.118 71.9735 139.696 61.8872 138.174 55.0466C138.949 54.1734 142.944 53.1481 143.436 51.0313C144.184 47.843 140.758 44.3192 139.744 44.0822C139.495 44.0235 139.211 44.1283 138.924 44.3691C140.188 45.0875 142.972 48.2721 142.299 51.1772C141.801 53.2978 137.812 54.3131 137.037 55.1925C138.56 62.0369 138.978 72.1232 140.056 82.2032C141.482 95.6 139.018 102.757 130.85 106.901C130.85 107.083 130.671 107.217 130.352 107.309C131.349 107.264 132.002 107.095 131.994 106.752C140.153 102.609 142.617 95.4503 141.191 82.0535Z" fill="black"/>
<path d="M119.643 39.8112C120.657 40.0469 120.877 42.8236 120.135 46.0131C119.963 46.7578 119.743 47.4904 119.475 48.206C119.99 47.6971 120.507 47.231 121.028 46.8077C121.116 46.5021 121.2 46.184 121.277 45.8647C122.025 42.6752 121.799 39.8985 120.786 39.6615C120.519 39.5991 120.038 39.639 119.463 39.7862C119.524 39.7893 119.584 39.7976 119.643 39.8112Z" fill="black"/>
</g>
<g opacity="0.1">
<path d="M139.142 85.1183C136.207 86.4467 130.312 80.6726 127.261 73.9256C125.186 69.3327 124.479 64.8322 125.167 62.0082C125.287 61.4771 125.488 60.9676 125.763 60.4976C126.061 59.9776 126.511 59.5612 127.053 59.3039C127.145 59.2616 127.24 59.2254 127.337 59.1953C127.889 59.0317 128.476 59.0231 129.033 59.1704C131.872 59.844 135.456 63.7283 137.889 69.1132C140.938 75.859 142.078 83.7886 139.142 85.1183Z" fill="black"/>
<g opacity="0.1">
<path d="M128.34 64.3133C128.011 64.6152 126.844 63.878 125.723 62.6643C125.521 62.4448 125.335 62.224 125.167 62.0082C125.287 61.4771 125.488 60.9677 125.763 60.4976C126.174 60.8231 126.559 61.1819 126.912 61.5704C128.026 62.7778 128.663 64.0102 128.34 64.3133Z" fill="black"/>
<path d="M129.033 59.1704C129.321 59.4232 129.596 59.6914 129.856 59.9737C130.97 61.1862 131.601 62.4136 131.277 62.7179C130.952 63.0223 129.781 62.2839 128.667 61.0702C128.043 60.3978 127.576 59.7205 127.337 59.1991L129.033 59.1704Z" fill="black"/>
</g>
</g>
<g opacity="0.1">
<path d="M139.527 84.6544C136.592 85.9841 130.697 80.2088 127.646 73.463C125.569 68.8689 124.863 64.3684 125.551 61.5443C125.671 61.0132 125.873 60.5037 126.148 60.0337C126.446 59.5135 126.896 59.097 127.438 58.84C127.53 58.7987 127.624 58.7629 127.721 58.7327C128.273 58.5678 128.861 58.5592 129.418 58.7078C132.256 59.3801 135.839 63.2657 138.274 68.6493C141.323 75.3952 142.461 83.3247 139.527 84.6544Z" fill="black"/>
</g>
<path d="M139.334 84.8863C136.4 86.216 130.504 80.4407 127.454 73.6937C125.377 69.1008 124.671 64.6003 125.359 61.7762C125.479 61.2451 125.681 60.7356 125.956 60.2657C126.254 59.7455 126.703 59.329 127.244 59.0719C127.337 59.0303 127.432 58.994 127.529 58.9634C128.081 58.7998 128.668 58.7911 129.225 58.9385C132.064 59.612 135.647 63.4976 138.082 68.8813C141.13 75.6258 142.269 83.5566 139.334 84.8863Z" fill="#796EEC"/>
<path d="M159.789 88.5624C159.789 88.5624 160.492 89.4817 159.465 90.8713C158.438 92.2608 157.595 93.4334 157.931 94.3003C157.931 94.3003 159.482 91.7195 160.745 91.6808C162.007 91.6421 161.177 90.1141 159.789 88.5624Z" fill="#796EEC"/>
<path opacity="0.1" d="M159.789 88.5624C159.85 88.6508 159.899 88.7479 159.932 88.8505C161.163 90.2987 161.82 91.6496 160.636 91.6833C159.533 91.7145 158.211 93.6878 157.894 94.1868C157.905 94.2242 157.918 94.2629 157.931 94.3003C157.931 94.3003 159.482 91.7195 160.744 91.6808C162.007 91.6421 161.177 90.1141 159.789 88.5624Z" fill="black"/>
<path d="M161.096 89.7349C161.096 90.0592 161.06 90.3212 161.015 90.3212C160.97 90.3212 160.934 90.0592 160.934 89.7349C160.934 89.4106 160.979 89.564 161.024 89.564C161.069 89.564 161.096 89.4106 161.096 89.7349Z" fill="#FFD037"/>
<path d="M161.545 90.1216C161.261 90.2763 161.013 90.3711 160.991 90.3312C160.97 90.2913 161.182 90.1341 161.466 89.9794C161.75 89.8248 161.639 89.937 161.661 89.9794C161.682 90.0219 161.829 89.9707 161.545 90.1216Z" fill="#FFD037"/>
<path d="M156.074 88.5624C156.074 88.5624 155.371 89.4817 156.4 90.8713C157.428 92.2608 158.269 93.4334 157.931 94.3003C157.931 94.3003 156.381 91.7195 155.12 91.6808C153.858 91.6421 154.687 90.1141 156.074 88.5624Z" fill="#796EEC"/>
<path opacity="0.1" d="M156.074 88.5624C156.013 88.6511 155.965 88.7481 155.931 88.8505C154.7 90.2987 154.044 91.6496 155.228 91.6833C156.33 91.7145 157.652 93.6878 157.97 94.1868C157.96 94.2253 157.947 94.2632 157.933 94.3003C157.933 94.3003 156.382 91.7195 155.121 91.6808C153.86 91.6421 154.687 90.1141 156.074 88.5624Z" fill="black"/>
<path d="M154.763 89.7349C154.763 90.0592 154.799 90.3212 154.844 90.3212C154.889 90.3212 154.925 90.0592 154.925 89.7349C154.925 89.4106 154.88 89.564 154.835 89.564C154.791 89.564 154.763 89.4106 154.763 89.7349Z" fill="#FFD037"/>
<path d="M154.319 90.1216C154.604 90.2763 154.852 90.3711 154.873 90.3312C154.894 90.2913 154.681 90.1341 154.397 89.9794C154.113 89.8248 154.225 89.937 154.204 89.9794C154.182 90.0219 154.035 89.9707 154.319 90.1216Z" fill="#FFD037"/>
<path opacity="0.1" d="M157.933 101.339C161.993 101.339 165.284 100.834 165.284 100.21C165.284 99.5869 161.993 99.0815 157.933 99.0815C153.873 99.0815 150.582 99.5869 150.582 100.21C150.582 100.834 153.873 101.339 157.933 101.339Z" fill="#796EEC"/>
<path d="M161.715 93.0592L161.681 93.3474L161.631 93.7528L161.611 93.9224L161.561 94.3278L161.54 94.4974L161.491 94.9028L160.928 99.5181C160.878 99.931 160.205 100.252 159.393 100.252H156.471C155.658 100.252 154.986 99.931 154.936 99.5181L154.373 94.9028L154.323 94.4974L154.303 94.3278L154.253 93.9224L154.232 93.7528L154.184 93.3474L154.147 93.0592C154.12 92.826 154.484 92.6301 154.943 92.6301H160.925C161.38 92.6301 161.743 92.826 161.715 93.0592Z" fill="#65617D"/>
<path d="M161.681 93.3474L161.632 93.7528H154.233L154.184 93.3474H161.681Z" fill="#9D9CB5"/>
<path d="M161.611 93.9223L161.562 94.3277H154.303L154.253 93.9223H161.611Z" fill="#9D9CB5"/>
<path d="M161.54 94.4974L161.491 94.9028H154.373L154.324 94.4974H161.54Z" fill="#9D9CB5"/>
<path d="M73.4996 97.1743C73.4996 97.1743 74.4843 98.4629 73.0447 100.409C71.6051 102.355 70.4186 103.997 70.8985 105.211C70.8985 105.211 73.0709 101.594 74.8382 101.546C76.6056 101.499 75.4377 99.3472 73.4996 97.1743Z" fill="#796EEC"/>
<path opacity="0.1" d="M73.4997 97.1743C73.5855 97.2989 73.6534 97.435 73.7016 97.5785C75.4253 99.6067 76.3451 101.499 74.6862 101.546C73.142 101.591 71.2898 104.354 70.8461 105.053C70.8611 105.106 70.8785 105.159 70.8985 105.211C70.8985 105.211 73.0709 101.594 74.8383 101.546C76.6056 101.499 75.4378 99.3472 73.4997 97.1743Z" fill="black"/>
<path d="M75.3244 98.817C75.3244 99.271 75.2733 99.6378 75.211 99.6378C75.1486 99.6378 75.0975 99.271 75.0975 98.817C75.0975 98.363 75.1611 98.5775 75.2222 98.5775C75.2832 98.5775 75.3244 98.363 75.3244 98.817Z" fill="#FFD037"/>
<path d="M75.9525 99.3585C75.5549 99.5755 75.2047 99.7065 75.1773 99.6516C75.1499 99.5967 75.4465 99.3759 75.8441 99.1527C76.2417 98.9294 76.0847 99.094 76.1146 99.1527C76.1445 99.2113 76.3501 99.1414 75.9525 99.3585Z" fill="#FFD037"/>
<path d="M68.2923 97.1743C68.2923 97.1743 67.3064 98.4629 68.746 100.409C70.1855 102.355 71.3721 103.997 70.8922 105.211C70.8922 105.211 68.7211 101.594 66.9537 101.546C65.1863 101.499 66.348 99.3472 68.2923 97.1743Z" fill="#796EEC"/>
<path opacity="0.1" d="M68.2923 97.1743C68.2057 97.2989 68.1377 97.4355 68.0904 97.5797C66.3654 99.6079 65.4468 101.5 67.1045 101.548C68.6488 101.593 70.5021 104.355 70.9458 105.054C70.931 105.108 70.9131 105.161 70.8922 105.212C70.8922 105.212 68.7211 101.595 66.9537 101.548C65.1863 101.5 66.348 99.3472 68.2923 97.1743Z" fill="black"/>
<path d="M66.4614 98.817C66.4614 99.271 66.5112 99.6378 66.5748 99.6378C66.6384 99.6378 66.6882 99.271 66.6882 98.817C66.6882 98.363 66.6246 98.5775 66.5636 98.5775C66.5025 98.5775 66.4614 98.363 66.4614 98.817Z" fill="#FFD037"/>
<path d="M65.8332 99.3585C66.2307 99.5755 66.581 99.7065 66.6072 99.6516C66.6333 99.5967 66.3392 99.3759 65.9416 99.1527C65.544 98.9294 65.701 99.094 65.6699 99.1527C65.6387 99.2113 65.4343 99.1414 65.8332 99.3585Z" fill="#FFD037"/>
<path opacity="0.1" d="M70.8935 115.072C76.58 115.072 81.1898 114.363 81.1898 113.49C81.1898 112.616 76.58 111.908 70.8935 111.908C65.207 111.908 60.5972 112.616 60.5972 113.49C60.5972 114.363 65.207 115.072 70.8935 115.072Z" fill="#796EEC"/>
<path d="M76.193 103.473L76.1432 103.876L76.0734 104.445L76.0447 104.682L75.9762 105.251L75.9463 105.488L75.8777 106.056L75.0888 112.521C75.019 113.097 74.0767 113.547 72.94 113.547H68.8457C67.7077 113.547 66.768 113.097 66.6969 112.521L65.908 106.062L65.8394 105.494L65.8108 105.257L65.7397 104.688L65.711 104.451L65.6425 103.883L65.5926 103.48C65.554 103.153 66.0625 102.878 66.7069 102.878H75.08C75.7219 102.872 76.2329 103.147 76.193 103.473Z" fill="#65617D"/>
<path d="M76.1432 103.876L76.0746 104.445H65.7123L65.6425 103.876H76.1432Z" fill="#9D9CB5"/>
<path d="M76.0459 104.682L75.9761 105.251H65.8107L65.7409 104.682H76.0459Z" fill="#9D9CB5"/>
<path d="M75.9463 105.488L75.8777 106.056H65.908L65.8394 105.488H75.9463Z" fill="#9D9CB5"/>
<defs>
<linearGradient id="paint0_linear_219_4936" x1="100.203" y1="0" x2="100.203" y2="120" gradientUnits="userSpaceOnUse">
<stop offset="0.0001" stop-color="#8981E8"/>
<stop offset="1" stop-color="#E7D8FF"/>
</linearGradient>
<linearGradient id="paint1_linear_219_4936" x1="63.5228" y1="83.0116" x2="93.8351" y2="24.7047" gradientUnits="userSpaceOnUse">
<stop stop-color="#808080" stop-opacity="0.25"/>
<stop offset="0.54" stop-color="#808080" stop-opacity="0.12"/>
<stop offset="1" stop-color="#808080" stop-opacity="0.1"/>
</linearGradient>
</defs>
</svg>
