<svg width="144" height="208" viewBox="0 0 144 208" fill="none" xmlns="http://www.w3.org/2000/svg">
<mask id="mask0_179_4191" style="mask-type:alpha" maskUnits="userSpaceOnUse" x="0" y="0" width="144" height="208">
<rect width="144" height="208" fill="#DEDEDE"/>
</mask>
<g mask="url(#mask0_179_4191)">
<rect x="-70.7143" width="345.429" height="208" fill="url(#paint0_linear_179_4191)"/>
<path opacity="0.1" d="M102.59 175.952C135.253 175.952 161.732 173.28 161.732 169.984C161.732 166.687 135.253 164.016 102.59 164.016C69.9272 164.016 43.4487 166.687 43.4487 169.984C43.4487 173.28 69.9272 175.952 102.59 175.952Z" fill="#796EEC"/>
<path opacity="0.1" d="M85.3123 47.8744C71.8172 47.4825 58.9623 43.853 46.6893 39.8806C34.4163 35.9081 22.2562 31.5117 9.08312 29.4068C0.609871 28.0537 -9.07788 27.8615 -15.9054 31.6474C-22.4731 35.2882 -24.5971 41.5766 -25.7382 47.409C-26.5968 51.7979 -27.1014 56.4186 -24.7496 60.5267C-23.1152 63.3798 -20.2155 65.7768 -18.2102 68.5093C-11.2301 78.0182 -16.1634 89.7414 -23.7272 99.0243C-27.2747 103.379 -31.3889 107.534 -34.1267 112.17C-36.8645 116.806 -38.128 122.122 -35.7347 126.846C-33.3603 131.533 -27.704 135.053 -21.575 137.529C-9.12872 142.559 5.53942 143.999 19.8498 144.813C51.5002 146.62 83.322 145.836 115.074 145.054C126.822 144.766 138.611 144.472 150.178 142.959C156.595 142.118 163.221 140.784 167.877 137.563C173.794 133.474 175.259 126.552 171.295 121.425C164.648 112.826 146.267 110.683 141.62 101.463C139.063 96.3842 141.689 90.7214 145.406 86.0102C153.379 75.9058 166.744 67.0394 167.448 55.482C167.932 47.5484 161.507 39.6036 151.573 35.8497C141.16 31.915 126.718 32.4106 119.038 38.9233C111.129 45.6395 97.2294 48.2193 85.3123 47.8744Z" fill="#796EEC"/>
<path opacity="0.5" d="M-4.55503 143.982C-6.04632 143.317 -4.78475 136.09 -1.54231 124.949C0.528925 117.801 3.42489 109.042 6.93094 99.3747C7.18325 98.6812 7.43933 97.9859 7.69541 97.283C7.98413 96.4953 8.27661 95.7013 8.57286 94.901L8.59923 94.8351C8.64065 94.7201 8.68396 94.6071 8.72538 94.494C9.84762 91.4789 11.0207 88.394 12.2446 85.2394C12.2672 85.1753 12.2917 85.1132 12.3162 85.051L12.3783 84.8908C12.672 84.137 12.9695 83.3832 13.2689 82.6162C13.3009 82.5371 13.3311 82.4542 13.3631 82.375C13.4064 82.2638 13.4497 82.1564 13.4911 82.0471C13.5062 82.0132 13.5175 81.9774 13.5325 81.9473C13.557 81.8813 13.5834 81.8172 13.6079 81.7588C13.9091 81.005 14.2085 80.2418 14.5079 79.4975C14.9975 78.2789 15.4833 77.0722 15.9653 75.8774C16.0494 75.6676 16.1341 75.4603 16.2195 75.2556C16.4618 74.6538 16.7047 74.0564 16.9482 73.4634C17.0424 73.2373 17.1365 73.0093 17.2269 72.785C17.2984 72.6135 17.3681 72.4402 17.4378 72.2706C18.2022 70.42 18.9617 68.6053 19.7161 66.8264C19.718 66.8202 19.718 66.8137 19.7161 66.8075C22.5876 60.0367 25.365 53.8199 27.9446 48.3851C27.9597 48.3568 27.971 48.3267 27.986 48.2984L28.2591 47.7217C34.8795 33.8314 40.0877 25.259 41.8483 26.0505C43.6597 26.857 41.4039 37.3836 36.4612 52.8588C36.3971 53.0642 36.3312 53.2658 36.2635 53.4712C36.2532 53.5115 36.2406 53.5511 36.2258 53.5899C35.9747 54.3915 35.7105 55.2081 35.4331 56.0397C35.418 56.0887 35.4011 56.1377 35.3841 56.1867C34.7565 58.1089 34.0887 60.0938 33.3807 62.1416C33.2846 62.4167 33.1924 62.6975 33.0907 62.9764C31.9986 66.1404 30.8312 69.4345 29.579 72.8303C29.5037 73.0394 29.4265 73.2467 29.3493 73.4578C28.0971 76.8592 26.7772 80.3606 25.3951 83.9335C25.3066 84.1596 25.2181 84.3876 25.1315 84.6157C25.1127 84.6647 25.0938 84.7118 25.0731 84.7608C24.7279 85.6465 24.3808 86.5359 24.0318 87.4291C23.932 87.6779 23.8435 87.9266 23.7381 88.1735C23.4896 88.8048 23.241 89.4361 22.9849 90.058C22.9642 90.1145 22.9416 90.171 22.919 90.2257C22.8964 90.2803 22.8832 90.3143 22.8644 90.3576C22.823 90.4669 22.7797 90.5743 22.7364 90.6817C22.6196 90.9738 22.5048 91.2659 22.388 91.5542C22.1866 92.0593 21.9851 92.5586 21.7836 93.0618L21.7215 93.2125C21.722 93.2195 21.722 93.2264 21.7215 93.2333C20.903 95.2572 20.0871 97.2465 19.2736 99.2014C19 99.8609 18.727 100.516 18.4546 101.167C18.2531 101.647 18.0535 102.126 17.852 102.599C16.357 106.136 14.8883 109.523 13.4572 112.732C4.80321 132.11 -2.41977 144.935 -4.55503 143.982Z" fill="#796EEC"/>
<path opacity="0.5" d="M-1.02074 130.529C-1.93962 130.133 -0.798553 124.992 1.78861 117.006C3.4456 111.884 5.69949 105.59 8.37892 98.6285L8.96452 97.121C9.18419 96.5544 9.40763 95.9828 9.63484 95.4061C9.64194 95.3901 9.64822 95.3738 9.65367 95.3571L9.75159 95.1121C10.6064 92.935 11.4983 90.7113 12.4272 88.4412C12.4442 88.3941 12.463 88.3507 12.4819 88.3055C12.5007 88.2603 12.512 88.2282 12.5289 88.1905C12.7511 87.644 12.9752 87.0994 13.2011 86.5492L13.2746 86.3739L13.3706 86.1384C13.3819 86.1139 13.3913 86.0875 13.4007 86.0649C13.4101 86.0423 13.4403 85.9725 13.4591 85.9273C13.6876 85.377 13.9141 84.8312 14.1388 84.2897C14.5079 83.4103 14.8738 82.539 15.2366 81.676L15.4249 81.2275C15.6132 80.7922 15.7902 80.3625 15.9728 79.9328L16.1818 79.4429C16.2364 79.3185 16.2873 79.1941 16.34 79.066C16.9137 77.7305 17.483 76.419 18.0478 75.1312C18.049 75.1269 18.049 75.1224 18.0478 75.1181C20.1944 70.2185 22.2581 65.7221 24.1523 61.7817C24.1636 61.761 24.1731 61.7384 24.1844 61.7177L24.3839 61.2993C29.2532 51.2231 32.9739 44.9535 34.0585 45.4228C35.1751 45.9052 33.2432 53.411 29.37 64.5217L29.2156 64.9627C29.2062 64.991 29.1968 65.0192 29.1855 65.0475C28.9846 65.6229 28.7781 66.2077 28.566 66.8019L28.5283 66.9075C28.035 68.2894 27.5159 69.7159 26.9711 71.1871C26.8977 71.3868 26.8242 71.5885 26.747 71.7882C25.9035 74.0628 25.0016 76.4353 24.0488 78.8813L23.8737 79.3317C22.9171 81.7815 21.9129 84.2979 20.861 86.8808C20.7951 87.0448 20.7292 87.2087 20.6614 87.3727C20.6463 87.4085 20.6312 87.4424 20.6181 87.4782L19.8291 89.4022L19.6069 89.9393C19.4186 90.3954 19.2303 90.8514 19.042 91.3018C19.027 91.3432 19.01 91.3828 18.9931 91.4224C18.9761 91.462 18.9667 91.4865 18.9517 91.5185L18.8556 91.7503C18.7671 91.9613 18.6805 92.1724 18.592 92.3816L18.1495 93.4783L18.1024 93.5876V93.6027C17.4848 95.065 16.8723 96.5016 16.2647 97.9125C16.0601 98.3898 15.8548 98.8635 15.649 99.3333C15.4983 99.6826 15.3477 100.028 15.1971 100.37C14.0786 102.925 12.9846 105.377 11.9226 107.698C5.49236 121.745 0.295438 131.098 -1.02074 130.529Z" fill="#796EEC"/>
<path d="M59.5573 92.3966C59.5573 91.8709 59.0433 92.1422 58.9718 92.1648C58.7653 91.9951 58.5404 91.8491 58.3014 91.7295C57.1547 91.1321 55.4224 90.7684 54.0422 90.5555C54.0373 90.5538 54.032 90.5538 54.0271 90.5555C52.8108 90.3671 51.8731 90.303 51.8731 90.303L51.1557 90.3124H50.8883C50.9822 90.1728 51.12 90.0687 51.2799 90.0166C51.4795 89.9921 50.4364 89.9148 49.9412 89.8809H49.9204L49.6907 89.8658C48.6024 90.1221 46.5632 88.7219 46.5632 88.7219L46.3259 87.5272C47.1318 86.6547 47.0151 84.4744 47.0151 84.4744C47.0151 84.4744 47.0828 83.7432 47.7682 82.7369C48.4536 81.7306 47.6534 81.0936 47.6534 81.0936L48.8377 79.8292C48.7868 79.6111 48.7796 79.3851 48.8164 79.1641C48.8533 78.9432 48.9335 78.7318 49.0524 78.5421C49.1247 78.4349 49.2144 78.3406 49.3179 78.2632V78.2538L49.3367 78.2368C50.1106 77.6432 50.764 75.5816 50.764 75.5816C50.764 75.5816 50.6134 75.2141 51.4607 74.2173V74.206C51.5737 74.074 51.7055 73.9327 51.858 73.7744C51.858 73.7612 51.8806 73.7499 51.8919 73.7367C53.2514 72.3724 52.7166 71.6186 52.7166 71.6186L51.0653 69.6098C51.455 68.9577 48.3256 64.2786 48.3256 64.2786C48.3256 64.2786 47.9264 63.3157 48.1524 62.3942C48.2157 62.1771 48.2221 61.9474 48.1712 61.7271C48.1414 61.6027 48.0805 61.4879 47.9942 61.3935C47.9411 61.3367 47.877 61.2912 47.8059 61.2597L47.6929 61.2503L47.8266 61.1523C47.8812 61.1165 47.9339 61.0769 47.9885 61.0392C48.1053 61.0845 48.222 61.124 48.3407 61.1598C49.49 61.5314 50.7142 61.6078 51.9007 61.3819C53.0872 61.156 54.1979 60.6351 55.1306 59.8671C55.1776 59.8313 55.2228 59.7917 55.2661 59.7522C55.3094 59.7126 55.3847 59.6504 55.4431 59.5957C55.4695 59.5712 55.4958 59.5486 55.5184 59.5241C55.541 59.4996 55.6069 59.4375 55.6502 59.3922C55.6634 59.4337 55.6766 59.4733 55.6917 59.5147C55.7507 59.6817 55.8218 59.8442 55.9044 60.0009C55.9115 60.0154 55.9197 60.0292 55.9289 60.0424C55.9283 60.048 55.9283 60.0537 55.9289 60.0593C55.9421 60.0876 55.959 60.114 55.9741 60.1404C56.0814 60.32 56.2118 60.4847 56.362 60.6303C56.3987 60.6667 56.4377 60.7007 56.4787 60.7321C56.5374 60.7822 56.6004 60.827 56.667 60.8659C56.6769 60.8745 56.6876 60.8821 56.699 60.8885C56.7102 60.8971 56.7222 60.9047 56.7348 60.9111C56.7838 60.8244 56.8308 60.7358 56.876 60.6473C57.2759 59.8666 57.5087 59.0111 57.5595 58.1353C57.5618 58.0287 57.5706 57.9223 57.5859 57.8168C57.5961 57.7362 57.6197 57.6579 57.6556 57.585C57.7252 57.4418 57.8378 57.3239 57.9776 57.2477C58.2034 57.1327 58.4407 57.0417 58.6855 56.9764L58.7439 56.9556L58.8155 56.9311L58.9548 56.8765L58.9774 56.8652C59.0188 56.8482 59.0565 56.8275 59.096 56.8086C59.1079 56.8 59.1205 56.7924 59.1337 56.786C59.1788 56.7608 59.2216 56.7318 59.2617 56.6993L59.2806 56.6843C59.3171 56.6565 59.3511 56.6256 59.3822 56.5919C59.3973 56.5768 59.4067 56.558 59.4218 56.5429C59.4427 56.5201 59.4616 56.4955 59.4783 56.4694L59.5235 56.4035C59.5332 56.3825 59.5445 56.3624 59.5573 56.3432C59.7014 56.051 59.7663 55.7261 59.7456 55.4009C59.7193 54.9336 59.5818 54.4813 59.5875 54.0121C59.6044 52.8908 60.4122 51.8205 60.3407 50.7068C60.2766 49.7419 59.5668 48.9919 58.8343 48.3926C58.1018 47.7934 57.2884 47.2337 56.8873 46.3763C56.5879 45.7337 56.5465 44.9855 56.2773 44.3298C55.7124 42.956 54.0554 42.1815 52.5584 42.5904C51.6622 42.8373 50.8826 43.4309 50.0108 43.7606C49.4346 43.9774 48.8302 44.0754 48.2559 44.2958C47.5776 44.5581 46.9697 44.9749 46.4803 45.5132C46.3937 45.6074 46.3127 45.7016 46.2336 45.8072L46.1602 45.907C46.1056 45.9824 46.051 46.0578 46.002 46.137C45.9794 46.1709 45.9587 46.2029 45.938 46.2387C45.8694 46.3478 45.8065 46.4604 45.7497 46.576C45.6951 46.6834 45.648 46.7927 45.601 46.9039C45.3392 47.5371 45.1773 48.2117 44.8629 48.8148C44.7931 48.9521 44.7139 49.0843 44.6256 49.2105C44.5032 49.3858 44.362 49.5497 44.2227 49.7155C44.185 49.7608 44.1473 49.806 44.1097 49.8474C44.0943 49.8694 44.0773 49.8902 44.0588 49.9096C44.0325 49.9454 44.0023 49.9794 43.9741 50.0152C43.9459 50.051 43.9402 50.0585 43.9251 50.0792C43.9101 50.1 43.8687 50.1565 43.8442 50.1961C43.8197 50.2356 43.8159 50.2319 43.8028 50.2526C43.7651 50.311 43.7312 50.3713 43.6973 50.4316V50.4448C43.5918 50.6477 43.5339 50.872 43.5278 51.1006C43.5256 51.2137 43.5421 51.3265 43.5768 51.4342C43.5858 51.4618 43.5965 51.4889 43.6088 51.5152C43.6372 51.5758 43.6746 51.6317 43.7199 51.681C43.6973 51.7432 43.6709 51.8073 43.6502 51.8695C43.6013 52.0127 43.5561 52.1597 43.5147 52.3048C43.4883 52.4047 43.4676 52.4932 43.445 52.5969C43.3572 52.9785 43.3012 53.3668 43.2774 53.7577L43.1569 53.8199C42.9449 53.9253 42.7267 54.0178 42.5035 54.0969H42.4809C42.2926 54.1384 40.9934 54.4097 40.5377 54.3306L38.9127 54.046C38.9127 54.046 38.5362 53.8896 38.1238 53.6917C37.8126 53.5556 37.5223 53.3761 37.2614 53.1584C36.9507 52.823 34.8023 51.4398 34.3504 51.4417C34.166 51.4129 33.9978 51.3193 33.8759 51.1779C33.7394 51.0108 33.6136 50.8352 33.4993 50.6521C33.4993 50.6521 33.456 50.6295 33.3882 50.588C33.3035 50.4693 33.2507 50.3808 33.2507 50.3808C33.2507 50.3808 32.6124 50.0302 31.9628 49.627L31.686 50.1923C31.6709 50.2206 31.6578 50.2507 31.6427 50.2809C29.0216 55.6893 26.1558 61.8646 23.1694 68.5714C23.1705 68.5777 23.1705 68.584 23.1694 68.5903C22.3824 70.3491 21.5884 72.1462 20.7875 73.9817L20.5672 74.4905L20.2735 75.1614L19.5071 76.9328L19.2397 77.549C18.7313 78.7286 18.2192 79.9221 17.7033 81.1294C17.3869 81.8694 17.0693 82.6163 16.7505 83.3701C16.726 83.4323 16.6978 83.4963 16.6714 83.5585C16.6563 83.5905 16.6432 83.6245 16.6281 83.6584C16.5848 83.7658 16.5377 83.8732 16.4925 83.9825C16.4586 84.0598 16.4247 84.1427 16.3908 84.22C16.0745 84.9737 15.7601 85.7275 15.4494 86.4662L15.3063 86.5397L15.3835 86.6245C15.3571 86.6867 15.3307 86.747 15.3063 86.813C14.007 89.9186 12.7517 92.962 11.5404 95.9432L11.4048 96.2786L11.3766 96.3446C11.0577 97.1323 10.7439 97.9143 10.4351 98.6907C10.1589 99.3842 9.88464 100.071 9.61224 100.752C5.82564 110.273 2.62275 118.868 0.240825 125.855C0.127848 125.932 0.00734014 126.021 -0.115051 126.121C0.00734014 126.029 0.125966 125.932 0.235177 125.866C0.329407 125.802 0.427505 125.744 0.528916 125.691C0.750565 125.573 0.954123 125.424 1.13334 125.248C1.21431 125.173 1.29339 125.096 1.37059 125.015C1.81229 124.519 2.21281 123.989 2.56815 123.428C2.62545 123.36 2.68844 123.297 2.75644 123.24L2.85624 123.149L2.8713 123.136C2.9259 123.089 2.98428 123.036 3.05018 122.981L3.06148 122.972L3.15939 122.891L3.17069 122.881L3.27613 122.793C3.59811 122.529 3.99165 122.218 4.36636 121.924L4.50193 121.821L4.95948 121.466L5.18544 121.295L5.68442 120.918C5.68899 120.91 5.69402 120.903 5.69948 120.895C5.74467 120.837 5.84824 120.707 5.99322 120.528C5.99593 120.524 5.99988 120.52 6.00452 120.518C6.02157 120.495 6.03979 120.472 6.05913 120.451C6.25872 120.217 6.51857 119.925 6.8123 119.635C6.84808 119.601 6.88386 119.563 6.9234 119.529L7.03072 119.425L7.20584 119.269C7.37804 119.116 7.55912 118.973 7.74813 118.841C7.99 118.667 8.22138 118.478 8.44105 118.276L8.48812 118.234C8.52013 118.202 8.55591 118.168 8.59357 118.136C8.62067 118.113 8.64644 118.089 8.67077 118.063L8.75174 117.988L8.88542 117.861L8.97016 117.78L9.16975 117.592L9.39382 117.369L9.42771 117.336C9.54257 117.219 9.65932 117.1 9.77794 116.983L9.91539 116.844C9.97188 116.785 10.0284 116.725 10.0849 116.668C10.1809 116.572 10.2732 116.48 10.3711 116.376L10.5801 116.158C10.6479 116.084 10.7156 116.016 10.7797 115.949C10.8832 115.841 10.9811 115.739 11.0734 115.64L11.0941 115.617L11.3333 115.364C11.3333 115.364 11.3333 115.364 11.3445 115.351C11.4029 115.293 11.4538 115.238 11.5027 115.183L11.5498 115.133C11.5969 115.087 11.6383 115.04 11.6741 115.003C11.8153 114.854 11.8963 114.765 11.8963 114.765L13.5909 112.834L15.3176 110.815L15.3948 110.729C15.3948 110.729 15.8354 110.065 16.2854 109.517L16.3456 109.443C16.4993 109.251 16.6714 109.073 16.8597 108.914C17.0114 108.787 17.1507 108.645 17.2758 108.492C17.2852 108.492 17.2928 108.471 17.3041 108.46C17.8125 107.864 18.4696 106.939 18.6805 106.636L18.7502 106.538C18.9253 106.392 19.0867 106.23 19.2322 106.055C19.409 105.85 19.5514 105.618 19.654 105.367C19.7533 105.142 19.8798 104.93 20.0306 104.736C20.0314 104.733 20.0314 104.73 20.0306 104.727L20.0607 104.685L20.168 104.546C20.301 104.571 20.4357 104.588 20.571 104.595C21.1898 104.618 21.8082 104.539 22.4012 104.361C22.4185 104.357 22.4355 104.351 22.452 104.344C22.6064 104.308 22.7232 104.274 22.7853 104.256L22.8399 104.239L24.0092 102.524L24.0375 102.484C24.0375 102.484 24.6551 101.898 25.2463 101.271C25.3104 101.203 25.3725 101.135 25.4346 101.069C25.8564 100.613 26.2292 100.164 26.3027 99.9269C26.491 99.3333 27.5285 98.1273 27.5285 98.1273C27.5285 98.1273 29.3078 95.8508 30.0026 94.9915C30.0309 94.9557 30.0591 94.9199 30.0836 94.8916L30.1778 94.7767C30.199 94.7915 30.2192 94.8079 30.238 94.8257C30.2904 94.8776 30.3377 94.9344 30.3792 94.9953C30.383 95.0032 30.3874 95.0107 30.3924 95.0179L30.4508 94.935C30.4903 94.8822 30.5449 94.8012 30.6184 94.7013C30.6751 94.7547 30.725 94.8148 30.7671 94.8803L30.7841 94.9048C30.7841 94.9048 34.7194 89.4663 35.3333 87.9323C35.4748 87.6123 35.6524 87.3095 35.8624 87.0297C36.6664 85.916 38.0221 84.6308 38.6585 84.0485L38.8468 83.8808C38.9448 83.7903 39.0031 83.7413 39.0031 83.7413L39.0709 83.8883C39.0709 83.8996 39.0709 83.9109 39.0841 83.9241C39.246 84.2916 39.5737 85.1057 39.3985 85.3299C39.1745 85.6239 38.5738 88.5919 38.5738 88.5919C38.5738 88.5919 37.7547 89.8959 38.2857 91.8991C38.8167 93.9023 41.0348 94.6014 41.53 94.56C41.8483 94.5317 44.6312 95.6907 46.6027 96.5405L47.0885 96.7497L47.5781 96.9589L48.3407 97.2924L48.384 97.3113C48.4461 97.3414 48.5101 97.3697 48.5723 97.3942L48.6118 97.3414L48.6306 97.3132L48.8189 97.4017L48.6306 97.2943C48.7078 97.185 48.8415 96.9872 49.0072 96.7177C49.0154 96.6991 49.0255 96.6814 49.0373 96.6649L49.0901 96.5763L49.1786 96.4256C49.188 96.4049 49.1993 96.3879 49.2087 96.3709L49.2991 96.2089C49.3048 96.2011 49.3098 96.193 49.3141 96.1844C49.4384 95.9582 49.5683 95.7057 49.6907 95.4306C49.7096 95.3948 49.7284 95.3552 49.7453 95.3175L50.2311 95.2761L50.5663 95.2478L50.7546 95.2327L50.9994 95.2082L51.1142 95.2308L55.7538 95.5663L56.0927 95.5927C56.5346 95.6315 56.9797 95.5776 57.3995 95.4343C57.8193 95.2911 58.2046 95.0617 58.5307 94.7609C58.8569 94.46 59.1167 94.0943 59.2934 93.6872C59.4702 93.2801 59.5601 92.8405 59.5573 92.3966Z" fill="url(#paint1_linear_179_4191)"/>
<path d="M48.1975 97.5072C48.1975 97.5072 51.7262 92.7207 49.3141 90.0712L43.5919 91.8105L43.8931 93.9117C43.8931 93.9117 46.373 96.778 48.1975 97.5072Z" fill="#65617D"/>
<path opacity="0.1" d="M43.5919 91.8105L43.8931 93.9117C43.8931 93.9117 45.6443 95.9281 47.2824 97.0097C47.5725 97.2051 47.8808 97.3718 48.2032 97.5072C48.2032 97.5072 48.2239 97.4827 48.2597 97.43C48.2639 97.4239 48.2676 97.4177 48.271 97.4111C48.6976 96.7921 49.0706 96.1377 49.3857 95.4551C49.5024 95.1969 49.6173 94.9199 49.7227 94.6391C50.0993 93.5668 50.3328 92.3532 50.0052 91.2791C49.887 90.8812 49.6898 90.5114 49.4252 90.1918C49.4026 90.1654 49.38 90.1371 49.3537 90.1107C49.3435 90.0966 49.3321 90.0834 49.3198 90.0712L49.1936 90.1089L47.258 90.6968L43.5919 91.8105Z" fill="black"/>
<path d="M19.7029 77.1231L19.2228 77.5509L19.4902 76.9347L19.7029 77.1231Z" fill="#65617D"/>
<path opacity="0.1" d="M19.7029 77.1231L19.2228 77.5509L19.4902 76.9347L19.7029 77.1231Z" fill="black"/>
<path d="M49.9355 90.5215C49.9355 90.5215 47.4463 93.2371 48.9564 94.9576C48.9564 94.9576 49.6832 95.1686 50.7546 95.3665C53.2231 95.8188 57.5106 96.1956 58.8851 93.7195C60.8509 90.1729 51.4701 90.4933 51.4701 90.4933L50.7602 90.5065L49.9355 90.5215Z" fill="#FBBEBE"/>
<path opacity="0.1" d="M49.9355 90.5217C49.9355 90.5217 47.4463 93.2372 48.9564 94.9577C48.9564 94.9577 49.6832 95.1687 50.7546 95.3666L51.0709 95.3383C50.6585 95.1916 50.2831 94.9561 49.9713 94.6486C49.5721 94.2359 49.2897 93.6159 49.6173 92.7453C49.7999 92.2477 50.013 91.7618 50.2556 91.2905C50.3954 91.012 50.5646 90.7491 50.7602 90.5066L49.9355 90.5217Z" fill="black"/>
<path d="M45.7309 95.7717L46.5669 95.7L49.3801 95.4551L50.8149 95.3288C50.4028 95.1822 50.0281 94.9468 49.7171 94.6391C49.3179 94.2245 49.0336 93.6064 49.3612 92.7358C49.5446 92.2379 49.7578 91.7514 49.9995 91.2791C50.4025 90.5253 50.7132 90.2389 50.8845 90.2163C51.0559 90.1937 50.0504 90.1183 49.5665 90.0862H49.5476C49.4102 90.0749 49.3198 90.0712 49.3198 90.0712L49.188 90.1089L47.3126 90.6516L47.2523 90.6949C46.7929 91.0285 44.025 93.1937 45.7309 95.7717Z" fill="#E7EFFD"/>
<path d="M24.0563 96.8119L21.1603 103.436C21.1603 103.436 20.6576 103.963 20.2057 104.519C20.1986 104.53 20.1904 104.54 20.1812 104.549L20.072 104.691C20.0602 104.703 20.0495 104.716 20.04 104.73C20.0408 104.733 20.0408 104.737 20.04 104.74C19.8458 104.973 19.6837 105.231 19.5579 105.507C19.4773 105.704 19.3703 105.89 19.2397 106.059C19.0764 106.271 18.8915 106.466 18.688 106.639C18.6793 106.648 18.6699 106.657 18.6598 106.664C18.6598 106.664 17.9066 107.744 17.3116 108.464C17.3003 108.475 17.2928 108.488 17.2833 108.496C17.1316 108.685 16.9634 108.861 16.7806 109.021C16.6251 109.15 16.482 109.292 16.3532 109.447L16.2929 109.521C15.8203 110.086 15.3251 110.819 15.3251 110.819L13.6003 112.785L11.8435 114.773L11.6759 114.961L11.5517 115.091L11.5046 115.142L11.3464 115.31C11.3464 115.31 11.337 115.31 11.3351 115.323L11.096 115.575L11.0753 115.598C10.9811 115.694 10.887 115.798 10.7815 115.907C10.7175 115.975 10.6497 116.043 10.5819 116.116L10.3729 116.335C10.2788 116.431 10.1846 116.523 10.0867 116.627C10.0302 116.684 9.97375 116.744 9.91726 116.802L9.7798 116.942C9.66117 117.059 9.54444 117.177 9.42958 117.294L9.39568 117.328L9.17161 117.55L8.97202 117.739L8.88729 117.82L8.7536 117.946L8.67263 118.021C8.6483 118.047 8.62253 118.072 8.59543 118.095C8.55966 118.131 8.52388 118.163 8.48998 118.193L8.44291 118.234C8.21782 118.449 7.97879 118.647 7.72739 118.83C7.48348 119.003 7.25137 119.192 7.03258 119.395L6.92526 119.499C6.88571 119.533 6.84994 119.571 6.81416 119.604C6.52231 119.895 6.26246 120.187 6.06098 120.42C6.04165 120.442 6.02343 120.465 6.00638 120.488C6.00174 120.49 5.99779 120.493 5.99508 120.498C5.85009 120.673 5.74653 120.807 5.70134 120.865L5.67687 120.895L5.17788 121.272L4.95193 121.444L4.49437 121.798L4.35881 121.902C3.98222 122.196 3.59056 122.506 3.26858 122.77L3.16313 122.859L3.15184 122.868L3.05392 122.949L3.04262 122.959C2.97672 123.013 2.91835 123.066 2.86374 123.113L2.84868 123.126L2.74889 123.217C2.68924 123.269 2.63442 123.326 2.58507 123.388C2.22537 123.955 1.81846 124.49 1.36869 124.988C1.29149 125.069 1.2124 125.147 1.13144 125.222C0.962704 125.385 0.772669 125.523 0.566553 125.635C0.455091 125.69 0.347515 125.753 0.244568 125.823C2.62649 118.836 5.82938 110.241 9.61599 100.72C9.88713 100.038 10.1614 99.3509 10.4388 98.6587C10.7514 97.8823 11.0652 97.1002 11.3803 96.3125L11.4085 96.2466L11.5441 95.9111C12.7492 92.9337 14.0045 89.8903 15.31 86.7809C15.3345 86.7188 15.3608 86.6584 15.3872 86.5925L15.31 86.5077L15.4531 86.4342C15.7657 85.6804 16.0801 84.9417 16.3946 84.1879C16.4285 84.1107 16.4624 84.0277 16.4963 83.9505C16.5415 83.8412 16.5885 83.7338 16.6318 83.6264C16.6469 83.5924 16.6601 83.5585 16.6751 83.5265C16.7015 83.4624 16.7298 83.3983 16.7542 83.338C17.0743 82.5843 17.3919 81.8374 17.707 81.0974L21.0247 84.8098L21.1641 84.9624L23.4801 87.5159L23.6213 87.6685L24.3425 88.4638L24.7323 88.8934L24.9206 89.0988L27.2404 91.656L27.2705 91.69L27.3797 91.8087L24.0563 96.8119Z" fill="#3F3D56"/>
<path d="M40.6507 55.1276L40.1875 61.6309C40.1875 61.6309 45.7497 64.2691 45.9136 63.3005C45.9795 62.9236 46.7044 62.3018 47.5706 61.6837C48.9357 60.7056 50.6511 59.7314 50.6511 59.7314C50.6511 59.7314 45.0568 51.2909 44.3921 53.0547C44.1492 53.6992 43.5862 54.1496 42.9686 54.4605C42.2367 54.8057 41.4541 55.031 40.6507 55.1276Z" fill="#FBBEBE"/>
<path opacity="0.1" d="M44.3921 53.0547C44.1492 53.6992 44.2038 53.8481 43.5881 54.159C43.4469 56.0699 43.4506 58.3331 44.8553 59.8501C45.6054 60.6645 46.5352 61.2923 47.5705 61.6837C48.9357 60.7056 50.651 59.7314 50.651 59.7314C50.651 59.7314 45.0568 51.2909 44.3921 53.0547Z" fill="black"/>
<path d="M45.3769 49.5968C44.6863 50.2364 44.1283 51.0058 43.7348 51.8612C43.3413 52.7166 43.12 53.6412 43.0836 54.5822C43.0471 55.5232 43.1962 56.4622 43.5224 57.3455C43.8485 58.2289 44.3453 59.0393 44.9844 59.7304C45.6234 60.4216 46.3923 60.9801 47.247 61.3739C48.1017 61.7677 49.0256 61.9892 49.9658 62.0256C50.9061 62.0621 51.8443 61.9129 52.7269 61.5865C53.6095 61.2601 54.4193 60.7629 55.1099 60.1233L55.1833 60.0517C56.5679 58.7503 57.3791 56.9517 57.4386 55.0516C57.4981 53.1515 56.801 51.3056 55.5006 49.9199C54.2002 48.5343 52.403 47.7224 50.5045 47.6628C48.6059 47.6033 46.7615 48.301 45.3769 49.6024V49.5968Z" fill="#FBBEBE"/>
<path opacity="0.1" d="M24.4291 95.0594C24.1919 95.3704 23.7983 95.3025 23.1657 94.4752C22.8717 94.1146 22.5513 93.7764 22.2073 93.4633C22.1432 93.403 22.0754 93.3408 22.0095 93.2748C21.3072 92.6285 20.4072 91.8577 19.4374 90.9833L19.3753 90.9287C18.9441 90.5386 18.4941 90.1259 18.0459 89.6981L17.7786 89.4418C17.1647 88.8482 16.549 88.2188 15.9615 87.5574L15.9352 87.531C15.7186 87.2898 15.504 87.0448 15.2912 86.8074C15.3157 86.7452 15.342 86.6849 15.3684 86.6189L15.2912 86.5341L15.4343 86.4606C15.7469 85.7069 16.0613 84.9681 16.3758 84.2144C16.4097 84.1371 16.4436 84.0542 16.4775 83.9769C16.5226 83.8676 16.5697 83.7602 16.613 83.6528C16.6281 83.6189 16.6413 83.585 16.6563 83.5529L16.8766 83.8281C17.2344 84.2766 17.5997 84.7269 17.9687 85.1736L18.0008 85.2131C18.2098 85.4638 18.4169 85.7144 18.6259 85.9669C18.6353 85.9669 18.6428 85.9876 18.6523 85.9952C18.8839 86.2722 19.1211 86.5436 19.3602 86.8036L19.4996 86.9525C19.7557 87.2295 20.0117 87.4896 20.2678 87.7421C20.8704 88.3338 21.4654 88.8727 22.0133 89.325C22.066 89.3702 22.1169 89.4136 22.1715 89.4569C22.6554 89.8602 23.1017 90.2107 23.4895 90.4858L23.6647 90.6178L23.8831 90.7742C24.3915 91.1397 24.7022 91.3395 24.7022 91.3395C24.7022 91.3395 24.7304 91.5977 24.753 91.9783C24.7662 92.1988 24.7794 92.4608 24.785 92.7321C24.7925 93.614 24.7379 94.6543 24.4291 95.0594Z" fill="black"/>
<path d="M24.4292 95.0594C24.1863 95.2045 23.8229 95.0425 23.2994 94.3546C22.9934 93.9797 22.6592 93.6287 22.2996 93.305L22.2807 93.288L22.1018 93.1184C21.424 92.4966 20.571 91.7616 19.654 90.9325C19.6326 90.9158 19.6125 90.8975 19.5938 90.8778C19.0872 90.4255 18.5638 89.9356 18.0366 89.4343C17.9481 89.3514 17.8596 89.2647 17.7692 89.1761C17.2043 88.6259 16.6394 88.0455 16.0971 87.4406L16.0727 87.4123L15.3722 86.6284L15.295 86.5436L15.4381 86.4701C15.7507 85.7163 16.0651 84.9776 16.3796 84.2238C16.4135 84.1465 16.4474 84.0636 16.4813 83.9864C16.5264 83.8771 16.5735 83.7696 16.6168 83.6622C16.6319 83.6283 16.6451 83.5944 16.6601 83.5623C16.6865 83.4983 16.7147 83.4342 16.7392 83.3739C17.129 83.862 17.5301 84.3614 17.9349 84.8551C17.9395 84.8586 17.9434 84.8631 17.9462 84.8683L18.1345 85.1019C18.351 85.3639 18.5676 85.6221 18.7841 85.8821C18.9724 86.1139 19.1757 86.3382 19.3735 86.5567C19.4074 86.5963 19.4431 86.634 19.4789 86.6717C19.5147 86.7094 19.5712 86.7735 19.6164 86.8225C20.4047 87.6612 21.2429 88.4516 22.1263 89.1893C22.1772 89.2346 22.2299 89.2779 22.2826 89.3213C22.7496 89.7094 23.1808 90.0468 23.5498 90.3238C23.6195 90.3728 23.6854 90.4237 23.7494 90.4708L23.9678 90.6272C24.5007 91.0041 24.8265 91.217 24.8265 91.217C24.8265 91.217 24.8717 91.6504 24.8961 92.229C24.9055 92.4683 24.9112 92.7302 24.9093 92.9978C24.9037 93.8948 24.802 94.8371 24.4292 95.0594Z" fill="#5F5D7E"/>
<path opacity="0.1" d="M46.6592 68.3584L27.2404 91.6522L25.5627 93.6666L25.316 93.9625C25.1997 93.6331 25.0639 93.3109 24.9093 92.9977C24.8679 92.9147 24.8246 92.8262 24.7756 92.7357C24.486 92.1543 24.0944 91.6296 23.6195 91.1867C23.5498 91.1264 23.4783 91.0699 23.4067 91.019L23.2881 90.9398C23.1739 90.8682 23.0527 90.8082 22.9266 90.7608C22.496 90.5634 22.1044 90.2902 21.7704 89.9543L21.6198 89.8148C20.7983 88.9816 20.0428 88.0857 19.3603 87.1351C19.317 87.0767 19.2755 87.0202 19.2379 86.9655C19.0157 86.6621 18.8839 86.4699 18.8839 86.4699C18.8839 86.4699 18.7408 86.2965 18.5073 86.0384C18.319 85.8198 18.0761 85.5409 17.8144 85.2582C17.4095 84.792 16.9612 84.3655 16.4756 83.9843C16.5208 83.875 16.5679 83.7676 16.6112 83.6602C16.6262 83.6263 16.6394 83.5923 16.6545 83.5603C16.6808 83.4962 16.7091 83.4322 16.7335 83.3719C17.0536 82.6181 17.3712 81.8712 17.6863 81.1312C18.2023 79.9252 18.7144 78.7317 19.2228 77.5508L19.4902 76.9345L20.2565 75.1632L20.5503 74.4923L20.7706 73.9835C21.5727 72.1518 22.3667 70.3546 23.1525 68.5921L35.4425 57.6622L36.9225 56.9574L38.3479 56.2828L39.3684 56.5768L39.521 56.6182L40.5114 56.9046H40.5246L40.7637 56.9744L41.2551 57.1157L41.498 60.3739V60.4022V60.4927L41.9462 61.1371L42.2249 61.5423L42.3454 61.5894L42.8556 61.7873L43.01 61.8457L43.0665 61.8683L43.5128 62.0417L44.78 62.5335L45.0832 63.4757L45.2715 64.0825L45.375 64.4086L45.4748 64.646L46.6592 68.3584Z" fill="black"/>
<path d="M46.9228 68.1135L27.2705 91.6862L25.5759 93.7158L25.5589 93.6668C25.3788 93.1691 25.1558 92.688 24.8924 92.2289C24.8453 92.146 24.7926 92.0612 24.7398 91.9783C24.4896 91.5647 24.175 91.1938 23.8078 90.8797C23.7362 90.8231 23.6647 90.7704 23.5912 90.7233C23.5367 90.6862 23.4801 90.6522 23.4218 90.6215C23.3469 90.5819 23.2696 90.5473 23.1902 90.5179C22.7437 90.3123 22.3385 90.0268 21.9945 89.6755L21.842 89.5342C21.2797 88.9718 20.7527 88.3752 20.2641 87.7477C20.0023 87.4142 19.7707 87.107 19.5843 86.8545L19.4619 86.6849C19.4281 86.6396 19.3979 86.5963 19.3697 86.5548C19.2228 86.3513 19.1381 86.2269 19.1381 86.2269C19.1381 86.2269 18.5732 85.5372 17.9386 84.8664C17.9358 84.8612 17.932 84.8567 17.9273 84.8532C17.6001 84.4903 17.2477 84.1509 16.8729 83.8375C16.7898 83.7721 16.7017 83.7135 16.6093 83.6622C16.6243 83.6283 16.6375 83.5944 16.6526 83.5623C16.6789 83.4983 16.7072 83.4342 16.7317 83.3739C17.0518 82.6201 17.3694 81.8732 17.6844 81.1333C18.2004 79.9272 18.7125 78.7337 19.2209 77.5528L19.4883 76.9366L20.2547 75.1652L20.5484 74.4943L20.7687 73.9855C21.5708 72.1538 22.3648 70.3567 23.1506 68.5941C23.1517 68.5878 23.1517 68.5815 23.1506 68.5752L35.7005 57.4117L36.9677 56.8087L38.6058 56.0304L39.5869 56.3131L39.7394 56.3564L40.5396 56.5882L40.7279 56.641L40.9501 56.705L41.515 56.869L41.7673 60.2459L41.8953 60.4344L41.9161 60.4645L41.9424 60.5041L42.3322 61.0694L42.4904 61.2993L43.1193 61.5443L43.9026 61.8477L45.0474 62.2924L45.439 63.5192L45.5087 63.7378L45.6104 64.0544L45.6594 64.2089L45.6914 64.305L46.9228 68.1135Z" fill="#E7EFFD"/>
<path opacity="0.1" d="M43.9948 63.3968C43.9948 63.3968 41.5206 63.5155 41.2532 63.8038C40.9859 64.0921 40.3438 64.7705 40.3438 64.7705L39.3722 67.3108C39.3722 67.3108 37.5909 69.8642 37.1277 70.2939C36.6645 70.7236 33.3618 75.2199 33.3618 75.2199L28.0369 81.8777L21.0172 90.5575L17.8595 91.2679L17.7428 88.7484L30.447 73.4843L32.9269 70.4484C32.9269 70.4484 37.6606 65.2812 38.1991 64.795C38.7376 64.3089 40.3457 63.2592 40.3457 63.2592C40.3457 63.2592 41.4039 61.7516 40.6093 60.2629C39.8147 58.7742 40.7562 60.2912 40.7562 60.2912L41.9424 60.4646L42.2512 61.2862C42.2512 61.2862 44.2848 62.4715 43.9948 63.3968Z" fill="black"/>
<path d="M44.249 63.4062C44.249 63.4062 41.7748 63.5249 41.5075 63.8132C41.2401 64.1015 40.598 64.7799 40.598 64.7799L39.6377 67.3202C39.6377 67.3202 37.847 69.8736 37.3782 70.2995C36.9093 70.7254 33.6123 75.2274 33.6123 75.2274L28.2892 81.8833L21.2696 90.565L18.1119 91.2735L17.9989 88.7672L30.7012 73.5031L33.183 70.4653C33.183 70.4653 37.9167 65.2982 38.4458 64.812C38.9749 64.3258 40.5923 63.2761 40.5923 63.2761C40.5923 63.2761 41.6506 61.7686 40.856 60.2817C40.0614 58.7949 41.0047 60.3081 41.0047 60.3081L42.191 60.4815L42.4998 61.3031C42.4998 61.3031 44.5333 62.4809 44.249 63.4062Z" fill="#796EEC"/>
<path opacity="0.1" d="M47.2843 62.0324C47.2843 62.0324 47.3145 62.332 46.4728 63.1951C45.6311 64.0582 44.2133 66.5174 44.2133 66.5174C44.2133 66.5174 43.6766 62.7485 42.4376 61.761L47.2843 62.0324Z" fill="black"/>
<path d="M47.5461 61.7874C47.5461 61.7874 47.5781 62.087 46.7364 62.9482C45.8947 63.8094 44.4769 66.2724 44.4769 66.2724C44.4769 66.2724 43.9402 62.5035 42.6994 61.5142L47.5461 61.7874Z" fill="#E7EFFD"/>
<path opacity="0.1" d="M42.1834 55.1014L42.3566 61.6725C42.3566 61.6725 37.7246 60.3006 36.9149 60.3119C36.1053 60.3232 40.5076 55.5065 40.5076 55.5065L42.1834 55.1014Z" fill="black"/>
<path d="M42.3265 54.7224L42.4998 61.2935C42.4998 61.2935 37.8677 59.9216 37.0581 59.9329C36.2484 59.9442 40.6488 55.1276 40.6488 55.1276L42.3265 54.7224Z" fill="#E7EFFD"/>
<path opacity="0.1" d="M47.1695 61.8986C47.1695 61.8986 47.7343 62.1134 47.5103 63.0292C47.2862 63.9451 47.6741 64.8892 47.6741 64.8892C47.6741 64.8892 50.7546 69.5042 50.3667 70.1506L51.9936 72.1312C51.9936 72.1312 52.5189 72.8755 51.1895 74.2305C49.8602 75.5854 50.0598 76.0621 50.0598 76.0621C50.0598 76.0621 49.4064 78.1049 48.6382 78.7004C47.8699 79.2959 48.1316 80.2796 48.1316 80.2796L38.3987 84.1672C38.3987 84.1672 35.3427 86.8054 34.742 88.3149C34.1414 89.8243 30.223 95.2177 30.223 95.2177C30.223 95.2177 29.9424 94.7371 29.6976 95.0047C29.4528 95.2723 26.9899 98.4175 26.9899 98.4175C26.9899 98.4175 25.9656 99.6141 25.7717 100.202C25.5777 100.79 23.5234 102.739 23.5234 102.739L22.3504 104.482C22.3504 104.482 19.6954 105.382 18.7728 103.854C17.8501 102.326 20.7047 95.3628 20.7047 95.3628L24.7455 88.8689L29.0254 82.7689L32.3394 79.081L39.8712 71.123L44.4561 65.4395C44.4561 65.4395 46.4991 61.9381 47.1695 61.8986Z" fill="black"/>
<path d="M47.546 61.7874C47.546 61.7874 48.1109 62.0003 47.8869 62.9086C47.6628 63.8169 48.0488 64.7686 48.0488 64.7686C48.0488 64.7686 51.1312 69.3836 50.7433 70.03L52.3701 72.0105C52.3701 72.0105 52.8955 72.7549 51.5661 74.1098C50.2368 75.4647 50.4364 75.9415 50.4364 75.9415C50.4364 75.9415 49.783 77.9843 49.0147 78.5798C48.2465 79.1752 48.5082 80.1589 48.5082 80.1589L38.7715 84.039C38.7715 84.039 35.7306 86.6942 35.1186 88.2018C34.5066 89.7094 30.5995 95.1027 30.5995 95.1027C30.5995 95.1027 30.319 94.6221 30.0742 94.8897C29.8294 95.1573 27.3665 98.3025 27.3665 98.3025C27.3665 98.3025 26.3422 99.4991 26.1483 100.089C25.9543 100.679 23.9 102.624 23.9 102.624L22.7251 104.369C22.7251 104.369 20.072 105.267 19.1475 103.739C18.2229 102.211 21.0925 95.2478 21.0925 95.2478L25.139 88.7558L29.4189 82.6558L32.7273 78.968L40.259 71.0099L44.844 65.3264C44.844 65.3264 46.887 61.8194 47.546 61.7874Z" fill="#65617D"/>
<path opacity="0.1" d="M43.5919 91.8106L43.8931 93.9118C43.8931 93.9118 45.6443 95.9281 47.2824 97.0098L48.2597 97.43L48.448 97.5148L48.2597 97.4112C47.3577 96.8741 46.8268 96.2937 46.565 95.7001C45.4974 93.3219 48.6739 90.7477 49.4177 90.1918C49.4911 90.1353 49.5382 90.0995 49.5589 90.0863H49.5683H49.5401C49.478 90.0993 49.4151 90.1075 49.3518 90.1108C49.2985 90.1136 49.245 90.1136 49.1917 90.1108L47.3126 90.6516L47.2523 90.695L43.5919 91.8106Z" fill="black"/>
<path d="M48.111 79.3693L48.5083 80.1514L47.3314 81.4064C47.3314 81.4064 48.1147 82.032 47.4388 83.0289C46.7628 84.0258 46.6856 84.7476 46.6856 84.7476C46.6856 84.7476 46.7948 86.9053 45.9945 87.7627L46.228 88.9555C46.228 88.9555 48.2409 90.3331 49.3142 90.0768C49.3142 90.0768 42.882 94.5599 48.1976 97.5129C48.1976 97.5129 41.7278 94.6862 41.2307 94.7314C40.7336 94.7766 38.5494 94.0945 38.0297 92.1139C37.51 90.1333 38.3253 88.8444 38.3253 88.8444C38.3253 88.8444 38.9297 85.9046 39.1538 85.6144C39.3779 85.3242 38.7659 84.0446 38.7659 84.0446L41.6016 77.8881L48.111 79.3693Z" fill="#65617D"/>
<path opacity="0.1" d="M42.3247 54.7244V54.7357L42.0498 55.1295L40.9558 56.703L40.7675 56.9706L40.4963 57.3645L40.0143 58.0655L37.9826 60.0781L37.6437 60.4135L34.4069 63.6171L27.263 70.6989L22.0585 73.714C22.0585 73.714 21.3148 74.0909 20.5522 74.4867L20.7725 73.9779C21.5746 72.1462 22.3686 70.349 23.1544 68.5864C23.1555 68.5802 23.1555 68.5738 23.1544 68.5676C26.1464 61.8608 29.0123 55.6854 31.6277 50.277C31.6716 50.2966 31.7138 50.32 31.7538 50.3468C32.3432 50.7406 33.0399 51.1364 33.3054 51.289L33.4165 51.3512C33.5307 51.5343 33.6565 51.7099 33.793 51.8769C34.0096 52.1389 34.2789 52.3952 34.501 52.3952C34.9492 52.3952 37.0694 53.7501 37.3763 54.0912C37.5166 54.2207 37.6745 54.3298 37.8451 54.4153C38.3404 54.6923 39.0032 54.9656 39.0032 54.9656L40.5509 55.2275L40.6112 55.2388H40.63C41.0462 55.2935 41.9481 54.8996 42.2249 54.7677L42.304 54.7319L42.3247 54.7244Z" fill="black"/>
<path d="M42.3284 54.7244L41.9857 55.1352L40.743 56.6221L40.5415 56.8652L40.5264 56.8784L39.7733 57.781L37.5589 59.9745L37.2124 60.3175L34.727 62.7805L27.0219 70.4163L21.8175 73.4314L20.7838 73.961C21.5859 72.1293 22.3799 70.3321 23.1657 68.5695C23.1668 68.5633 23.1668 68.5569 23.1657 68.5507C26.1577 61.8439 29.0235 55.6685 31.6389 50.2601C31.654 50.23 31.6672 50.1998 31.6822 50.1716C32.3921 50.6333 33.1886 51.0667 33.1886 51.0667C33.1886 51.0667 33.2394 51.1515 33.3223 51.2702C33.4668 51.4815 33.6314 51.6784 33.8137 51.8582C33.9336 51.9943 34.0976 52.0837 34.2769 52.1107C34.7251 52.1107 36.8453 53.4656 37.1522 53.8067C37.3778 54.0017 37.6318 54.1612 37.9054 54.2797C38.3384 54.4983 38.7791 54.6792 38.7791 54.6792L40.3852 54.9543C40.8108 55.0259 41.9838 54.7847 42.2682 54.7225C42.2838 54.7241 42.2996 54.7241 42.3152 54.7225H42.3265L42.3284 54.7244Z" fill="#65617D"/>
<path opacity="0.1" d="M11.5461 96.5461L11.3578 96.3426L11.386 96.2766C11.433 96.3701 11.4865 96.4601 11.5461 96.5461Z" fill="black"/>
<path opacity="0.1" d="M11.1619 98.7548L9.59526 100.76C9.8664 100.078 10.1407 99.3905 10.4181 98.6983L11.1619 98.7548Z" fill="black"/>
<path d="M18.7803 85.8802L18.624 85.9707L18.5072 86.0385L16.0895 87.4481L16.0651 87.4198L15.3646 86.6359L15.2874 86.5511L15.4305 86.4776L17.8143 85.2678L17.9668 85.1905L18.1325 85.1076C18.3491 85.362 18.5637 85.6202 18.7803 85.8802Z" fill="#3F3D56"/>
<path opacity="0.1" d="M49.6907 74.7412C49.6907 74.7412 48.3501 74.1758 47.5272 74.5301C46.7044 74.8844 49.6907 74.7412 49.6907 74.7412Z" fill="black"/>
<path opacity="0.1" d="M45.8514 83.8845C45.8514 83.8845 45.4371 86.8997 44.2434 86.9336C43.0496 86.9675 45.8514 83.8845 45.8514 83.8845Z" fill="black"/>
<path opacity="0.1" d="M21.3731 82.4316C21.3826 82.1753 23.0678 74.9522 22.0133 74.613L21.3731 82.4316Z" fill="black"/>
<path opacity="0.1" d="M45.3769 49.5968C44.5109 50.3984 43.8563 51.4018 43.4714 52.5178L43.5147 52.5517C43.8913 52.8193 44.443 52.6327 44.9212 52.6629C45.2146 52.6817 45.4947 52.792 45.7223 52.9782C45.9499 53.1644 46.1135 53.4172 46.1903 53.7012C46.2539 54.0017 46.2324 54.314 46.1283 54.603C46.0242 54.892 45.8416 55.1461 45.601 55.3369C46.4634 54.8488 47.1657 54.1007 48.0262 53.6089C48.8867 53.117 50.0617 52.9455 50.7019 53.6089C50.9768 53.8953 51.1783 54.34 51.5925 54.3494C51.8411 54.3494 52.0746 54.1893 52.3231 54.1346C53.5527 53.8934 54.5205 55.7345 54.6749 56.7088C54.8274 57.651 54.8368 58.9701 55.1833 60.0424C55.8689 59.398 56.4209 58.6247 56.8079 57.7668C57.1948 56.9089 57.4091 55.9831 57.4386 55.0423C57.4681 54.1014 57.3121 53.164 56.9796 52.2835C56.647 51.403 56.1445 50.5967 55.5006 49.9106C54.8567 49.2245 54.0841 48.672 53.2268 48.2847C52.3696 47.8975 51.4445 47.683 50.5045 47.6535C49.5644 47.624 48.6277 47.7801 47.7479 48.1129C46.8682 48.4457 46.0625 48.9487 45.3769 49.5931V49.5968Z" fill="black"/>
<path d="M52.4549 54.0158C52.2063 54.0686 51.9747 54.2363 51.7243 54.2307C51.3119 54.2307 51.1086 53.7765 50.8337 53.4901C50.1954 52.823 49.0204 52.9926 48.1599 53.4901C47.2994 53.9876 46.597 54.7319 45.7328 55.22C45.974 55.0298 46.1572 54.7757 46.2613 54.4866C46.3655 54.1974 46.3866 53.8848 46.3221 53.5843C46.2453 53.3003 46.0817 53.0475 45.8541 52.8613C45.6265 52.6751 45.3464 52.5648 45.053 52.546C44.5748 52.5158 44.0268 52.7024 43.6484 52.4329C43.2699 52.1634 43.2925 51.5472 43.5316 51.1025C43.7707 50.6577 44.1643 50.3072 44.4543 49.8908C45.0041 49.1031 45.1528 48.1307 45.584 47.2751C46.1065 46.2411 46.9913 45.436 48.0695 45.0138C48.6344 44.7952 49.2407 44.6953 49.8094 44.4786C50.6736 44.1507 51.4456 43.559 52.3325 43.314C53.8163 42.9032 55.4525 43.6645 56.0061 45.0213C56.2716 45.6677 56.3074 46.4083 56.6011 47.0415C56.9966 47.8895 57.8006 48.4416 58.5199 49.0296C59.2391 49.6175 59.9396 50.3487 59.998 51.3116C60.0658 52.4122 59.2636 53.4731 59.2448 54.5812C59.2448 55.0466 59.3709 55.4933 59.3935 55.955C59.4161 56.4166 59.3013 56.9424 58.919 57.2402C58.4257 57.6265 57.601 57.5624 57.3261 58.1202C57.2581 58.2936 57.2248 58.4786 57.2282 58.6648C57.1689 59.6356 56.8853 60.5793 56.3997 61.4218C54.9366 60.5813 55.0552 58.0919 54.8142 56.5976C54.6523 55.6157 53.6863 53.7746 52.4549 54.0158Z" fill="#7C5C5C"/>
<path opacity="0.1" d="M43.9854 78.3254C43.9854 78.3254 38.9504 82.9913 38.8525 83.8826C38.7546 84.774 43.9854 78.3254 43.9854 78.3254Z" fill="black"/>
<g opacity="0.1">
<path d="M57.6894 57.6472C57.9531 57.1026 58.7514 57.1497 59.2466 56.7916C59.1744 56.9644 59.0598 57.116 58.9134 57.2326C58.5518 57.5153 58.0114 57.5586 57.6405 57.7791C57.6523 57.7336 57.6687 57.6894 57.6894 57.6472Z" fill="black"/>
<path d="M46.147 54.7206C46.9887 54.2344 47.6835 53.5032 48.5289 53.0246C49.3744 52.5459 50.5644 52.3612 51.2027 53.0246C51.4776 53.311 51.681 53.7557 52.0934 53.7652C52.3438 53.7652 52.5754 53.6031 52.8239 53.5503C54.0554 53.3091 55.0213 55.1502 55.1776 56.1245C55.413 57.585 55.3057 59.9895 56.6633 60.8846C56.5804 61.0731 56.4938 61.2408 56.394 61.4142C54.931 60.5737 55.0496 58.0843 54.8086 56.59C54.6523 55.6157 53.6788 53.7746 52.4549 54.0158C52.2063 54.0686 51.9747 54.2363 51.7243 54.2306C51.3119 54.2306 51.1086 53.7765 50.8337 53.49C50.1954 52.8229 49.0204 52.9925 48.1599 53.49C47.2994 53.9875 46.597 54.7319 45.7328 55.22C45.9024 55.0825 46.0432 54.9128 46.147 54.7206Z" fill="black"/>
<path d="M43.9006 50.6313C43.6615 51.0761 43.6314 51.6885 44.0174 51.9618C44.4034 52.235 44.9438 52.0447 45.422 52.0748C45.7155 52.0939 45.9958 52.2042 46.2236 52.3903C46.4515 52.5765 46.6156 52.8292 46.693 53.1132C46.7531 53.3992 46.7359 53.6962 46.6432 53.9734C46.5506 54.2506 46.3858 54.4981 46.1658 54.6905C46.3529 54.3517 46.4085 53.9559 46.3221 53.5786C46.2453 53.2947 46.0816 53.0418 45.854 52.8556C45.6264 52.6694 45.3463 52.5592 45.053 52.5403C44.5747 52.5101 44.0268 52.6967 43.6483 52.4272C43.2698 52.1577 43.2924 51.5415 43.5316 51.0968C43.6797 50.8421 43.8545 50.6039 44.0531 50.3864C43.9977 50.465 43.9468 50.5468 43.9006 50.6313Z" fill="black"/>
<path d="M45.9474 46.804C45.5218 47.6596 45.3825 48.6319 44.8176 49.4196C44.7065 49.5798 44.5804 49.7287 44.4542 49.8776C45.0003 49.0917 45.149 48.1213 45.5727 47.2695C45.7644 46.8859 46.009 46.5313 46.2995 46.2161C46.1669 46.4025 46.0492 46.5991 45.9474 46.804Z" fill="black"/>
</g>
<path d="M59.559 93.5795C59.5994 93.5795 59.6321 93.5467 59.6321 93.5063C59.6321 93.4658 59.5994 93.433 59.559 93.433C59.5186 93.433 59.4858 93.4658 59.4858 93.5063C59.4858 93.5467 59.5186 93.5795 59.559 93.5795Z" fill="#E6E8EC"/>
<path d="M117.268 169.186C117.313 171.448 98.5983 168.757 99.2988 166.925L99.2009 166.953C96.8434 167.488 84.3878 163.133 85.3876 161.149C75.1707 152.006 70.5556 143.793 79.7049 125.35C79.7462 125.228 79.7703 125.102 79.7764 124.973C79.7764 124.928 79.7934 124.883 79.8009 124.839C79.8329 124.677 79.863 124.515 79.895 124.353C79.895 124.327 79.9045 124.302 79.9101 124.278C79.9158 124.253 79.9271 124.199 79.9346 124.159C80.1982 122.799 80.4913 121.432 80.8139 120.06C82.4083 113.113 84.6624 106.334 87.5455 99.8157C87.6057 99.6856 87.6622 99.5556 87.7225 99.4275C87.7563 99.3502 87.7921 99.273 87.8279 99.1976L88.0595 98.6925C88.0689 98.6699 88.0802 98.6492 88.0896 98.6266C88.1273 98.5512 88.1612 98.4758 88.197 98.4023C90.5732 93.3143 93.2319 88.8481 96.0281 85.1791C94.7101 84.4253 90.449 78.6702 91.509 74.1324C92.6388 69.3157 98.8168 67.4765 100.349 67.8327C101.882 68.1888 102.214 72.3855 101.091 77.2022C100.833 78.3272 100.5 79.4339 100.095 80.5151C104.991 75.6645 110.116 73.3428 114.801 74.4339C118.687 75.3403 121.804 78.4874 124.041 83.2551C124.086 83.0346 124.137 82.8122 124.188 82.588C125.317 77.7713 127.458 74.155 128.993 74.5112C130.527 74.8673 135.692 80.1928 134.57 85.0095C133.826 88.2131 127.792 89.747 126.62 91.0756C128.925 101.41 129.558 116.648 131.179 131.876C133.329 152.117 129.607 162.932 117.268 169.186Z" fill="#796EEC"/>
<path opacity="0.2" d="M114.714 102.105C113.863 105.757 108.956 107.787 103.404 106.975C102.922 106.904 102.436 106.813 101.948 106.7C101.546 106.605 101.154 106.499 100.771 106.381C95.29 104.698 91.6635 100.639 92.5277 96.9306C93.1755 94.1416 96.1957 92.2967 100.06 91.9443C100.899 91.8715 101.744 91.8659 102.585 91.9273C103.497 91.9957 104.402 92.1362 105.292 92.3476C111.419 93.7666 115.637 98.1385 114.714 102.105Z" fill="black"/>
<path d="M112.249 104.361C112.828 101.873 110.32 99.1624 106.647 98.3055C102.974 97.4487 99.5261 98.7704 98.9468 101.258C98.3676 103.745 100.876 106.456 104.549 107.313C108.222 108.17 111.67 106.848 112.249 104.361Z" fill="#3F3D56"/>
<path d="M101.935 94.2321C101.112 96.2014 100.557 95.7001 99.8637 95.4137C99.1708 95.1273 98.6153 95.1574 99.44 93.1882C99.6189 92.7601 99.8252 92.344 100.058 91.9425C100.898 91.8698 101.742 91.8641 102.583 91.9256C102.469 92.7196 102.251 93.4952 101.935 94.2321Z" fill="white"/>
<path d="M103.404 106.975C102.922 106.904 102.436 106.813 101.948 106.7C101.546 106.605 101.154 106.499 100.771 106.381C101.214 104.355 101.918 104.193 102.632 104.34C103.345 104.487 103.812 104.915 103.404 106.975Z" fill="white"/>
<path opacity="0.2" d="M107.264 88.0454C109.567 88.0454 111.434 86.1766 111.434 83.8713C111.434 81.566 109.567 79.6972 107.264 79.6972C104.96 79.6972 103.093 81.566 103.093 83.8713C103.093 86.1766 104.96 88.0454 107.264 88.0454Z" fill="black"/>
<path opacity="0.1" d="M98.391 76.7395C98.7925 75.0154 98.3635 73.4417 97.4327 73.2246C96.502 73.0075 95.422 74.2292 95.0204 75.9533C94.6189 77.6774 95.0479 79.2511 95.9787 79.4682C96.9094 79.6853 97.9894 78.4636 98.391 76.7395Z" fill="black"/>
<path opacity="0.12" d="M130.073 83.8958C131.141 82.4847 131.39 80.8726 130.628 80.295C129.866 79.7174 128.383 80.393 127.315 81.8041C126.246 83.2151 125.998 84.8273 126.76 85.4049C127.521 85.9825 129.005 85.3068 130.073 83.8958Z" fill="black"/>
<path d="M107.424 81.8192C107.348 81.8015 107.271 81.7883 107.194 81.7797C107.296 82.0101 107.32 82.2675 107.262 82.5127C107.21 82.7358 107.094 82.9388 106.928 83.0964C106.762 83.2541 106.553 83.3595 106.328 83.3996C106.102 83.4398 105.87 83.4128 105.66 83.3222C105.45 83.2315 105.271 83.0811 105.145 82.8896C105.074 83.0329 105.019 83.184 104.982 83.34C104.891 83.7318 104.918 84.1418 105.06 84.5181C105.201 84.8945 105.451 85.2203 105.778 85.4546C106.105 85.6888 106.494 85.8209 106.895 85.8342C107.297 85.8475 107.694 85.7414 108.035 85.5292C108.376 85.3171 108.647 85.0085 108.814 84.6423C108.98 84.2761 109.034 83.8689 108.969 83.4719C108.905 83.075 108.724 82.7061 108.45 82.412C108.176 82.1178 107.821 81.9116 107.429 81.8192H107.424Z" fill="#3F3D56"/>
<path opacity="0.2" d="M101.462 89.3324C101.289 90.0768 101.071 89.8262 100.747 89.7508C100.423 89.6754 100.118 89.8036 100.291 89.0592C100.464 88.3148 101.376 87.0541 101.376 87.0541C101.376 87.0541 101.636 88.5881 101.462 89.3324Z" fill="black"/>
<path opacity="0.2" d="M109.437 77.76C109.263 78.5138 109.045 78.2537 108.721 78.1783C108.397 78.103 108.092 78.2311 108.265 77.4868C108.439 76.7424 109.35 75.4817 109.35 75.4817C109.35 75.4817 109.61 77.0138 109.437 77.76Z" fill="black"/>
<path opacity="0.2" d="M116.838 82.6426C116.665 83.387 116.447 83.1364 116.123 83.061C115.799 82.9856 115.494 83.1137 115.667 82.3694C115.84 81.625 116.752 80.3643 116.752 80.3643C116.752 80.3643 117.01 81.8983 116.838 82.6426Z" fill="black"/>
<path opacity="0.2" d="M118.883 89.4964C118.71 90.2408 118.494 89.9902 118.17 89.9148C117.846 89.8394 117.541 89.9676 117.714 89.2232C117.887 88.4788 118.797 87.2181 118.797 87.2181C118.797 87.2181 119.058 88.7502 118.883 89.4964Z" fill="black"/>
<path opacity="0.2" d="M99.2988 166.529L99.2009 166.946C96.8434 167.481 84.3877 163.126 85.3876 161.142L99.2988 166.529Z" fill="black"/>
<path opacity="0.2" d="M99.2988 166.917L99.2009 166.946L99.2988 166.529C102.876 165.483 117.268 169.186 117.268 169.186C117.313 171.44 98.5983 168.757 99.2988 166.917Z" fill="black"/>
<g opacity="0.1">
<path d="M101.21 103.615C100.257 107.902 96.2974 113.529 90.4207 118.366C87.1997 121.005 83.6289 123.184 79.8103 124.841C79.8461 124.653 79.8837 124.464 79.9195 124.276C80.1907 122.878 80.4919 121.472 80.8233 120.059C82.4178 113.111 84.6718 106.332 87.5549 99.8139C87.6151 99.6839 87.6716 99.5538 87.7319 99.4257C87.7657 99.3484 87.8015 99.2712 87.8373 99.1958C91.7614 97.349 95.3502 96.6065 97.864 97.1832C98.7173 97.3549 99.5069 97.7585 100.146 98.3497C100.257 98.4557 100.361 98.5683 100.459 98.687C101.017 99.398 101.345 100.262 101.4 101.165C101.462 101.987 101.398 102.813 101.21 103.615Z" fill="black"/>
</g>
<g opacity="0.1">
<path d="M100.897 103.125C99.9447 107.412 95.9848 113.039 90.1063 117.876C87.0104 120.413 83.5911 122.527 79.9384 124.161C80.202 122.8 80.4951 121.434 80.8177 120.062C82.4121 113.115 84.6662 106.336 87.5492 99.8176C87.6095 99.6876 87.666 99.5575 87.7262 99.4294C87.7601 99.3521 87.7959 99.2749 87.8317 99.1995L88.0633 98.6945L88.2007 98.4043C91.8612 96.7836 95.1865 96.1542 97.5533 96.6969C98.4069 96.8688 99.1966 97.2731 99.8354 97.8653C99.9463 97.9707 100.051 98.0827 100.148 98.2007C100.71 98.9112 101.043 99.7763 101.101 100.681C101.158 101.501 101.09 102.325 100.897 103.125Z" fill="black"/>
</g>
<path d="M100.85 103.325C99.892 107.612 95.9378 113.239 90.0611 118.076C86.965 120.611 83.5457 122.723 79.8932 124.355C79.8932 124.329 79.9026 124.304 79.9083 124.28C79.9139 124.255 79.9252 124.201 79.9327 124.161C80.1963 122.8 80.4895 121.434 80.8121 120.062C82.4065 113.115 84.6606 106.336 87.5436 99.8176C87.6038 99.6876 87.6603 99.5576 87.7206 99.4294C87.7545 99.3522 87.7903 99.2749 87.826 99.1995L88.0576 98.6945C88.0671 98.6719 88.0784 98.6511 88.0878 98.6285C91.7727 96.9872 95.1206 96.3483 97.5025 96.8948C98.3557 97.068 99.145 97.4721 99.7846 98.0632C99.896 98.1687 100 98.2814 100.097 98.4005C100.656 99.1113 100.984 99.9759 101.039 100.879C101.101 101.699 101.038 102.524 100.85 103.325Z" fill="#796EEC"/>
<path opacity="0.1" d="M116.846 145.77C119.417 134.734 112.882 123.778 102.251 121.298C91.6197 118.818 80.9179 125.754 78.3478 136.79C75.7776 147.826 82.3123 158.783 92.9435 161.263C103.575 163.743 114.276 156.806 116.846 145.77Z" fill="black"/>
<path d="M116.755 146.167C119.325 135.131 112.79 124.175 102.159 121.695C91.5281 119.215 80.8264 126.151 78.2562 137.187C75.6861 148.223 82.2208 159.18 92.8519 161.66C103.483 164.139 114.185 157.203 116.755 146.167Z" fill="#796EEC"/>
<path d="M99.1388 136.193C99.1004 136.358 99.0301 136.514 98.9317 136.651C98.8333 136.788 98.7088 136.905 98.5654 136.995C98.2756 137.175 97.9261 137.233 97.5938 137.155C97.2615 137.078 96.9735 136.871 96.7932 136.581C96.6129 136.292 96.5552 135.942 96.6326 135.609C96.7945 134.916 97.2728 135.4 97.9638 135.56C98.6548 135.72 99.295 135.502 99.1388 136.193Z" fill="#65617D"/>
<g opacity="0.1">
<path d="M112.884 74.6167C116.769 75.5232 119.887 78.6702 122.124 83.436C122.169 83.2174 122.218 82.995 122.271 82.7708C122.406 82.1866 122.559 81.6213 122.721 81.0748C120.606 77.5037 117.88 75.1519 114.607 74.3887C113.084 74.0438 111.504 74.036 109.977 74.3661C110.953 74.3114 111.932 74.3958 112.884 74.6167Z" fill="black"/>
<path d="M130.981 131.833C129.36 116.604 128.722 101.367 126.423 91.0322C127.594 89.7131 133.629 88.164 134.372 84.9661C135.502 80.1494 130.326 74.8258 128.795 74.4678C128.419 74.3792 127.989 74.5375 127.556 74.9012C129.465 75.9867 133.672 80.7977 132.655 85.1866C131.902 88.3902 125.877 89.9241 124.705 91.2527C127.006 101.593 127.637 116.83 129.266 132.059C131.42 152.298 127.697 163.111 115.358 169.371C115.358 169.646 115.087 169.848 114.605 169.987C116.112 169.919 117.098 169.663 117.087 169.145C129.413 162.887 133.135 152.072 130.981 131.833Z" fill="black"/>
<path d="M98.427 68.0155C99.9597 68.3716 100.291 72.5664 99.1708 77.385C98.9112 78.51 98.5778 79.6167 98.1728 80.6979C98.9511 79.929 99.7331 79.2249 100.519 78.5854C100.653 78.1237 100.779 77.6432 100.896 77.1608C102.025 72.3422 101.685 68.1474 100.154 67.7893C99.7507 67.6951 99.0239 67.7554 98.1559 67.9778C98.2472 67.9823 98.3379 67.995 98.427 68.0155Z" fill="black"/>
</g>
<g opacity="0.1">
<path d="M127.886 136.463C123.451 138.47 114.545 129.746 109.936 119.553C106.8 112.615 105.733 105.816 106.772 101.549C106.954 100.747 107.257 99.9774 107.672 99.2673C108.123 98.4818 108.803 97.8526 109.621 97.4638C109.761 97.4001 109.904 97.3453 110.05 97.2999C110.885 97.0527 111.772 97.0396 112.613 97.2622C116.902 98.2798 122.316 104.148 125.991 112.283C130.599 122.474 132.32 134.454 127.886 136.463Z" fill="black"/>
<g opacity="0.1">
<path d="M111.566 105.032C111.069 105.488 109.307 104.374 107.612 102.54C107.307 102.209 107.026 101.875 106.772 101.549C106.954 100.747 107.257 99.9773 107.672 99.2672C108.294 99.7588 108.875 100.301 109.408 100.888C111.092 102.712 112.054 104.574 111.566 105.032Z" fill="black"/>
<path d="M112.613 97.2621C113.049 97.6441 113.464 98.0492 113.856 98.4757C115.539 100.307 116.492 102.162 116.002 102.622C115.513 103.081 113.743 101.966 112.06 100.132C111.118 99.1165 110.412 98.0932 110.05 97.3055L112.613 97.2621Z" fill="black"/>
</g>
</g>
<g opacity="0.1">
<path d="M128.467 135.762C124.033 137.771 115.127 129.046 110.517 118.854C107.38 111.914 106.313 105.115 107.352 100.848C107.534 100.046 107.839 99.2764 108.254 98.5664C108.705 97.7804 109.385 97.1511 110.203 96.7629C110.342 96.7006 110.485 96.6465 110.63 96.6009C111.465 96.3518 112.353 96.3387 113.195 96.5632C117.482 97.5789 122.896 103.449 126.573 111.582C131.181 121.773 132.9 133.753 128.467 135.762Z" fill="black"/>
</g>
<path d="M128.176 136.112C123.743 138.121 114.835 129.396 110.227 119.203C107.09 112.264 106.023 105.465 107.062 101.199C107.244 100.397 107.549 99.6269 107.964 98.9168C108.414 98.131 109.093 97.5017 109.911 97.1134C110.051 97.0505 110.194 96.9958 110.34 96.9495C111.175 96.7023 112.062 96.6892 112.903 96.9118C117.192 97.9294 122.606 103.799 126.283 111.933C130.889 122.122 132.61 134.103 128.176 136.112Z" fill="#796EEC"/>
<path d="M28.7166 154.676C28.7166 154.676 30.2041 156.623 28.0293 159.563C25.8545 162.502 24.062 164.984 24.7869 166.818C24.7869 166.818 28.0689 161.353 30.7389 161.281C33.4089 161.21 31.6446 157.959 28.7166 154.676Z" fill="#796EEC"/>
<path opacity="0.1" d="M28.7166 154.676C28.8463 154.864 28.9489 155.07 29.0217 155.287C31.6258 158.351 33.0154 161.21 30.5092 161.281C28.1762 161.349 25.3782 165.523 24.7078 166.578C24.7304 166.659 24.7568 166.739 24.7869 166.818C24.7869 166.818 28.0689 161.353 30.7389 161.281C33.4089 161.21 31.6446 157.959 28.7166 154.676Z" fill="black"/>
<path d="M31.4732 157.158C31.4732 157.844 31.396 158.398 31.3019 158.398C31.2077 158.398 31.1305 157.844 31.1305 157.158C31.1305 156.472 31.2266 156.796 31.3188 156.796C31.4111 156.796 31.4732 156.472 31.4732 157.158Z" fill="#FFD037"/>
<path d="M32.4222 157.976C31.8216 158.304 31.2925 158.502 31.2511 158.419C31.2096 158.336 31.6578 158.002 32.2584 157.665C32.8591 157.328 32.6218 157.576 32.667 157.665C32.7122 157.753 33.0229 157.648 32.4222 157.976Z" fill="#FFD037"/>
<path d="M20.8497 154.676C20.8497 154.676 19.3603 156.623 21.5351 159.563C23.7099 162.502 25.5025 164.984 24.7775 166.818C24.7775 166.818 21.4974 161.353 18.8274 161.281C16.1574 161.21 17.9123 157.959 20.8497 154.676Z" fill="#796EEC"/>
<path opacity="0.1" d="M20.8497 154.676C20.7189 154.864 20.6161 155.071 20.5447 155.289C17.9387 158.353 16.5509 161.211 19.0553 161.283C21.3882 161.351 24.1882 165.525 24.8585 166.58C24.836 166.662 24.809 166.741 24.7775 166.82C24.7775 166.82 21.4974 161.355 18.8274 161.283C16.1574 161.211 17.9123 157.959 20.8497 154.676Z" fill="black"/>
<path d="M18.0836 157.158C18.0836 157.844 18.1589 158.398 18.2549 158.398C18.351 158.398 18.4263 157.844 18.4263 157.158C18.4263 156.472 18.3303 156.796 18.238 156.796C18.1457 156.796 18.0836 156.472 18.0836 157.158Z" fill="#FFD037"/>
<path d="M17.1346 157.976C17.7353 158.304 18.2644 158.502 18.3039 158.419C18.3435 158.336 17.8991 158.002 17.2984 157.665C16.6978 157.328 16.935 157.576 16.888 157.665C16.8409 157.753 16.5321 157.648 17.1346 157.976Z" fill="#FFD037"/>
<path opacity="0.1" d="M24.7794 181.714C33.3702 181.714 40.3344 180.644 40.3344 179.325C40.3344 178.005 33.3702 176.935 24.7794 176.935C16.1886 176.935 9.22435 178.005 9.22435 179.325C9.22435 180.644 16.1886 181.714 24.7794 181.714Z" fill="#796EEC"/>
<path d="M32.7856 164.193L32.7103 164.801L32.6049 165.66L32.5616 166.019L32.458 166.878L32.4128 167.236L32.3093 168.093L31.1174 177.86C31.0119 178.731 29.5884 179.411 27.8712 179.411H21.6857C19.9666 179.411 18.5468 178.731 18.4395 177.86L17.2476 168.103L17.144 167.245L17.1007 166.887L16.9934 166.028L16.9501 165.67L16.8465 164.811L16.7712 164.202C16.7128 163.708 17.4811 163.294 18.4546 163.294H31.1042C32.0739 163.284 32.8459 163.699 32.7856 164.193Z" fill="#65617D"/>
<path d="M32.7103 164.801L32.6068 165.66H16.952L16.8465 164.801H32.7103Z" fill="#9D9CB5"/>
<path d="M32.5635 166.019L32.458 166.878H17.1007L16.9953 166.019H32.5635Z" fill="#9D9CB5"/>
<path d="M32.4128 167.236L32.3093 168.093H17.2476L17.144 167.236H32.4128Z" fill="#9D9CB5"/>
</g>
<defs>
<linearGradient id="paint0_linear_179_4191" x1="102" y1="0" x2="102" y2="208" gradientUnits="userSpaceOnUse">
<stop offset="0.0001" stop-color="#8981E8"/>
<stop offset="1" stop-color="#E7D8FF"/>
</linearGradient>
<linearGradient id="paint1_linear_179_4191" x1="13.6443" y1="133.28" x2="59.4383" y2="45.1935" gradientUnits="userSpaceOnUse">
<stop stop-color="#808080" stop-opacity="0.25"/>
<stop offset="0.54" stop-color="#808080" stop-opacity="0.12"/>
<stop offset="1" stop-color="#808080" stop-opacity="0.1"/>
</linearGradient>
</defs>
</svg>
