<svg width="24" height="24" viewBox="0 0 24 24" fill="none" xmlns="http://www.w3.org/2000/svg">
<path d="M10.65 19.8L8.925 18.225C7.15833 16.6083 5.56233 15.004 4.137 13.412C2.71167 11.82 1.99933 10.066 2 8.15C2 6.58333 2.525 5.275 3.575 4.225C4.625 3.175 5.93333 2.65 7.5 2.65C8.38333 2.65 9.21667 2.83733 10 3.212C10.7833 3.58666 11.45 4.09933 12 4.75C12.55 4.1 13.2167 3.58733 14 3.212C14.7833 2.83666 15.6167 2.64933 16.5 2.65C18.0667 2.65 19.375 3.175 20.425 4.225C21.475 5.275 22 6.58333 22 8.15C22 10.0667 21.2917 11.825 19.875 13.425C18.4583 15.025 16.85 16.6333 15.05 18.25L13.35 19.8C12.9667 20.15 12.5167 20.325 12 20.325C11.4833 20.325 11.0333 20.15 10.65 19.8Z" fill="#FFA6A6"/>
</svg>
