<svg width="24" height="24" viewBox="0 0 24 24" fill="none" xmlns="http://www.w3.org/2000/svg">
<path d="M10.65 19.8L8.925 18.225C7.15833 16.6083 5.56233 15.004 4.137 13.412C2.71167 11.82 1.99933 10.066 2 8.15C2 6.58334 2.525 5.275 3.575 4.225C4.625 3.175 5.93333 2.65 7.5 2.65C8.38333 2.65 9.21667 2.83734 10 3.212C10.7833 3.58667 11.45 4.09934 12 4.75C12.55 4.1 13.2167 3.58734 14 3.212C14.7833 2.83667 15.6167 2.64934 16.5 2.65C18.0667 2.65 19.375 3.175 20.425 4.225C21.475 5.275 22 6.58334 22 8.15C22 10.0667 21.2917 11.825 19.875 13.425C18.4583 15.025 16.85 16.6333 15.05 18.25L13.35 19.8C12.9667 20.1667 12.5167 20.35 12 20.35C11.4833 20.35 11.0333 20.1667 10.65 19.8ZM11.05 6.75C10.5667 6.06667 10.05 5.54567 9.5 5.187C8.95 4.82834 8.28333 4.64934 7.5 4.65C6.5 4.65 5.66667 4.98334 5 5.65C4.33333 6.31667 4 7.15 4 8.15C4 9.01667 4.30833 9.93767 4.925 10.913C5.54167 11.8883 6.27933 12.834 7.138 13.75C7.996 14.6667 8.87933 15.525 9.788 16.325C10.6967 17.125 11.434 17.7833 12 18.3C12.5667 17.7833 13.3043 17.125 14.213 16.325C15.1217 15.525 16.005 14.6667 16.863 13.75C17.721 12.8333 18.4583 11.8877 19.075 10.913C19.6917 9.93834 20 9.01734 20 8.15C20 7.15 19.6667 6.31667 19 5.65C18.3333 4.98334 17.5 4.65 16.5 4.65C15.7167 4.65 15.05 4.829 14.5 5.187C13.95 5.545 13.4333 6.066 12.95 6.75C12.8333 6.91667 12.6917 7.04167 12.525 7.125C12.3583 7.20834 12.1833 7.25 12 7.25C11.8167 7.25 11.6417 7.20834 11.475 7.125C11.3083 7.04167 11.1667 6.91667 11.05 6.75Z" fill="#FFA6A6"/>
</svg>
