<svg width="144" height="208" viewBox="0 0 144 208" fill="none" xmlns="http://www.w3.org/2000/svg">
<mask id="mask0_179_4337" style="mask-type:alpha" maskUnits="userSpaceOnUse" x="0" y="0" width="144" height="208">
<rect width="144" height="208" fill="#DEDEDE"/>
</mask>
<g mask="url(#mask0_179_4337)">
<rect x="-70.7143" width="345.429" height="208" fill="url(#paint0_linear_179_4337)"/>
<path d="M35.3437 206.982H27.407C26.3808 206.982 25.3966 206.574 24.671 205.849C23.9454 205.123 23.5377 204.139 23.5377 203.113V184.24C23.5377 183.214 23.9454 182.229 24.671 181.504C25.3967 180.778 26.3808 180.371 27.407 180.371C30.0525 182.403 32.6981 182.403 35.3436 180.371C36.3698 180.371 37.354 180.778 38.0796 181.504C38.8053 182.229 39.213 183.214 39.213 184.24V203.113C39.213 204.139 38.8053 205.123 38.0797 205.849C37.354 206.574 36.3699 206.982 35.3437 206.982Z" fill="white"/>
<path d="M31.5576 178.183H30.464V184.745H31.5576V178.183Z" fill="white"/>
<path d="M107.271 199.494L110.865 199.464L112.456 185.278L107.152 185.323L107.271 199.494Z" fill="white"/>
<path d="M118.079 203.893L112.339 200L112.317 197.428L111.083 197.511L107.257 197.775L106.319 197.837L105.638 206.927L108.334 206.902L108.794 204.354L110.044 206.889L117.19 206.83C117.532 206.827 117.865 206.714 118.139 206.509C118.413 206.304 118.615 206.016 118.714 205.688C118.813 205.36 118.805 205.009 118.691 204.687C118.577 204.364 118.362 204.086 118.079 203.893Z" fill="#2F2E41"/>
<path d="M71.4358 198.093L74.9886 198.633L78.809 184.879L73.565 184.082L71.4358 198.093Z" fill="white"/>
<path d="M81.4087 204.15L76.3588 199.396L76.7452 196.853L75.5134 196.739L71.6939 196.393L70.7578 196.305L68.6442 205.172L71.3101 205.576L72.1678 203.132L73.0008 205.834L80.0653 206.908C80.404 206.96 80.7502 206.902 81.0535 206.742C81.3567 206.583 81.6012 206.331 81.7512 206.023C81.9011 205.715 81.9488 205.367 81.8872 205.03C81.8256 204.693 81.6579 204.385 81.4087 204.15Z" fill="#2F2E41"/>
<path d="M105.618 100.389L115.808 118.639C115.808 118.639 115.383 156.174 116.737 157.566C118.092 158.959 119.318 160.207 118.092 160.196C116.865 160.185 115.381 163.168 115.381 163.168L112.845 191.371H106.45C106.45 191.371 101.95 174.739 102.909 165.255L95.3335 130.596C95.3335 130.596 89.8907 163.373 88.9098 164.353C87.9289 165.334 87.3372 165.327 88.3687 166.312C89.4003 167.296 88.3687 169.523 88.3687 169.523L77.6157 191.84L71.783 191.104C71.783 191.104 72.7942 172.885 76.3154 165.064V128.101C76.0501 131.27 88.4557 99.1945 80.8695 101.602C83.2696 100.84 105.618 100.389 105.618 100.389Z" fill="#2F2E41"/>
<path d="M100.944 56.8964H92.5199L91.3272 61.6671L84.8502 63.4582C84.8502 63.4582 81.6465 84.7036 84.3371 86.4172C87.0278 88.1309 85.1516 93.4914 85.1516 93.4914C85.1516 93.4914 78.451 100.728 79.2551 101.8C80.0592 102.872 81.6905 101.241 79.8027 103.129C77.915 105.016 76.8429 104.748 77.3789 105.284C77.7104 105.624 77.9673 106.03 78.1333 106.475L75.8214 112.494C75.8214 112.494 88.0999 114.933 94.2645 111.449C100.429 107.965 114.098 114.665 114.098 114.665C114.098 114.665 113.395 111.147 112.809 110.628C112.222 110.109 110.855 111.422 111.806 109.693C112.758 107.965 113.562 108.769 112.758 107.965C111.954 107.161 108.47 96.4397 108.47 96.4397C108.47 96.4397 105.79 90.5431 108.738 88.1309C111.686 85.7187 112.809 77.8067 112.809 77.8067L109.274 63.4582L103.377 62.1325L100.944 56.8964Z" fill="#3F3D56"/>
<path d="M67.5976 111.674L69.6209 103.565L65.1495 101.763L63.3154 110.413C62.897 110.722 62.5732 111.142 62.3805 111.626C62.1878 112.11 62.1338 112.637 62.2246 113.15C62.3153 113.662 62.5472 114.139 62.8942 114.527C63.2413 114.915 63.6896 115.199 64.1889 115.346C64.6882 115.493 65.2186 115.498 65.7205 115.36C66.2225 115.222 66.676 114.947 67.0301 114.566C67.3843 114.184 67.625 113.712 67.7253 113.201C67.8255 112.69 67.7813 112.161 67.5976 111.674Z" fill="white"/>
<path d="M87.2508 62.9159L87.1173 62.893C85.876 62.6797 84.6013 62.7722 83.4037 63.1625C82.2062 63.5528 81.1218 64.2291 80.2444 65.1328C77.9541 67.4892 67.73 85.013 68.098 87.9417C68.4412 90.6729 68.5733 90.0654 67.3244 91.4599C66.0754 92.8544 65.6002 90.7307 65.5809 93.6341C65.5617 96.5375 66.671 96.5122 65.4919 97.2221C64.3128 97.932 63.5331 97.4375 63.7484 99.3963C63.9638 101.355 63.6341 101.875 63.5644 102.56C63.4946 103.244 61.8016 107.637 61.8016 107.637C61.8016 107.637 66.7842 108.975 68.7935 110.978C68.7935 110.978 69.0221 106.021 70.0364 105.571C71.0508 105.121 71.9953 105.356 71.7101 104.082C71.4249 102.807 69.9606 102.243 71.7546 102.288C73.5486 102.332 76.3196 92.7918 76.3196 92.7918L88.3015 70.9308L87.2508 62.9159Z" fill="#3F3D56"/>
<path d="M114.291 115.692L114.651 107.341L119.45 106.881L118.755 115.696C119.068 116.112 119.26 116.607 119.307 117.125C119.355 117.643 119.257 118.165 119.025 118.63C118.792 119.096 118.435 119.488 117.992 119.761C117.549 120.035 117.039 120.18 116.518 120.179C115.998 120.179 115.488 120.033 115.045 119.758C114.603 119.484 114.246 119.091 114.015 118.625C113.783 118.159 113.687 117.637 113.735 117.119C113.784 116.601 113.977 116.107 114.291 115.692Z" fill="white"/>
<path d="M109.274 63.3613L109.409 63.3771C110.66 63.5247 111.856 63.9749 112.894 64.6888C113.931 65.4028 114.779 66.3589 115.364 67.4744C116.892 70.3836 121.726 90.0876 120.542 92.7917C119.439 95.3134 119.484 94.6933 120.286 96.3848C121.088 98.0763 122.147 96.1747 121.342 98.9642C120.537 101.754 119.48 101.415 120.409 102.43C121.339 103.445 122.227 103.192 121.464 105.01C120.702 106.827 120.871 107.419 120.744 108.095C120.616 108.771 120.994 113.464 120.994 113.464C120.994 113.464 115.836 113.334 113.341 114.685C113.341 114.685 114.528 109.867 113.683 109.147C112.838 108.428 111.866 108.385 112.501 107.244C113.136 106.103 114.7 105.977 112.967 105.511C111.234 105.045 111.283 95.1107 111.283 95.1107L105.994 70.7489L109.274 63.3613Z" fill="#3F3D56"/>
<path d="M97.4268 60.0516C103.894 60.0516 109.136 54.8091 109.136 48.3421C109.136 41.8751 103.894 36.6325 97.4268 36.6325C90.9597 36.6325 85.7172 41.8751 85.7172 48.3421C85.7172 54.8091 90.9597 60.0516 97.4268 60.0516Z" fill="white"/>
<path d="M119.224 201.56C119.394 201.568 119.562 201.523 119.705 201.432C119.848 201.342 119.96 201.209 120.026 201.053C120.091 200.896 120.107 200.723 120.071 200.558C120.035 200.392 119.948 200.241 119.824 200.126L119.767 199.901C119.775 199.883 119.782 199.865 119.79 199.847C119.96 199.443 120.247 199.1 120.612 198.858C120.977 198.617 121.406 198.489 121.844 198.491C122.282 198.493 122.709 198.624 123.073 198.868C123.437 199.111 123.72 199.457 123.888 199.862C124.558 201.476 125.411 203.093 125.621 204.8C125.714 205.554 125.675 206.319 125.506 207.06C127.08 203.626 127.898 199.894 127.903 196.116C127.903 195.168 127.851 194.221 127.745 193.279C127.658 192.507 127.537 191.74 127.383 190.979C126.539 186.848 124.727 182.976 122.097 179.682C120.823 178.987 119.794 177.919 119.146 176.621C118.912 176.154 118.746 175.656 118.654 175.142C118.798 175.161 119.196 172.974 119.088 172.84C119.288 172.536 119.646 172.385 119.865 172.088C120.952 170.615 122.45 170.872 123.232 172.875C124.902 173.718 124.918 175.116 123.893 176.461C123.241 177.316 123.151 178.474 122.579 179.39C122.638 179.465 122.699 179.538 122.758 179.614C123.834 180.997 124.772 182.483 125.558 184.049C125.367 182.294 125.595 180.519 126.224 178.869C126.861 177.332 128.056 176.037 129.108 174.708C129.386 174.351 129.764 174.085 130.193 173.942C130.623 173.8 131.085 173.788 131.522 173.909C131.958 174.029 132.349 174.276 132.645 174.618C132.941 174.961 133.129 175.383 133.185 175.832C133.187 175.852 133.189 175.871 133.191 175.891C133.035 175.979 132.882 176.073 132.732 176.172C132.544 176.297 132.399 176.477 132.314 176.687C132.23 176.896 132.211 177.127 132.26 177.347C132.309 177.568 132.423 177.769 132.588 177.924C132.753 178.078 132.961 178.179 133.185 178.214L133.208 178.217C133.152 178.78 133.054 179.338 132.913 179.887C134.263 185.105 131.349 187.006 127.189 187.091C127.098 187.139 127.008 187.186 126.916 187.23C127.706 189.469 128.202 191.801 128.39 194.167C128.497 195.563 128.491 196.965 128.371 198.36L128.378 198.311C128.68 196.76 129.507 195.36 130.721 194.348C132.524 192.867 135.071 192.322 137.016 191.131C137.223 190.999 137.463 190.928 137.709 190.927C137.955 190.927 138.195 190.996 138.403 191.128C138.61 191.26 138.775 191.448 138.879 191.67C138.983 191.893 139.021 192.141 138.989 192.384L138.981 192.436C138.691 192.554 138.409 192.69 138.136 192.844C137.979 192.932 137.826 193.025 137.677 193.124C137.489 193.25 137.343 193.429 137.259 193.639C137.175 193.849 137.156 194.079 137.205 194.3C137.254 194.521 137.368 194.722 137.533 194.876C137.698 195.031 137.906 195.132 138.129 195.166L138.152 195.17C138.169 195.172 138.183 195.175 138.199 195.177C137.704 196.36 137.008 197.449 136.144 198.396C135.3 202.951 131.676 203.383 127.799 202.057H127.797C127.372 203.905 126.755 205.704 125.958 207.425H119.389C119.365 207.352 119.344 207.277 119.323 207.204C119.931 207.242 120.542 207.206 121.141 207.095C120.653 206.497 120.166 205.895 119.679 205.297C119.668 205.285 119.657 205.274 119.648 205.261C119.401 204.955 119.151 204.651 118.904 204.345L118.904 204.345C118.891 203.407 118.999 202.471 119.224 201.56Z" fill="white"/>
<path d="M29.0058 178.912C29.0058 178.912 33.0087 171.156 29.0058 173.559C23.4228 176.911 29.2911 164.478 31.0108 164.259C31.0108 164.259 37.7548 168.341 35.9321 170.163C34.1094 171.986 36.2446 172.732 36.2446 172.732C36.2446 172.732 39.109 173.166 36.2446 176.039C33.3803 178.912 29.0058 178.912 29.0058 178.912Z" fill="white"/>
<path d="M12.0846 207.711H7.28571C6.6662 207.712 6.07168 207.467 5.63292 207.03C5.19417 206.592 4.94712 205.998 4.94614 205.379V194.003C4.94712 193.384 5.19416 192.79 5.63292 192.353C6.07168 191.915 6.66621 191.67 7.28572 191.671C8.88533 192.896 10.485 192.896 12.0846 191.671C12.7041 191.67 13.2986 191.915 13.7374 192.353C14.1762 192.79 14.4232 193.384 14.4242 194.003V205.379C14.4232 205.998 14.1762 206.592 13.7374 207.03C13.2986 207.467 12.7041 207.712 12.0846 207.711Z" fill="white"/>
<path d="M9.70043 190.763H8.94147V195.317H9.70043V190.763Z" fill="white"/>
<path d="M7.92954 191.269C7.92954 191.269 6.41162 190.416 7.92954 187.554C9.44747 184.691 9.321 181.1 9.321 181.1C10.4915 178.037 15.5935 179.766 12.7363 185.197C11.9035 186.78 12.9532 186.98 12.9532 186.98C12.9532 186.98 14.9411 187.281 12.9532 189.275C10.9654 191.269 7.92954 191.269 7.92954 191.269Z" fill="white"/>
<path d="M90.1817 48.1388C90.8121 46.1692 91.8975 44.3757 93.35 42.9036C94.0734 44.8655 94.7969 46.8275 95.5204 48.7896C95.1551 49.7248 92.6317 48.6492 90.3 48.0517" fill="#3F3D56"/>
<path d="M98.7103 48.5512C98.8369 46.5764 99.689 44.7181 101.103 43.3337C101.924 45.3992 102.745 47.4647 103.565 49.5301C103.466 50.5884 100.878 49.6087 98.255 48.5997" fill="#3F3D56"/>
</g>
<defs>
<linearGradient id="paint0_linear_179_4337" x1="102" y1="0" x2="102" y2="208" gradientUnits="userSpaceOnUse">
<stop offset="0.0001" stop-color="#514F6D"/>
<stop offset="1" stop-color="#A3A0C6"/>
</linearGradient>
</defs>
</svg>
