<svg width="200" height="120" viewBox="0 0 200 120" fill="none" xmlns="http://www.w3.org/2000/svg">
<rect x="0.203247" y="-6.10352e-05" width="199.286" height="120" fill="url(#paint0_linear_193_4742)"/>
<path d="M81.5944 119.239H76.5894C75.9423 119.239 75.3217 118.982 74.8641 118.525C74.4065 118.067 74.1494 117.447 74.1494 116.799V104.898C74.1494 104.251 74.4065 103.63 74.8641 103.172C75.3217 102.715 75.9423 102.458 76.5895 102.458C78.2578 103.739 79.9261 103.739 81.5944 102.458C82.2415 102.458 82.8622 102.715 83.3198 103.172C83.7774 103.63 84.0344 104.251 84.0344 104.898V116.799C84.0344 117.447 83.7774 118.067 83.3198 118.525C82.8622 118.982 82.2415 119.239 81.5944 119.239Z" fill="white"/>
<path d="M79.2068 101.079H78.5172V105.216H79.2068V101.079Z" fill="white"/>
<path d="M126.953 114.517L129.219 114.498L130.223 105.553L126.878 105.581L126.953 114.517Z" fill="white"/>
<path d="M133.768 117.292L130.149 114.836L130.135 113.215L129.357 113.267L126.944 113.433L126.352 113.472L125.923 119.204L127.623 119.189L127.913 117.582L128.702 119.181L133.208 119.143C133.424 119.141 133.634 119.071 133.806 118.941C133.979 118.812 134.106 118.63 134.169 118.424C134.232 118.217 134.226 117.995 134.154 117.792C134.082 117.588 133.947 117.413 133.768 117.292Z" fill="#2F2E41"/>
<path d="M104.355 113.634L106.595 113.974L109.004 105.301L105.697 104.798L104.355 113.634Z" fill="white"/>
<path d="M110.644 117.454L107.459 114.455L107.703 112.852L106.926 112.78L104.517 112.562L103.927 112.507L102.594 118.098L104.275 118.353L104.816 116.812L105.342 118.515L109.796 119.193C110.01 119.225 110.228 119.189 110.42 119.088C110.611 118.988 110.765 118.829 110.86 118.635C110.954 118.441 110.984 118.221 110.945 118.009C110.907 117.796 110.801 117.602 110.644 117.454Z" fill="#2F2E41"/>
<path d="M125.911 52.0203L132.337 63.5292C132.337 63.5292 132.068 87.1992 132.922 88.0772C133.776 88.9551 134.55 89.7425 133.776 89.7354C133.003 89.7283 132.067 91.6097 132.067 91.6097L130.468 109.395H126.435C126.435 109.395 123.597 98.9066 124.202 92.9257L119.425 71.069C119.425 71.069 115.993 91.7386 115.374 92.3572C114.755 92.9758 114.382 92.9714 115.033 93.5922C115.683 94.2129 115.033 95.6169 115.033 95.6169L108.252 109.691L104.574 109.227C104.574 109.227 105.211 97.7374 107.432 92.805V69.4959C107.264 71.4944 115.088 51.267 110.304 52.7852C111.817 52.3049 125.911 52.0203 125.911 52.0203Z" fill="#2F2E41"/>
<path d="M122.963 24.5933H117.651L116.898 27.6017L112.814 28.7312C112.814 28.7312 110.794 42.1289 112.49 43.2095C114.187 44.2902 113.004 47.6706 113.004 47.6706C113.004 47.6706 108.778 52.2341 109.286 52.9102C109.793 53.5863 110.821 52.5576 109.631 53.748C108.44 54.9385 107.764 54.7694 108.102 55.1075C108.311 55.3219 108.473 55.5775 108.578 55.8581L107.12 59.6541C107.12 59.6541 114.863 61.1922 118.751 58.995C122.638 56.7977 131.258 61.0232 131.258 61.0232C131.258 61.0232 130.815 58.8046 130.445 58.4772C130.075 58.1499 129.213 58.9777 129.813 57.8877C130.413 56.7977 130.92 57.3047 130.413 56.7977C129.906 56.2906 127.709 49.5298 127.709 49.5298C127.709 49.5298 126.019 45.8114 127.878 44.2902C129.737 42.769 130.445 37.7796 130.445 37.7796L128.216 28.7312L124.497 27.8952L122.963 24.5933Z" fill="#3F3D56"/>
<path d="M101.934 59.137L103.21 54.023L100.39 52.8865L99.2338 58.3414C98.9699 58.5366 98.7658 58.8016 98.6442 59.1065C98.5227 59.4114 98.4887 59.7442 98.5459 60.0674C98.6031 60.3906 98.7494 60.6915 98.9682 60.9361C99.187 61.1808 99.4698 61.3595 99.7846 61.4523C100.099 61.5451 100.434 61.5482 100.751 61.4613C101.067 61.3743 101.353 61.2009 101.576 60.9603C101.8 60.7198 101.951 60.4217 102.015 60.0996C102.078 59.7775 102.05 59.4442 101.934 59.137Z" fill="white"/>
<path d="M114.328 28.3892L114.244 28.3748C113.461 28.2403 112.657 28.2986 111.902 28.5447C111.147 28.7908 110.463 29.2173 109.909 29.7873C108.465 31.2732 102.018 42.324 102.25 44.1709C102.466 45.8932 102.549 45.5101 101.762 46.3895C100.974 47.2689 100.675 45.9297 100.662 47.7606C100.65 49.5915 101.35 49.5756 100.606 50.0232C99.8627 50.4709 99.371 50.159 99.5069 51.3943C99.6427 52.6296 99.4348 52.9574 99.3908 53.3891C99.3468 53.8209 98.2792 56.5911 98.2792 56.5911C98.2792 56.5911 101.421 57.4348 102.688 58.6982C102.688 58.6982 102.833 55.5721 103.472 55.2883C104.112 55.0045 104.707 55.1525 104.528 54.3489C104.348 53.5454 103.424 53.1895 104.556 53.2176C105.687 53.2457 107.434 47.2294 107.434 47.2294L114.99 33.4435L114.328 28.3892Z" fill="#3F3D56"/>
<path d="M131.38 61.6704L131.607 56.4045L134.633 56.1144L134.195 61.6734C134.392 61.9354 134.513 62.2474 134.543 62.5743C134.573 62.9011 134.511 63.2299 134.365 63.5236C134.218 63.8173 133.993 64.0643 133.713 64.2368C133.434 64.4094 133.112 64.5006 132.784 64.5002C132.456 64.4999 132.134 64.408 131.855 64.2349C131.577 64.0618 131.352 63.8143 131.206 63.5203C131.06 63.2263 130.999 62.8974 131.029 62.5706C131.06 62.2438 131.181 61.932 131.38 61.6704Z" fill="white"/>
<path d="M128.216 28.6701L128.301 28.6801C129.09 28.7731 129.844 29.0571 130.498 29.5073C131.153 29.9575 131.688 30.5604 132.057 31.2639C133.02 33.0985 136.068 45.5241 135.322 47.2293C134.626 48.8196 134.655 48.4285 135.161 49.4952C135.666 50.5619 136.334 49.3627 135.826 51.1219C135.318 52.881 134.652 52.6673 135.238 53.3075C135.824 53.9477 136.384 53.7881 135.903 54.9341C135.423 56.0802 135.529 56.4534 135.449 56.8799C135.369 57.3064 135.607 60.2657 135.607 60.2657C135.607 60.2657 132.354 60.1836 130.781 61.0357C130.781 61.0357 131.529 57.997 130.996 57.5435C130.464 57.0899 129.85 57.0629 130.251 56.3434C130.651 55.6238 131.638 55.5445 130.545 55.2505C129.452 54.9566 129.483 48.6917 129.483 48.6917L126.147 33.3289L128.216 28.6701Z" fill="#3F3D56"/>
<path d="M120.745 26.583C124.823 26.583 128.129 23.2769 128.129 19.1987C128.129 15.1205 124.823 11.8145 120.745 11.8145C116.667 11.8145 113.361 15.1205 113.361 19.1987C113.361 23.2769 116.667 26.583 120.745 26.583Z" fill="white"/>
<path d="M134.491 115.82C134.598 115.825 134.703 115.797 134.794 115.74C134.884 115.683 134.955 115.599 134.996 115.5C135.037 115.402 135.047 115.293 135.025 115.188C135.002 115.084 134.947 114.989 134.869 114.916L134.833 114.774C134.838 114.762 134.843 114.751 134.847 114.74C134.955 114.485 135.135 114.269 135.366 114.117C135.596 113.965 135.867 113.884 136.143 113.885C136.419 113.886 136.688 113.969 136.918 114.122C137.147 114.276 137.326 114.494 137.432 114.749C137.854 115.767 138.392 116.787 138.525 117.863C138.583 118.339 138.559 118.821 138.452 119.289C139.445 117.123 139.96 114.77 139.964 112.387C139.964 111.79 139.931 111.192 139.864 110.598C139.809 110.111 139.733 109.628 139.635 109.148C139.103 106.543 137.961 104.101 136.302 102.024C135.499 101.585 134.85 100.912 134.442 100.093C134.294 99.7991 134.189 99.485 134.131 99.1609C134.222 99.1727 134.473 97.7934 134.405 97.7087C134.531 97.5172 134.757 97.422 134.895 97.2351C135.58 96.3056 136.525 96.4679 137.018 97.731C138.071 98.2626 138.081 99.1444 137.435 99.9923C137.024 100.532 136.967 101.262 136.606 101.839C136.644 101.887 136.682 101.933 136.719 101.98C137.398 102.853 137.989 103.79 138.485 104.778C138.365 103.671 138.508 102.552 138.905 101.511C139.307 100.542 140.06 99.7253 140.723 98.8872C140.899 98.662 141.137 98.4939 141.408 98.4042C141.679 98.3144 141.971 98.307 142.246 98.3828C142.521 98.4587 142.767 98.6145 142.954 98.8304C143.141 99.0463 143.259 99.3127 143.294 99.596C143.296 99.6083 143.297 99.6207 143.298 99.633C143.2 99.6886 143.103 99.7476 143.009 99.81C142.891 99.8892 142.799 100.002 142.746 100.135C142.692 100.267 142.681 100.412 142.711 100.551C142.742 100.691 142.814 100.817 142.918 100.915C143.022 101.012 143.154 101.076 143.294 101.098L143.309 101.1C143.274 101.455 143.212 101.807 143.123 102.153C143.974 105.444 142.137 106.642 139.514 106.696C139.456 106.726 139.399 106.756 139.341 106.784C139.84 108.195 140.152 109.666 140.271 111.158C140.338 112.038 140.334 112.923 140.259 113.802L140.264 113.771C140.454 112.793 140.975 111.91 141.741 111.272C142.878 110.338 144.484 109.994 145.711 109.244C145.841 109.16 145.993 109.115 146.147 109.115C146.302 109.115 146.454 109.159 146.585 109.242C146.716 109.325 146.82 109.443 146.885 109.584C146.951 109.724 146.975 109.88 146.955 110.034L146.95 110.067C146.767 110.141 146.589 110.227 146.417 110.324C146.318 110.379 146.222 110.438 146.127 110.501C146.009 110.58 145.917 110.693 145.864 110.825C145.811 110.958 145.799 111.103 145.829 111.242C145.86 111.381 145.932 111.508 146.036 111.605C146.141 111.703 146.272 111.767 146.412 111.788L146.427 111.791C146.437 111.792 146.446 111.793 146.457 111.795C146.144 112.541 145.706 113.227 145.16 113.825C144.628 116.698 142.343 116.97 139.898 116.134H139.897C139.629 117.299 139.24 118.434 138.737 119.519H134.595C134.58 119.473 134.566 119.425 134.553 119.379C134.936 119.403 135.321 119.38 135.699 119.311C135.392 118.934 135.085 118.554 134.777 118.177C134.77 118.17 134.764 118.162 134.758 118.154C134.602 117.961 134.445 117.77 134.289 117.577L134.289 117.577C134.28 116.985 134.348 116.394 134.491 115.82Z" fill="white"/>
<path d="M77.5977 101.538C77.5977 101.538 80.122 96.647 77.5977 98.1624C74.077 100.276 77.7776 92.4358 78.8621 92.2976C78.8621 92.2976 83.1149 94.8716 81.9655 96.021C80.8161 97.1704 82.1626 97.6411 82.1626 97.6411C82.1626 97.6411 83.9689 97.9144 82.1626 99.7263C80.3563 101.538 77.5977 101.538 77.5977 101.538Z" fill="white"/>
<path d="M66.9269 119.699H63.9007C63.51 119.7 63.1351 119.545 62.8584 119.269C62.5817 118.994 62.4259 118.619 62.4253 118.228V111.055C62.4259 110.664 62.5817 110.29 62.8584 110.014C63.1351 109.738 63.51 109.584 63.9007 109.584C64.9094 110.357 65.9182 110.357 66.9269 109.584C67.3176 109.584 67.6925 109.738 67.9692 110.014C68.2459 110.29 68.4017 110.664 68.4023 111.055V118.228C68.4017 118.619 68.2459 118.994 67.9692 119.269C67.6925 119.545 67.3176 119.7 66.9269 119.699Z" fill="white"/>
<path d="M65.4234 109.011H64.9448V111.883H65.4234V109.011Z" fill="white"/>
<path d="M64.3066 109.331C64.3066 109.331 63.3494 108.793 64.3066 106.988C65.2638 105.183 65.1841 102.918 65.1841 102.918C65.9222 100.986 69.1396 102.077 67.3378 105.502C66.8126 106.5 67.4746 106.626 67.4746 106.626C67.4746 106.626 68.7282 106.816 67.4746 108.073C66.2211 109.331 64.3066 109.331 64.3066 109.331Z" fill="white"/>
<path d="M57.5016 119.699H54.4754C54.0847 119.7 53.7098 119.545 53.4331 119.269C53.1564 118.994 53.0006 118.619 53 118.228V111.055C53.0006 110.664 53.1564 110.29 53.4331 110.014C53.7098 109.738 54.0847 109.584 54.4754 109.584C55.4841 110.357 56.4929 110.357 57.5016 109.584C57.8923 109.584 58.2672 109.738 58.5439 110.014C58.8206 110.29 58.9764 110.664 58.977 111.055V118.228C58.9764 118.619 58.8206 118.994 58.5439 119.269C58.2672 119.545 57.8923 119.7 57.5016 119.699Z" fill="white"/>
<path d="M55.9981 109.011H55.5195V111.883H55.9981V109.011Z" fill="white"/>
<path d="M54.8813 109.331C54.8813 109.331 55.9781 108.712 54.8813 106.988C53.1259 104.229 55.4404 102.806 55.7588 102.918C55.7588 102.918 58.7102 104.704 57.9125 105.502C57.1148 106.299 58.0493 106.626 58.0493 106.626C58.0493 106.626 58.604 106.386 58.0493 108.073C55.8821 114.663 54.6549 110.652 54.8813 109.331Z" fill="white"/>
<path d="M116.176 19.0706C116.574 17.8285 117.258 16.6974 118.174 15.7691C118.63 17.0063 119.086 18.2436 119.543 19.4809C119.312 20.0707 117.721 19.3924 116.251 19.0156" fill="#3F3D56"/>
<path d="M121.554 19.3306C121.634 18.0853 122.171 16.9135 123.063 16.0404C123.581 17.3429 124.098 18.6455 124.616 19.948C124.553 20.6154 122.921 19.9975 121.267 19.3612" fill="#3F3D56"/>
<defs>
<linearGradient id="paint0_linear_193_4742" x1="99.8461" y1="-6.10352e-05" x2="99.8461" y2="120" gradientUnits="userSpaceOnUse">
<stop offset="0.0001" stop-color="#514F6D"/>
<stop offset="1" stop-color="#A3A0C6"/>
</linearGradient>
</defs>
</svg>
