<svg width="144" height="208" viewBox="0 0 144 208" fill="none" xmlns="http://www.w3.org/2000/svg">
<mask id="mask0_179_4337" style="mask-type:alpha" maskUnits="userSpaceOnUse" x="0" y="0" width="144" height="208">
<rect width="144" height="208" fill="#DEDEDE"/>
</mask>
<g mask="url(#mask0_179_4337)">
<rect x="-70.7143" width="345.429" height="208" fill="url(#paint0_linear_179_4337)"/>
<path d="M44.8037 208H36.1963C35.0834 208 34.016 207.54 33.2291 206.722C32.4421 205.904 32 204.795 32 203.638V182.362C32 181.205 32.4421 180.096 33.2291 179.278C34.016 178.46 35.0834 178 36.1963 178C39.0654 180.291 41.9345 180.291 44.8037 178C45.9166 178 46.9839 178.46 47.7709 179.278C48.5579 180.096 49 181.205 49 182.362V203.638C49 204.795 48.5579 205.904 47.7709 206.722C46.984 207.54 45.9166 208 44.8037 208Z" fill="white"/>
<path d="M41 175H39V183H41V175Z" fill="white"/>
<path d="M107.271 201.494L110.865 201.464L112.456 187.278L107.152 187.323L107.271 201.494Z" fill="white"/>
<path d="M118.079 205.893L112.339 202L112.317 199.428L111.083 199.511L107.257 199.775L106.319 199.837L105.638 208.927L108.334 208.902L108.794 206.354L110.044 208.889L117.19 208.83C117.532 208.827 117.865 208.714 118.139 208.509C118.413 208.304 118.615 208.016 118.714 207.688C118.813 207.36 118.805 207.009 118.691 206.687C118.577 206.364 118.362 206.086 118.079 205.893Z" fill="#2F2E41"/>
<path d="M71.4358 200.093L74.9886 200.633L78.809 186.879L73.565 186.082L71.4358 200.093Z" fill="white"/>
<path d="M81.4087 206.15L76.3588 201.396L76.7452 198.853L75.5134 198.739L71.6939 198.393L70.7578 198.305L68.6442 207.172L71.3101 207.576L72.1678 205.132L73.0008 207.834L80.0653 208.908C80.404 208.96 80.7502 208.902 81.0535 208.742C81.3567 208.583 81.6012 208.331 81.7512 208.023C81.9011 207.715 81.9488 207.367 81.8872 207.03C81.8256 206.693 81.6579 206.385 81.4087 206.15Z" fill="#2F2E41"/>
<path d="M105.618 102.389L115.808 120.639C115.808 120.639 115.383 158.174 116.737 159.566C118.092 160.959 119.318 162.207 118.092 162.196C116.865 162.185 115.381 165.168 115.381 165.168L112.845 193.371H106.45C106.45 193.371 101.95 176.739 102.909 167.255L95.3335 132.596C95.3335 132.596 89.8907 165.373 88.9098 166.353C87.9289 167.334 87.3372 167.327 88.3687 168.312C89.4003 169.296 88.3687 171.523 88.3687 171.523L77.6157 193.84L71.783 193.104C71.783 193.104 72.7942 174.885 76.3154 167.064V130.101C76.0501 133.27 88.4557 101.195 80.8695 103.602C83.2696 102.84 105.618 102.389 105.618 102.389Z" fill="#2F2E41"/>
<path d="M100.944 58.8964H92.5199L91.3272 63.6671L84.8502 65.4582C84.8502 65.4582 81.6465 86.7036 84.3371 88.4172C87.0278 90.1309 85.1516 95.4914 85.1516 95.4914C85.1516 95.4914 78.451 102.728 79.2551 103.8C80.0592 104.872 81.6905 103.241 79.8027 105.129C77.915 107.016 76.8429 106.748 77.3789 107.284C77.7104 107.624 77.9673 108.03 78.1333 108.475L75.8214 114.494C75.8214 114.494 88.0999 116.933 94.2645 113.449C100.429 109.965 114.098 116.665 114.098 116.665C114.098 116.665 113.395 113.147 112.809 112.628C112.222 112.109 110.855 113.422 111.806 111.693C112.758 109.965 113.562 110.769 112.758 109.965C111.954 109.161 108.47 98.4397 108.47 98.4397C108.47 98.4397 105.79 92.5431 108.738 90.1309C111.686 87.7187 112.809 79.8067 112.809 79.8067L109.274 65.4582L103.377 64.1325L100.944 58.8964Z" fill="#3F3D56"/>
<path d="M67.5976 113.674L69.6209 105.565L65.1495 103.763L63.3154 112.413C62.897 112.722 62.5732 113.142 62.3805 113.626C62.1878 114.11 62.1338 114.637 62.2246 115.15C62.3153 115.662 62.5472 116.139 62.8942 116.527C63.2413 116.915 63.6896 117.199 64.1889 117.346C64.6882 117.493 65.2186 117.498 65.7205 117.36C66.2225 117.222 66.676 116.947 67.0301 116.566C67.3843 116.184 67.625 115.712 67.7253 115.201C67.8255 114.69 67.7813 114.161 67.5976 113.674Z" fill="white"/>
<path d="M87.2508 64.9159L87.1173 64.893C85.876 64.6797 84.6013 64.7722 83.4037 65.1625C82.2062 65.5528 81.1218 66.2291 80.2444 67.1328C77.9541 69.4892 67.73 87.013 68.098 89.9417C68.4412 92.6729 68.5733 92.0654 67.3244 93.4599C66.0754 94.8544 65.6002 92.7307 65.5809 95.6341C65.5617 98.5375 66.671 98.5122 65.4919 99.2221C64.3128 99.932 63.5331 99.4375 63.7484 101.396C63.9638 103.355 63.6341 103.875 63.5644 104.56C63.4946 105.244 61.8016 109.637 61.8016 109.637C61.8016 109.637 66.7842 110.975 68.7935 112.978C68.7935 112.978 69.0221 108.021 70.0364 107.571C71.0508 107.121 71.9953 107.356 71.7101 106.082C71.4249 104.807 69.9606 104.243 71.7546 104.288C73.5486 104.332 76.3196 94.7918 76.3196 94.7918L88.3015 72.9308L87.2508 64.9159Z" fill="#3F3D56"/>
<path d="M114.291 117.692L114.651 109.341L119.45 108.881L118.755 117.696C119.068 118.112 119.26 118.607 119.307 119.125C119.355 119.643 119.257 120.165 119.025 120.63C118.792 121.096 118.435 121.488 117.992 121.761C117.549 122.035 117.039 122.18 116.518 122.179C115.998 122.179 115.488 122.033 115.045 121.758C114.603 121.484 114.246 121.091 114.015 120.625C113.783 120.159 113.687 119.637 113.735 119.119C113.784 118.601 113.977 118.107 114.291 117.692Z" fill="white"/>
<path d="M109.274 65.3613L109.409 65.3771C110.66 65.5247 111.856 65.9749 112.894 66.6888C113.931 67.4028 114.779 68.3589 115.364 69.4744C116.892 72.3836 121.726 92.0876 120.542 94.7917C119.439 97.3134 119.484 96.6933 120.286 98.3848C121.088 100.076 122.147 98.1747 121.342 100.964C120.537 103.754 119.48 103.415 120.409 104.43C121.339 105.445 122.227 105.192 121.464 107.01C120.702 108.827 120.871 109.419 120.744 110.095C120.616 110.771 120.994 115.464 120.994 115.464C120.994 115.464 115.836 115.334 113.341 116.685C113.341 116.685 114.528 111.867 113.683 111.147C112.838 110.428 111.866 110.385 112.501 109.244C113.136 108.103 114.7 107.977 112.967 107.511C111.234 107.045 111.283 97.1107 111.283 97.1107L105.994 72.7489L109.274 65.3613Z" fill="#3F3D56"/>
<path d="M97.4268 62.0516C103.894 62.0516 109.136 56.8091 109.136 50.3421C109.136 43.8751 103.894 38.6325 97.4268 38.6325C90.9597 38.6325 85.7172 43.8751 85.7172 50.3421C85.7172 56.8091 90.9597 62.0516 97.4268 62.0516Z" fill="white"/>
<path d="M119.224 203.56C119.394 203.568 119.562 203.523 119.705 203.432C119.848 203.342 119.96 203.209 120.026 203.053C120.091 202.896 120.107 202.723 120.071 202.558C120.035 202.392 119.948 202.241 119.824 202.126L119.767 201.901C119.775 201.883 119.782 201.865 119.79 201.847C119.96 201.443 120.247 201.1 120.612 200.858C120.977 200.617 121.406 200.489 121.844 200.491C122.282 200.493 122.709 200.624 123.073 200.868C123.437 201.111 123.72 201.457 123.888 201.862C124.558 203.476 125.411 205.093 125.621 206.8C125.714 207.554 125.675 208.319 125.506 209.06C127.08 205.626 127.898 201.894 127.903 198.116C127.903 197.168 127.851 196.221 127.745 195.279C127.658 194.507 127.537 193.74 127.383 192.979C126.539 188.848 124.727 184.976 122.097 181.682C120.823 180.987 119.794 179.919 119.146 178.621C118.912 178.154 118.746 177.656 118.654 177.142C118.798 177.161 119.196 174.974 119.088 174.84C119.288 174.536 119.646 174.385 119.865 174.088C120.952 172.615 122.45 172.872 123.232 174.875C124.902 175.718 124.918 177.116 123.893 178.461C123.241 179.316 123.151 180.474 122.579 181.39C122.638 181.465 122.699 181.538 122.758 181.614C123.834 182.997 124.772 184.483 125.558 186.049C125.367 184.294 125.595 182.519 126.224 180.869C126.861 179.332 128.056 178.037 129.108 176.708C129.386 176.351 129.764 176.085 130.193 175.942C130.623 175.8 131.085 175.788 131.522 175.909C131.958 176.029 132.349 176.276 132.645 176.618C132.941 176.961 133.129 177.383 133.185 177.832C133.187 177.852 133.189 177.871 133.191 177.891C133.035 177.979 132.882 178.073 132.732 178.172C132.544 178.297 132.399 178.477 132.314 178.687C132.23 178.896 132.211 179.127 132.26 179.347C132.309 179.568 132.423 179.769 132.588 179.924C132.753 180.078 132.961 180.179 133.185 180.214L133.208 180.217C133.152 180.78 133.054 181.338 132.913 181.887C134.263 187.105 131.349 189.006 127.189 189.091C127.098 189.139 127.008 189.186 126.916 189.23C127.706 191.469 128.202 193.801 128.39 196.167C128.497 197.563 128.491 198.965 128.371 200.36L128.378 200.311C128.68 198.76 129.507 197.36 130.721 196.348C132.524 194.867 135.071 194.322 137.016 193.131C137.223 192.999 137.463 192.928 137.709 192.927C137.955 192.927 138.195 192.996 138.403 193.128C138.61 193.26 138.775 193.448 138.879 193.67C138.983 193.893 139.021 194.141 138.989 194.384L138.981 194.436C138.691 194.554 138.409 194.69 138.136 194.844C137.979 194.932 137.826 195.025 137.677 195.124C137.489 195.25 137.343 195.429 137.259 195.639C137.175 195.849 137.156 196.079 137.205 196.3C137.254 196.521 137.368 196.722 137.533 196.876C137.698 197.031 137.906 197.132 138.129 197.166L138.152 197.17C138.169 197.172 138.183 197.175 138.199 197.177C137.704 198.36 137.008 199.449 136.144 200.396C135.3 204.951 131.676 205.383 127.799 204.057H127.797C127.372 205.905 126.755 207.704 125.958 209.425H119.389C119.365 209.352 119.344 209.277 119.323 209.204C119.931 209.242 120.542 209.206 121.141 209.095C120.653 208.497 120.166 207.895 119.679 207.297C119.668 207.285 119.657 207.274 119.648 207.261C119.401 206.955 119.151 206.651 118.904 206.345L118.904 206.345C118.891 205.407 118.999 204.471 119.224 203.56Z" fill="white"/>
<path d="M37.601 176C37.601 176 42.0211 167.531 37.601 170.155C31.4362 173.814 37.9161 160.239 39.815 160C39.815 160 47.2618 164.457 45.2491 166.447C43.2365 168.437 45.5943 169.252 45.5943 169.252C45.5943 169.252 48.7571 169.725 45.5943 172.863C42.4314 176 37.601 176 37.601 176Z" fill="white"/>
<path d="M19.2847 208H13.7153C12.9963 208.001 12.3063 207.741 11.7971 207.278C11.2879 206.814 11.0011 206.185 11 205.528V193.472C11.0011 192.815 11.2879 192.186 11.7971 191.722C12.3063 191.259 12.9963 190.999 13.7153 191C15.5717 192.298 17.4282 192.298 19.2847 191C20.0037 190.999 20.6937 191.259 21.2029 191.722C21.7121 192.186 21.9989 192.815 22 193.472V205.528C21.9989 206.185 21.7121 206.814 21.2029 207.278C20.6937 207.741 20.0037 208.001 19.2847 208Z" fill="white"/>
<path d="M16 190H15V195H16V190Z" fill="white"/>
<path d="M14.7175 190C14.7175 190 13.1031 189.051 14.7175 185.863C16.3319 182.676 16.1974 178.677 16.1974 178.677C17.4422 175.266 22.8684 177.192 19.8297 183.239C18.9439 185.002 20.0604 185.224 20.0604 185.224C20.0604 185.224 22.1745 185.559 20.0604 187.78C17.9462 190 14.7175 190 14.7175 190Z" fill="white"/>
<path d="M90.1817 50.1388C90.8121 48.1692 91.8975 46.3757 93.35 44.9036C94.0734 46.8655 94.7969 48.8275 95.5204 50.7896C95.1551 51.7248 92.6317 50.6492 90.3 50.0517" fill="#3F3D56"/>
<path d="M98.7103 50.5512C98.8369 48.5764 99.689 46.7181 101.103 45.3337C101.924 47.3992 102.745 49.4647 103.565 51.5301C103.466 52.5884 100.878 51.6087 98.255 50.5997" fill="#3F3D56"/>
</g>
<defs>
<linearGradient id="paint0_linear_179_4337" x1="102" y1="0" x2="102" y2="208" gradientUnits="userSpaceOnUse">
<stop offset="0.0001" stop-color="#514F6D"/>
<stop offset="1" stop-color="#A3A0C6"/>
</linearGradient>
</defs>
</svg>
