<svg width="144" height="208" viewBox="0 0 144 208" fill="none" xmlns="http://www.w3.org/2000/svg">
<mask id="mask0_174_3388" style="mask-type:alpha" maskUnits="userSpaceOnUse" x="0" y="0" width="144" height="208">
<rect width="144" height="208" fill="#DEDEDE"/>
</mask>
<g mask="url(#mask0_174_3388)">
<g filter="url(#filter0_d_174_3388)">
<path d="M-82 8.00001C-82 3.58173 -78.4183 0 -74 0H263.429V208H-74C-78.4183 208 -82 204.418 -82 200V8.00001Z" fill="url(#paint0_linear_174_3388)"/>
<g clip-path="url(#clip0_174_3388)">
<path d="M64.1428 127.91C64.1428 117.304 72.3662 92.1357 82.5102 92.1357C92.6542 92.1357 100.878 117.304 100.878 127.91C100.874 133.004 98.9371 137.889 95.493 141.49C92.0488 145.09 87.3791 147.113 82.5102 147.113C77.6412 147.113 72.9715 145.09 69.5274 141.49C66.0832 137.889 64.1465 133.004 64.1428 127.91Z" fill="#E3DED4"/>
<path d="M81.0989 174.602C81.043 174.602 80.9877 174.598 80.9361 174.59C80.8845 174.582 80.8376 174.571 80.7981 174.556C80.7586 174.541 80.7273 174.524 80.7059 174.505C80.6845 174.486 80.6735 174.466 80.6735 174.445V108.785C80.6739 108.744 80.719 108.704 80.7987 108.675C80.8784 108.645 80.9864 108.629 81.0989 108.629C81.2114 108.629 81.3193 108.645 81.3991 108.675C81.4788 108.704 81.5238 108.744 81.5243 108.785V174.445C81.5243 174.466 81.5133 174.486 81.4919 174.505C81.4705 174.524 81.4391 174.541 81.3996 174.556C81.3601 174.571 81.3132 174.582 81.2616 174.59C81.21 174.598 81.1547 174.602 81.0989 174.602Z" fill="#3F3D56"/>
<path d="M80.527 123.29C80.5077 123.29 80.4887 123.285 80.4709 123.276C80.4531 123.267 80.4369 123.253 80.4233 123.236L73.3692 114.439C73.3418 114.404 73.3265 114.358 73.3265 114.309C73.3266 114.261 73.342 114.214 73.3695 114.18C73.3969 114.146 73.4342 114.127 73.473 114.127C73.5118 114.127 73.549 114.146 73.5765 114.18L80.6306 122.978C80.6511 123.003 80.665 123.036 80.6707 123.071C80.6763 123.107 80.6734 123.143 80.6623 123.177C80.6512 123.21 80.6324 123.239 80.6083 123.259C80.5842 123.279 80.5559 123.29 80.527 123.29Z" fill="#3F3D56"/>
<path d="M80.8291 136.118C80.7983 136.118 80.7682 136.109 80.7426 136.091C80.717 136.074 80.6971 136.05 80.6853 136.022C80.6735 135.993 80.6704 135.962 80.6764 135.932C80.6824 135.902 80.6973 135.874 80.719 135.853L93.2652 123.335C93.2943 123.306 93.3339 123.29 93.3751 123.29C93.4163 123.29 93.4558 123.306 93.485 123.335C93.5141 123.364 93.5305 123.404 93.5306 123.445C93.5307 123.486 93.5144 123.525 93.4853 123.554L80.9391 136.072C80.9247 136.087 80.9075 136.098 80.8886 136.106C80.8697 136.114 80.8495 136.118 80.8291 136.118Z" fill="#3F3D56"/>
<path d="M31.0817 117.292C31.0817 103.857 41.3608 71.9774 54.0408 71.9774C66.7209 71.9774 77 103.857 77 117.292C76.9954 123.744 74.5745 129.931 70.2693 134.492C65.9641 139.053 60.127 141.615 54.0408 141.615C47.9547 141.615 42.1176 139.053 37.8124 134.492C33.5072 129.931 31.0863 123.744 31.0817 117.292Z" fill="white"/>
<path d="M53.5479 174.602C53.492 174.602 53.4367 174.597 53.3851 174.587C53.3335 174.577 53.2866 174.563 53.2471 174.544C53.2076 174.526 53.1763 174.505 53.1549 174.481C53.1335 174.457 53.1225 174.432 53.1224 174.406V92.3309C53.1229 92.2791 53.1679 92.2294 53.2476 92.1929C53.3273 92.1563 53.4353 92.1357 53.5479 92.1357C53.6604 92.1357 53.7684 92.1563 53.8481 92.1929C53.9279 92.2294 53.9729 92.2791 53.9733 92.3309V174.406C53.9733 174.432 53.9622 174.457 53.9408 174.481C53.9195 174.505 53.8881 174.526 53.8486 174.544C53.8091 174.563 53.7622 174.577 53.7106 174.587C53.659 174.597 53.6037 174.602 53.5479 174.602Z" fill="#3F3D56"/>
<path d="M52.9393 108.629C52.9153 108.629 52.8914 108.624 52.8692 108.615C52.847 108.606 52.8268 108.592 52.8098 108.575L43.9924 99.7781C43.9754 99.7611 43.9619 99.741 43.9527 99.7188C43.9435 99.6966 43.9388 99.6728 43.9388 99.6488C43.9388 99.6003 43.9581 99.5538 43.9925 99.5196C44.0268 99.4853 44.0734 99.466 44.122 99.4661C44.1706 99.4661 44.2171 99.4854 44.2514 99.5197L53.0689 108.317C53.0945 108.343 53.1119 108.375 53.1189 108.411C53.126 108.446 53.1224 108.483 53.1085 108.516C53.0946 108.55 53.0712 108.578 53.041 108.598C53.0109 108.618 52.9755 108.629 52.9393 108.629Z" fill="#3F3D56"/>
<path d="M53.3225 123.29C53.2829 123.29 53.2443 123.279 53.2114 123.26C53.1785 123.24 53.1528 123.213 53.1377 123.18C53.1225 123.148 53.1186 123.112 53.1263 123.078C53.134 123.043 53.153 123.011 53.181 122.987L69.3115 108.681C69.349 108.648 69.3999 108.629 69.4529 108.629C69.506 108.629 69.5569 108.648 69.5944 108.681C69.6319 108.714 69.653 108.759 69.653 108.806C69.6531 108.853 69.632 108.899 69.5945 108.932L53.464 123.238C53.4454 123.254 53.4234 123.267 53.3991 123.276C53.3748 123.285 53.3488 123.29 53.3225 123.29Z" fill="#3F3D56"/>
<path d="M-1.97958 94.3082C-1.97958 76.278 13.2336 33.4932 32 33.4932C50.7664 33.4932 65.9796 76.278 65.9796 94.3082C65.9796 102.967 62.3996 111.27 56.0272 117.393C49.6548 123.515 41.012 126.955 32 126.955C22.9881 126.955 14.3452 123.515 7.97281 117.393C1.6004 111.27 -1.97958 102.967 -1.97958 94.3082Z" fill="#FF8550"/>
<path d="M32 174.602C31.7565 174.602 31.5229 174.573 31.3507 174.523C31.1784 174.472 31.0817 174.404 31.0817 174.332V61.2516C31.0817 61.18 31.1784 61.1114 31.3507 61.0609C31.5229 61.0103 31.7565 60.9819 32 60.9819C32.2436 60.9819 32.4772 61.0103 32.6494 61.0609C32.8217 61.1114 32.9184 61.18 32.9184 61.2516V174.332C32.9184 174.404 32.8217 174.472 32.6494 174.523C32.4772 174.573 32.2436 174.602 32 174.602Z" fill="#3F3D56"/>
<path d="M32.6253 82.9728C32.5868 82.9729 32.5486 82.9653 32.5131 82.9506C32.4775 82.9359 32.4452 82.9143 32.418 82.8871L18.3089 68.81C18.2546 68.755 18.2242 68.6808 18.2245 68.6036C18.2248 68.5264 18.2556 68.4524 18.3104 68.3978C18.3651 68.3432 18.4392 68.3125 18.5166 68.3122C18.594 68.3119 18.6684 68.3422 18.7235 68.3964L32.8325 82.4736C32.8735 82.5145 32.9014 82.5666 32.9127 82.6233C32.924 82.68 32.9182 82.7388 32.8961 82.7923C32.8739 82.8457 32.8363 82.8914 32.7881 82.9235C32.7399 82.9556 32.6832 82.9728 32.6253 82.9728Z" fill="#3F3D56"/>
<path d="M31.3484 106.796C31.2957 106.796 31.2441 106.779 31.2002 106.748C31.1564 106.716 31.1222 106.671 31.102 106.618C31.0818 106.566 31.0765 106.508 31.0868 106.452C31.0971 106.396 31.1225 106.344 31.1598 106.304L52.6658 83.0586C52.6905 83.0316 52.72 83.01 52.7524 82.9953C52.7848 82.9806 52.8196 82.973 52.8548 82.9728C52.89 82.9727 52.9248 82.9801 52.9574 82.9946C52.9899 83.0091 53.0194 83.0304 53.0443 83.0573C53.0692 83.0842 53.0889 83.1161 53.1023 83.1512C53.1157 83.1864 53.1226 83.2241 53.1225 83.2621C53.1224 83.3001 53.1153 83.3377 53.1017 83.3728C53.0881 83.4079 53.0682 83.4397 53.0432 83.4664L31.5371 106.712C31.5124 106.739 31.4829 106.76 31.4506 106.774C31.4182 106.789 31.3835 106.796 31.3484 106.796Z" fill="#3F3D56"/>
<path d="M218.126 175.712H-6.97249C-7.05284 175.712 -7.1299 175.68 -7.18672 175.623C-7.24353 175.566 -7.27545 175.489 -7.27545 175.408C-7.27545 175.328 -7.24353 175.251 -7.18672 175.194C-7.1299 175.137 -7.05284 175.105 -6.97249 175.105H218.126C218.206 175.105 218.283 175.137 218.34 175.194C218.397 175.251 218.429 175.328 218.429 175.408C218.429 175.489 218.397 175.566 218.34 175.623C218.283 175.68 218.206 175.712 218.126 175.712Z" fill="#3F3D56"/>
<path d="M88.4201 159.463C88.4769 159.077 88.4483 158.682 88.3364 158.308C88.2245 157.934 88.032 157.588 87.7724 157.296C87.5128 157.005 87.1925 156.773 86.834 156.619C86.4755 156.464 86.0876 156.391 85.6975 156.403L68.5997 139.092L65.222 143.82L83.0907 159.349C83.1542 160.004 83.4553 160.613 83.9371 161.06C84.4188 161.508 85.0478 161.763 85.7047 161.777C86.3616 161.791 87.0009 161.563 87.5014 161.137C88.0018 160.71 88.3287 160.115 88.4201 159.463Z" fill="#FFB8B8"/>
<path d="M79.0378 150.753L75.9569 153.833C75.7479 154.041 75.4657 154.158 75.1711 154.159C74.8765 154.16 74.5934 154.045 74.3827 153.839L62.4578 142.1C62.0455 141.694 61.7176 141.21 61.4932 140.676C61.2687 140.143 61.1522 139.57 61.1502 138.991C61.1483 138.412 61.261 137.838 61.4819 137.303C61.7027 136.768 62.0273 136.282 62.4369 135.873C62.8465 135.464 63.3329 135.141 63.8681 134.922C64.4033 134.703 64.9765 134.592 65.5548 134.596C66.133 134.6 66.7046 134.719 67.2367 134.945C67.7688 135.172 68.2508 135.502 68.6547 135.916L79.0477 149.178C79.2524 149.39 79.366 149.673 79.3642 149.967C79.3623 150.262 79.2451 150.544 79.0378 150.753Z" fill="#FF8550"/>
<path d="M65.0159 126.757C68.3867 126.757 71.1193 124.02 71.1193 120.645C71.1193 117.27 68.3867 114.533 65.0159 114.533C61.6451 114.533 58.9125 117.27 58.9125 120.645C58.9125 124.02 61.6451 126.757 65.0159 126.757Z" fill="#FFB8B8"/>
<path d="M44.3931 195.169L45.9386 197.798L56.8006 193.08L54.5199 189.2L44.3931 195.169Z" fill="#FFB8B8"/>
<path d="M44.856 193.993L47.8994 199.17C48.1541 199.604 48.3212 200.083 48.3909 200.581C48.4606 201.079 48.4317 201.586 48.3058 202.073C48.18 202.559 47.9596 203.016 47.6572 203.418C47.3549 203.819 46.9766 204.157 46.5439 204.412L46.4368 204.475L41.4538 195.998L44.856 193.993Z" fill="#2F2E41"/>
<path d="M62.2989 204.64H65.3456L66.7949 192.873L62.2986 192.873L62.2989 204.64Z" fill="#FFB8B8"/>
<path d="M61.522 203.644L67.5217 203.644C68.0239 203.644 68.5213 203.743 68.9852 203.935C69.4491 204.128 69.8706 204.41 70.2256 204.765C70.5807 205.121 70.8623 205.543 71.0545 206.007C71.2466 206.472 71.3455 206.97 71.3455 207.472V207.597L61.5222 207.597L61.522 203.644Z" fill="#2F2E41"/>
<path d="M50.0507 197.511C49.8753 197.511 49.7024 197.47 49.546 197.39C49.3895 197.311 49.2539 197.196 49.1501 197.055L46.2119 193.059C46.1223 192.937 46.0583 192.798 46.0237 192.651C45.9892 192.503 45.9848 192.35 46.011 192.201C46.0371 192.052 46.0931 191.91 46.1757 191.783C46.2583 191.656 46.3656 191.548 46.4914 191.464L59.5659 182.719L51.6769 161.948L68.5473 163.342L69.1155 181.192C69.1688 182.817 68.7797 184.427 67.9898 185.848C67.2 187.269 66.039 188.448 64.6313 189.26L50.6094 197.36C50.4396 197.459 50.2469 197.511 50.0507 197.511Z" fill="#2F2E41"/>
<path d="M62.391 202.251C62.1016 202.25 61.8238 202.138 61.6158 201.936C61.4078 201.735 61.2858 201.461 61.2755 201.171L60.6572 183.782L68.3131 183.378L67.7035 200.892C67.6945 201.17 67.5826 201.434 67.3897 201.633C67.1967 201.832 66.9365 201.953 66.6598 201.97L62.467 202.249C62.4416 202.25 62.4162 202.251 62.391 202.251Z" fill="#2F2E41"/>
<path d="M67.9337 166.795C65.9858 166.795 61.7486 164.601 59.3867 163.819C59.0334 164.102 57.0923 165.555 54.8265 165.29C53.4284 165.126 52.1976 164.333 51.1683 162.934C48.8953 159.845 53.4795 148.426 56.2349 137.857C57.3941 133.41 60.0412 128.862 64.5295 129.838C66.0896 130.183 67.5228 130.956 68.6679 132.072C69.8131 133.187 70.625 134.601 71.0123 136.153C71.531 138.267 71.0848 140.755 70.7589 142.571C70.6148 143.181 70.5367 143.805 70.5261 144.431C70.686 145.712 69.0082 165.804 68.437 166.662C68.3761 166.753 68.2002 166.795 67.9337 166.795Z" fill="#FF8550"/>
<path d="M63.3743 166.83C63.6874 166.597 63.9455 166.298 64.1306 165.954C64.3156 165.61 64.4231 165.229 64.4454 164.839C64.4677 164.449 64.4043 164.058 64.2597 163.695C64.1151 163.332 63.8927 163.006 63.6083 162.738L63.7289 138.391L58.0023 139.346L59.6845 162.978C59.2672 163.486 59.0505 164.13 59.0756 164.788C59.1007 165.445 59.3658 166.07 59.8206 166.545C60.2754 167.02 60.8884 167.311 61.5434 167.364C62.1984 167.417 62.8498 167.227 63.3743 166.83Z" fill="#FFB8B8"/>
<path d="M64.6987 154.027H58.5305C58.236 154.026 57.9536 153.909 57.7444 153.702C57.5351 153.494 57.4158 153.212 57.4123 152.917L57.2609 136.173C57.2556 135.594 57.3651 135.019 57.5829 134.483C57.8007 133.947 58.1225 133.459 58.5298 133.048C58.9371 132.637 59.4217 132.311 59.9556 132.088C60.4895 131.866 61.0621 131.752 61.6403 131.753C62.2186 131.753 62.7909 131.869 63.3243 132.092C63.8577 132.316 64.3415 132.643 64.7477 133.055C65.154 133.467 65.4746 133.956 65.6911 134.493C65.9076 135.03 66.0157 135.604 66.009 136.183L65.8169 152.92C65.8125 153.214 65.6929 153.495 65.4838 153.702C65.2747 153.909 64.9928 154.026 64.6987 154.027Z" fill="#FF8550"/>
<path d="M63.4619 126.731C62.0607 126.697 60.7126 126.187 59.6381 125.285C58.5637 124.384 57.8265 123.144 57.547 121.769C57.3736 120.686 57.4518 119.578 57.7754 118.53C58.1268 117.338 58.7294 116.235 59.5426 115.295C60.3558 114.356 61.3608 113.602 62.4896 113.084C63.6185 112.566 64.8451 112.297 66.0867 112.294C67.3283 112.291 68.5561 112.555 69.6873 113.068C70.4348 113.406 71.1712 113.893 71.5135 114.64C71.8558 115.386 71.6415 116.43 70.8927 116.766C70.4034 116.986 69.7893 116.878 69.3552 117.193C68.7317 117.646 68.8922 118.609 69.1706 119.328C69.4491 120.047 69.764 120.918 69.2972 121.531C68.8623 122.103 67.9929 122.085 67.3081 121.87C66.6234 121.655 65.9475 121.294 65.2335 121.368C64.1922 121.475 63.4439 122.512 63.3054 123.551C63.1669 124.59 63.4929 125.628 63.8149 126.626L63.4619 126.731Z" fill="#2F2E41"/>
<path d="M86.4226 159.322C90.3874 158.424 94.8791 161.53 95.0183 165.699C95.0575 166.872 94.7143 168.103 93.8132 168.901C93.4403 169.243 92.986 169.485 92.4937 169.602C92.0014 169.719 91.4874 169.708 91.0005 169.57C89.1498 168.95 89.051 166.368 90.0438 164.989C91.388 163.121 94.051 162.802 96.1641 163.024C98.7534 163.354 101.206 164.376 103.263 165.985C107.388 169.097 110.015 173.868 112.14 178.476C114.317 183.204 115.899 188.184 116.852 193.302C116.972 193.945 117.081 194.589 117.181 195.236C117.209 195.33 117.274 195.41 117.36 195.457C117.447 195.505 117.548 195.517 117.643 195.49C117.737 195.46 117.815 195.395 117.863 195.309C117.91 195.223 117.922 195.122 117.897 195.027C117.027 189.442 115.42 183.998 113.117 178.837C110.891 173.842 108.085 168.661 103.621 165.328C101.407 163.62 98.765 162.56 95.9865 162.263C93.6452 162.055 90.8728 162.551 89.4168 164.59C88.2682 166.198 88.3849 168.872 90.1621 169.992C90.6531 170.272 91.2059 170.424 91.7705 170.435C92.3351 170.447 92.8936 170.317 93.3954 170.057C93.9337 169.791 94.4079 169.411 94.7849 168.943C95.1619 168.475 95.4327 167.93 95.5787 167.347C96.2097 165.031 95.2515 162.527 93.6085 160.872C92.0666 159.314 89.9711 158.432 87.7808 158.418C87.2534 158.424 86.7282 158.486 86.2142 158.605C85.7461 158.711 85.9553 159.428 86.4226 159.322Z" fill="#CCCCCC"/>
<path d="M105.543 205.173L103.079 200.961L106.117 199.179L108.581 203.391C108.817 203.794 108.883 204.275 108.765 204.728C108.647 205.18 108.355 205.567 107.952 205.803C107.549 206.039 107.069 206.106 106.617 205.988C106.165 205.869 105.779 205.576 105.543 205.173Z" fill="#FF8550"/>
<path d="M97.3966 196.417C98.5932 196.417 99.5632 195.446 99.5632 194.248C99.5632 193.05 98.5932 192.078 97.3966 192.078C96.2 192.078 95.2299 193.05 95.2299 194.248C95.2299 195.446 96.2 196.417 97.3966 196.417Z" fill="#FF8550"/>
<path d="M115.076 205.173L112.612 200.961L115.65 199.179L118.114 203.391C118.35 203.794 118.416 204.275 118.298 204.728C118.18 205.18 117.887 205.567 117.485 205.803C117.082 206.039 116.602 206.106 116.15 205.988C115.698 205.869 115.312 205.576 115.076 205.173Z" fill="#FF8550"/>
<path d="M97.8083 198.619C97.8097 197.396 98.2952 196.225 99.1584 195.36C100.022 194.496 101.192 194.01 102.412 194.008H116.987C117.503 194.009 117.998 194.214 118.363 194.58C118.727 194.945 118.933 195.44 118.933 195.957V197.618C118.932 199.105 118.341 200.532 117.29 201.584C116.24 202.636 114.815 203.227 113.329 203.229H102.412C101.192 203.228 100.022 202.742 99.1584 201.877C98.2952 201.013 97.8097 199.841 97.8083 198.619Z" fill="#3F3D56"/>
<path d="M101.169 205.716V200.835H104.69V205.716C104.69 206.184 104.505 206.632 104.174 206.963C103.844 207.293 103.397 207.479 102.93 207.479C102.463 207.479 102.015 207.293 101.685 206.963C101.355 206.632 101.169 206.184 101.169 205.716Z" fill="#3F3D56"/>
<path d="M111.386 205.716V200.835H114.906V205.716C114.906 206.184 114.721 206.632 114.391 206.963C114.061 207.293 113.613 207.479 113.146 207.479C112.679 207.479 112.231 207.293 111.901 206.963C111.571 206.632 111.386 206.184 111.386 205.716Z" fill="#3F3D56"/>
<path d="M125.71 186.403C126.071 185.955 126.593 185.668 127.164 185.606C127.735 185.544 128.307 185.712 128.755 186.072C129.203 186.432 129.489 186.955 129.552 187.526C129.615 188.098 129.448 188.671 129.089 189.12L125.528 193.56L122.149 190.843L125.71 186.403Z" fill="#FF8550"/>
<path d="M117.131 195.15L119.985 191.592C120.678 190.73 121.686 190.177 122.785 190.057C123.885 189.937 124.988 190.258 125.851 190.951L126.743 191.668C127.77 192.496 128.428 193.699 128.571 195.012C128.714 196.325 128.331 197.641 127.506 198.672L125.156 201.603C124.896 201.926 124.519 202.133 124.107 202.178C123.695 202.223 123.282 202.102 122.959 201.843L117.371 197.349C117.049 197.089 116.842 196.711 116.797 196.299C116.752 195.887 116.872 195.473 117.131 195.15Z" fill="#3F3D56"/>
<path d="M126.134 185.874C126.382 185.565 126.741 185.368 127.134 185.325C127.527 185.282 127.921 185.397 128.229 185.645C128.537 185.893 128.734 186.253 128.777 186.646C128.819 187.039 128.705 187.433 128.457 187.742L124.472 192.711L122.149 190.843L126.134 185.874Z" fill="#3F3D56"/>
<path d="M120.425 194.18L126.549 199.105C126.77 199.283 126.955 199.503 127.092 199.753C127.229 200.003 127.315 200.278 127.346 200.561C127.377 200.844 127.351 201.131 127.272 201.404C127.192 201.678 127.059 201.933 126.881 202.155C126.703 202.377 126.483 202.562 126.233 202.699C125.984 202.836 125.71 202.922 125.427 202.953C125.144 202.984 124.858 202.959 124.585 202.879C124.312 202.799 124.057 202.666 123.835 202.488L117.711 197.563L120.425 194.18Z" fill="#3F3D56"/>
<path d="M127.143 202.315C127.46 201.921 127.539 201.459 127.32 201.283C127.101 201.108 126.668 201.285 126.352 201.679C126.035 202.073 125.956 202.535 126.175 202.711C126.394 202.887 126.827 202.71 127.143 202.315Z" fill="#FF8550"/>
<path d="M65.6977 130.951H62.1692C61.8289 130.951 61.5025 130.815 61.2619 130.574C61.0213 130.333 60.8861 130.007 60.8861 129.666C60.8861 129.325 61.0213 128.998 61.2619 128.757C61.5025 128.516 61.8289 128.381 62.1692 128.381H65.6977C66.038 128.381 66.3644 128.516 66.605 128.757C66.8456 128.998 66.9808 129.325 66.9808 129.666C66.9808 130.007 66.8456 130.333 66.605 130.574C66.3644 130.815 66.038 130.951 65.6977 130.951Z" fill="#FF8550"/>
</g>
</g>
</g>
<defs>
<filter id="filter0_d_174_3388" x="-86" y="0" width="353.429" height="216" filterUnits="userSpaceOnUse" color-interpolation-filters="sRGB">
<feFlood flood-opacity="0" result="BackgroundImageFix"/>
<feColorMatrix in="SourceAlpha" type="matrix" values="0 0 0 0 0 0 0 0 0 0 0 0 0 0 0 0 0 0 127 0" result="hardAlpha"/>
<feOffset dy="4"/>
<feGaussianBlur stdDeviation="2"/>
<feComposite in2="hardAlpha" operator="out"/>
<feColorMatrix type="matrix" values="0 0 0 0 0 0 0 0 0 0 0 0 0 0 0 0 0 0 0.25 0"/>
<feBlend mode="normal" in2="BackgroundImageFix" result="effect1_dropShadow_174_3388"/>
<feBlend mode="normal" in="SourceGraphic" in2="effect1_dropShadow_174_3388" result="shape"/>
</filter>
<linearGradient id="paint0_linear_174_3388" x1="90.7143" y1="0" x2="90.7143" y2="208" gradientUnits="userSpaceOnUse">
<stop offset="0.0001" stop-color="#FFA985"/>
<stop offset="1" stop-color="#FFDBC7"/>
</linearGradient>
<clipPath id="clip0_174_3388">
<rect width="231.429" height="190.588" fill="white" transform="translate(-13 17)"/>
</clipPath>
</defs>
</svg>
