<svg width="200" height="120" viewBox="0 0 200 120" fill="none" xmlns="http://www.w3.org/2000/svg">
<rect width="200" height="120" fill="url(#paint0_linear_192_4533)"/>
<g clip-path="url(#clip0_192_4533)">
<path d="M80.5714 69.8323C80.5714 63.1543 85.7491 47.3077 92.136 47.3077C98.523 47.3077 103.701 63.1543 103.701 69.8323C103.698 73.0398 102.479 76.1151 100.31 78.3823C98.1418 80.6495 95.2017 81.9231 92.136 81.9231C89.0704 81.9231 86.1302 80.6495 83.9617 78.3823C81.7931 76.1151 80.5737 73.0398 80.5714 69.8323Z" fill="#E3DED4"/>
<path d="M91.2475 99.2308C91.2123 99.2308 91.1775 99.2282 91.145 99.2233C91.1125 99.2183 91.083 99.2111 91.0581 99.2019C91.0332 99.1928 91.0135 99.1819 91.0001 99.1699C90.9866 99.158 90.9796 99.1451 90.9796 99.1322V57.7906C90.9799 57.7645 91.0083 57.7395 91.0585 57.7211C91.1087 57.7027 91.1766 57.6923 91.2475 57.6923C91.3183 57.6923 91.3863 57.7027 91.4365 57.7211C91.4867 57.7395 91.515 57.7645 91.5153 57.7906V99.1322C91.5153 99.1451 91.5084 99.158 91.4949 99.1699C91.4815 99.1819 91.4617 99.1928 91.4368 99.2019C91.412 99.2111 91.3824 99.2183 91.35 99.2233C91.3175 99.2282 91.2826 99.2308 91.2475 99.2308Z" fill="#3F3D56"/>
<path d="M90.8874 66.9231C90.8752 66.9231 90.8632 66.9202 90.852 66.9144C90.8408 66.9086 90.8307 66.9001 90.8221 66.8894L86.3806 61.3502C86.3634 61.3286 86.3537 61.2993 86.3538 61.2688C86.3538 61.2383 86.3635 61.2091 86.3808 61.1876C86.3981 61.166 86.4215 61.1539 86.446 61.1539C86.4704 61.1539 86.4938 61.1659 86.5111 61.1875L90.9526 66.7267C90.9655 66.7428 90.9743 66.7633 90.9778 66.7856C90.9814 66.8079 90.9796 66.8311 90.9726 66.8521C90.9656 66.8731 90.9538 66.8911 90.9386 66.9037C90.9234 66.9164 90.9056 66.9231 90.8874 66.9231Z" fill="#3F3D56"/>
<path d="M91.0776 75C91.0582 75 91.0393 74.9943 91.0232 74.9836C91.0071 74.9728 90.9945 74.9576 90.9871 74.9397C90.9797 74.9218 90.9777 74.9022 90.9815 74.8832C90.9853 74.8642 90.9946 74.8468 91.0083 74.8331L98.9077 66.9517C98.9261 66.9334 98.951 66.9231 98.9769 66.9231C99.0029 66.9231 99.0278 66.9334 99.0461 66.9517C99.0645 66.97 99.0748 66.9949 99.0749 67.0208C99.0749 67.0467 99.0646 67.0715 99.0463 67.0899L91.1469 74.9714C91.1378 74.9805 91.127 74.9877 91.1151 74.9926C91.1032 74.9975 91.0905 75 91.0776 75Z" fill="#3F3D56"/>
<path d="M59.7551 63.1466C59.7551 54.6878 66.2272 34.6154 74.2109 34.6154C82.1946 34.6154 88.6667 54.6878 88.6667 63.1466C88.6638 67.2095 87.1395 71.1048 84.4288 73.9766C81.7182 76.8483 78.0429 78.4615 74.2109 78.4615C70.3789 78.4615 66.7037 76.8483 63.993 73.9766C61.2823 71.1048 59.758 67.2095 59.7551 63.1466Z" fill="white"/>
<path d="M73.9005 99.2308C73.8654 99.2308 73.8306 99.2276 73.7981 99.2214C73.7656 99.2152 73.736 99.2061 73.7112 99.1947C73.6863 99.1832 73.6666 99.1696 73.6531 99.1547C73.6396 99.1397 73.6327 99.1237 73.6327 99.1075V47.4306C73.633 47.3979 73.6613 47.3667 73.7115 47.3436C73.7617 47.3206 73.8297 47.3077 73.9005 47.3077C73.9714 47.3077 74.0394 47.3206 74.0896 47.3436C74.1398 47.3667 74.1681 47.3979 74.1684 47.4306V99.1075C74.1684 99.1237 74.1615 99.1397 74.148 99.1547C74.1345 99.1696 74.1148 99.1832 74.0899 99.1947C74.065 99.2061 74.0355 99.2152 74.003 99.2214C73.9705 99.2276 73.9357 99.2308 73.9005 99.2308Z" fill="#3F3D56"/>
<path d="M73.5173 57.6923C73.5022 57.6923 73.4872 57.6894 73.4732 57.6836C73.4592 57.6778 73.4465 57.6693 73.4358 57.6586L67.8841 52.1196C67.8734 52.1089 67.8649 52.0962 67.8591 52.0822C67.8533 52.0682 67.8503 52.0533 67.8503 52.0382C67.8504 52.0076 67.8625 51.9784 67.8841 51.9568C67.9058 51.9352 67.9351 51.9231 67.9657 51.9231C67.9963 51.9231 68.0256 51.9352 68.0472 51.9568L73.5989 57.4959C73.615 57.512 73.626 57.5325 73.6304 57.5548C73.6349 57.5772 73.6326 57.6003 73.6239 57.6213C73.6151 57.6423 73.6004 57.6603 73.5814 57.673C73.5624 57.6856 73.5401 57.6923 73.5173 57.6923Z" fill="#3F3D56"/>
<path d="M73.7587 66.9231C73.7337 66.9231 73.7094 66.9166 73.6887 66.9043C73.668 66.892 73.6518 66.8746 73.6423 66.8541C73.6327 66.8337 73.6303 66.8113 73.6351 66.7896C73.64 66.7679 73.6519 66.748 73.6696 66.7324L83.8258 57.7251C83.8494 57.7041 83.8814 57.6923 83.9149 57.6923C83.9483 57.6923 83.9803 57.7041 84.0039 57.725C84.0276 57.746 84.0408 57.7744 84.0409 57.804C84.0409 57.8337 84.0276 57.8621 84.004 57.8831L73.8477 66.8904C73.8361 66.9008 73.8222 66.909 73.8069 66.9146C73.7916 66.9202 73.7752 66.9231 73.7587 66.9231Z" fill="#3F3D56"/>
<path d="M38.9387 48.6755C38.9387 37.3232 48.5174 10.3846 60.3333 10.3846C72.1492 10.3846 81.7278 37.3232 81.7278 48.6755C81.7278 54.1271 79.4738 59.3554 75.4615 63.2103C71.4493 67.0652 66.0075 69.2308 60.3333 69.2308C54.6591 69.2308 49.2173 67.0652 45.205 63.2103C41.1928 59.3554 38.9387 54.1271 38.9387 48.6755Z" fill="#FF8550"/>
<path d="M60.3334 99.2308C60.18 99.2308 60.0329 99.2129 59.9245 99.181C59.8161 99.1492 59.7551 99.106 59.7551 99.061V27.8621C59.7551 27.8171 59.8161 27.7739 59.9245 27.7421C60.0329 27.7102 60.18 27.6923 60.3334 27.6923C60.4867 27.6923 60.6338 27.7102 60.7422 27.7421C60.8507 27.7739 60.9116 27.8171 60.9116 27.8621V99.061C60.9116 99.106 60.8507 99.1492 60.7422 99.181C60.6338 99.2129 60.4867 99.2308 60.3334 99.2308Z" fill="#3F3D56"/>
<path d="M60.7271 41.5384C60.7028 41.5385 60.6788 41.5337 60.6564 41.5245C60.634 41.5152 60.6137 41.5016 60.5966 41.4845L51.7131 32.6211C51.6789 32.5865 51.6597 32.5398 51.6599 32.4912C51.6601 32.4425 51.6795 32.396 51.714 32.3616C51.7484 32.3272 51.7951 32.3078 51.8438 32.3077C51.8926 32.3075 51.9394 32.3266 51.9741 32.3607L60.8576 41.2241C60.8834 41.2499 60.901 41.2827 60.9081 41.3184C60.9152 41.3541 60.9115 41.3911 60.8976 41.4248C60.8836 41.4584 60.8599 41.4872 60.8296 41.5074C60.7992 41.5276 60.7636 41.5384 60.7271 41.5384Z" fill="#3F3D56"/>
<path d="M59.9231 56.5385C59.8899 56.5384 59.8574 56.5278 59.8298 56.5078C59.8022 56.4879 59.7806 56.4595 59.7679 56.4264C59.7552 56.3932 59.7519 56.3567 59.7584 56.3215C59.7648 56.2863 59.7808 56.2539 59.8043 56.2285L73.3452 41.5925C73.3607 41.5754 73.3792 41.5619 73.3997 41.5526C73.4201 41.5433 73.442 41.5385 73.4641 41.5385C73.4863 41.5384 73.5082 41.543 73.5287 41.5522C73.5492 41.5613 73.5678 41.5747 73.5835 41.5916C73.5991 41.6085 73.6115 41.6287 73.62 41.6508C73.6284 41.6729 73.6327 41.6966 73.6327 41.7206C73.6326 41.7445 73.6282 41.7682 73.6196 41.7903C73.611 41.8124 73.5985 41.8324 73.5827 41.8492L60.0419 56.4853C60.0263 56.5022 60.0078 56.5155 59.9874 56.5247C59.967 56.5338 59.9452 56.5385 59.9231 56.5385Z" fill="#3F3D56"/>
<path d="M177.524 99.9296H35.7951C35.7445 99.9296 35.696 99.9095 35.6602 99.8737C35.6245 99.8379 35.6044 99.7893 35.6044 99.7386C35.6044 99.688 35.6245 99.6394 35.6602 99.6035C35.696 99.5677 35.7445 99.5476 35.7951 99.5476H177.524C177.574 99.5476 177.623 99.5677 177.658 99.6035C177.694 99.6394 177.714 99.688 177.714 99.7386C177.714 99.7893 177.694 99.8379 177.658 99.8737C177.623 99.9095 177.574 99.9296 177.524 99.9296Z" fill="#3F3D56"/>
<path d="M172.571 84.8078C172.636 84.8078 172.701 84.7949 172.762 84.7698C172.822 84.7447 172.877 84.7079 172.924 84.6614C172.97 84.615 173.007 84.5599 173.032 84.4993C173.057 84.4387 173.07 84.3737 173.07 84.308C173.07 84.2424 173.057 84.1774 173.032 84.1168C173.007 84.0561 172.97 84.001 172.924 83.9546C172.877 83.9082 172.822 83.8714 172.762 83.8463C172.701 83.8212 172.636 83.8082 172.571 83.8082H167.829V81.809H172.571C172.703 81.809 172.83 81.7564 172.924 81.6627C173.017 81.5689 173.07 81.4418 173.07 81.3093C173.07 81.1767 173.017 81.0496 172.924 80.9558C172.83 80.8621 172.703 80.8094 172.571 80.8094H132.142C132.01 80.8094 131.883 80.8621 131.789 80.9558C131.695 81.0496 131.643 81.1767 131.643 81.3093C131.643 81.4418 131.695 81.5689 131.789 81.6627C131.883 81.7564 132.01 81.809 132.142 81.809H136.884V83.8082H132.142C132.01 83.8082 131.883 83.8609 131.789 83.9546C131.695 84.0484 131.643 84.1755 131.643 84.308C131.643 84.4406 131.695 84.5677 131.789 84.6614C131.883 84.7552 132.01 84.8078 132.142 84.8078H136.884V86.807H132.142C132.01 86.807 131.883 86.8597 131.789 86.9534C131.695 87.0471 131.643 87.1743 131.643 87.3068C131.643 87.4394 131.695 87.5665 131.789 87.6602C131.883 87.754 132.01 87.8066 132.142 87.8066H136.884V89.8058H132.641C132.377 89.8062 132.123 89.9117 131.936 90.0991C131.749 90.2865 131.644 90.5405 131.644 90.8054C131.644 91.0703 131.749 91.3243 131.936 91.5117C132.123 91.6992 132.377 91.8046 132.641 91.805H136.68C136.65 91.8851 136.635 91.9696 136.634 92.0549V99.0521C136.634 99.2509 136.713 99.4416 136.853 99.5822C136.994 99.7228 137.184 99.8018 137.383 99.8018C137.581 99.8018 137.772 99.7228 137.912 99.5822C138.052 99.4416 138.131 99.2509 138.131 99.0521V92.0549C138.131 91.9696 138.115 91.8851 138.086 91.805H166.627C166.598 91.8851 166.582 91.9696 166.581 92.0549V99.0521C166.581 99.2509 166.66 99.4416 166.8 99.5822C166.941 99.7228 167.131 99.8018 167.33 99.8018C167.528 99.8018 167.719 99.7228 167.859 99.5822C168 99.4416 168.079 99.2509 168.079 99.0521V92.0549C168.078 91.9696 168.062 91.8851 168.033 91.805H172.071C172.203 91.8052 172.333 91.7795 172.454 91.7293C172.575 91.6792 172.685 91.6056 172.778 91.5127C172.871 91.4199 172.945 91.3096 172.995 91.1883C173.045 91.0669 173.071 90.9368 173.071 90.8054C173.071 90.674 173.045 90.5439 172.995 90.4226C172.945 90.3012 172.871 90.1909 172.778 90.0981C172.685 90.0053 172.575 89.9317 172.454 89.8815C172.333 89.8313 172.203 89.8056 172.071 89.8058H167.829V87.8066H172.571C172.636 87.8067 172.701 87.7939 172.762 87.7688C172.823 87.7438 172.878 87.707 172.924 87.6606C172.971 87.6141 173.007 87.559 173.033 87.4983C173.058 87.4376 173.071 87.3725 173.071 87.3068C173.071 87.2411 173.058 87.176 173.033 87.1153C173.007 87.0546 172.971 86.9995 172.924 86.9531C172.878 86.9066 172.823 86.8698 172.762 86.8448C172.701 86.8197 172.636 86.8069 172.571 86.807H167.829V84.8078H172.571ZM137.882 81.809H166.831V83.8082H137.882V81.809ZM166.831 89.8058H137.882V87.8066H166.831V89.8058ZM166.831 86.807H137.882V84.8078H166.831V86.807Z" fill="#3F3D56"/>
<path d="M154.393 78.2752C155.892 78.2752 157.107 77.0588 157.107 75.5583C157.107 74.0577 155.892 72.8413 154.393 72.8413C152.895 72.8413 151.68 74.0577 151.68 75.5583C151.68 77.0588 152.895 78.2752 154.393 78.2752Z" fill="#2F2E41"/>
<path d="M147.641 98.8046L146.453 98.8044L145.888 94.2159H147.641L147.641 98.8046Z" fill="#A0616A"/>
<path d="M145.604 98.4645H147.896V99.9091H144.162C144.162 99.7194 144.199 99.5315 144.272 99.3563C144.344 99.181 144.45 99.0218 144.584 98.8876C144.718 98.7535 144.877 98.6471 145.052 98.5745C145.227 98.5019 145.415 98.4645 145.604 98.4645Z" fill="#2F2E41"/>
<path d="M145.787 98.1406L144.653 97.7844L145.486 93.2368L147.159 93.7625L145.787 98.1406Z" fill="#A0616A"/>
<path d="M143.945 97.2056L146.131 97.8925L145.699 99.2708L142.137 98.1513C142.251 97.7858 142.506 97.4808 142.845 97.3034C143.184 97.1261 143.58 97.0909 143.945 97.2056Z" fill="#2F2E41"/>
<path d="M146.173 96.3098C146.121 96.3098 146.07 96.3004 146.021 96.282L145.147 95.9539C145.049 95.9167 144.967 95.8454 144.917 95.7531C144.867 95.6608 144.852 95.5535 144.874 95.4509C145.094 94.4602 145.844 91.0872 146.255 89.278C146.742 87.1321 153.846 86.7333 154.149 86.7174L154.173 86.7161L154.973 87.7218C155.261 88.6513 155.17 89.3763 154.701 89.8767C153.331 91.3368 149.242 90.4308 148.755 90.3161L146.581 96.0286C146.55 96.1114 146.494 96.1825 146.421 96.2327C146.348 96.2829 146.262 96.3098 146.173 96.3098Z" fill="#2F2E41"/>
<path d="M147.433 96.989C147.381 96.989 147.329 96.9796 147.28 96.9612L146.406 96.6331C146.308 96.5959 146.227 96.5246 146.177 96.4323C146.127 96.34 146.111 96.2327 146.134 96.1301C146.354 95.1394 147.104 91.7664 147.514 89.9572C148.001 87.8113 155.106 87.4125 155.408 87.3966L155.433 87.3953L156.232 88.401C156.521 89.3305 156.43 90.0555 155.96 90.5559C154.591 92.0159 150.502 91.11 150.014 90.9953L147.841 96.7078C147.809 96.7906 147.753 96.8617 147.681 96.9119C147.608 96.9621 147.521 96.989 147.433 96.989Z" fill="#2F2E41"/>
<path d="M144.904 83.014C144.936 83.0571 144.965 83.1025 144.99 83.1501L149.769 83.6543L150.457 82.7097L152.016 83.5631L150.665 85.8552L144.804 84.3587C144.656 84.503 144.468 84.5989 144.264 84.6335C144.06 84.6681 143.851 84.6398 143.664 84.5524C143.477 84.465 143.321 84.3226 143.216 84.1442C143.112 83.9657 143.064 83.7597 143.079 83.5535C143.095 83.3472 143.173 83.1506 143.302 82.9897C143.432 82.8287 143.608 82.7112 143.806 82.6526C144.004 82.5941 144.215 82.5973 144.411 82.6619C144.607 82.7264 144.779 82.8493 144.904 83.014Z" fill="#A0616A"/>
<path d="M156.01 88.7859C155.941 88.7857 155.873 88.769 155.812 88.7373C154.856 88.2507 152.995 87.408 151.27 87.2317C151.211 87.2259 151.153 87.2078 151.102 87.1785C151.05 87.1493 151.005 87.1095 150.97 87.0619C150.934 87.0137 150.908 86.9586 150.894 86.8999C150.88 86.8413 150.878 86.7805 150.889 86.7212C151.045 85.858 151.402 83.66 151.356 81.8985C151.342 81.3568 151.513 80.8267 151.84 80.3952C152.168 79.9637 152.632 79.6565 153.156 79.5242C153.472 79.4408 153.793 79.3775 154.117 79.3346C154.489 79.2874 154.867 79.3282 155.221 79.4536C155.575 79.579 155.894 79.7857 156.154 80.057C156.413 80.3282 156.606 80.6567 156.716 81.0159C156.826 81.3751 156.851 81.7551 156.788 82.1255C156.48 83.9511 156.17 86.5008 156.439 88.2807C156.452 88.3604 156.442 88.4421 156.411 88.5166C156.379 88.591 156.328 88.6554 156.263 88.7026C156.19 88.7565 156.101 88.7856 156.01 88.7859Z" fill="#CCCCCC"/>
<path d="M151.444 84.1426C151.385 84.1426 151.326 84.1302 151.271 84.1064L150.026 83.5668C149.92 83.5207 149.837 83.4343 149.794 83.3267C149.752 83.2191 149.753 83.0989 149.799 82.9926L150.762 80.7664C150.82 80.632 150.904 80.5103 151.009 80.4083C151.114 80.3063 151.238 80.2261 151.374 80.1721C151.51 80.1182 151.655 80.0916 151.802 80.0939C151.948 80.0963 152.093 80.1274 152.227 80.1856C152.361 80.2438 152.483 80.3279 152.585 80.4332C152.686 80.5384 152.766 80.6627 152.82 80.799C152.874 80.9352 152.901 81.0808 152.898 81.2273C152.896 81.3738 152.865 81.5184 152.807 81.6529L151.844 83.8791C151.811 83.9573 151.755 84.0239 151.684 84.0707C151.613 84.1175 151.529 84.1425 151.444 84.1426Z" fill="#CCCCCC"/>
<path d="M154.294 78.5773C155.609 78.5773 156.674 77.5102 156.674 76.194C156.674 74.8778 155.609 73.8107 154.294 73.8107C152.98 73.8107 151.914 74.8778 151.914 76.194C151.914 77.5102 152.98 78.5773 154.294 78.5773Z" fill="#A0616A"/>
<path d="M151.871 75.0231C152.999 75.7122 154.27 76.1315 155.585 76.2484L155.194 75.7787C155.479 75.8843 155.779 75.9439 156.082 75.9554C156.234 75.9599 156.385 75.9285 156.523 75.864C156.661 75.7994 156.782 75.7034 156.876 75.5836C156.953 75.4593 156.998 75.3182 157.009 75.1724C157.019 75.0266 156.994 74.8804 156.936 74.7462C156.817 74.4787 156.631 74.2462 156.397 74.0709C155.981 73.7418 155.491 73.5207 154.97 73.4274C154.448 73.334 153.912 73.3713 153.408 73.536C153.063 73.6394 152.753 73.8381 152.515 74.1094C152.29 74.3881 151.855 74.6364 151.971 74.9761L151.871 75.0231Z" fill="#2F2E41"/>
<path d="M154.694 73.0998C153.944 72.3375 153.035 71.7493 152.033 71.3765C151.397 71.1085 150.699 71.0218 150.017 71.1259C149.344 71.2615 148.708 71.7274 148.521 72.3881C148.367 72.9285 148.526 73.5102 148.764 74.0189C149.002 74.5275 149.32 74.9991 149.512 75.5268C149.709 76.0651 149.768 76.6441 149.684 77.2111C149.601 77.7781 149.377 78.3152 149.033 78.7737C148.69 79.2321 148.237 79.5974 147.717 79.8364C147.197 80.0753 146.625 80.1803 146.054 80.1419C146.715 80.2307 147.324 80.5416 147.97 80.7071C148.616 80.8727 149.378 80.8614 149.858 80.3981C150.366 79.9078 150.376 79.1107 150.352 78.4047L150.242 75.2565C150.224 74.7213 150.208 74.1689 150.4 73.6694C150.593 73.1699 151.051 72.7325 151.586 72.737C151.991 72.7405 152.35 72.9863 152.675 73.2288C153 73.4713 153.344 73.7299 153.748 73.766C154.152 73.8021 154.612 73.5029 154.582 73.0982" fill="#2F2E41"/>
<path d="M150.293 88.1737C150.135 88.1735 149.979 88.1383 149.837 88.0706C149.694 88.0029 149.569 87.9044 149.469 87.7822C149.369 87.66 149.297 87.5172 149.259 87.3639C149.221 87.2107 149.217 87.0509 149.248 86.896C149.279 86.7412 149.344 86.5952 149.438 86.4685C149.533 86.3418 149.654 86.2376 149.793 86.1634C149.932 86.0891 150.086 86.0468 150.243 86.0393C150.401 86.0318 150.558 86.0594 150.704 86.1201C150.748 86.1386 150.79 86.1602 150.831 86.1846L155.166 84.2355L155.288 83.058L157.157 83.0079L157.145 84.9682C157.142 85.1953 157.067 85.4156 156.93 85.5964C156.793 85.7771 156.601 85.9088 156.383 85.9718L151.313 87.417C151.303 87.4505 151.291 87.4835 151.278 87.5158C151.197 87.7104 151.06 87.8766 150.884 87.9937C150.709 88.1107 150.503 88.1733 150.293 88.1737Z" fill="#A0616A"/>
<path d="M156.999 83.9688C156.946 83.9957 156.888 84.0115 156.828 84.015L155.474 84.0984C155.359 84.1054 155.245 84.0662 155.159 83.9895C155.072 83.9129 155.019 83.8049 155.012 83.6894L154.863 81.2681C154.854 81.1218 154.874 80.975 154.921 80.8363C154.969 80.6976 155.043 80.5696 155.14 80.4596C155.237 80.3497 155.355 80.26 155.486 80.1956C155.618 80.1312 155.761 80.0934 155.907 80.0844C156.053 80.0754 156.2 80.0954 156.338 80.1431C156.477 80.1909 156.605 80.2655 156.714 80.3627C156.824 80.4599 156.913 80.5778 156.977 80.7096C157.042 80.8415 157.079 80.9847 157.088 81.1311L157.237 83.5523C157.242 83.6374 157.222 83.7221 157.18 83.7961C157.138 83.8701 157.075 83.9301 156.999 83.9688Z" fill="#CCCCCC"/>
<path d="M146.401 88.4185H154.056C154.243 88.4185 154.395 88.2665 154.395 88.0789C154.395 87.8913 154.243 87.7393 154.056 87.7393H146.401C146.213 87.7393 146.061 87.8913 146.061 88.0789C146.061 88.2665 146.213 88.4185 146.401 88.4185Z" fill="#3F3D56"/>
<path d="M143.057 87.7878V83.0331C143.058 82.8658 143.124 82.7055 143.242 82.5873C143.36 82.4691 143.52 82.4025 143.687 82.4023H152.312C152.479 82.4025 152.639 82.4691 152.757 82.5873C152.875 82.7055 152.941 82.8658 152.941 83.0331V87.7878C152.941 87.955 152.875 88.1153 152.757 88.2335C152.639 88.3518 152.479 88.4183 152.312 88.4185H143.687C143.52 88.4183 143.36 88.3518 143.242 88.2335C143.124 88.1153 143.058 87.955 143.057 87.7878Z" fill="#3F3D56"/>
<path d="M147.999 85.9927C148.32 85.9927 148.581 85.732 148.581 85.4105C148.581 85.0889 148.32 84.8282 147.999 84.8282C147.678 84.8282 147.418 85.0889 147.418 85.4105C147.418 85.732 147.678 85.9927 147.999 85.9927Z" fill="white"/>
<path d="M95.8572 89.6992C95.8929 89.4557 95.8749 89.2074 95.8045 88.9717C95.734 88.7359 95.6128 88.5185 95.4493 88.3348C95.2859 88.1511 95.0842 88.0054 94.8585 87.9082C94.6328 87.8109 94.3885 87.7644 94.1429 87.772L83.3776 76.8726L81.251 79.8496L92.5016 89.6272C92.5416 90.0395 92.7312 90.4229 93.0345 90.7046C93.3379 90.9863 93.7338 91.1468 94.1475 91.1557C94.5611 91.1645 94.9636 91.0212 95.2787 90.7527C95.5938 90.4843 95.7996 90.1094 95.8572 89.6992Z" fill="#FFB8B8"/>
<path d="M89.9498 84.2145L88.01 86.1539C87.8784 86.2848 87.7007 86.3586 87.5152 86.3593C87.3298 86.3601 87.1515 86.2877 87.0188 86.1579L79.5106 78.7663C79.251 78.5107 79.0445 78.2061 78.9032 77.8702C78.7619 77.5342 78.6885 77.1735 78.6873 76.8089C78.686 76.4444 78.757 76.0832 78.8961 75.7462C79.0351 75.4093 79.2395 75.1033 79.4974 74.846C79.7553 74.5887 80.0616 74.3851 80.3985 74.2471C80.7355 74.109 81.0964 74.0392 81.4605 74.0418C81.8245 74.0443 82.1845 74.119 82.5195 74.2617C82.8545 74.4044 83.158 74.6122 83.4123 74.8731L89.9561 83.2232C90.0849 83.3563 90.1565 83.5348 90.1553 83.7201C90.1541 83.9055 90.0804 84.0831 89.9498 84.2145Z" fill="#FF8550"/>
<path d="M81.1212 69.106C83.2436 69.106 84.9641 67.3832 84.9641 65.258C84.9641 63.1327 83.2436 61.4099 81.1212 61.4099C78.9988 61.4099 77.2783 63.1327 77.2783 65.258C77.2783 67.3832 78.9988 69.106 81.1212 69.106Z" fill="#FFB8B8"/>
<path d="M68.1364 112.18L69.1094 113.836L75.9485 110.865L74.5125 108.422L68.1364 112.18Z" fill="#FFB8B8"/>
<path d="M68.4279 111.44L70.3441 114.7C70.5045 114.973 70.6097 115.275 70.6536 115.588C70.6975 115.902 70.6793 116.221 70.6 116.527C70.5208 116.834 70.382 117.121 70.1916 117.374C70.0013 117.627 69.7631 117.84 69.4906 118L69.4232 118.04L66.2858 112.703L68.4279 111.44Z" fill="#2F2E41"/>
<path d="M79.4105 118.144H81.3288L82.2413 110.735L79.4103 110.735L79.4105 118.144Z" fill="#FFB8B8"/>
<path d="M78.9214 117.517L82.699 117.516C83.0151 117.516 83.3283 117.579 83.6204 117.7C83.9125 117.821 84.1779 117.999 84.4014 118.222C84.625 118.446 84.8023 118.712 84.9233 119.005C85.0443 119.297 85.1065 119.61 85.1065 119.927V120.005L78.9215 120.006L78.9214 117.517Z" fill="#2F2E41"/>
<path d="M71.6986 113.655C71.5883 113.655 71.4794 113.629 71.3809 113.579C71.2824 113.529 71.197 113.457 71.1316 113.368L69.2817 110.852C69.2252 110.775 69.1849 110.688 69.1632 110.595C69.1414 110.502 69.1387 110.406 69.1551 110.312C69.1716 110.218 69.2069 110.128 69.2588 110.049C69.3108 109.969 69.3784 109.9 69.4576 109.847L77.6897 104.342L72.7226 91.2632L83.3447 92.141L83.7024 103.38C83.736 104.403 83.491 105.417 82.9937 106.312C82.4963 107.206 81.7654 107.949 80.879 108.46L72.0504 113.56C71.9435 113.622 71.8222 113.655 71.6986 113.655Z" fill="#2F2E41"/>
<path d="M79.4684 116.64C79.2863 116.639 79.1113 116.568 78.9804 116.441C78.8494 116.315 78.7726 116.142 78.7661 115.96L78.3768 105.011L83.1972 104.757L82.8134 115.784C82.8077 115.959 82.7373 116.125 82.6158 116.251C82.4943 116.376 82.3305 116.452 82.1563 116.463L79.5163 116.638C79.5003 116.639 79.4843 116.64 79.4684 116.64Z" fill="#2F2E41"/>
<path d="M82.9583 94.3152C81.7319 94.3152 79.064 92.9339 77.5768 92.4416C77.3544 92.6198 76.1322 93.5349 74.7056 93.3677C73.8253 93.2643 73.0504 92.7653 72.4023 91.8846C70.9712 89.9397 73.8575 82.7497 75.5924 76.095C76.3223 73.2955 77.9889 70.4315 80.8149 71.0459C81.7972 71.2631 82.6995 71.7502 83.4206 72.4526C84.1416 73.155 84.6528 74.0448 84.8966 75.022C85.2233 76.3535 84.9423 77.9196 84.7371 79.0633C84.6464 79.4473 84.5972 79.8399 84.5905 80.2344C84.6912 81.041 83.6348 93.6914 83.2752 94.2317C83.2369 94.2892 83.1261 94.3152 82.9583 94.3152Z" fill="#FF8550"/>
<path d="M80.0876 94.3376C80.2847 94.1907 80.4472 94.0023 80.5637 93.7857C80.6803 93.569 80.7479 93.3294 80.762 93.0838C80.776 92.8381 80.7361 92.5924 80.645 92.3638C80.554 92.1353 80.414 91.9295 80.2349 91.761L80.3108 76.4314L76.7052 77.0326L77.7643 91.9121C77.5016 92.2321 77.3652 92.6375 77.381 93.0515C77.3968 93.4654 77.5637 93.8592 77.8501 94.1582C78.1364 94.4572 78.5224 94.6406 78.9348 94.6737C79.3472 94.7067 79.7573 94.5872 80.0876 94.3376Z" fill="#FFB8B8"/>
<path d="M80.9215 86.2761H77.0378C76.8524 86.2756 76.6746 86.202 76.5428 86.0713C76.4111 85.9406 76.336 85.7632 76.3337 85.5775L76.2384 75.0346C76.2351 74.67 76.304 74.3084 76.4411 73.9707C76.5783 73.633 76.7809 73.3259 77.0374 73.0671C77.2938 72.8083 77.5989 72.603 77.9351 72.463C78.2712 72.323 78.6318 72.2512 78.9958 72.2517C79.3599 72.2521 79.7203 72.3248 80.0561 72.4656C80.3919 72.6064 80.6965 72.8124 80.9523 73.0719C81.2081 73.3313 81.41 73.6389 81.5463 73.977C81.6827 74.315 81.7507 74.6768 81.7465 75.0413L81.6255 85.5792C81.6228 85.7646 81.5475 85.9415 81.4158 86.0718C81.2841 86.2021 81.1066 86.2755 80.9215 86.2761Z" fill="#FF8550"/>
<path d="M80.1428 69.09C79.2605 69.0682 78.4117 68.7472 77.7352 68.1796C77.0587 67.6121 76.5945 66.8314 76.4185 65.9654C76.3094 65.2838 76.3586 64.586 76.5624 63.9265C76.7836 63.1757 77.163 62.4811 77.6751 61.8896C78.1871 61.298 78.8198 60.8233 79.5306 60.4973C80.2413 60.1714 81.0136 60.0018 81.7954 60C82.5771 59.9982 83.3502 60.1643 84.0624 60.4871C84.5331 60.7003 84.9967 61.0067 85.2122 61.4768C85.4278 61.947 85.2929 62.6042 84.8214 62.8157C84.5133 62.954 84.1267 62.8861 83.8534 63.0845C83.4607 63.3696 83.5618 63.9762 83.7371 64.429C83.9124 64.8817 84.1107 65.4296 83.8168 65.8159C83.543 66.1759 82.9956 66.1647 82.5645 66.0292C82.1333 65.8937 81.7077 65.6669 81.2582 65.713C80.6026 65.7803 80.1314 66.4334 80.0442 67.0875C79.957 67.7417 80.1623 68.3956 80.365 69.0236L80.1428 69.09Z" fill="#2F2E41"/>
<path d="M94.5995 89.61C97.0958 89.0449 99.924 91.0003 100.012 93.6252C100.036 94.3636 99.8202 95.1389 99.2528 95.6412C99.018 95.8569 98.732 96.0088 98.4221 96.0825C98.1121 96.1562 97.7884 96.1493 97.4819 96.0624C96.3166 95.6723 96.2544 94.0464 96.8795 93.1781C97.7259 92.0022 99.4026 91.8015 100.733 91.9413C102.363 92.1486 103.908 92.7926 105.203 93.8054C107.8 95.7651 109.454 98.7685 110.792 101.67C112.162 104.647 113.159 107.783 113.759 111.005C113.834 111.41 113.903 111.815 113.966 112.222C113.984 112.282 114.024 112.332 114.079 112.362C114.133 112.392 114.197 112.399 114.257 112.382C114.316 112.364 114.365 112.323 114.395 112.269C114.425 112.214 114.433 112.151 114.417 112.091C113.869 108.575 112.857 105.147 111.407 101.897C110.006 98.7525 108.239 95.4904 105.428 93.3917C104.034 92.3166 102.371 91.6486 100.621 91.4617C99.1471 91.3307 97.4015 91.6429 96.4848 92.9268C95.7615 93.9396 95.835 95.6229 96.954 96.3283C97.2631 96.5043 97.6112 96.6002 97.9667 96.6074C98.3222 96.6145 98.6738 96.5327 98.9898 96.3693C99.3287 96.2017 99.6273 95.9622 99.8646 95.6676C100.102 95.3729 100.273 95.0301 100.364 94.6629C100.762 93.205 100.158 91.6281 99.124 90.586C98.1531 89.6053 96.8337 89.0497 95.4547 89.0409C95.1226 89.0445 94.7919 89.084 94.4683 89.1587C94.1736 89.2254 94.3053 89.6766 94.5995 89.61Z" fill="#CCCCCC"/>
<path d="M106.638 118.479L105.087 115.827L107 114.705L108.551 117.357C108.7 117.611 108.741 117.914 108.667 118.199C108.593 118.484 108.408 118.727 108.155 118.876C107.901 119.025 107.599 119.067 107.314 118.992C107.03 118.918 106.787 118.733 106.638 118.479Z" fill="#FF8550"/>
<path d="M101.509 112.967C102.262 112.967 102.873 112.355 102.873 111.6C102.873 110.846 102.262 110.234 101.509 110.234C100.756 110.234 100.145 110.846 100.145 111.6C100.145 112.355 100.756 112.967 101.509 112.967Z" fill="#FF8550"/>
<path d="M112.64 118.479L111.089 115.827L113.002 114.705L114.553 117.357C114.702 117.611 114.744 117.914 114.669 118.199C114.595 118.484 114.411 118.727 114.157 118.876C113.903 119.025 113.601 119.067 113.317 118.992C113.032 118.918 112.789 118.733 112.64 118.479Z" fill="#FF8550"/>
<path d="M101.768 114.352C101.769 113.583 102.075 112.845 102.618 112.301C103.162 111.757 103.899 111.451 104.667 111.45H113.844C114.169 111.45 114.48 111.579 114.71 111.809C114.94 112.039 115.069 112.351 115.069 112.677V113.722C115.068 114.659 114.696 115.557 114.035 116.219C113.373 116.882 112.476 117.254 111.541 117.255H104.667C103.899 117.254 103.162 116.948 102.618 116.404C102.075 115.86 101.769 115.122 101.768 114.352Z" fill="#3F3D56"/>
<path d="M103.884 118.821V115.748H106.101V118.821C106.101 119.116 105.984 119.398 105.777 119.606C105.569 119.814 105.287 119.931 104.993 119.931C104.699 119.931 104.417 119.814 104.209 119.606C104.001 119.398 103.884 119.116 103.884 118.821Z" fill="#3F3D56"/>
<path d="M110.317 118.821V115.748H112.534V118.821C112.534 119.116 112.417 119.398 112.209 119.606C112.001 119.814 111.719 119.931 111.425 119.931C111.131 119.931 110.849 119.814 110.642 119.606C110.434 119.398 110.317 119.116 110.317 118.821Z" fill="#3F3D56"/>
<path d="M119.336 106.661C119.563 106.379 119.892 106.199 120.252 106.159C120.611 106.12 120.971 106.226 121.253 106.452C121.535 106.679 121.715 107.009 121.755 107.368C121.794 107.728 121.69 108.089 121.463 108.372L119.221 111.167L117.094 109.457L119.336 106.661Z" fill="#FF8550"/>
<path d="M113.935 112.168L115.731 109.929C116.168 109.385 116.802 109.038 117.495 108.962C118.187 108.886 118.881 109.089 119.425 109.525L119.986 109.976C120.633 110.498 121.047 111.255 121.137 112.082C121.227 112.908 120.986 113.737 120.467 114.386L118.987 116.232C118.823 116.435 118.586 116.565 118.327 116.593C118.067 116.622 117.807 116.546 117.604 116.383L114.086 113.553C113.882 113.389 113.753 113.152 113.724 112.892C113.696 112.632 113.772 112.372 113.935 112.168Z" fill="#3F3D56"/>
<path d="M119.603 106.328C119.759 106.134 119.985 106.01 120.233 105.982C120.48 105.955 120.728 106.028 120.922 106.184C121.116 106.34 121.24 106.567 121.267 106.814C121.294 107.062 121.221 107.31 121.066 107.504L118.556 110.633L117.094 109.457L119.603 106.328Z" fill="#3F3D56"/>
<path d="M116.008 111.558L119.864 114.658C120.004 114.771 120.12 114.91 120.206 115.067C120.292 115.224 120.346 115.397 120.366 115.575C120.385 115.754 120.37 115.934 120.319 116.106C120.269 116.278 120.186 116.439 120.073 116.579C119.961 116.719 119.823 116.835 119.666 116.921C119.508 117.008 119.336 117.062 119.158 117.081C118.98 117.101 118.8 117.085 118.628 117.035C118.456 116.985 118.295 116.901 118.156 116.789L114.3 113.688L116.008 111.558Z" fill="#3F3D56"/>
<path d="M120.238 116.68C120.438 116.432 120.487 116.141 120.35 116.03C120.212 115.92 119.939 116.031 119.74 116.279C119.541 116.527 119.491 116.818 119.629 116.929C119.766 117.04 120.039 116.928 120.238 116.68Z" fill="#FF8550"/>
<path d="M81.5504 71.7467H79.3287C79.1145 71.7467 78.909 71.6615 78.7575 71.5098C78.606 71.3581 78.5209 71.1523 78.5209 70.9378C78.5209 70.7232 78.606 70.5174 78.7575 70.3657C78.909 70.214 79.1145 70.1288 79.3287 70.1288H81.5504C81.7647 70.1288 81.9702 70.214 82.1217 70.3657C82.2732 70.5174 82.3583 70.7232 82.3583 70.9378C82.3583 71.1523 82.2732 71.3581 82.1217 71.5098C81.9702 71.6615 81.7647 71.7467 81.5504 71.7467Z" fill="#FF8550"/>
</g>
<defs>
<linearGradient id="paint0_linear_192_4533" x1="100" y1="0" x2="100" y2="120" gradientUnits="userSpaceOnUse">
<stop offset="0.0001" stop-color="#FFA985"/>
<stop offset="1" stop-color="#FFDBC7"/>
</linearGradient>
<clipPath id="clip0_192_4533">
<rect width="145.714" height="120" fill="white" transform="translate(32)"/>
</clipPath>
</defs>
</svg>
