<svg width="144" height="208" viewBox="0 0 144 208" fill="none" xmlns="http://www.w3.org/2000/svg">
<mask id="mask0_177_3883" style="mask-type:alpha" maskUnits="userSpaceOnUse" x="0" y="0" width="144" height="208">
<rect width="144" height="208" fill="#DEDEDE"/>
</mask>
<g mask="url(#mask0_177_3883)">
<rect x="-70.4182" width="345.044" height="207.768" fill="url(#paint0_linear_177_3883)"/>
<path d="M126.202 128.435H55.5348C49.5948 128.435 44.7624 123.598 44.7624 117.652V46.9171C44.7624 40.9714 49.5948 36.1343 55.5348 36.1343H126.202C132.142 36.1343 136.974 40.9714 136.974 46.9171V117.652C136.974 123.598 132.142 128.435 126.202 128.435ZM55.5348 37.8595C50.5372 37.8595 46.4859 41.9147 46.4859 46.9171V117.652C46.4859 122.655 50.5372 126.71 55.5348 126.71H105.035C121.723 126.71 135.251 113.169 135.251 96.4653V46.9171C135.251 41.9147 131.199 37.8595 126.202 37.8595L55.5348 37.8595Z" fill="#F2F2F2"/>
<path d="M63.1534 45.2151C59.8088 45.2151 57.0879 47.9386 57.0879 51.2864V60.7894C57.0879 64.1372 59.8088 66.8607 63.1534 66.8607H72.6472C75.9918 66.8607 78.7126 64.1372 78.7126 60.7894V51.2864C78.7126 47.9386 75.9918 45.2151 72.6472 45.2151H63.1534Z" fill="#F2F2F2"/>
<path d="M63.1534 71.9672C59.8088 71.9672 57.0879 74.6907 57.0879 78.0386V87.5415C57.0879 90.8893 59.8088 93.6128 63.1534 93.6128H72.6472C75.9918 93.6128 78.7126 90.8893 78.7126 87.5415V78.0386C78.7126 74.6907 75.9918 71.9672 72.6472 71.9672H63.1534Z" fill="#F2F2F2"/>
<path d="M63.1534 98.7192C59.8088 98.7192 57.0879 101.443 57.0879 104.791V114.294C57.0879 117.641 59.8088 120.365 63.1534 120.365H72.6472C75.9918 120.365 78.7126 117.641 78.7126 114.294V104.791C78.7126 101.443 75.9918 98.7192 72.6472 98.7192H63.1534Z" fill="#F2F2F2"/>
<path d="M67.223 48.9838C63.0087 48.9838 59.5803 52.4154 59.5803 56.6338V68.6078C59.5803 72.8262 63.0087 76.2579 67.223 76.2579H79.1854C83.3997 76.2579 86.8281 72.8262 86.8281 68.6078V56.6338C86.8281 52.4154 83.3997 48.9838 79.1854 48.9838H67.223Z" fill="#80635C"/>
<path d="M106.606 82.4462C102.392 82.4462 98.9637 85.8778 98.9637 90.0962V102.07C98.9637 106.289 102.392 109.72 106.606 109.72H118.569C122.783 109.72 126.211 106.289 126.211 102.07V90.0962C126.211 85.8778 122.783 82.4462 118.569 82.4462H106.606Z" fill="#80635C"/>
<path d="M89.4844 202.969L87.0543 202.949L85.9785 193.347L89.5652 193.377L89.4844 202.969Z" fill="#A0616A"/>
<path d="M81.7002 206.837C81.695 207.436 82.1771 207.929 82.7775 207.934L87.6092 207.975L88.4551 206.258L88.7658 207.983L90.5889 208L90.1286 201.848L89.4943 201.805L86.9071 201.627L86.0724 201.571L86.0577 203.312L82.1763 205.947C81.881 206.148 81.7032 206.48 81.7002 206.837Z" fill="#2F2E41"/>
<path d="M101.849 202.969L99.4188 202.949L98.343 193.347L101.93 193.377L101.849 202.969Z" fill="#A0616A"/>
<path d="M94.0648 206.837C94.0595 207.436 94.5417 207.929 95.142 207.934L99.9738 207.975L100.82 206.258L101.13 207.983L102.953 208L102.493 201.848L101.859 201.805L99.2716 201.627L98.4369 201.571L98.4223 203.312L94.5409 205.947C94.2456 206.148 94.0677 206.48 94.0648 206.837Z" fill="#2F2E41"/>
<path d="M79.9481 125.342L89.7988 125.653L99.1311 127.729C99.1311 127.729 98.1979 128.871 101.309 131.985C101.309 131.985 105.456 139.25 102.553 146.308L101.309 174.539C101.309 174.539 104.937 194.441 102.165 200.775L98.5011 201.004L92.3019 174.769L89.2804 146.516L87.8287 174.332C87.8287 174.332 93.3823 193.424 89.8754 201.004L85.9076 200.775L79.1185 174.332C79.1185 174.332 76.2152 143.817 76.6299 138.005C77.0447 132.192 79.9481 125.342 79.9481 125.342Z" fill="#2F2E41"/>
<path d="M113.029 80.7319C111.682 81.0809 110.873 82.4565 111.222 83.8045C111.382 84.4221 111.758 84.9246 112.248 85.2565L112.247 85.26L112.056 89.8916L115.597 91.5318L115.88 84.4045L115.855 84.4053C116.162 83.8578 116.268 83.1963 116.099 82.5405C115.75 81.1926 114.376 80.3828 113.029 80.7319Z" fill="#A0616A"/>
<path d="M93.2388 97.2618C92.4949 96.5238 92.0634 95.5231 92.0473 94.435C92.0256 92.9754 92.7564 91.6505 94.002 90.8912C95.4366 90.0166 97.2305 90.1051 98.5722 91.1163L109.691 99.4963L111.673 87.4243L115.926 88.7949L114.911 104.514C114.84 105.614 114.22 106.583 113.251 107.105C112.282 107.628 111.132 107.615 110.175 107.07L94.1064 97.9194C93.7836 97.7356 93.4929 97.5139 93.2388 97.2618Z" fill="#3F3D56"/>
<path d="M76.2841 73.9794C76.9949 75.1762 76.6018 76.7233 75.4061 77.4348C74.8582 77.7608 74.2374 77.8523 73.6566 77.7433L73.6543 77.7459L70.5322 81.1696L66.8639 79.839L71.6763 74.5784L71.6933 74.5963C71.8604 73.9911 72.2503 73.4466 72.8321 73.1005C74.0278 72.389 75.5733 72.7825 76.2841 73.9794Z" fill="#A0616A"/>
<path d="M77.6327 99.5205L59.7848 94.6948C58.7222 94.4074 57.8966 93.6066 57.5763 92.5524C57.256 91.4982 57.4965 90.3728 58.2194 89.5419L68.5554 77.6635L72.5401 79.6879L65.456 89.657L79.2464 91.5421C80.9105 91.7696 82.2467 92.971 82.6503 94.6029C83.0008 96.0201 82.5879 97.4759 81.5458 98.4972C80.769 99.2586 79.7587 99.665 78.7114 99.6649C78.3536 99.6649 77.9912 99.6175 77.6327 99.5205Z" fill="#3F3D56"/>
<path d="M103.078 129.495L78.1199 130.641C77.4344 129.599 77.6201 128.033 78.58 126.071C82.2046 118.663 79.4519 104.65 77.6001 97.3526C77.0806 95.3053 78.4753 93.2699 80.5751 93.0597L82.9283 92.8242L85.1036 86.1776H92.7219L95.8825 89.7918L101.246 93.0534C100.27 103.12 96.1099 117.334 102.036 124.462C103.332 126.021 103.7 127.707 103.078 129.495Z" fill="#3F3D56"/>
<path d="M87.9437 86.3311C92.0419 86.3311 95.3642 83.0056 95.3642 78.9035C95.3642 74.8013 92.0419 71.4758 87.9437 71.4758C83.8455 71.4758 80.5232 74.8013 80.5232 78.9035C80.5232 83.0056 83.8455 86.3311 87.9437 86.3311Z" fill="#A0616A"/>
<path d="M96.3406 74.149C97.373 70.3813 86.1208 67.1504 83.9341 70.1846C83.6301 69.7532 82.5064 69.4912 81.9908 69.6235C81.4752 69.7558 81.0417 70.0867 80.6186 70.4069C80.0369 70.8541 79.4341 71.3173 79.0772 71.9604C78.7176 72.6008 78.6621 73.4742 79.1459 74.0299C79.5293 74.4719 80.203 76.8205 80.7794 76.9369C81.1812 77.0189 81.5197 77.0851 81.8105 77.1327C82.0696 76.7543 82.7303 76.2789 82.6828 75.8211C83.074 76.0804 82.9311 76.5367 82.8522 77.0031C82.5895 78.556 76.6709 90.5771 80.0608 87.0348C80.3965 87.2333 80.8116 87.4185 81.2902 87.5879C82.1019 86.3626 82.7681 84.9176 83.207 83.4064L83.2102 83.4343C83.3613 84.7476 84.32 85.8251 85.5885 86.193C90.677 87.6685 94.793 85.5034 96.2089 81.5988C95.6906 80.5455 95.4647 80.6599 95.5112 80.6285C96.1582 80.192 97.0475 80.4775 97.3256 81.2073C97.4076 81.4224 97.4822 81.6061 97.5467 81.7443C98.2844 79.1031 99.1617 79.4843 96.3406 74.149Z" fill="#2F2E41"/>
<path d="M92.8302 71.4154L92.3105 68.7555C92.2668 68.532 92.2253 68.2894 92.326 68.0851C92.4554 67.8226 92.7881 67.7138 93.0776 67.7556C93.367 67.7974 93.5835 68.0621 93.8715 68.113C94.8727 68.2902 96.1962 67.3003 96.555 69.8046C96.7045 70.8488 98.3691 70.9591 98.925 71.8552C99.4809 72.7513 99.5491 74.0448 98.7905 74.7769C98.1846 75.3616 97.2115 75.4291 96.4245 75.1304C95.6376 74.8317 95.006 74.2284 94.4543 73.5922C93.9026 72.956 93.4031 72.2676 92.7667 71.7162" fill="#2F2E41"/>
<path d="M96.737 75.461C94.7065 75.1771 93.3225 74.4379 92.6234 73.2642C91.7084 71.7278 92.3213 70.036 92.3478 69.9647L92.777 70.1244C92.7713 70.14 92.2153 71.6886 93.0192 73.0334C93.6445 74.0796 94.9167 74.7437 96.8003 75.0071L96.737 75.461Z" fill="#80635C"/>
<path d="M23.1331 64.4879C14.2378 64.4879 7 57.2322 7 48.315C7 39.3977 14.2378 32.142 23.1331 32.142C32.0284 32.142 39.2662 39.3977 39.2662 48.315C39.2662 57.2322 32.0284 64.4879 23.1331 64.4879ZM23.1331 38.6112C17.7953 38.6112 13.4532 42.964 13.4532 48.315C13.4532 53.6659 17.7953 58.0187 23.1331 58.0187C28.4709 58.0187 32.813 53.6659 32.813 48.315C32.813 42.964 28.4709 38.6112 23.1331 38.6112Z" fill="#80635C"/>
<path d="M47.8551 74.7025C47.0466 74.7025 46.2364 74.4172 45.6002 73.8388L30.1207 59.7972C28.7903 58.5921 28.7226 56.5717 29.9692 55.2856C31.2126 53.9947 33.3 53.9308 34.6304 55.139L50.1099 69.1806C51.4403 70.3857 51.5079 72.4061 50.2613 73.6923C49.6123 74.3642 48.7345 74.7025 47.8551 74.7025Z" fill="#80635C"/>
</g>
<defs>
<linearGradient id="paint0_linear_177_3883" x1="102.104" y1="0" x2="102.104" y2="207.768" gradientUnits="userSpaceOnUse">
<stop offset="0.0001" stop-color="#A4857B"/>
<stop offset="1" stop-color="#DAC3BE"/>
</linearGradient>
</defs>
</svg>
