<svg width="201" height="120" viewBox="0 0 201 120" fill="none" xmlns="http://www.w3.org/2000/svg">
<rect x="0.581848" width="200" height="119.866" fill="url(#paint0_linear_219_5050)"/>
<path d="M114.016 74.0972H73.247C69.8201 74.0972 67.0322 71.3065 67.0322 67.8763V27.0675C67.0322 23.6373 69.8201 20.8467 73.247 20.8467H114.016C117.443 20.8467 120.231 23.6373 120.231 27.0675V67.8763C120.231 71.3065 117.443 74.0972 114.016 74.0972ZM73.247 21.842C70.3638 21.842 68.0265 24.1816 68.0265 27.0675V67.8763C68.0265 70.7623 70.3638 73.1018 73.247 73.1018H101.805C111.432 73.1018 119.237 65.2897 119.237 55.6531V27.0675C119.237 24.1816 116.9 21.842 114.016 21.842L73.247 21.842Z" fill="#F2F2F2"/>
<path d="M77.6423 26.0857C75.7127 26.0857 74.143 27.6569 74.143 29.5884V35.0709C74.143 37.0023 75.7127 38.5735 77.6423 38.5735H83.1195C85.0491 38.5735 86.6188 37.0023 86.6188 35.0709V29.5884C86.6188 27.6569 85.0491 26.0857 83.1195 26.0857H77.6423Z" fill="#F2F2F2"/>
<path d="M77.6423 41.5195C75.7127 41.5195 74.143 43.0908 74.143 45.0222V50.5047C74.143 52.4361 75.7127 54.0074 77.6423 54.0074H83.1195C85.0491 54.0074 86.6188 52.4361 86.6188 50.5047V45.0222C86.6188 43.0908 85.0491 41.5195 83.1195 41.5195H77.6423Z" fill="#F2F2F2"/>
<path d="M77.6423 56.9534C75.7127 56.9534 74.143 58.5247 74.143 60.4561V65.9386C74.143 67.87 75.7127 69.4413 77.6423 69.4413H83.1195C85.0491 69.4413 86.6188 67.87 86.6188 65.9386V60.4561C86.6188 58.5247 85.0491 56.9534 83.1195 56.9534H77.6423Z" fill="#F2F2F2"/>
<path d="M79.9902 28.2599C77.5589 28.2599 75.581 30.2397 75.581 32.6734V39.5814C75.581 42.0151 77.5589 43.9949 79.9902 43.9949H86.8916C89.323 43.9949 91.3009 42.0151 91.3009 39.5814V32.6734C91.3009 30.2397 89.323 28.2599 86.8916 28.2599H79.9902Z" fill="#80635C"/>
<path d="M102.711 47.5651C100.28 47.5651 98.3021 49.5449 98.3021 51.9786V58.8867C98.3021 61.3204 100.28 63.3002 102.711 63.3002H109.613C112.044 63.3002 114.022 61.3204 114.022 58.8867V51.9786C114.022 49.5449 112.044 47.5651 109.613 47.5651H102.711Z" fill="#80635C"/>
<path d="M92.8333 117.098L91.4313 117.086L90.8107 111.546L92.8799 111.564L92.8333 117.098Z" fill="#A0616A"/>
<path d="M88.3424 119.329C88.3394 119.675 88.6176 119.959 88.9639 119.962L91.7515 119.985L92.2395 118.995L92.4187 119.99L93.4705 120L93.2049 116.451L92.839 116.426L91.3464 116.323L90.8648 116.291L90.8564 117.295L88.6171 118.815C88.4467 118.931 88.3441 119.123 88.3424 119.329Z" fill="#2F2E41"/>
<path d="M99.9668 117.098L98.5647 117.086L97.9441 111.546L100.013 111.564L99.9668 117.098Z" fill="#A0616A"/>
<path d="M95.4759 119.329C95.4728 119.675 95.751 119.959 96.0973 119.962L98.8849 119.985L99.3729 118.995L99.5521 119.99L100.604 120L100.338 116.451L99.9724 116.426L98.4798 116.323L97.9982 116.291L97.9898 117.295L95.7505 118.815C95.5802 118.931 95.4776 119.123 95.4759 119.329Z" fill="#2F2E41"/>
<path d="M87.3316 72.3126L93.0147 72.4923L98.3987 73.6899C98.3987 73.6899 97.8603 74.3485 99.655 76.1449C99.655 76.1449 102.048 80.3365 100.373 84.4084L99.655 100.696C99.655 100.696 101.748 112.177 100.149 115.831L98.0352 115.964L94.4588 100.828L92.7156 84.5282L91.8781 100.576C91.8781 100.576 95.0821 111.591 93.0589 115.964L90.7697 115.831L86.853 100.576C86.853 100.576 85.178 82.9713 85.4173 79.618C85.6565 76.2647 87.3316 72.3126 87.3316 72.3126Z" fill="#2F2E41"/>
<path d="M106.417 46.5761C105.64 46.7774 105.173 47.5711 105.374 48.3487C105.467 48.7051 105.684 48.995 105.966 49.1865L105.966 49.1885L105.856 51.8605L107.898 52.8068L108.062 48.6949L108.047 48.6954C108.224 48.3795 108.286 47.9979 108.188 47.6195C107.987 46.8419 107.194 46.3747 106.417 46.5761Z" fill="#A0616A"/>
<path d="M94.9993 56.1126C94.5702 55.6868 94.3212 55.1096 94.3119 54.4818C94.2994 53.6397 94.721 52.8754 95.4397 52.4373C96.2673 51.9327 97.3022 51.9838 98.0763 52.5672L104.491 57.4018L105.634 50.4371L108.088 51.2279L107.503 60.2968C107.462 60.9312 107.104 61.49 106.545 61.7917C105.986 62.0934 105.322 62.0858 104.77 61.7715L95.4999 56.4921C95.3136 56.386 95.1459 56.2581 94.9993 56.1126Z" fill="#3F3D56"/>
<path d="M85.2178 42.6805C85.6279 43.371 85.4011 44.2635 84.7113 44.674C84.3952 44.8621 84.037 44.9149 83.7019 44.852L83.7006 44.8535L81.8994 46.8287L79.7831 46.0611L82.5595 43.0261L82.5693 43.0364C82.6657 42.6873 82.8906 42.3732 83.2262 42.1734C83.9161 41.763 84.8077 41.99 85.2178 42.6805Z" fill="#A0616A"/>
<path d="M85.9958 57.4157L75.699 54.6317C75.0859 54.4659 74.6096 54.0038 74.4248 53.3957C74.24 52.7875 74.3787 52.1382 74.7958 51.6588L80.7589 44.8059L83.0578 45.9738L78.9708 51.7252L86.9268 52.8128C87.8869 52.944 88.6577 53.6371 88.8906 54.5787C89.0928 55.3962 88.8546 56.2361 88.2534 56.8254C87.8052 57.2646 87.2224 57.4991 86.6181 57.499C86.4117 57.499 86.2026 57.4716 85.9958 57.4157Z" fill="#3F3D56"/>
<path d="M100.676 74.7088L86.2769 75.3699C85.8814 74.7688 85.9885 73.8649 86.5423 72.7331C88.6334 68.4595 87.0453 60.3747 85.977 56.165C85.6773 54.9838 86.4819 53.8096 87.6934 53.6883L89.051 53.5524L90.3059 49.7178H94.7011L96.5245 51.803L99.619 53.6847C99.0557 59.492 96.6557 67.6926 100.075 71.8051C100.823 72.7045 101.035 73.6772 100.676 74.7088Z" fill="#3F3D56"/>
<path d="M91.9445 49.8064C94.3088 49.8064 96.2255 47.8879 96.2255 45.5213C96.2255 43.1546 94.3088 41.2361 91.9445 41.2361C89.5801 41.2361 87.6635 43.1546 87.6635 45.5213C87.6635 47.8879 89.5801 49.8064 91.9445 49.8064Z" fill="#A0616A"/>
<path d="M96.7888 42.7783C97.3844 40.6046 90.8927 38.7406 89.6312 40.4911C89.4558 40.2422 88.8075 40.0911 88.5101 40.1674C88.2126 40.2438 87.9625 40.4346 87.7184 40.6194C87.3829 40.8774 87.0351 41.1446 86.8292 41.5156C86.6217 41.8851 86.5897 42.3889 86.8688 42.7096C87.09 42.9645 87.4786 44.3195 87.8112 44.3867C88.043 44.434 88.2383 44.4722 88.406 44.4997C88.5555 44.2813 88.9367 44.0071 88.9093 43.7429C89.135 43.8925 89.0526 44.1558 89.007 44.4248C88.8555 45.3208 85.4409 52.256 87.3966 50.2124C87.5903 50.3269 87.8298 50.4338 88.1059 50.5315C88.5742 49.8246 88.9585 48.9909 89.2118 48.1191L89.2135 48.1352C89.3007 48.8928 89.8539 49.5145 90.5857 49.7267C93.5213 50.578 95.896 49.3289 96.7128 47.0762C96.4138 46.4685 96.2835 46.5345 96.3103 46.5165C96.6836 46.2646 97.1966 46.4293 97.3571 46.8503C97.4044 46.9745 97.4474 47.0804 97.4846 47.1602C97.9102 45.6364 98.4164 45.8563 96.7888 42.7783Z" fill="#2F2E41"/>
<path d="M94.7636 41.2013L94.4638 39.6668C94.4386 39.5378 94.4146 39.3978 94.4727 39.2799C94.5474 39.1285 94.7393 39.0657 94.9063 39.0899C95.0733 39.114 95.1982 39.2667 95.3643 39.2961C95.942 39.3983 96.7055 38.8272 96.9125 40.272C96.9988 40.8744 97.9591 40.938 98.2798 41.455C98.6005 41.972 98.6399 42.7183 98.2022 43.1406C97.8527 43.478 97.2913 43.5169 96.8373 43.3446C96.3833 43.1723 96.0189 42.8242 95.7006 42.4571C95.3823 42.0901 95.0941 41.6929 94.727 41.3748" fill="#2F2E41"/>
<path d="M97.0175 43.5352C95.8461 43.3714 95.0477 42.945 94.6443 42.2678C94.1164 41.3814 94.47 40.4054 94.4853 40.3643L94.733 40.4564C94.7297 40.4654 94.4089 41.3588 94.8727 42.1347C95.2334 42.7382 95.9674 43.1213 97.054 43.2733L97.0175 43.5352Z" fill="#80635C"/>
<path d="M54.5537 37.2046C49.4218 37.2046 45.2462 33.0186 45.2462 27.874C45.2462 22.7294 49.4218 18.5435 54.5537 18.5435C59.6856 18.5435 63.8613 22.7294 63.8613 27.874C63.8613 33.0186 59.6856 37.2046 54.5537 37.2046ZM54.5537 22.2757C51.4742 22.2757 48.9692 24.7869 48.9692 27.874C48.9692 30.9611 51.4742 33.4723 54.5537 33.4723C57.6332 33.4723 60.1383 30.9611 60.1383 27.874C60.1383 24.7869 57.6332 22.2757 54.5537 22.2757Z" fill="#80635C"/>
<path d="M68.8164 43.0976C68.3499 43.0976 67.8825 42.933 67.5155 42.5993L58.585 34.4984C57.8175 33.8032 57.7784 32.6375 58.4976 31.8955C59.215 31.1508 60.4192 31.1139 61.1867 31.811L70.1173 39.9119C70.8848 40.6072 70.9238 41.7728 70.2046 42.5148C69.8301 42.9024 69.3237 43.0976 68.8164 43.0976Z" fill="#80635C"/>
<path d="M139.904 101.407C140.328 101.434 140.563 100.905 140.242 100.598L140.21 100.47C140.214 100.46 140.218 100.45 140.222 100.44C140.652 99.4147 142.108 99.4217 142.534 100.448C142.912 101.36 143.393 102.273 143.511 103.236C143.564 103.661 143.54 104.095 143.446 104.512C144.332 102.575 144.798 100.461 144.798 98.3341C144.798 97.7998 144.769 97.2655 144.709 96.7325C144.66 96.2966 144.592 95.8633 144.505 95.4339C144.03 93.1133 143.004 90.9029 141.523 89.0568C140.812 88.6673 140.218 88.0586 139.86 87.3289C139.731 87.0657 139.63 86.7826 139.582 86.4942C139.663 86.5048 139.888 85.27 139.826 85.1943C139.939 85.0228 140.141 84.9376 140.265 84.7703C140.878 83.9382 141.723 84.0835 142.164 85.2142C143.106 85.6901 143.115 86.4794 142.537 87.2385C142.169 87.7214 142.118 88.3749 141.796 88.8919C141.829 88.9345 141.863 88.9757 141.897 89.0182C142.505 89.7998 143.032 90.6398 143.476 91.5223C143.35 90.5415 143.535 89.3599 143.851 88.5982C144.211 87.7303 144.884 86.9994 145.477 86.2492C146.19 85.348 147.651 85.7413 147.777 86.8837C147.778 86.8947 147.779 86.9058 147.78 86.9168C147.692 86.9666 147.606 87.0195 147.522 87.0753C147.041 87.3937 147.207 88.14 147.777 88.228L147.79 88.23C147.758 88.5477 147.703 88.8627 147.624 89.1724C148.385 92.1184 146.742 93.1913 144.396 93.2395C144.344 93.2661 144.293 93.2927 144.242 93.318C144.479 93.9878 144.669 94.675 144.81 95.3715C144.936 95.9869 145.024 96.6089 145.073 97.2336C145.134 98.0218 145.129 98.8139 145.062 99.6008L145.066 99.5729C145.235 98.7063 145.705 97.8968 146.387 97.3359C147.404 96.4999 148.841 96.1921 149.938 95.52C150.466 95.1966 151.142 95.6146 151.05 96.2273L151.046 96.2567C150.882 96.3231 150.723 96.4002 150.569 96.4866C150.481 96.5364 150.394 96.5892 150.31 96.6451C149.829 96.9635 149.995 97.7098 150.565 97.7978L150.578 97.7998C150.587 97.8011 150.595 97.8025 150.605 97.8038C150.324 98.4697 149.934 99.0877 149.445 99.6207C148.97 102.192 146.926 102.436 144.74 101.688H144.738C144.499 102.73 144.15 103.748 143.701 104.718H139.996C139.983 104.677 139.971 104.634 139.959 104.593C140.302 104.614 140.647 104.594 140.984 104.532C140.71 104.194 140.435 103.854 140.16 103.516C140.153 103.51 140.148 103.503 140.143 103.496C140.003 103.324 139.862 103.152 139.723 102.979L139.723 102.979C139.714 102.449 139.778 101.92 139.904 101.407Z" fill="#F2F2F2"/>
<defs>
<linearGradient id="paint0_linear_219_5050" x1="100.582" y1="0" x2="100.582" y2="119.866" gradientUnits="userSpaceOnUse">
<stop offset="0.0001" stop-color="#A4857B"/>
<stop offset="1" stop-color="#DAC3BE"/>
</linearGradient>
</defs>
</svg>
