<svg width="144" height="208" viewBox="0 0 144 208" fill="none" xmlns="http://www.w3.org/2000/svg">
<mask id="mask0_173_3385" style="mask-type:alpha" maskUnits="userSpaceOnUse" x="0" y="0" width="144" height="208">
<rect width="144" height="208" fill="#DEDEDE"/>
</mask>
<g mask="url(#mask0_173_3385)">
<rect width="144" height="208" fill="url(#paint0_linear_173_3385)"/>
<path d="M100.309 161.564C70.6988 149.143 43.91 149.615 18.6772 157.196C-20.2012 150.476 -46.8235 151.516 -63.9003 161.564V130.367H100.309V161.564Z" fill="#97B3B7"/>
<path d="M100.309 152.985C73.0293 140.75 45.7827 139.961 18.1254 152.985C-10.2024 144.912 -37.5873 144.996 -64.0581 152.985V58.1481C-35.9143 49.834 -8.53773 50.0338 18.1254 58.1481C46.2904 50.0618 73.7095 49.8053 100.309 58.1481V152.985Z" fill="#EDF3F4"/>
<path d="M-56.665 69.9172L-57.5826 67.5926C-57.223 67.4535 -48.6291 64.1651 -36.0168 62.4877C-24.3563 60.9366 -6.98366 60.5663 9.56243 67.6084L8.56641 69.9012C-7.42642 63.0947 -24.2854 63.4531 -35.6124 64.952C-47.9413 66.5839 -56.5792 69.884 -56.665 69.9172Z" fill="white"/>
<path d="M-56.665 78.6522L-57.5826 76.3276C-57.223 76.1885 -48.6291 72.9001 -36.0168 71.2227C-24.3563 69.6717 -6.98366 69.3014 9.56243 76.3434L8.56641 78.6362C-7.42642 71.8297 -24.2854 72.1878 -35.6124 73.687C-47.9413 75.3189 -56.5792 78.619 -56.665 78.6522Z" fill="white"/>
<path d="M-56.665 87.3871L-57.5826 85.0624C-57.223 84.9234 -48.6291 81.635 -36.0168 79.9576C-24.3563 78.4064 -6.98366 78.0361 9.56243 85.0783L8.56641 87.3711C-7.42642 80.5646 -24.2854 80.9227 -35.6124 82.4219C-47.9413 84.0537 -56.5792 87.3539 -56.665 87.3871Z" fill="white"/>
<path d="M-56.665 96.1221L-57.5826 93.7975C-57.223 93.6584 -48.6291 90.37 -36.0168 88.6926C-24.3563 87.1417 -6.98366 86.771 9.56243 93.8133L8.56641 96.1061C-7.42642 89.2996 -24.2854 89.6578 -35.6124 91.1569C-47.9413 92.7887 -56.5792 96.0889 -56.665 96.1221Z" fill="white"/>
<path d="M-56.665 104.857L-57.5826 102.532C-57.223 102.393 -48.6291 99.1049 -36.0168 97.4275C-24.3563 95.8764 -6.98366 95.5061 9.56243 102.548L8.56641 104.841C-7.42642 98.0344 -24.2854 98.3928 -35.6124 99.8919C-47.9413 101.524 -56.5792 104.824 -56.665 104.857Z" fill="white"/>
<path d="M-56.665 113.592L-57.5826 111.267C-57.223 111.128 -48.6291 107.84 -36.0168 106.162C-24.3563 104.612 -6.98366 104.241 9.56243 111.283L8.56641 113.576C-7.42642 106.769 -24.2854 107.128 -35.6124 108.627C-47.9413 110.259 -56.5792 113.559 -56.665 113.592Z" fill="white"/>
<path d="M25.5973 131.998L24.6797 129.673C25.0393 129.534 33.6332 126.246 46.2455 124.568C57.906 123.017 75.2787 122.647 91.8248 129.689L90.8287 131.982C74.8359 125.175 57.9769 125.534 46.6499 127.033C34.3211 128.665 25.6831 131.965 25.5973 131.998Z" fill="#3E8C97"/>
<path d="M24.8235 115.234V67.5254L25.7083 67.2519C48.1314 60.3191 70.4457 60.3204 92.0312 67.256L92.9026 67.5359V115.17L91.1968 114.533C68.7339 106.142 46.9894 106.137 26.5671 114.518L24.8235 115.234ZM58.095 105.734C68.6489 105.734 79.411 107.682 90.3812 111.576V69.3538C69.8584 62.9477 48.6584 62.9512 27.3449 69.364V111.518C37.138 107.699 47.5693 105.737 58.095 105.734Z" fill="white"/>
<path d="M90.4332 130.762L90.7635 122.822L102.093 100.526C102.412 99.8922 102.933 99.3796 103.576 99.0671C103.969 98.8729 104.397 98.7583 104.836 98.73C105.275 98.7016 105.714 98.7601 106.13 98.902C106.611 99.0663 107.048 99.3383 107.405 99.697C107.763 100.056 108.032 100.491 108.191 100.97C108.259 101.176 108.308 101.389 108.335 101.605C108.415 102.245 108.301 102.894 108.006 103.47L96.6612 125.796L90.4332 130.762Z" fill="#3E8C97"/>
<path d="M104.987 98.8796L92.6884 123.082L91.7507 122.615L103.645 99.2071C104.062 99.0006 104.521 98.8887 104.987 98.8796Z" fill="#3F3D56"/>
<path d="M108.179 101.624L96.3494 124.904L95.4117 124.437L107.684 100.285C107.836 100.513 107.956 100.76 108.042 101.018C108.107 101.216 108.153 101.418 108.179 101.624Z" fill="#3F3D56"/>
<path d="M107.001 99.547L94.5668 124.017L93.6292 123.55L106.079 99.0496C106.212 99.0945 106.341 99.1484 106.466 99.2109C106.655 99.3052 106.834 99.4178 107.001 99.547Z" fill="#3F3D56"/>
<path d="M91.8555 129.428L90.6042 130.425L90.7091 127.795C91.1387 127.943 91.6038 128.583 91.8555 129.428Z" fill="#3F3D56"/>
<path d="M130.691 152.813C130.52 153.108 130.292 153.367 130.02 153.576C129.749 153.784 129.438 153.937 129.106 154.027C128.436 154.207 127.722 154.117 127.119 153.776C126.516 153.435 126.075 152.871 125.893 152.208C125.71 151.545 125.801 150.837 126.146 150.241C126.152 150.231 126.157 150.221 126.163 150.211C126.237 150.089 126.319 149.973 126.41 149.864L124.208 134.33L124.142 133.865L123.695 130.695L123.629 130.238L123.873 130.249L128.139 130.442L129.283 130.493L129.426 133.385L130.238 149.643C130.662 150.044 130.937 150.575 131.019 151.15C131.101 151.725 130.985 152.311 130.691 152.813Z" fill="#FFB8B8"/>
<path d="M124.154 134.005L129.572 133.513C129.853 133.487 130.112 133.352 130.292 133.137C130.473 132.923 130.561 132.646 130.536 132.368L129.533 121.217C129.436 120.143 128.912 119.152 128.076 118.46C127.24 117.768 126.161 117.434 125.076 117.529C123.991 117.625 122.989 118.144 122.29 118.971C121.592 119.798 121.254 120.866 121.35 121.94C121.357 122.017 121.366 122.094 121.378 122.17L123.002 133.107C123.04 133.358 123.167 133.587 123.36 133.752C123.554 133.918 123.801 134.009 124.057 134.01C124.089 134.01 124.122 134.009 124.154 134.005Z" fill="#97B3B7"/>
<path d="M128.261 124.997C128.809 123.461 128.834 121.79 128.333 120.238C127.832 118.686 126.832 117.339 125.486 116.402C123.443 115.018 120.648 114.522 117.637 118.069C113.994 122.4 111.396 127.495 110.039 132.968L122.368 134.954C122.368 134.954 126.56 129.882 128.261 124.997Z" fill="#97B3B7"/>
<path d="M108.321 204.913H104.805L103.133 191.493H108.321L108.321 204.913Z" fill="#FFB8B8"/>
<path d="M98.0272 208.143H109.075V203.918H102.295C101.163 203.918 100.078 204.363 99.2774 205.156C98.4769 205.948 98.0272 207.023 98.0272 208.143Z" fill="#2F2E41"/>
<path d="M137.22 201.878L133.882 202.97L128.039 190.748L132.965 189.137L137.22 201.878Z" fill="#FFB8B8"/>
<path d="M128.47 208.143L138.96 204.711L137.62 200.7L131.183 202.806C130.109 203.158 129.219 203.917 128.71 204.918C128.201 205.919 128.115 207.079 128.47 208.143Z" fill="#2F2E41"/>
<path d="M120.522 112.883C124.411 112.883 127.564 109.763 127.564 105.913C127.564 102.064 124.411 98.9431 120.522 98.9431C116.633 98.9431 113.48 102.064 113.48 105.913C113.48 109.763 116.633 112.883 120.522 112.883Z" fill="#FFB8B8"/>
<path d="M114.356 201.177L117.62 179.852C117.655 179.625 117.769 179.416 117.942 179.262C118.114 179.108 118.336 179.019 118.568 179.009C118.801 178.999 119.029 179.069 119.215 179.207C119.401 179.346 119.533 179.543 119.587 179.767L124.559 200.09C124.637 200.401 124.83 200.672 125.1 200.85C125.37 201.028 125.697 201.099 126.017 201.05L139.729 198.869C139.911 198.84 140.085 198.773 140.238 198.672C140.392 198.572 140.521 198.439 140.619 198.285C140.717 198.13 140.78 197.957 140.804 197.776C140.828 197.595 140.813 197.412 140.76 197.237L122.88 138.891C122.829 138.725 122.823 138.549 122.862 138.38L123.458 135.826C123.523 135.549 123.493 135.259 123.372 135.001C123.251 134.743 123.046 134.533 122.79 134.403C120.356 133.174 114.189 130.617 109.535 133.417C109.384 133.509 109.254 133.629 109.151 133.772C109.049 133.915 108.977 134.077 108.939 134.248L94.9718 199.226C94.9338 199.403 94.9341 199.586 94.9727 199.762C95.0113 199.939 95.0873 200.105 95.1957 200.251C95.304 200.396 95.4424 200.517 95.6015 200.605C95.7606 200.694 95.9368 200.748 96.1186 200.764L112.965 202.257C113.003 202.261 113.041 202.263 113.08 202.263C113.388 202.262 113.686 202.152 113.92 201.953C114.154 201.754 114.308 201.479 114.355 201.177L114.356 201.177Z" fill="#2F2E41"/>
<path d="M125.191 100.989C124.66 100.673 124.189 100.267 123.799 99.791C123.606 99.5504 123.479 99.2647 123.431 98.9615C123.382 98.6584 123.413 98.3479 123.521 98.06C123.876 97.283 124.934 97.0383 125.753 97.302C126.572 97.5656 127.205 98.2021 127.804 98.8154C128.331 99.3546 128.874 99.9199 129.123 100.629C129.372 101.338 129.244 102.238 128.622 102.668C128.011 103.09 127.133 102.918 126.546 102.464C125.992 101.968 125.55 101.362 125.249 100.685L125.191 100.989Z" fill="#2F2E41"/>
<path d="M127.576 99.0027C127.615 97.0389 129.877 95.6305 131.83 95.9787C133.783 96.3269 135.285 97.9751 136.036 99.7931C137.624 103.634 136.432 108.017 134.902 111.882C133.372 115.748 131.479 119.669 131.702 123.814C131.853 126.054 132.613 128.212 133.9 130.06C135.188 131.908 136.956 133.378 139.018 134.314C136.813 135.303 134.178 134.281 132.326 132.739C128.212 129.315 126.624 123.219 128.553 118.254C129.504 115.804 131.18 113.709 132.488 111.427C133.797 109.145 134.757 106.456 134.081 103.918C133.405 101.381 130.53 99.3268 128.072 100.308L127.576 99.0027Z" fill="#2F2E41"/>
<path d="M120.099 109.006C120.713 107.979 121.332 106.631 120.21 105.734C119.966 105.547 119.687 105.411 119.389 105.333C119.091 105.255 118.781 105.237 118.476 105.28C117.211 105.431 115.833 105.493 114.608 105.038C114.149 104.881 113.726 104.635 113.365 104.314C113.004 103.993 112.711 103.603 112.505 103.167C111.875 101.685 112.665 99.8835 113.986 98.9465C114.795 98.394 115.75 98.0901 116.732 98.0729C117.714 98.0557 118.68 98.3259 119.508 98.8497C121.219 98.1014 123.296 98.4342 124.851 99.4644C126.406 100.495 127.47 102.144 128.048 103.906C128.581 105.422 128.673 107.055 128.313 108.621C128.024 109.71 127.473 110.713 126.709 111.547C125.945 112.381 124.989 113.02 123.922 113.411C123.506 113.573 123.055 113.624 122.613 113.56C122.171 113.495 121.754 113.316 121.404 113.042C120.834 112.536 120.397 111.902 120.13 111.193C119.896 110.416 119.771 109.555 120.099 109.006Z" fill="#2F2E41"/>
<path d="M99.2086 115.226C99.2438 115.379 99.2667 115.534 99.2771 115.691L111.593 122.724L114.587 121.018L117.778 125.153L112.775 128.683C112.371 128.968 111.884 129.116 111.388 129.104C110.892 129.092 110.413 128.921 110.023 128.617L97.3215 118.699C96.7481 118.91 96.1237 118.942 95.5313 118.792C94.9389 118.643 94.4065 118.318 94.0051 117.862C93.6037 117.405 93.3521 116.839 93.284 116.237C93.2159 115.636 93.3344 115.028 93.6237 114.495C93.9131 113.962 94.3596 113.529 94.9038 113.253C95.448 112.977 96.0642 112.872 96.6703 112.951C97.2764 113.03 97.8438 113.291 98.2969 113.697C98.75 114.103 99.0674 114.636 99.2069 115.226L99.2086 115.226Z" fill="#FFB8B8"/>
<path d="M112.006 123.057L115.986 128.163C116.1 128.308 116.243 128.428 116.407 128.513C116.571 128.598 116.752 128.648 116.937 128.658C117.122 128.668 117.307 128.638 117.479 128.571C117.652 128.504 117.807 128.401 117.936 128.269L122.442 123.637C122.821 123.36 123.141 123.011 123.384 122.611C123.627 122.211 123.787 121.767 123.856 121.305C123.925 120.844 123.901 120.373 123.786 119.921C123.671 119.468 123.467 119.042 123.186 118.668C122.904 118.293 122.551 117.978 122.146 117.739C121.741 117.5 121.292 117.342 120.826 117.275C120.359 117.208 119.884 117.233 119.427 117.348C118.97 117.463 118.54 117.666 118.163 117.946C118.124 117.975 118.086 118.004 118.048 118.034L112.396 121.162C112.234 121.252 112.094 121.375 111.985 121.523C111.875 121.671 111.799 121.841 111.762 122.021C111.725 122.201 111.728 122.386 111.769 122.565C111.811 122.744 111.892 122.912 112.005 123.057H112.006Z" fill="#97B3B7"/>
<path d="M18.4409 58.1481H17.8105V152.685H18.4409V58.1481Z" fill="#97B3B7"/>
</g>
<defs>
<linearGradient id="paint0_linear_173_3385" x1="72" y1="0" x2="72" y2="208" gradientUnits="userSpaceOnUse">
<stop stop-color="#C1DCE0"/>
<stop offset="1" stop-color="#EDF5F7"/>
</linearGradient>
</defs>
</svg>
