<svg width="200" height="120" viewBox="0 0 200 120" fill="none" xmlns="http://www.w3.org/2000/svg">
<rect width="200" height="120" fill="url(#paint0_linear_192_4596)"/>
<path d="M164.147 114.175C164.101 115.918 163.809 117.647 163.282 119.309C163.27 119.348 163.257 119.386 163.244 119.424H160.014C160.018 119.39 160.021 119.351 160.024 119.309C160.24 116.827 159.009 101.901 157.525 99.3177C157.655 99.5273 164.398 106.288 164.147 114.175Z" fill="#F1F1F1"/>
<path d="M163.905 119.309C163.878 119.348 163.85 119.386 163.821 119.424H161.398C161.416 119.391 161.437 119.353 161.462 119.309C161.862 118.585 163.047 116.419 164.147 114.175C165.329 111.762 166.414 109.258 166.322 108.352C166.351 108.557 167.169 114.787 163.905 119.309Z" fill="#F1F1F1"/>
<path d="M12.698 115.525C12.7326 116.82 12.949 118.104 13.3409 119.339C13.3496 119.367 13.3593 119.396 13.3686 119.424H15.7678C15.7652 119.398 15.7626 119.37 15.7601 119.339C15.6002 117.495 16.514 106.41 17.6167 104.491C17.5201 104.647 12.512 109.668 12.698 115.525Z" fill="#F1F1F1"/>
<path d="M12.8779 119.339C12.898 119.367 12.9188 119.396 12.9402 119.424H14.7401C14.7264 119.4 14.7106 119.371 14.6923 119.339C14.395 118.801 13.5149 117.193 12.6981 115.525C11.8205 113.734 11.0148 111.874 11.0826 111.201C11.0616 111.353 10.4541 115.98 12.8779 119.339Z" fill="#F1F1F1"/>
<path d="M129.906 90.9077C111.786 83.2104 95.3932 83.503 79.9521 88.2011C56.1607 84.0362 39.8694 84.6806 29.4194 90.9077V71.5746H129.906V90.9077Z" fill="#97B3B7"/>
<path d="M129.906 85.5911C113.213 78.0091 96.5392 77.5196 79.6145 85.5911C62.2794 80.588 45.5214 80.6404 29.3228 85.5911V26.8183C46.5452 21.6658 63.2981 21.7896 79.6145 26.8183C96.8499 21.807 113.629 21.6481 129.906 26.8183V85.5911Z" fill="#EDF3F4"/>
<path d="M33.8469 34.1119L33.2853 32.6713C33.5054 32.5851 38.7644 30.5472 46.4824 29.5077C53.618 28.5464 64.2491 28.3169 74.3743 32.6811L73.7648 34.102C63.9781 29.8838 53.6614 30.106 46.7299 31.0349C39.1853 32.0462 33.8994 34.0914 33.8469 34.1119Z" fill="white"/>
<path d="M33.8469 39.5252L33.2853 38.0846C33.5054 37.9984 38.7644 35.9605 46.4824 34.9209C53.618 33.9597 64.2491 33.7302 74.3743 38.0944L73.7648 39.5153C63.9781 35.2971 53.6614 35.519 46.7299 36.4481C39.1853 37.4594 33.8994 39.5046 33.8469 39.5252Z" fill="white"/>
<path d="M33.8469 44.9386L33.2853 43.498C33.5054 43.4118 38.7644 41.3739 46.4824 40.3343C53.618 39.373 64.2491 39.1435 74.3743 43.5078L73.7648 44.9287C63.9781 40.7105 53.6614 40.9324 46.7299 41.8615C39.1853 42.8728 33.8994 44.918 33.8469 44.9386Z" fill="white"/>
<path d="M33.8469 50.3519L33.2853 48.9112C33.5054 48.825 38.7644 46.7871 46.4824 45.7476C53.618 44.7865 64.2491 44.5567 74.3743 48.921L73.7648 50.3419C63.9781 46.1238 53.6614 46.3458 46.7299 47.2748C39.1853 48.2861 33.8994 50.3313 33.8469 50.3519Z" fill="white"/>
<path d="M33.8469 55.7651L33.2853 54.3245C33.5054 54.2383 38.7644 52.2004 46.4824 51.1609C53.618 50.1996 64.2491 49.9701 74.3743 54.3343L73.7648 55.7552C63.9781 51.5369 53.6614 51.7591 46.7299 52.6881C39.1853 53.6994 33.8994 55.7446 33.8469 55.7651Z" fill="white"/>
<path d="M33.8469 61.1784L33.2853 59.7377C33.5054 59.6515 38.7644 57.6136 46.4824 56.5741C53.618 55.613 64.2491 55.3833 74.3743 59.7475L73.7648 61.1685C63.9781 56.9502 53.6614 57.1724 46.7299 58.1013C39.1853 59.1126 33.8994 61.1578 33.8469 61.1784Z" fill="white"/>
<path d="M84.1868 72.585L83.6252 71.1444C83.8453 71.0582 89.1043 69.0203 96.8223 67.9807C103.958 67.0196 114.589 66.7899 124.714 71.1542L124.105 72.5751C114.318 68.3568 104.001 68.579 97.0698 69.5079C89.5252 70.5192 84.2393 72.5644 84.1868 72.585Z" fill="#3E8C97"/>
<path d="M83.7131 62.1959V32.6298L84.2546 32.4602C97.9762 28.1638 111.631 28.1646 124.84 32.4628L125.374 32.6363V62.1565L124.33 61.7616C110.584 56.5612 97.2774 56.5581 84.7802 61.7524L83.7131 62.1959ZM104.073 56.3089C110.532 56.3089 117.118 57.5156 123.831 59.9291V33.7628C111.272 29.7928 98.2988 29.795 85.2561 33.7692V59.8932C91.2489 57.5265 97.6323 56.3107 104.073 56.3089Z" fill="white"/>
<path d="M123.863 71.8188L124.065 66.8983L130.998 53.081C131.193 52.6882 131.512 52.3706 131.905 52.1769C132.146 52.0565 132.408 51.9855 132.676 51.9679C132.945 51.9504 133.214 51.9866 133.468 52.0746C133.763 52.1764 134.03 52.345 134.248 52.5672C134.467 52.7895 134.632 53.0594 134.73 53.3559C134.771 53.4839 134.801 53.6157 134.817 53.7494C134.867 54.1462 134.797 54.5486 134.616 54.9053L127.674 68.7413L123.863 71.8188Z" fill="#3E8C97"/>
<path d="M132.769 52.0608L125.243 67.0595L124.669 66.7702L131.948 52.2638C132.203 52.1358 132.483 52.0664 132.769 52.0608Z" fill="#3F3D56"/>
<path d="M134.722 53.7616L127.483 68.1886L126.909 67.8993L134.419 52.9318C134.512 53.073 134.585 53.2258 134.638 53.3862C134.678 53.5083 134.706 53.6341 134.722 53.7616Z" fill="#3F3D56"/>
<path d="M134.001 52.4743L126.392 67.6388L125.818 67.3495L133.437 52.166C133.518 52.1939 133.597 52.2273 133.674 52.266C133.79 52.3245 133.899 52.3942 134.001 52.4743Z" fill="#3F3D56"/>
<path d="M124.733 70.9921L123.967 71.6102L124.032 69.9806C124.294 70.072 124.579 70.4687 124.733 70.9921Z" fill="#3F3D56"/>
<path d="M49.2134 88.7529L48.2968 85.9659L49.2733 76.8018C49.3001 76.5416 49.4114 76.2974 49.5901 76.1068C49.6992 75.9891 49.8306 75.8943 49.9766 75.8281C50.1227 75.7619 50.2804 75.7255 50.4406 75.7212C50.6262 75.716 50.8104 75.7539 50.9789 75.8319C51.1474 75.9099 51.2957 76.0259 51.4122 76.1707C51.4623 76.2333 51.5063 76.3007 51.5435 76.3718C51.654 76.5827 51.6991 76.8219 51.6731 77.0587L50.6953 86.2352L49.2134 88.7529Z" fill="#3E8C97"/>
<path d="M50.0474 75.8604L48.9874 85.808L48.6069 85.7673L49.6321 76.1461C49.7476 76.0211 49.8895 75.9234 50.0474 75.8604Z" fill="#3F3D56"/>
<path d="M51.4925 76.3987L50.4729 85.9672L50.0923 85.9264L51.1501 75.9994C51.2313 76.0587 51.3043 76.1285 51.3673 76.2068C51.4151 76.2666 51.457 76.3308 51.4925 76.3987Z" fill="#3F3D56"/>
<path d="M50.8215 75.832L49.7498 85.8897L49.3693 85.8489L50.4423 75.7787C50.4934 75.7772 50.5446 75.7792 50.5954 75.7847C50.6722 75.793 50.7479 75.8088 50.8215 75.832Z" fill="#3F3D56"/>
<path d="M49.5259 88.1087L49.2282 88.6144L48.923 87.692C49.0888 87.6877 49.3305 87.8491 49.5259 88.1087Z" fill="#3F3D56"/>
<path d="M148.498 85.4846C148.394 85.6677 148.254 85.8283 148.088 85.9574C147.921 86.0865 147.731 86.1814 147.528 86.2369C147.119 86.3488 146.681 86.293 146.312 86.0816C145.943 85.8702 145.673 85.5206 145.562 85.1097C145.45 84.6989 145.506 84.2603 145.717 83.8906C145.72 83.8844 145.724 83.8782 145.728 83.8719C145.772 83.7967 145.823 83.725 145.878 83.6574L144.531 74.0303L144.491 73.7419L144.217 71.7774L144.177 71.4943L144.326 71.5013L146.936 71.6209L147.636 71.6525L147.724 73.4446L148.221 83.5202C148.48 83.769 148.649 84.098 148.699 84.4543C148.749 84.8106 148.678 85.1735 148.498 85.4846Z" fill="#FFB8B8"/>
<path d="M144.498 73.8291L147.813 73.5243C147.985 73.508 148.144 73.4242 148.254 73.2912C148.365 73.1582 148.419 72.9868 148.404 72.8144L147.79 65.9041C147.73 65.2385 147.41 64.6238 146.898 64.1952C146.387 63.7666 145.726 63.5592 145.062 63.6186C144.398 63.6781 143.785 63.9994 143.358 64.5121C142.93 65.0247 142.723 65.6866 142.782 66.3522C142.787 66.3998 142.792 66.4472 142.799 66.4945L143.793 73.2725C143.816 73.4278 143.894 73.5697 144.012 73.6724C144.131 73.7751 144.282 73.8317 144.439 73.8319C144.458 73.8323 144.478 73.8314 144.498 73.8291Z" fill="#97B3B7"/>
<path d="M147.011 68.2464C147.346 67.2944 147.362 66.2586 147.055 65.2969C146.749 64.3352 146.137 63.5004 145.313 62.9197C144.063 62.0623 142.352 61.7545 140.51 63.9529C138.28 66.6367 136.69 69.7943 135.86 73.186L143.405 74.4171C143.405 74.4171 145.97 71.2735 147.011 68.2464Z" fill="#97B3B7"/>
<path d="M134.809 117.772H132.658L131.634 109.456H134.809L134.809 117.772Z" fill="#FFB8B8"/>
<path d="M128.51 119.774H135.27V117.156H131.122C130.429 117.156 129.765 117.432 129.275 117.923C128.785 118.414 128.51 119.08 128.51 119.774Z" fill="#2F2E41"/>
<path d="M152.493 115.892L150.451 116.568L146.875 108.994L149.89 107.995L152.493 115.892Z" fill="#FFB8B8"/>
<path d="M147.139 119.774L153.558 117.648L152.738 115.162L148.8 116.467C148.142 116.685 147.597 117.155 147.286 117.776C146.975 118.396 146.922 119.115 147.139 119.774Z" fill="#2F2E41"/>
<path d="M142.275 60.7391C144.655 60.7391 146.584 58.8052 146.584 56.4196C146.584 54.034 144.655 52.1001 142.275 52.1001C139.895 52.1001 137.966 54.034 137.966 56.4196C137.966 58.8052 139.895 60.7391 142.275 60.7391Z" fill="#FFB8B8"/>
<path d="M138.502 115.457L140.499 102.242C140.521 102.101 140.59 101.971 140.696 101.876C140.802 101.781 140.938 101.725 141.08 101.719C141.222 101.713 141.362 101.756 141.476 101.842C141.589 101.928 141.67 102.05 141.703 102.189L144.745 114.783C144.793 114.976 144.911 115.144 145.077 115.254C145.242 115.364 145.442 115.409 145.638 115.379L154.029 114.027C154.14 114.009 154.247 113.967 154.34 113.905C154.434 113.842 154.514 113.761 154.574 113.665C154.633 113.569 154.672 113.461 154.687 113.349C154.702 113.238 154.692 113.124 154.66 113.016L143.718 76.8568C143.687 76.7541 143.683 76.6449 143.707 76.5403L144.072 74.9575C144.112 74.7859 144.093 74.6058 144.019 74.446C143.945 74.2862 143.82 74.1558 143.663 74.0757C142.173 73.3136 138.4 71.7294 135.552 73.4647C135.46 73.5212 135.38 73.596 135.317 73.6845C135.254 73.773 135.21 73.8733 135.187 73.9795L126.64 114.248C126.617 114.358 126.617 114.471 126.641 114.58C126.664 114.69 126.711 114.793 126.777 114.883C126.843 114.973 126.928 115.048 127.025 115.103C127.123 115.158 127.231 115.191 127.342 115.201L137.651 116.127C137.674 116.129 137.698 116.13 137.721 116.13C137.91 116.13 138.092 116.062 138.235 115.938C138.378 115.815 138.473 115.644 138.501 115.457L138.502 115.457Z" fill="#2F2E41"/>
<path d="M145.132 53.3678C144.808 53.1719 144.519 52.9208 144.281 52.6256C144.163 52.4765 144.085 52.2995 144.055 52.1116C144.026 51.9237 144.044 51.7312 144.11 51.5528C144.328 51.0713 144.975 50.9197 145.476 51.0831C145.978 51.2465 146.365 51.6409 146.731 52.021C147.054 52.3551 147.386 52.7055 147.539 53.145C147.691 53.5845 147.613 54.1418 147.232 54.4086C146.859 54.6703 146.321 54.5632 145.962 54.2821C145.623 53.9748 145.352 53.5991 145.168 53.1794L145.132 53.3678Z" fill="#2F2E41"/>
<path d="M146.592 52.137C146.616 50.92 148 50.0472 149.195 50.2629C150.391 50.4787 151.309 51.5002 151.769 52.6268C152.741 55.0072 152.011 57.7233 151.075 60.1188C150.139 62.5144 148.98 64.9445 149.117 67.5129C149.209 68.9011 149.674 70.2385 150.462 71.3839C151.25 72.5292 152.332 73.44 153.594 74.0201C152.245 74.633 150.632 73.9998 149.499 73.0443C146.981 70.9225 146.01 67.1446 147.19 64.0673C147.772 62.5493 148.797 61.2507 149.598 59.8366C150.399 58.4224 150.986 56.7557 150.573 55.1832C150.159 53.6108 148.4 52.3379 146.896 52.9462L146.592 52.137Z" fill="#2F2E41"/>
<path d="M142.017 58.3364C142.392 57.7001 142.771 56.8647 142.085 56.3084C141.935 56.193 141.764 56.1086 141.582 56.0603C141.4 56.012 141.21 56.0006 141.023 56.027C140.249 56.1206 139.406 56.1591 138.657 55.8772C138.376 55.7802 138.117 55.6277 137.896 55.4285C137.675 55.2294 137.496 54.9878 137.37 54.718C136.984 53.7993 137.467 52.6829 138.276 52.1021C138.771 51.7598 139.355 51.5715 139.956 51.5608C140.557 51.5501 141.148 51.7176 141.655 52.0422C142.702 51.5784 143.973 51.7847 144.925 52.4231C145.876 53.0615 146.527 54.0838 146.881 55.1755C147.207 56.1151 147.263 57.1275 147.043 58.0975C146.866 58.7723 146.529 59.3944 146.062 59.9112C145.594 60.4279 145.009 60.824 144.356 61.066C144.102 61.1666 143.825 61.1984 143.555 61.1582C143.284 61.1181 143.029 61.0075 142.815 60.8374C142.467 60.5242 142.199 60.1311 142.035 59.6918C141.892 59.2104 141.816 58.6763 142.017 58.3364Z" fill="#2F2E41"/>
<path d="M129.233 62.1907C129.254 62.2856 129.268 62.382 129.275 62.4791L136.812 66.8375L138.644 65.7804L140.596 68.3431L137.535 70.5306C137.287 70.7074 136.99 70.7989 136.686 70.7915C136.382 70.7841 136.089 70.6781 135.851 70.4894L128.078 64.3435C127.727 64.4738 127.345 64.4939 126.983 64.4012C126.62 64.3084 126.294 64.1072 126.049 63.8244C125.803 63.5415 125.649 63.1904 125.607 62.8177C125.566 62.445 125.638 62.0684 125.815 61.738C125.992 61.4076 126.265 61.1391 126.599 60.9682C126.932 60.7973 127.309 60.732 127.68 60.7812C128.05 60.8303 128.398 60.9915 128.675 61.2433C128.952 61.4951 129.146 61.8256 129.232 62.1907L129.233 62.1907Z" fill="#FFB8B8"/>
<path d="M137.064 67.044L139.5 70.2085C139.569 70.2985 139.657 70.3724 139.757 70.4253C139.858 70.4781 139.968 70.5087 140.081 70.5149C140.195 70.5212 140.308 70.5029 140.413 70.4613C140.519 70.4198 140.614 70.3559 140.693 70.2741L143.45 67.4038C143.682 67.2318 143.878 67.0156 144.027 66.7676C144.175 66.5196 144.273 66.2446 144.316 65.9585C144.358 65.6724 144.343 65.3808 144.273 65.1003C144.203 64.8198 144.078 64.556 143.905 64.324C143.733 64.092 143.517 63.8963 143.269 63.7482C143.021 63.6001 142.747 63.5025 142.461 63.4609C142.176 63.4194 141.885 63.4347 141.605 63.506C141.325 63.5774 141.063 63.7033 140.832 63.8766C140.808 63.8944 140.784 63.9127 140.761 63.9314L137.303 65.8699C137.204 65.9254 137.118 66.0017 137.051 66.0935C136.984 66.1853 136.938 66.2905 136.915 66.4019C136.892 66.5134 136.894 66.6284 136.919 66.7392C136.945 66.85 136.994 66.9539 137.063 67.044H137.064Z" fill="#97B3B7"/>
<path d="M43.9821 117.502L46.3203 117.502L47.4328 108.462L43.9817 108.462L43.9821 117.502Z" fill="#A0616A"/>
<path d="M43.386 116.737L47.9909 116.737H47.9911C48.7694 116.737 49.5158 117.047 50.0661 117.598C50.6165 118.15 50.9257 118.898 50.9257 119.678V119.774L43.3862 119.774L43.386 116.737Z" fill="#2F2E41"/>
<path d="M25.7758 116.488L28.0877 116.838L30.5359 108.066L27.5049 107.549L25.7758 116.488Z" fill="#A0616A"/>
<path d="M25.3 115.642L29.8532 116.331C30.6227 116.448 31.3147 116.866 31.7766 117.494C32.2385 118.122 32.4326 118.908 32.3163 119.68L32.3021 119.774L24.8472 118.645L25.3 115.642Z" fill="#2F2E41"/>
<path d="M32.9853 72.6998L35.5815 73.3817L35.4088 77.6009L35.3874 85.2828C35.6432 85.4601 35.8392 85.7111 35.9496 86.0025C36.06 86.294 36.0795 86.6121 36.0055 86.9149C35.9316 87.2177 35.7677 87.4909 35.5355 87.6983C35.3033 87.9057 35.0138 88.0375 34.7052 88.0764C34.3966 88.1153 34.0836 88.0593 33.8074 87.9159C33.5312 87.7726 33.305 87.5485 33.1586 87.2735C33.0123 86.9985 32.9526 86.6853 32.9877 86.3756C33.0227 86.0658 33.1507 85.774 33.3547 85.5388L32.5569 77.8288L32.9853 72.6998Z" fill="#A0616A"/>
<path d="M32.5333 67.8671C32.5477 67.4593 32.6788 67.0643 32.9111 66.7293C33.1435 66.3943 33.4671 66.1334 33.8434 65.9779C34.1957 65.8199 34.5863 65.7685 34.9673 65.8299C35.3483 65.8913 35.7032 66.0629 35.9882 66.3237C36.1931 66.5072 36.3556 66.7333 36.4644 66.9862C36.5731 67.2391 36.6255 67.5128 36.618 67.7881C36.6248 70.2598 36.0681 73.8625 36.0625 73.8986L36.0536 73.9559L32.2588 75.2368L32.5333 67.8671Z" fill="#97B3B7"/>
<path d="M39.3184 74.8835L45.1227 73.3774L47.8057 82.435L47.9011 116.178L43.4626 116.15L41.6072 88.8395L29.7822 114.075L25.014 113.502L35.4086 86.4498C35.4086 86.4498 34.8364 81.6703 36.6483 79.2806L36.2668 76.7952L39.3184 74.8835Z" fill="#2F2E41"/>
<path d="M35.4048 77.1369C35.3237 77.038 35.2647 76.9228 35.232 76.7991C35.1993 76.6753 35.1935 76.546 35.2151 76.4198L32.5676 68.4582C32.444 68.0861 32.4308 67.6859 32.5298 67.3064C32.6287 66.9269 32.8354 66.5843 33.1249 66.3204L34.2742 65.2732L35.0531 62.1503L39.5297 63.2471L39.1608 64.726L41.1868 64.3569L45.4541 73.8837L36.5344 77.4575L36.0951 77.4644C35.963 77.4646 35.8325 77.4353 35.7131 77.3787C35.5937 77.322 35.4884 77.2394 35.4048 77.1369Z" fill="#97B3B7"/>
<path d="M41.6183 70.4149L44.1761 69.6001L46.2801 73.2585L50.3585 79.7623C50.6693 79.7751 50.9688 79.8822 51.2175 80.0694C51.4662 80.2565 51.6524 80.515 51.7513 80.8105C51.8503 81.106 51.8575 81.4247 51.7718 81.7244C51.6862 82.0241 51.5118 82.2907 51.2717 82.4888C51.0317 82.687 50.7372 82.8075 50.4274 82.8343C50.1175 82.8611 49.8069 82.793 49.5365 82.6389C49.2661 82.4849 49.0487 82.2522 48.9132 81.9717C48.7776 81.6911 48.7301 81.3759 48.7772 81.0677L43.9914 74.9791L41.6183 70.4149Z" fill="#A0616A"/>
<path d="M38.659 66.5723C38.4537 66.2201 38.3539 65.816 38.3716 65.4084C38.3893 65.0008 38.5238 64.6069 38.7589 64.2739C38.9724 63.9517 39.2751 63.6991 39.6299 63.5468C39.9846 63.3946 40.3759 63.3495 40.7559 63.4169C41.0269 63.4623 41.2848 63.5663 41.5116 63.7218C41.7384 63.8773 41.9286 64.0805 42.069 64.3172C43.3928 66.4024 44.8436 69.7456 44.8581 69.7791L44.8811 69.8323L42.357 72.9481L38.659 66.5723Z" fill="#97B3B7"/>
<path d="M38.3653 61.5691C40.3297 61.5691 41.9222 59.9729 41.9222 58.0039C41.9222 56.0348 40.3297 54.4386 38.3653 54.4386C36.401 54.4386 34.8085 56.0348 34.8085 58.0039C34.8085 59.9729 36.401 61.5691 38.3653 61.5691Z" fill="#A0616A"/>
<path d="M32.0794 56.5C33.9716 56.5 35.5056 54.9624 35.5056 53.0657C35.5056 51.169 33.9716 49.6315 32.0794 49.6315C30.1872 49.6315 28.6533 51.169 28.6533 53.0657C28.6533 54.9624 30.1872 56.5 32.0794 56.5Z" fill="#2F2E41"/>
<path d="M29.1244 55.9095C29.5679 56.2308 30.0816 56.4409 30.6227 56.5224C31.1638 56.6038 31.7165 56.5542 32.2345 56.3776C32.7525 56.2011 33.2208 55.9027 33.6002 55.5076C33.9796 55.1124 34.2591 54.6319 34.4153 54.1062C34.3562 54.5773 34.2003 55.031 33.9575 55.4386C33.7146 55.8462 33.3901 56.1989 33.0044 56.4745C32.6187 56.75 32.1803 56.9425 31.7166 57.0396C31.253 57.1367 30.7743 57.1364 30.3108 57.0387C29.8473 56.9411 29.4091 56.7481 29.0237 56.4721C28.6383 56.1961 28.3143 55.843 28.0719 55.4351C27.8296 55.0272 27.6742 54.5733 27.6157 54.1022C27.5571 53.6311 27.5967 53.1529 27.7318 52.6979C27.6551 53.3092 27.7439 53.93 27.9889 54.4951C28.2339 55.0601 28.6261 55.5487 29.1244 55.9095Z" fill="#2F2E41"/>
<path d="M42.6454 55.9134C42.0473 54.84 41.8185 54.3917 41.0473 53.739C40.3653 53.1618 39.5265 52.9923 38.8499 53.5392C38.0495 53.1925 37.1588 53.1139 36.3103 53.3151C35.4618 53.5162 34.7006 53.9863 34.1399 54.6556C33.5791 55.3248 33.2487 56.1576 33.1977 57.0301C33.1467 57.9026 33.3779 58.7683 33.8568 59.4986C34.3357 60.229 35.0369 60.785 35.8562 61.084C36.6755 61.3831 37.5692 61.4093 38.4045 61.1587C39.2398 60.9081 39.9722 60.3941 40.4929 59.6931C41.0136 58.992 41.2947 58.1413 41.2947 57.2673C41.2941 57.1139 41.2849 56.9605 41.2671 56.8081C41.8552 56.7253 42.0573 55.9962 42.6454 55.9134Z" fill="#2F2E41"/>
<path d="M79.8076 26.8184H79.4218V85.4052H79.8076V26.8184Z" fill="#97B3B7"/>
<defs>
<linearGradient id="paint0_linear_192_4596" x1="100" y1="0" x2="100" y2="120" gradientUnits="userSpaceOnUse">
<stop offset="0.0001" stop-color="#C1DCE0"/>
<stop offset="1" stop-color="#EDF3F4"/>
</linearGradient>
</defs>
</svg>
