<svg width="300" height="181" viewBox="0 0 300 181" fill="none" xmlns="http://www.w3.org/2000/svg">
<path d="M0 0H300V180.645H0V0Z" fill="url(#paint0_linear_171_3269)"/>
<path d="M53.3106 154.761C62.9655 172.344 83.4565 179.892 83.4565 179.892C83.4565 179.892 88.2939 158.932 78.6391 141.349C68.9843 123.765 48.4932 116.217 48.4932 116.217C48.4932 116.217 43.6558 137.177 53.3106 154.761Z" fill="#2F2E41"/>
<path d="M59.9466 148.976C77.3776 159.274 84.0908 179.73 84.0908 179.73C84.0908 179.73 62.5429 183.488 45.1119 173.19C27.681 162.891 20.9678 142.436 20.9678 142.436C20.9678 142.436 42.5157 138.677 59.9466 148.976Z" fill="#FA8181"/>
<path d="M190.756 109.706H62.448V112.406H190.756V109.706Z" fill="#3F3D56"/>
<path d="M190.756 123.203H62.448V125.903H190.756V123.203Z" fill="#3F3D56"/>
<path d="M190.756 136.026H62.448V140.075H190.756V136.026Z" fill="#3F3D56"/>
<path d="M82.5046 101.504L82.3104 179.698L85.1617 179.704L85.3558 101.511L82.5046 101.504Z" fill="#3F3D56"/>
<path d="M166.617 101.705L166.423 179.899L169.274 179.906L169.469 101.712L166.617 101.705Z" fill="#3F3D56"/>
<path d="M276.168 91.5441C272.325 95.3514 263.048 98.3686 259.171 94.5946C255.294 90.8207 258.285 81.6849 262.128 77.8776C263.973 76.0493 266.483 75.0158 269.104 75.0044C271.726 74.9931 274.244 76.0049 276.106 77.8171C277.968 79.6294 279.02 82.0938 279.032 84.6681C279.043 87.2424 278.013 89.7158 276.168 91.5441Z" fill="#FA8181"/>
<path d="M259.177 95.9177C259.12 95.5869 258.959 95.2821 258.716 95.0459C258.473 94.8097 258.162 94.6539 257.824 94.6005L259.166 93.2715L260.519 94.5888L259.177 95.9177Z" fill="#FA8181"/>
<path d="M259.845 95.3592C259.507 95.2551 259.198 95.0735 258.945 94.8293C258.693 94.5851 258.503 94.2854 258.391 93.9548L258.662 93.8677C258.76 94.1559 258.926 94.4172 259.146 94.63C259.367 94.8428 259.636 95.0011 259.931 95.0917L259.845 95.3592Z" fill="#2F2E41"/>
<path d="M230.421 123.205L230.218 123.007L258.812 94.817L259.015 95.0145L230.421 123.205Z" fill="#2F2E41"/>
<path opacity="0.4" d="M276.48 86.0849C277.453 85.1216 277.578 83.6957 276.761 82.9C275.943 82.1043 274.493 82.2401 273.52 83.2034C272.548 84.1667 272.422 85.5927 273.24 86.3884C274.057 87.1841 275.508 87.0482 276.48 86.0849Z" fill="white"/>
<path d="M263.626 81.1613C261.058 85.8917 253.054 91.3971 248.237 88.8751C243.42 86.3531 243.613 76.7587 246.182 72.0282C247.415 69.7566 249.517 68.0591 252.024 67.3092C254.532 66.5593 257.241 66.8184 259.554 68.0295C261.867 69.2406 263.596 71.3045 264.359 73.7672C265.123 76.2299 264.859 78.8896 263.626 81.1613Z" fill="#FA8181"/>
<path d="M248.629 90.1408C248.478 89.8401 248.234 89.5936 247.932 89.4358C247.631 89.2779 247.287 89.2166 246.948 89.2605L247.844 87.6094L249.526 88.4897L248.629 90.1408Z" fill="#FA8181"/>
<path d="M249.106 89.4176C248.751 89.4133 248.403 89.3262 248.089 89.1636C247.775 89.001 247.506 88.7674 247.302 88.4823L247.537 88.3223C247.714 88.5709 247.95 88.7744 248.223 88.9161C248.497 89.0578 248.8 89.1335 249.11 89.1371L249.106 89.4176Z" fill="#2F2E41"/>
<path d="M229.061 124.386L228.809 124.254L247.957 89.1895L248.209 89.3213L229.061 124.386Z" fill="#2F2E41"/>
<path opacity="0.4" d="M262.329 75.8437C262.979 74.6469 262.682 73.2456 261.667 72.7138C260.651 72.1821 259.301 72.7212 258.651 73.9181C258.001 75.115 258.298 76.5163 259.314 77.048C260.329 77.5798 261.679 77.0406 262.329 75.8437Z" fill="white"/>
<path d="M257.318 107.531C253.475 111.338 244.199 114.355 240.322 110.581C236.445 106.807 239.435 97.6714 243.278 93.8641C244.192 92.9588 245.278 92.2391 246.475 91.7462C247.672 91.2532 248.956 90.9966 250.254 90.9909C251.553 90.9853 252.839 91.2308 254.04 91.7134C255.242 92.196 256.335 92.9063 257.256 93.8037C258.178 94.701 258.911 95.7679 259.413 96.9434C259.915 98.1189 260.177 99.38 260.182 100.655C260.188 101.929 259.938 103.193 259.447 104.372C258.955 105.552 258.232 106.625 257.318 107.531Z" fill="#FA8181"/>
<path d="M240.328 111.904C240.27 111.573 240.109 111.269 239.866 111.032C239.624 110.796 239.312 110.64 238.974 110.587L240.316 109.258L241.669 110.575L240.328 111.904Z" fill="#FA8181"/>
<path d="M240.995 111.346C240.657 111.242 240.348 111.06 240.096 110.816C239.843 110.572 239.653 110.272 239.541 109.941L239.813 109.854C239.91 110.142 240.076 110.404 240.297 110.617C240.517 110.829 240.786 110.988 241.081 111.078L240.995 111.346Z" fill="#2F2E41"/>
<path d="M239.964 110.805L227.218 123.426L227.421 123.624L240.167 111.003L239.964 110.805Z" fill="#2F2E41"/>
<path opacity="0.4" d="M257.63 102.071C258.603 101.108 258.728 99.6823 257.911 98.8866C257.093 98.0909 255.643 98.2267 254.67 99.19C253.698 100.153 253.572 101.579 254.39 102.375C255.207 103.171 256.658 103.035 257.63 102.071Z" fill="white"/>
<path d="M217.129 66.4792C214.223 61.657 208.473 61.4323 208.473 61.4323C208.473 61.4323 202.87 60.7287 199.276 68.0729C195.926 74.9184 191.303 81.5278 198.532 83.1303L199.838 79.1393L200.647 83.4274C201.676 83.5001 202.708 83.5175 203.74 83.4794C211.481 83.2339 218.854 83.5512 218.617 80.8231C218.301 77.1965 219.925 71.1191 217.129 66.4792Z" fill="#2F2E41"/>
<path d="M210.468 172.221C210.217 173.32 209.769 174.39 209.745 175.517C209.721 176.643 210.275 177.898 211.372 178.226C211.897 178.343 212.441 178.348 212.968 178.24C213.549 178.163 214.166 178.07 214.607 177.691C215.227 177.159 215.298 176.253 215.304 175.445C215.332 171.426 214.834 167.423 214.337 163.434C214.33 163.372 211.672 163.311 211.405 163.431C210.631 163.781 210.7 164.638 210.69 165.367C210.658 167.651 210.982 169.966 210.468 172.221Z" fill="#2F2E41"/>
<path d="M192.44 172.221C192.69 173.32 193.138 174.39 193.162 175.517C193.186 176.643 192.632 177.898 191.535 178.226C191.01 178.343 190.466 178.348 189.94 178.24C189.359 178.163 188.741 178.07 188.3 177.691C187.681 177.159 187.609 176.253 187.604 175.445C187.576 171.426 188.073 167.423 188.57 163.434C188.578 163.372 191.235 163.311 191.502 163.431C192.277 163.781 192.207 164.638 192.217 165.367C192.249 167.651 191.926 169.966 192.44 172.221Z" fill="#2F2E41"/>
<path d="M201.336 110.467C202.628 111.073 204.106 111.152 205.538 111.136C208.71 111.101 211.864 110.655 214.917 109.811C215.503 109.675 216.064 109.452 216.581 109.151C216.711 109.082 216.814 108.973 216.873 108.84C216.899 108.732 216.9 108.621 216.875 108.513L216.38 105.279C216.385 105.217 216.375 105.155 216.35 105.098C216.326 105.041 216.288 104.99 216.239 104.951C216.191 104.911 216.133 104.883 216.072 104.87C216.01 104.856 215.946 104.858 215.885 104.873C213.196 104.885 210.509 105.04 207.836 105.337C206.478 105.487 205.125 105.675 203.777 105.898C203.063 106.017 200.99 106.04 200.629 106.788C200.414 107.234 200.848 108.018 200.958 108.452C201.019 108.692 201.188 110.398 201.336 110.467Z" fill="#FFDDD6"/>
<path d="M207.368 109.667C205.098 109.584 202.856 109.139 200.731 108.348C200.638 108.313 200.517 108.284 200.452 108.359C200.426 108.396 200.411 108.44 200.41 108.485L199.864 112.532C199.298 116.73 197.806 120.879 196.831 125.004C196.233 127.536 195.634 130.067 195.009 132.593C194.372 135.165 193.706 137.733 192.865 140.248C190.559 147.129 186.969 153.527 182.278 159.117C181.736 159.762 181.145 160.505 181.257 161.334C181.401 162.408 182.604 162.968 183.641 163.337C182.681 163.753 182.741 165.24 183.507 165.944C184.273 166.648 185.4 166.78 186.445 166.876L190.018 167.208C190.933 167.293 191.895 167.371 192.735 167.007C193.278 166.771 193.728 166.368 194.255 166.1C196.119 165.152 198.342 166.077 200.323 166.755C203.089 167.699 206.004 168.147 208.931 168.077C210.154 168.047 211.581 167.798 212.139 166.729C212.354 166.316 212.401 165.838 212.582 165.41C212.718 165.125 212.91 164.87 213.148 164.658C213.385 164.447 213.662 164.284 213.964 164.179C214.266 164.073 214.586 164.028 214.905 164.045C215.225 164.062 215.538 164.141 215.827 164.278C216.839 164.813 217.326 166.005 218.286 166.626C219.057 167.126 220.028 167.193 220.95 167.245L226.198 167.542C226.403 167.182 226.499 166.772 226.477 166.36C226.454 165.948 226.313 165.551 226.069 165.215C227.083 165.234 228.081 164.962 228.94 164.432C229.8 163.903 230.483 163.139 230.908 162.235C231.332 161.33 231.479 160.323 231.33 159.338C231.181 158.353 230.743 157.431 230.069 156.686C229.326 155.865 228.78 154.89 228.473 153.833C226.766 147.554 226.622 140.953 225.05 134.641C224.735 133.376 224.363 132.123 224.163 130.836C223.911 129.208 223.938 127.553 223.874 125.908C223.722 122.035 223.061 118.197 221.908 114.491C221.129 111.989 220.101 109.511 218.396 107.501C217.978 106.955 217.436 106.512 216.814 106.206C216.178 105.934 215.386 105.931 214.839 106.348C214.522 106.59 214.316 106.944 214.039 107.229C213.443 107.844 212.569 108.1 211.737 108.33C210.061 108.795 209.108 109.73 207.368 109.667Z" fill="#3F3D56"/>
<path d="M192.736 108.911C192.627 109.445 192.504 109.975 192.38 110.506C191.638 113.677 190.871 116.843 190.078 120.002C189.941 120.646 189.734 121.274 189.461 121.875C188.966 122.871 188.129 123.663 187.566 124.624C187.004 125.584 186.772 126.892 187.496 127.741C187.96 128.284 188.698 128.505 189.398 128.679C190.062 128.843 190.817 128.976 191.391 128.608C192.002 128.217 192.161 127.42 192.25 126.709C192.629 123.69 192.732 120.616 193.581 117.69C193.864 116.713 194.229 115.761 194.593 114.81L196.744 109.19C197.281 107.787 197.825 106.348 197.831 104.85C197.847 104.707 197.834 104.562 197.791 104.424C197.748 104.286 197.677 104.158 197.581 104.049C197.468 103.958 197.336 103.893 197.195 103.857C196.287 103.569 193.957 103.334 193.344 104.311C193.041 104.793 193.188 105.906 193.123 106.472C193.029 107.29 192.9 108.103 192.736 108.911Z" fill="#FFDDD6"/>
<path d="M219.669 105.48C221.095 109.445 222.673 113.353 224.401 117.204C224.62 117.659 224.803 118.13 224.948 118.614C225.064 119.044 225.116 119.488 225.191 119.927C225.583 122.212 226.728 124.505 228.773 125.662C229.128 125.891 229.544 126.014 229.969 126.016C230.813 125.968 231.415 125.162 231.647 124.363C231.809 123.804 231.854 123.218 231.779 122.642C231.771 122.494 231.72 122.352 231.633 122.232C231.531 122.132 231.405 122.059 231.266 122.018C230.018 121.532 228.744 120.855 228.114 119.69C227.837 119.109 227.648 118.492 227.553 117.858L226.333 111.772C226.188 111.048 226.043 110.324 225.843 109.613C225.678 109.031 225.478 108.46 225.277 107.889L223.945 104.098L222.964 101.306C222.958 101.25 222.94 101.195 222.911 101.146C222.882 101.097 222.844 101.054 222.797 101.021C222.751 100.987 222.698 100.963 222.641 100.951C222.585 100.938 222.527 100.938 222.47 100.948L219.727 100.946C217.907 100.944 219.334 104.549 219.669 105.48Z" fill="#FFDDD6"/>
<path d="M206.88 78.6921C210.35 78.6921 213.163 75.9296 213.163 72.5219C213.163 69.1141 210.35 66.3516 206.88 66.3516C203.41 66.3516 200.597 69.1141 200.597 72.5219C200.597 75.9296 203.41 78.6921 206.88 78.6921Z" fill="#FFDDD6"/>
<path d="M203.581 80.017C203.222 80.5612 202.636 80.9128 202.069 81.2461C201.007 81.914 199.886 82.487 198.719 82.958C197.669 83.3462 196.535 83.5798 195.621 84.2195C194.663 84.8908 194.046 85.9526 193.708 87.0602C193.37 88.1678 193.284 89.3322 193.2 90.4856C193.164 90.7235 193.184 90.9662 193.258 91.1955C193.398 91.538 193.757 91.7382 194.102 91.8875C195.853 92.6475 197.815 92.7624 199.729 92.8347C203.56 92.9796 207.395 92.9989 211.228 93.0181C212.722 93.1179 214.218 92.8726 215.597 92.3019L218.223 91.3753C218.593 91.2636 218.945 91.1015 219.269 90.8938C220.381 90.1061 220.423 88.4873 220.078 87.1848C219.817 86.1957 219.351 85.1921 218.478 84.6362C217.972 84.3576 217.431 84.1476 216.868 84.0119C214.991 83.4335 213.239 82.522 211.697 81.3227C211.325 81.059 211.004 80.7322 210.75 80.3577C210.279 79.5922 210.34 78.6367 210.339 77.7425C210.357 77.6024 210.345 77.4602 210.305 77.3247C210.264 77.1892 210.196 77.0633 210.104 76.9546C209.919 76.8224 209.696 76.7515 209.467 76.7522C207.977 76.6066 206.432 76.4958 204.963 76.8616C204.049 77.0893 203.959 77.1397 203.996 78.018C204.025 78.7051 203.973 79.4242 203.581 80.017Z" fill="#FFDDD6"/>
<path d="M215.844 66.0142L210.164 63.0924L202.32 64.2877L200.697 71.3269L204.737 71.1744L205.865 68.588V71.1317L207.729 71.0612L208.812 66.9441L209.488 71.3269L216.115 71.194L215.844 66.0142Z" fill="#2F2E41"/>
<path opacity="0.1" d="M209.049 92.4432C208.797 88.697 204.138 88.371 204.091 88.3681L204.1 88.2282C204.145 88.2309 208.299 88.5199 209.077 91.688C209.183 90.5042 209.653 88.3319 211.66 88.2281L211.668 88.3682C209.057 88.5031 209.19 92.3963 209.191 92.4356L209.049 92.4432Z" fill="black"/>
<path d="M207.688 91.362L193.521 88.6281C193.448 88.6004 193.37 88.5888 193.292 88.5941C193.215 88.5994 193.139 88.6214 193.071 88.6587C193.003 88.696 192.944 88.7475 192.898 88.8097C192.853 88.8718 192.822 88.9431 192.807 89.0183L192.294 90.0616C191.843 90.8673 191.572 91.7579 191.499 92.6744L191.184 95.0031C191.168 95.3954 191.039 95.7752 190.81 96.0971C190.656 96.2558 190.475 96.3881 190.277 96.4883C189.799 96.7195 189.367 97.0317 189 97.4106C188.662 97.8128 188.494 98.4038 188.744 98.8645C189.146 99.6085 190.292 99.5781 190.882 100.189C191.426 100.752 191.321 101.669 191.007 102.381C190.805 102.841 190.525 103.299 190.549 103.799C190.581 104.079 190.685 104.347 190.852 104.577C191.018 104.807 191.242 104.991 191.501 105.113C192.021 105.351 192.584 105.487 193.158 105.514C194.375 105.634 195.598 105.669 196.82 105.619C197.434 105.627 198.044 105.511 198.611 105.277C199.161 105.012 199.621 104.487 199.631 103.885C199.647 102.894 198.5 102.11 198.645 101.129C198.655 101.032 198.691 100.939 198.75 100.86C198.946 100.622 199.332 100.72 199.632 100.638C200.11 100.509 200.307 99.9148 200.2 99.4396C200.094 98.9645 199.778 98.5656 199.539 98.1399C199.111 97.3824 198.923 96.5166 199 95.6537C200.089 95.9152 198.68 96.9016 198.835 97.9926C199.215 100.67 200.442 103.73 199.949 106.39C199.909 106.507 199.896 106.632 199.91 106.755C199.925 106.879 199.967 106.997 200.033 107.103C200.134 107.201 200.261 107.271 200.4 107.303C202.205 107.859 204.12 107.114 205.979 106.771C207.275 106.561 208.588 106.465 209.901 106.483C211.838 106.47 213.774 106.526 215.709 106.651C216.197 106.682 216.71 106.714 217.152 106.508C217.594 106.303 217.919 105.77 217.715 105.334C219.237 105.305 220.67 106.247 222.187 106.121C223.822 105.985 225.064 104.674 226.135 103.453C226.433 103.169 226.647 102.811 226.755 102.417C226.834 101.968 226.635 101.524 226.48 101.095C226.308 100.616 226.188 100.12 226.123 99.6165C226.053 99.3014 226.092 98.9727 226.232 98.6813C226.43 98.3533 226.835 98.1995 227.069 97.8954C227.542 97.2803 227.103 96.3677 226.484 95.8943C225.865 95.421 225.079 95.1632 224.538 94.6051C223.781 93.8245 223.675 92.658 223.485 91.5964C223.318 90.6604 223.037 89.7065 222.401 88.9904C221.765 88.2743 220.696 87.859 219.797 88.2115C219.521 88.3407 219.253 88.4846 218.993 88.6426C218.461 88.8919 217.897 89.07 217.317 89.1722C214.086 89.8879 210.938 91.9891 207.688 91.362Z" fill="#FA8181"/>
<path d="M186.739 123.042C186.739 123.042 194.152 126.061 191.802 127.837C189.451 129.612 184.569 125.706 184.749 125.173C184.93 124.64 184.026 123.397 184.026 123.397L186.739 123.042Z" fill="#DA8C7B"/>
<path d="M180.229 99.2473L182.58 101.378L183.122 107.593L184.93 114.163C184.93 114.163 188.004 120.379 187.462 121.622C186.92 122.865 188.004 123.22 188.004 123.22L183.845 124.818C183.845 124.818 179.325 119.846 179.325 118.78C179.325 117.715 180.229 99.2473 180.229 99.2473Z" fill="#DAD2C4"/>
<path opacity="0.1" d="M180.229 99.2473L182.58 101.378L183.122 107.593L184.93 114.163C184.93 114.163 188.004 120.379 187.462 121.622C186.92 122.865 188.004 123.22 188.004 123.22L183.845 124.818C183.845 124.818 179.325 119.846 179.325 118.78C179.325 117.715 180.229 99.2473 180.229 99.2473Z" fill="black"/>
<path d="M202.471 168.362C202.471 168.362 201.566 172.446 201.386 172.801C201.205 173.156 204.821 174.399 204.821 174.399L209.161 171.381C209.161 171.381 207.353 167.474 207.353 166.764L202.471 168.362Z" fill="#DAD2C4"/>
<path d="M178.782 123.397L180.048 124.818C180.048 124.818 206.268 128.014 206.81 132.986C207.353 137.958 211.15 166.586 208.98 167.296C206.81 168.007 201.205 170.67 201.205 169.25C201.205 167.829 197.588 143.108 198.312 139.556C198.312 139.556 167.029 135.65 166.306 131.21C165.582 126.771 167.029 124.818 167.029 124.818L178.782 123.397Z" fill="#2F2E41"/>
<path opacity="0.1" d="M178.782 123.397L180.048 124.818C180.048 124.818 206.268 128.014 206.81 132.986C207.353 137.958 211.15 166.586 208.98 167.296C206.81 168.007 201.205 170.67 201.205 169.25C201.205 167.829 197.588 143.108 198.312 139.556C198.312 139.556 167.029 135.65 166.306 131.21C165.582 126.771 167.029 124.818 167.029 124.818L178.782 123.397Z" fill="black"/>
<path d="M202.109 172.446C202.109 172.446 201.386 170.848 201.024 171.381C200.662 171.913 199.396 178.128 200.662 178.128C201.928 178.128 213.501 180.97 215.128 180.614C216.756 180.259 219.83 180.792 219.468 179.016C219.106 177.241 217.298 177.063 217.298 177.063C217.298 177.063 210.608 173.156 210.246 171.203C209.884 169.25 207.895 170.315 207.895 170.315V171.558C207.895 171.558 204.098 174.399 202.109 172.446Z" fill="#2F2E41"/>
<path d="M167.752 85.7516C167.752 85.7516 169.018 91.7891 166.305 92.3218C163.593 92.8546 169.741 96.406 169.741 96.406L173.719 98.5369L176.612 95.6957C176.612 95.6957 173.99 90.4573 175.98 86.5507C177.969 82.6441 167.752 85.7516 167.752 85.7516Z" fill="#DA8C7B"/>
<path d="M176.612 95.6957L173.719 98.5369L169.741 96.406C169.741 96.406 163.593 92.8546 166.305 92.3218C168.05 91.9791 168.148 89.3581 167.998 87.5327C167.949 86.935 167.867 86.3405 167.752 85.7516C167.752 85.7516 177.969 82.6441 175.98 86.5507C175.677 87.154 175.468 87.7978 175.357 88.4614C174.748 91.972 176.612 95.6957 176.612 95.6957Z" fill="#DA8C7B"/>
<path d="M186.738 168.323V172.407H193.61L194.152 170.809L193.429 166.548L186.738 168.323Z" fill="#DAD2C4"/>
<path d="M158.349 126.949C158.349 126.949 158.349 137.426 162.689 137.781C167.029 138.136 182.579 140.089 182.579 140.089C182.579 140.089 183.484 157.491 185.111 163.174C186.738 168.856 185.292 169.211 186.738 169.566C188.185 169.922 194.333 168.679 194.152 167.435C193.971 166.192 193.248 134.762 193.248 134.762C193.248 134.762 194.876 128.014 173.177 124.818L158.349 126.949Z" fill="#2F2E41"/>
<path d="M187.281 171.164C187.281 171.164 186.196 168.856 186.015 169.566C185.835 170.277 183.665 176.492 185.835 177.024C188.004 177.557 194.876 180.398 199.396 180.221C203.917 180.043 204.46 179.866 204.46 179.866C204.46 179.866 205.725 178.09 204.098 177.024C202.47 175.959 195.78 169.744 195.418 169.034C195.057 168.323 192.344 167.791 192.344 169.034C192.344 170.277 188.547 172.763 187.281 171.164Z" fill="#2F2E41"/>
<path opacity="0.1" d="M175.98 87.9895C175.678 88.5928 175.468 89.2366 175.358 89.9002C174.457 90.4347 173.855 90.2979 172.725 90.2979C171.049 90.2979 170.372 88.1937 169.289 87.1016C169.204 86.0877 167.752 87.1904 167.752 87.1904C167.752 87.1904 177.969 84.0829 175.98 87.9895Z" fill="black"/>
<path d="M172.484 89.9439C176.308 89.9439 179.409 86.8993 179.409 83.1435C179.409 79.3878 176.308 76.3431 172.484 76.3431C168.659 76.3431 165.559 79.3878 165.559 83.1435C165.559 86.8993 168.659 89.9439 172.484 89.9439Z" fill="#DA8C7B"/>
<path d="M182.58 101.378C182.58 101.378 181.676 107.771 181.133 110.079C180.591 112.388 179.867 123.042 179.506 124.463C179.144 125.883 176.974 126.238 172.634 125.706C172.362 125.672 172.088 125.652 171.813 125.645C169.141 125.562 166.083 126.544 163.253 127.315C161.626 127.758 160.072 128.131 158.711 128.192C156.649 128.284 156.045 126.04 156.116 123.61C156.183 121.35 156.836 118.926 157.445 118.07C158.543 116.529 157.463 102.69 157.868 98.1268V98.125C157.93 97.4289 158.026 96.9495 158.168 96.7612C159.253 95.3406 166.306 91.7892 167.096 91.933C167.884 92.0768 174.623 96.2285 174.623 96.2285C176.251 96.2285 176.198 94.4954 176.198 94.4954C176.198 94.4954 177.336 96.5837 179.506 97.1164C181.676 97.6491 182.58 101.378 182.58 101.378Z" fill="#DAD2C4"/>
<path d="M170.492 124.399C170.492 124.399 182.14 124.764 180.1 126.122C178.059 127.481 169.018 128.724 168.837 126.949C168.656 125.173 170.492 124.399 170.492 124.399Z" fill="#DA8C7B"/>
<path opacity="0.1" d="M171.813 125.645C171.851 126.327 169.983 127.863 169.379 128.902C169.045 129.477 166.455 128.719 163.253 127.314C160.795 126.231 158.411 124.994 156.116 123.61C156.183 121.35 156.835 118.926 157.445 118.07C158.542 116.529 157.463 102.69 157.868 98.1267V98.1249C157.964 98.0768 158.065 98.0364 158.168 98.0042H160.338C167.752 101.378 159.253 115.939 159.253 115.939C159.253 115.939 170.464 124.995 171.549 125.35C171.62 125.364 171.685 125.4 171.733 125.453C171.781 125.507 171.809 125.574 171.813 125.645Z" fill="black"/>
<path d="M160.338 96.9388H158.168C158.168 96.9388 156.179 97.4715 154.552 101.023C152.924 104.574 146.957 115.584 152.201 119.846C157.445 124.108 168.656 129.08 169.379 127.837C170.103 126.594 172.634 124.64 171.549 124.285C170.464 123.93 159.253 114.874 159.253 114.874C159.253 114.874 167.752 100.313 160.338 96.9388Z" fill="#DAD2C4"/>
<path d="M171.418 79.9792C171.418 79.9792 171.722 75.8479 175.471 77.5324C179.22 79.2169 178.975 74.5739 177.842 73.7534C176.709 72.933 176.745 72.7299 172.602 73.2789C168.458 73.8278 160.413 74.7579 163.015 82.9397C165.616 91.1214 167.972 89.0167 167.972 89.0167C167.972 89.0167 165.904 81.6542 167.999 83.0568L170.094 84.4595L171.2 84.2296L171.418 79.9792Z" fill="#2F2E41"/>
<path opacity="0.4" d="M127.827 68.2114C132.041 68.2114 135.457 64.8567 135.457 60.7186C135.457 56.5805 132.041 53.2258 127.827 53.2258C123.613 53.2258 120.197 56.5805 120.197 60.7186C120.197 64.8567 123.613 68.2114 127.827 68.2114Z" fill="white"/>
<path opacity="0.4" d="M113.706 69.5533C116.662 69.5533 119.058 67.2001 119.058 64.2972C119.058 61.3943 116.662 59.0411 113.706 59.0411C110.749 59.0411 108.353 61.3943 108.353 64.2972C108.353 67.2001 110.749 69.5533 113.706 69.5533Z" fill="white"/>
<path opacity="0.4" d="M247.27 147.004C250.226 147.004 252.622 144.651 252.622 141.748C252.622 138.845 250.226 136.492 247.27 136.492C244.314 136.492 241.917 138.845 241.917 141.748C241.917 144.651 244.314 147.004 247.27 147.004Z" fill="white"/>
<defs>
<linearGradient id="paint0_linear_171_3269" x1="150" y1="0" x2="150" y2="180.645" gradientUnits="userSpaceOnUse">
<stop stop-color="#FFB7B7"/>
<stop offset="1" stop-color="#FFDBDB"/>
</linearGradient>
</defs>
</svg>
