<svg width="144" height="208" viewBox="0 0 144 208" fill="none" xmlns="http://www.w3.org/2000/svg">
<mask id="mask0_173_3387" style="mask-type:alpha" maskUnits="userSpaceOnUse" x="0" y="0" width="144" height="208">
<rect width="144" height="208" fill="#DEDEDE"/>
</mask>
<g mask="url(#mask0_173_3387)">
<path d="M-165.589 0H179.839V208H-165.589V0Z" fill="url(#paint0_linear_173_3387)"/>
<path d="M54.7519 131.458H-83.6901V134.371H54.7519V131.458Z" fill="#3F3D56"/>
<path d="M54.7519 146.021H-83.6901V148.934H54.7519V146.021Z" fill="#3F3D56"/>
<path d="M54.7519 159.856H-83.6901V164.225H54.7519V159.856Z" fill="#3F3D56"/>
<path d="M28.7067 122.826L28.4972 207.195L31.5737 207.202L31.7831 122.833L28.7067 122.826Z" fill="#3F3D56"/>
<path d="M146.909 111.862C142.763 115.97 132.754 119.225 128.57 115.153C124.387 111.081 127.614 101.224 131.761 97.1157C133.752 95.143 136.459 94.0278 139.288 94.0156C142.116 94.0034 144.834 95.095 146.843 97.0505C148.852 99.0059 149.987 101.665 150 104.443C150.012 107.22 148.901 109.889 146.909 111.862Z" fill="#FA8181"/>
<path d="M128.577 116.581C128.515 116.224 128.341 115.895 128.079 115.64C127.818 115.385 127.481 115.217 127.117 115.159L128.565 113.726L130.025 115.147L128.577 116.581Z" fill="#FA8181"/>
<path d="M129.297 115.978C128.932 115.866 128.6 115.67 128.327 115.406C128.054 115.143 127.849 114.819 127.729 114.463L128.021 114.369C128.127 114.68 128.306 114.962 128.544 115.191C128.782 115.421 129.072 115.592 129.39 115.689L129.297 115.978Z" fill="#2F2E41"/>
<path d="M97.5491 146.023L97.3304 145.81L128.183 115.393L128.401 115.606L97.5491 146.023Z" fill="#2F2E41"/>
<path opacity="0.4" d="M147.247 105.971C148.296 104.932 148.431 103.393 147.549 102.535C146.667 101.676 145.102 101.823 144.053 102.862C143.004 103.902 142.868 105.44 143.75 106.299C144.632 107.157 146.198 107.011 147.247 105.971Z" fill="white"/>
<path d="M133.377 100.659C130.606 105.763 121.97 111.703 116.772 108.982C111.575 106.261 111.784 95.9085 114.555 90.8044C115.886 88.3533 118.153 86.5217 120.859 85.7126C123.565 84.9035 126.488 85.183 128.983 86.4898C131.479 87.7966 133.345 90.0235 134.168 92.6807C134.992 95.3379 134.708 98.2077 133.377 100.659Z" fill="#FA8181"/>
<path d="M117.196 110.347C117.032 110.023 116.769 109.757 116.444 109.587C116.119 109.416 115.747 109.35 115.382 109.398L116.349 107.616L118.163 108.566L117.196 110.347Z" fill="#FA8181"/>
<path d="M117.71 109.567C117.327 109.563 116.951 109.469 116.613 109.293C116.275 109.118 115.984 108.866 115.764 108.558L116.017 108.385C116.209 108.654 116.463 108.873 116.758 109.026C117.053 109.179 117.381 109.261 117.714 109.265L117.71 109.567Z" fill="#2F2E41"/>
<path d="M96.0818 147.298L95.8099 147.155L116.471 109.321L116.743 109.463L96.0818 147.298Z" fill="#2F2E41"/>
<path opacity="0.4" d="M131.978 94.9212C132.679 93.6298 132.359 92.1178 131.263 91.5441C130.167 90.9703 128.71 91.5521 128.009 92.8435C127.308 94.1349 127.628 95.6469 128.724 96.2206C129.82 96.7944 131.277 96.2126 131.978 94.9212Z" fill="white"/>
<path d="M126.571 129.111C122.425 133.219 112.415 136.474 108.232 132.402C104.049 128.33 107.276 118.473 111.422 114.365C112.408 113.388 113.58 112.612 114.872 112.08C116.164 111.548 117.549 111.271 118.95 111.265C120.35 111.259 121.738 111.524 123.035 112.044C124.331 112.565 125.51 113.331 126.505 114.3C127.499 115.268 128.29 116.419 128.832 117.687C129.373 118.956 129.655 120.316 129.662 121.692C129.668 123.067 129.398 124.43 128.868 125.703C128.337 126.976 127.557 128.134 126.571 129.111Z" fill="#FA8181"/>
<path d="M108.239 133.83C108.177 133.473 108.003 133.144 107.741 132.889C107.479 132.634 107.142 132.466 106.779 132.409L108.226 130.975L109.686 132.396L108.239 133.83Z" fill="#FA8181"/>
<path d="M108.959 133.227C108.594 133.115 108.261 132.919 107.988 132.655C107.716 132.392 107.511 132.069 107.39 131.712L107.683 131.618C107.788 131.929 107.967 132.211 108.205 132.44C108.443 132.67 108.733 132.841 109.052 132.939L108.959 133.227Z" fill="#2F2E41"/>
<path d="M107.846 132.644L94.0933 146.262L94.312 146.475L108.065 132.857L107.846 132.644Z" fill="#2F2E41"/>
<path opacity="0.4" d="M126.908 123.221C127.957 122.181 128.093 120.643 127.211 119.784C126.329 118.925 124.763 119.072 123.714 120.111C122.665 121.151 122.529 122.689 123.411 123.548C124.293 124.407 125.859 124.26 126.908 123.221Z" fill="white"/>
<path d="M83.2077 84.8171C80.072 79.614 73.8683 79.3716 73.8683 79.3716C73.8683 79.3716 67.8231 78.6124 63.9452 86.5367C60.3306 93.9229 55.3421 101.054 63.1421 102.783L64.551 98.4771L65.4235 103.104C66.5341 103.182 67.6482 103.201 68.7608 103.16C77.1139 102.895 85.069 103.237 84.8129 100.294C84.4724 96.3809 86.2249 89.8235 83.2077 84.8171Z" fill="#2F2E41"/>
<path d="M76.0202 198.91C75.7498 200.096 75.2667 201.251 75.2407 202.466C75.2148 203.682 75.8124 205.035 76.9964 205.39C77.5624 205.516 78.1495 205.521 78.7177 205.405C79.3447 205.322 80.0108 205.222 80.487 204.813C81.1551 204.239 81.2324 203.261 81.2385 202.389C81.2686 198.052 80.7315 193.734 80.1952 189.429C80.1872 189.363 77.3197 189.297 77.0318 189.427C76.1962 189.803 76.2715 190.729 76.2605 191.515C76.2259 193.979 76.5748 196.477 76.0202 198.91Z" fill="#2F2E41"/>
<path d="M56.5686 198.91C56.839 200.096 57.3222 201.251 57.3481 202.466C57.3741 203.682 56.7764 205.035 55.5925 205.39C55.0264 205.516 54.4394 205.521 53.8711 205.405C53.2442 205.322 52.5781 205.222 52.1019 204.813C51.4338 204.239 51.3565 203.261 51.3504 202.389C51.3202 198.052 51.8574 193.734 52.3937 189.429C52.4017 189.363 55.2691 189.297 55.5571 189.427C56.3927 189.803 56.3174 190.729 56.3284 191.515C56.363 193.979 56.0141 196.477 56.5686 198.91Z" fill="#2F2E41"/>
<path d="M66.1674 132.279C67.5614 132.933 69.1562 133.018 70.7009 133.001C74.1238 132.963 77.5267 132.482 80.8216 131.571C81.4531 131.424 82.0583 131.184 82.6164 130.859C82.7569 130.785 82.868 130.667 82.9317 130.523C82.96 130.408 82.9607 130.287 82.9337 130.171L82.4 126.681C82.4052 126.614 82.394 126.547 82.3675 126.486C82.341 126.424 82.2999 126.37 82.2476 126.327C82.1954 126.284 82.1334 126.254 82.067 126.24C82.0005 126.225 81.9315 126.227 81.8657 126.244C78.9637 126.256 76.0646 126.423 73.181 126.743C71.7159 126.906 70.2562 127.108 68.8016 127.35C68.0314 127.478 65.7938 127.502 65.4043 128.31C65.1725 128.791 65.6412 129.637 65.7599 130.104C65.8258 130.364 66.0081 132.204 66.1674 132.279Z" fill="#FFDDD6"/>
<path d="M72.6759 131.416C70.226 131.327 67.8074 130.846 65.5149 129.993C65.4143 129.955 65.2832 129.924 65.2139 130.005C65.1857 130.045 65.1698 130.092 65.1679 130.141L64.5792 134.507C63.9687 139.036 62.3587 143.514 61.3066 147.964C60.6609 150.696 60.015 153.427 59.3403 156.152C58.653 158.928 57.935 161.699 57.0272 164.412C54.5394 171.836 50.6658 178.74 45.6044 184.771C45.0197 185.467 44.3817 186.269 44.5022 187.164C44.6583 188.323 45.9556 188.927 47.0748 189.325C46.0393 189.774 46.1033 191.378 46.9301 192.138C47.7568 192.897 48.9728 193.039 50.0998 193.144L53.956 193.501C54.9429 193.593 55.9805 193.677 56.8876 193.284C57.4735 193.031 57.9589 192.595 58.5275 192.306C60.5382 191.283 62.9366 192.281 65.0749 193.012C68.0584 194.032 71.2046 194.515 74.3626 194.439C75.6822 194.407 77.2211 194.138 77.8234 192.984C78.0559 192.539 78.1064 192.023 78.3021 191.561C78.4487 191.254 78.656 190.978 78.9118 190.75C79.1677 190.522 79.4671 190.346 79.7926 190.233C80.1182 190.119 80.4635 190.07 80.8085 190.089C81.1535 190.107 81.4913 190.192 81.8025 190.34C82.895 190.918 83.4201 192.203 84.4561 192.874C85.2883 193.413 86.3355 193.485 87.3307 193.542L92.9926 193.862C93.2139 193.474 93.3183 193.031 93.2938 192.587C93.2693 192.142 93.1168 191.714 92.8541 191.351C93.9484 191.371 95.0249 191.078 95.952 190.507C96.8792 189.936 97.6168 189.111 98.0747 188.135C98.5325 187.159 98.6908 186.073 98.5301 185.01C98.3694 183.947 97.8968 182.953 97.17 182.149C96.3676 181.263 95.7789 180.21 95.4478 179.07C93.6056 172.295 93.4509 165.173 91.7546 158.362C91.4149 156.998 91.0132 155.645 90.7977 154.257C90.525 152.501 90.5545 150.715 90.4851 148.939C90.3211 144.76 89.6081 140.62 88.3638 136.62C87.5236 133.922 86.4142 131.247 84.5749 129.079C84.1235 128.489 83.539 128.011 82.8675 127.682C82.1822 127.388 81.327 127.384 80.7365 127.835C80.3945 128.096 80.1727 128.477 79.8742 128.785C79.231 129.449 78.2874 129.725 77.3894 129.974C75.5811 130.475 74.5536 131.484 72.6759 131.416Z" fill="#3F3D56"/>
<path d="M56.8879 130.6C56.771 131.176 56.6379 131.749 56.504 132.321C55.7034 135.743 54.8756 139.158 54.0206 142.567C53.8722 143.262 53.6491 143.94 53.3549 144.588C52.821 145.663 51.9171 146.518 51.3105 147.554C50.7039 148.59 50.453 150.001 51.2349 150.917C51.7351 151.503 52.5317 151.742 53.2866 151.929C54.0033 152.107 54.8179 152.25 55.4369 151.853C56.0962 151.431 56.2677 150.571 56.3641 149.804C56.7733 146.547 56.8845 143.229 57.7998 140.073C58.1056 139.019 58.4989 137.991 58.8917 136.965L61.2132 130.901C61.7924 129.388 62.3795 127.835 62.3855 126.219C62.4035 126.064 62.3889 125.907 62.3425 125.759C62.2962 125.61 62.2192 125.472 62.1163 125.354C61.9937 125.256 61.8515 125.186 61.699 125.147C60.7198 124.837 58.2058 124.583 57.5441 125.637C57.2176 126.157 57.3762 127.358 57.3059 127.968C57.2042 128.851 57.0648 129.728 56.8879 130.6Z" fill="#FFDDD6"/>
<path d="M85.9485 126.899C87.4875 131.176 89.1893 135.393 91.0539 139.548C91.291 140.039 91.4884 140.548 91.6444 141.069C91.7691 141.534 91.8255 142.013 91.9068 142.486C92.3297 144.952 93.5651 147.425 95.7713 148.674C96.1547 148.921 96.6029 149.054 97.0616 149.056C97.9728 149.004 98.6217 148.134 98.8723 147.273C99.0472 146.669 99.0956 146.038 99.0146 145.415C99.0062 145.256 98.9517 145.103 98.8576 144.974C98.747 144.866 98.6111 144.786 98.462 144.742C97.1144 144.218 95.7405 143.487 95.0605 142.23C94.7612 141.604 94.5572 140.938 94.4549 140.253L93.139 133.687C92.9826 132.906 92.8259 132.125 92.6097 131.358C92.4326 130.73 92.216 130.113 91.9996 129.498L90.5623 125.407L89.5041 122.395C89.4973 122.334 89.4778 122.275 89.4467 122.222C89.4156 122.169 89.3737 122.123 89.3236 122.087C89.2735 122.051 89.2163 122.025 89.1556 122.011C89.0948 121.998 89.0319 121.997 88.9708 122.009L86.0105 122.006C84.0474 122.004 85.5871 125.894 85.9485 126.899Z" fill="#FFDDD6"/>
<path d="M72.1495 97.9946C75.8937 97.9946 78.929 95.0139 78.929 91.337C78.929 87.6601 75.8937 84.6794 72.1495 84.6794C68.4053 84.6794 65.37 87.6601 65.37 91.337C65.37 95.0139 68.4053 97.9946 72.1495 97.9946Z" fill="#FFDDD6"/>
<path d="M68.5899 99.4242C68.2022 100.011 67.5696 100.391 66.9583 100.75C65.8122 101.471 64.6025 102.089 63.3438 102.597C62.2107 103.016 60.987 103.268 60.0013 103.958C58.9668 104.683 58.3016 105.828 57.9367 107.024C57.5717 108.219 57.4791 109.475 57.3886 110.72C57.3502 110.976 57.3715 111.238 57.451 111.485C57.6027 111.855 57.9903 112.071 58.3615 112.232C60.2516 113.052 62.3684 113.176 64.4332 113.254C68.5668 113.411 72.7044 113.431 76.8411 113.452C78.4522 113.56 80.0666 113.295 81.5547 112.679L84.3885 111.68C84.7875 111.559 85.1674 111.384 85.5171 111.16C86.716 110.31 86.7615 108.563 86.3898 107.158C86.1075 106.091 85.6049 105.008 84.6629 104.408C84.1176 104.108 83.5332 103.881 82.9259 103.735C80.9012 103.11 79.0102 102.127 77.3467 100.833C76.9456 100.548 76.5994 100.196 76.3245 99.7917C75.8168 98.9657 75.8821 97.9348 75.8816 96.97C75.9005 96.8188 75.8878 96.6654 75.8442 96.5192C75.8006 96.373 75.7271 96.2371 75.6281 96.1198C75.4285 95.9772 75.1878 95.9007 74.941 95.9015C73.3324 95.7444 71.6653 95.6248 70.081 96.0195C69.0949 96.2652 68.9977 96.3196 69.0378 97.2672C69.0691 98.0085 69.0122 98.7845 68.5899 99.4242Z" fill="#FFDDD6"/>
<path d="M81.8216 84.3154L75.6925 81.1628L67.2288 82.4526L65.4775 90.0477L69.8368 89.8831L71.0545 87.0925V89.8371L73.0657 89.761L74.2334 85.3187L74.9629 90.0477L82.1135 89.9043L81.8216 84.3154Z" fill="#2F2E41"/>
<path opacity="0.1" d="M74.4892 112.832C74.2173 108.79 69.1911 108.438 69.1404 108.435L69.1497 108.284C69.1983 108.287 73.6799 108.599 74.5199 112.017C74.6347 110.74 75.1414 108.396 77.3072 108.284L77.3153 108.435C74.4978 108.58 74.6414 112.781 74.6432 112.824L74.4892 112.832Z" fill="black"/>
<path d="M73.0212 111.665L57.735 108.715C57.6566 108.685 57.5724 108.673 57.4885 108.679C57.4046 108.684 57.323 108.708 57.2495 108.748C57.176 108.788 57.1124 108.844 57.0633 108.911C57.0142 108.978 56.9807 109.055 56.9653 109.136L56.4113 110.262C55.9251 111.131 55.6328 112.092 55.5539 113.081L55.2135 115.594C55.1968 116.017 55.0567 116.427 54.8098 116.774C54.6435 116.945 54.4491 117.088 54.2348 117.196C53.7195 117.446 53.2532 117.783 52.8573 118.191C52.4921 118.625 52.3116 119.263 52.5807 119.76C53.0151 120.563 54.2511 120.53 54.8882 121.19C55.475 121.797 55.3612 122.786 55.0228 123.554C54.8044 124.051 54.503 124.545 54.5284 125.084C54.5632 125.387 54.6756 125.676 54.8553 125.924C55.0349 126.172 55.2758 126.371 55.5553 126.502C56.1173 126.759 56.7247 126.906 57.3437 126.935C58.6563 127.064 59.9767 127.102 61.2948 127.048C61.9578 127.057 62.6155 126.931 63.2268 126.679C63.8202 126.393 64.3165 125.826 64.3273 125.177C64.3452 124.108 63.1075 123.262 63.264 122.203C63.2746 122.098 63.3137 121.998 63.3772 121.913C63.5892 121.657 64.0049 121.762 64.329 121.674C64.8442 121.534 65.0567 120.893 64.9418 120.381C64.8269 119.868 64.4869 119.438 64.2282 118.978C63.7665 118.161 63.5639 117.227 63.6465 116.296C64.8221 116.578 63.3023 117.642 63.4691 118.819C63.8785 121.708 65.2029 125.01 64.6704 127.88C64.6275 128.007 64.6135 128.141 64.6292 128.274C64.645 128.407 64.6902 128.535 64.7616 128.649C64.8709 128.756 65.008 128.83 65.1577 128.865C67.1052 129.465 69.1712 128.661 71.1773 128.292C72.5757 128.065 73.9919 127.961 75.4092 127.981C77.4994 127.966 79.5883 128.026 81.676 128.161C82.2024 128.195 82.7558 128.229 83.2327 128.007C83.7095 127.786 84.0606 127.211 83.8397 126.74C85.4824 126.71 87.028 127.726 88.6652 127.589C90.4294 127.443 91.7698 126.028 92.9253 124.711C93.2463 124.404 93.4775 124.018 93.5944 123.594C93.6797 123.109 93.4643 122.63 93.2977 122.167C93.112 121.65 92.9826 121.115 92.9117 120.572C92.8372 120.232 92.8789 119.877 93.0302 119.562C93.2432 119.209 93.6808 119.043 93.9331 118.714C94.4433 118.051 93.9701 117.066 93.3019 116.555C92.6336 116.045 91.786 115.767 91.2021 115.164C90.3854 114.322 90.2705 113.063 90.0657 111.918C89.8852 110.908 89.5825 109.879 88.8961 109.106C88.2096 108.334 87.0564 107.885 86.0868 108.266C85.7891 108.405 85.4995 108.56 85.2192 108.731C84.6451 109 84.0368 109.192 83.4106 109.302C79.925 110.075 76.5274 112.342 73.0212 111.665Z" fill="#FA8181"/>
<path d="M50.417 145.847C50.417 145.847 58.4164 149.105 55.88 151.021C53.3436 152.937 48.0757 148.721 48.2708 148.147C48.466 147.572 47.4904 146.231 47.4904 146.231L50.417 145.847Z" fill="#DA8C7B"/>
<path d="M43.3934 120.173L45.9298 122.472L46.5151 129.178L48.4662 136.267C48.4662 136.267 51.783 142.973 51.1977 144.315C50.6124 145.656 51.783 146.039 51.783 146.039L47.2955 147.763C47.2955 147.763 42.4178 142.399 42.4178 141.249C42.4178 140.099 43.3934 120.173 43.3934 120.173Z" fill="#DAD2C4"/>
<path opacity="0.1" d="M43.3934 120.173L45.9298 122.472L46.5151 129.178L48.4662 136.267C48.4662 136.267 51.783 142.973 51.1977 144.315C50.6124 145.656 51.783 146.039 51.783 146.039L47.2955 147.763C47.2955 147.763 42.4178 142.399 42.4178 141.249C42.4178 140.099 43.3934 120.173 43.3934 120.173Z" fill="black"/>
<path d="M67.3916 194.747C67.3916 194.747 66.4161 199.153 66.2209 199.537C66.0258 199.92 69.928 201.261 69.928 201.261L74.6106 198.004C74.6106 198.004 72.6595 193.789 72.6595 193.022L67.3916 194.747Z" fill="#DAD2C4"/>
<path d="M41.8326 146.231L43.1984 147.763C43.1984 147.763 71.4889 151.212 72.0743 156.577C72.6596 161.942 76.7568 192.831 74.4156 193.597C72.0743 194.363 66.026 197.237 66.026 195.704C66.026 194.172 62.1238 167.498 62.9042 163.666C62.9042 163.666 29.1507 159.451 28.3703 154.661C27.5898 149.871 29.1507 147.763 29.1507 147.763L41.8326 146.231Z" fill="#2F2E41"/>
<path opacity="0.1" d="M41.8326 146.231L43.1984 147.763C43.1984 147.763 71.4889 151.212 72.0743 156.577C72.6596 161.942 76.7568 192.831 74.4156 193.597C72.0743 194.363 66.026 197.237 66.026 195.704C66.026 194.172 62.1238 167.498 62.9042 163.666C62.9042 163.666 29.1507 159.451 28.3703 154.661C27.5898 149.871 29.1507 147.763 29.1507 147.763L41.8326 146.231Z" fill="black"/>
<path d="M67.0014 199.153C67.0014 199.153 66.221 197.429 65.8307 198.004C65.4405 198.579 64.0748 205.284 65.4405 205.284C66.8063 205.284 79.2931 208.35 81.0491 207.967C82.8051 207.584 86.1219 208.158 85.7317 206.242C85.3415 204.326 83.3904 204.135 83.3904 204.135C83.3904 204.135 76.1714 199.92 75.7812 197.812C75.391 195.705 73.2448 196.854 73.2448 196.854V198.195C73.2448 198.195 69.1476 201.261 67.0014 199.153Z" fill="#2F2E41"/>
<path d="M29.9308 105.612C29.9308 105.612 31.2966 112.126 28.37 112.701C25.4433 113.276 32.077 117.108 32.077 117.108L36.3693 119.407L39.4911 116.341C39.4911 116.341 36.662 110.689 38.8082 106.474C40.9543 102.259 29.9308 105.612 29.9308 105.612Z" fill="#DA8C7B"/>
<path d="M39.4911 116.341L36.3693 119.407L32.077 117.108C32.077 117.108 25.4433 113.276 28.37 112.701C30.2527 112.331 30.3581 109.503 30.1961 107.533C30.1433 106.889 30.0547 106.247 29.9308 105.612C29.9308 105.612 40.9544 102.259 38.8082 106.474C38.4821 107.125 38.2559 107.819 38.137 108.535C37.4795 112.323 39.4911 116.341 39.4911 116.341Z" fill="#DA8C7B"/>
<path d="M50.417 194.705V199.112H57.8311L58.4165 197.387L57.6361 192.789L50.417 194.705Z" fill="#DAD2C4"/>
<path d="M19.785 150.063C19.785 150.063 19.785 161.367 24.4676 161.75C29.1502 162.133 45.9294 164.241 45.9294 164.241C45.9294 164.241 46.9049 183.018 48.6609 189.149C50.4169 195.28 48.856 195.663 50.4169 196.046C51.9777 196.429 58.6114 195.088 58.4163 193.747C58.2212 192.406 57.4407 158.493 57.4407 158.493C57.4407 158.493 59.1967 151.212 35.7838 147.763L19.785 150.063Z" fill="#2F2E41"/>
<path d="M51.0026 197.77C51.0026 197.77 49.8319 195.28 49.6368 196.046C49.4417 196.812 47.1004 203.518 49.4417 204.093C51.783 204.668 59.1971 207.734 64.0747 207.542C68.9524 207.35 69.5377 207.159 69.5377 207.159C69.5377 207.159 70.9035 205.243 69.1475 204.093C67.3916 202.944 60.1726 196.238 59.7824 195.471C59.3922 194.705 56.4656 194.13 56.4656 195.471C56.4656 196.812 52.3683 199.495 51.0026 197.77Z" fill="#2F2E41"/>
<path opacity="0.1" d="M38.8085 108.026C38.4824 108.677 38.2563 109.372 38.1374 110.088C37.1657 110.665 36.516 110.517 35.2966 110.517C33.488 110.517 32.7583 108.247 31.5896 107.068C31.4979 105.974 29.9312 107.164 29.9312 107.164C29.9312 107.164 40.9547 103.811 38.8085 108.026Z" fill="black"/>
<path d="M35.0364 110.135C39.163 110.135 42.5083 106.85 42.5083 102.798C42.5083 98.7451 39.163 95.46 35.0364 95.46C30.9098 95.46 27.5646 98.7451 27.5646 102.798C27.5646 106.85 30.9098 110.135 35.0364 110.135Z" fill="#DA8C7B"/>
<path d="M45.9298 122.472C45.9298 122.472 44.9543 129.37 44.369 131.861C43.7837 134.351 43.0032 145.847 42.613 147.38C42.2228 148.913 39.8815 149.296 35.1989 148.721C34.905 148.685 34.6093 148.663 34.3132 148.656C31.4295 148.566 28.1302 149.626 25.0768 150.457C23.3208 150.936 21.6448 151.339 20.1757 151.404C17.9515 151.503 17.2998 149.082 17.3759 146.461C17.4481 144.021 18.1524 141.406 18.8099 140.483C19.9942 138.82 18.8294 123.888 19.2665 118.964V118.962C19.3328 118.211 19.4362 117.694 19.5904 117.491C20.761 115.958 28.3702 112.126 29.2228 112.281C30.0735 112.436 37.3451 116.916 37.3451 116.916C39.1011 116.916 39.0445 115.046 39.0445 115.046C39.0445 115.046 40.2717 117.299 42.613 117.874C44.9543 118.449 45.9298 122.472 45.9298 122.472Z" fill="#DAD2C4"/>
<path d="M32.8873 147.312C32.8873 147.312 45.4554 147.705 43.2537 149.171C41.0521 150.637 31.2967 151.979 31.1016 150.063C30.9065 148.147 32.8873 147.312 32.8873 147.312Z" fill="#DA8C7B"/>
<path opacity="0.1" d="M34.313 148.656C34.3539 149.392 32.3385 151.049 31.6868 152.17C31.3259 152.791 28.532 151.973 25.0766 150.457C22.425 149.288 19.8528 147.953 17.3757 146.46C17.4479 144.021 18.1523 141.406 18.8097 140.483C19.9941 138.819 18.8292 123.888 19.2663 118.964V118.962C19.3705 118.91 19.4788 118.867 19.5902 118.832H21.9315C29.9309 122.472 20.7608 138.183 20.7608 138.183C20.7608 138.183 32.8575 147.955 34.0281 148.338C34.1049 148.352 34.1746 148.391 34.2262 148.449C34.2778 148.507 34.3083 148.58 34.313 148.656Z" fill="black"/>
<path d="M21.9316 117.682H19.5903C19.5903 117.682 17.4441 118.257 15.6881 122.089C13.9322 125.921 7.49363 137.8 13.1517 142.399C18.8098 146.997 30.9065 152.362 31.6869 151.021C32.4673 149.679 35.1989 147.572 34.0282 147.189C32.8576 146.805 20.7609 137.034 20.7609 137.034C20.7609 137.034 29.931 121.323 21.9316 117.682Z" fill="#DAD2C4"/>
<path d="M33.8866 99.3833C33.8866 99.3833 34.2145 94.9258 38.2596 96.7433C42.3048 98.5608 42.0408 93.5511 40.8184 92.6658C39.596 91.7806 39.6347 91.5615 35.1638 92.1538C30.6929 92.7461 22.0129 93.7497 24.8196 102.578C27.6262 111.406 30.1681 109.135 30.1681 109.135C30.1681 109.135 27.9371 101.191 30.1976 102.704L32.458 104.218L33.6509 103.969L33.8866 99.3833Z" fill="#2F2E41"/>
<path opacity="0.4" d="M115.729 171.702C118.919 171.702 121.504 169.162 121.504 166.03C121.504 162.898 118.919 160.359 115.729 160.359C112.54 160.359 109.954 162.898 109.954 166.03C109.954 169.162 112.54 171.702 115.729 171.702Z" fill="white"/>
</g>
<defs>
<linearGradient id="paint0_linear_173_3387" x1="7.125" y1="0" x2="7.125" y2="208" gradientUnits="userSpaceOnUse">
<stop stop-color="#FFB7B7"/>
<stop offset="1" stop-color="#FFDBDB"/>
</linearGradient>
</defs>
</svg>
