<svg width="200" height="120" viewBox="0 0 200 120" fill="none" xmlns="http://www.w3.org/2000/svg">
<rect width="200" height="120" fill="url(#paint0_linear_192_4712)"/>
<path d="M35.5619 102.69C41.9984 114.412 55.6591 119.444 55.6591 119.444C55.6591 119.444 58.884 105.471 52.4475 93.7486C46.0109 82.0264 32.3503 76.9943 32.3503 76.9943C32.3503 76.9943 29.1253 90.9676 35.5619 102.69Z" fill="#2F2E41"/>
<path d="M39.9859 98.8333C51.6065 105.699 56.082 119.336 56.082 119.336C56.082 119.336 41.7167 121.842 30.0961 114.976C18.4755 108.11 14 94.4734 14 94.4734C14 94.4734 28.3653 91.9677 39.9859 98.8333Z" fill="#FA8181"/>
<path d="M127.192 72.6536H41.6534V74.4532H127.192V72.6536Z" fill="#3F3D56"/>
<path d="M127.192 81.6517H41.6534V83.4513H127.192V81.6517Z" fill="#3F3D56"/>
<path d="M127.192 90.1998H41.6534V92.8992H127.192V90.1998Z" fill="#3F3D56"/>
<path d="M55.0246 67.1855L54.8951 119.314L56.796 119.319L56.9254 67.19L55.0246 67.1855Z" fill="#3F3D56"/>
<path d="M111.1 67.3198L110.97 119.449L112.871 119.453L113 67.3243L111.1 67.3198Z" fill="#3F3D56"/>
<path d="M184.133 60.5455C181.571 63.0837 175.387 65.0951 172.802 62.5792C170.218 60.0633 172.211 53.9727 174.773 51.4345C176.004 50.2156 177.677 49.5266 179.424 49.519C181.172 49.5115 182.851 50.186 184.092 51.3942C185.333 52.6024 186.035 54.2453 186.043 55.9615C186.05 57.6777 185.364 59.3266 184.133 60.5455Z" fill="#FA8181"/>
<path d="M172.806 63.4613C172.768 63.2407 172.661 63.0375 172.499 62.88C172.337 62.7226 172.129 62.6187 171.904 62.5831L172.799 61.6971L173.701 62.5753L172.806 63.4613Z" fill="#FA8181"/>
<path d="M173.251 63.0889C173.026 63.0195 172.82 62.8984 172.652 62.7356C172.483 62.5728 172.356 62.373 172.282 62.1527L172.463 62.0946C172.528 62.2867 172.639 62.4609 172.786 62.6028C172.933 62.7447 173.112 62.8502 173.309 62.9106L173.251 63.0889Z" fill="#2F2E41"/>
<path d="M153.635 81.6527L153.5 81.5209L172.563 62.7274L172.698 62.8591L153.635 81.6527Z" fill="#2F2E41"/>
<path opacity="0.4" d="M184.342 56.9061C184.99 56.2639 185.074 55.3133 184.529 54.7828C183.984 54.2523 183.017 54.3429 182.368 54.9851C181.72 55.6273 181.636 56.5779 182.181 57.1084C182.726 57.6389 183.694 57.5483 184.342 56.9061Z" fill="white"/>
<path d="M175.772 53.6237C174.06 56.7773 168.724 60.4475 165.513 58.7662C162.301 57.0849 162.43 50.6886 164.143 47.535C164.965 46.0205 166.366 44.8889 168.038 44.3889C169.71 43.889 171.515 44.0617 173.057 44.8691C174.6 45.6765 175.752 47.0525 176.261 48.6943C176.77 50.3361 176.594 52.1092 175.772 53.6237Z" fill="#FA8181"/>
<path d="M165.774 59.61C165.673 59.4095 165.511 59.2452 165.31 59.14C165.109 59.0347 164.879 58.9939 164.653 59.0231L165.251 57.9224L166.372 58.5092L165.774 59.61Z" fill="#FA8181"/>
<path d="M166.092 59.1278C165.855 59.1249 165.623 59.0669 165.414 58.9585C165.205 58.8501 165.025 58.6944 164.89 58.5043L165.046 58.3976C165.164 58.5634 165.321 58.699 165.504 58.7935C165.686 58.8879 165.888 58.9384 166.095 58.9409L166.092 59.1278Z" fill="#2F2E41"/>
<path d="M152.729 82.4403L152.561 82.3524L165.326 58.9758L165.494 59.0637L152.729 82.4403Z" fill="#2F2E41"/>
<path opacity="0.4" d="M174.908 50.0786C175.341 49.2807 175.143 48.3465 174.466 47.992C173.789 47.6375 172.889 47.997 172.456 48.7949C172.022 49.5928 172.22 50.527 172.897 50.8815C173.574 51.236 174.474 50.8766 174.908 50.0786Z" fill="white"/>
<path d="M171.567 71.2032C169.005 73.7414 162.821 75.7528 160.236 73.2368C157.651 70.7209 159.645 64.6304 162.207 62.0922C162.816 61.4886 163.54 61.0088 164.338 60.6802C165.136 60.3515 165.993 60.1804 166.858 60.1767C167.723 60.173 168.581 60.3366 169.382 60.6584C170.183 60.9801 170.911 61.4536 171.526 62.0518C172.14 62.6501 172.629 63.3613 172.964 64.145C173.298 64.9287 173.473 65.7694 173.476 66.6192C173.48 67.4689 173.313 68.3111 172.986 69.0977C172.658 69.8842 172.176 70.5996 171.567 71.2032Z" fill="#FA8181"/>
<path d="M160.24 74.1189C160.202 73.8984 160.094 73.6952 159.932 73.5377C159.77 73.3802 159.563 73.2764 159.338 73.2407L160.232 72.3548L161.134 73.233L160.24 74.1189Z" fill="#FA8181"/>
<path d="M160.685 73.7466C160.459 73.6772 160.254 73.5561 160.085 73.3933C159.917 73.2306 159.79 73.0307 159.716 72.8104L159.897 72.7523C159.962 72.9444 160.072 73.1186 160.219 73.2605C160.366 73.4024 160.546 73.5079 160.742 73.5683L160.685 73.7466Z" fill="#2F2E41"/>
<path d="M159.998 73.3862L151.5 81.8003L151.635 81.9319L160.133 73.5178L159.998 73.3862Z" fill="#2F2E41"/>
<path opacity="0.4" d="M171.775 67.5638C172.423 66.9216 172.507 65.971 171.962 65.4405C171.417 64.91 170.45 65.0006 169.802 65.6428C169.153 66.285 169.07 67.2356 169.615 67.7661C170.16 68.2966 171.127 68.206 171.775 67.5638Z" fill="white"/>
<path d="M144.774 43.8356C142.837 40.6208 139.004 40.4709 139.004 40.4709C139.004 40.4709 135.268 40.0019 132.872 44.8981C130.639 49.4617 127.557 53.868 132.376 54.9363L133.247 52.2756L133.786 55.1344C134.472 55.1829 135.16 55.1944 135.848 55.169C141.009 55.0054 145.924 55.2169 145.766 53.3982C145.556 50.9804 146.638 46.9288 144.774 43.8356Z" fill="#2F2E41"/>
<path d="M140.333 114.33C140.166 115.063 139.868 115.776 139.852 116.527C139.836 117.278 140.205 118.114 140.936 118.334C141.286 118.412 141.649 118.415 142 118.343C142.387 118.291 142.799 118.23 143.093 117.977C143.506 117.622 143.554 117.018 143.557 116.479C143.576 113.8 143.244 111.132 142.913 108.472C142.908 108.431 141.136 108.39 140.958 108.47C140.442 108.703 140.488 109.275 140.482 109.761C140.46 111.283 140.676 112.827 140.333 114.33Z" fill="#2F2E41"/>
<path d="M128.315 114.33C128.482 115.063 128.78 115.776 128.796 116.527C128.812 117.278 128.443 118.114 127.712 118.334C127.362 118.412 126.999 118.415 126.648 118.343C126.261 118.291 125.849 118.23 125.555 117.977C125.142 117.622 125.094 117.018 125.09 116.479C125.072 113.8 125.404 111.132 125.735 108.472C125.74 108.431 127.512 108.39 127.69 108.47C128.206 108.703 128.159 109.275 128.166 109.761C128.188 111.283 127.972 112.827 128.315 114.33Z" fill="#2F2E41"/>
<path d="M134.245 73.1607C135.107 73.5645 136.092 73.6171 137.046 73.6067C139.161 73.5834 141.264 73.2864 143.3 72.7234C143.69 72.6326 144.064 72.4842 144.409 72.2833C144.495 72.2376 144.564 72.1645 144.603 72.0758C144.621 72.0043 144.621 71.9299 144.605 71.8582L144.275 69.7019C144.278 69.6607 144.271 69.6194 144.255 69.5813C144.238 69.5433 144.213 69.5097 144.181 69.4832C144.148 69.4568 144.11 69.4383 144.069 69.4293C144.028 69.4204 143.985 69.4212 143.945 69.4317C142.152 69.4395 140.361 69.5426 138.579 69.7404C137.674 69.8409 136.772 69.9658 135.873 70.115C135.397 70.1941 134.014 70.2092 133.774 70.7084C133.631 71.0055 133.92 71.5281 133.994 71.8171C134.034 71.9774 134.147 73.1146 134.245 73.1607Z" fill="#FFDDD6"/>
<path d="M138.267 72.6277C136.753 72.5723 135.259 72.2753 133.842 71.7482C133.78 71.7251 133.699 71.7057 133.656 71.7556C133.639 71.7804 133.629 71.8095 133.628 71.8396L133.264 74.5376C132.887 77.3359 131.892 80.1024 131.242 82.852C130.843 84.5398 130.444 86.2277 130.027 87.9113C129.603 89.6262 129.159 91.3382 128.598 93.0149C127.061 97.6018 124.668 101.868 121.54 105.594C121.179 106.024 120.785 106.52 120.859 107.072C120.956 107.788 121.757 108.161 122.449 108.407C121.809 108.685 121.849 109.676 122.359 110.145C122.87 110.615 123.621 110.702 124.318 110.767L126.7 110.988C127.31 111.045 127.951 111.097 128.512 110.854C128.874 110.697 129.174 110.428 129.525 110.249C130.767 109.618 132.249 110.234 133.57 110.686C135.414 111.316 137.358 111.614 139.309 111.567C140.124 111.547 141.075 111.381 141.447 110.669C141.591 110.393 141.622 110.075 141.743 109.789C141.834 109.599 141.962 109.429 142.12 109.288C142.278 109.147 142.463 109.039 142.664 108.968C142.865 108.898 143.079 108.868 143.292 108.879C143.505 108.891 143.714 108.944 143.906 109.035C144.581 109.392 144.905 110.186 145.545 110.6C146.06 110.933 146.707 110.978 147.322 111.013L150.82 111.211C150.957 110.971 151.021 110.698 151.006 110.423C150.991 110.148 150.897 109.884 150.734 109.659C151.41 109.672 152.076 109.491 152.648 109.138C153.221 108.785 153.677 108.276 153.96 107.672C154.243 107.069 154.341 106.398 154.241 105.741C154.142 105.084 153.85 104.47 153.401 103.974C152.905 103.426 152.541 102.776 152.337 102.071C151.199 97.8855 151.103 93.485 150.055 89.2765C149.845 88.4337 149.597 87.598 149.464 86.7404C149.295 85.6551 149.313 84.5516 149.271 83.4546C149.169 80.8726 148.729 78.3143 147.96 75.8432C147.441 74.1756 146.755 72.5231 145.619 71.1833C145.34 70.8193 144.979 70.5239 144.564 70.3203C144.14 70.1389 143.612 70.1365 143.247 70.4148C143.036 70.5759 142.899 70.8118 142.714 71.0022C142.317 71.4123 141.734 71.5825 141.179 71.7364C140.062 72.0463 139.427 72.6697 138.267 72.6277Z" fill="#3F3D56"/>
<path d="M128.512 72.1236C128.44 72.4793 128.357 72.833 128.275 73.1865C127.78 75.3008 127.269 77.4111 126.74 79.5176C126.649 79.947 126.511 80.3656 126.329 80.7664C125.999 81.4301 125.441 81.9583 125.066 82.5987C124.691 83.239 124.536 84.1108 125.019 84.6768C125.328 85.0389 125.82 85.1863 126.287 85.3019C126.73 85.4117 127.233 85.5001 127.615 85.2549C128.023 84.9939 128.129 84.4628 128.188 83.9887C128.441 81.9763 128.51 79.9265 129.075 77.9764C129.264 77.325 129.507 76.6901 129.75 76.0561L131.184 72.3092C131.542 71.3744 131.905 70.4148 131.909 69.4162C131.92 69.3207 131.911 69.2239 131.882 69.132C131.854 69.0401 131.806 68.955 131.742 68.8819C131.667 68.8218 131.579 68.7781 131.485 68.7539C130.88 68.5624 129.326 68.4057 128.917 69.0567C128.716 69.3779 128.814 70.1201 128.77 70.4972C128.707 71.0426 128.621 71.5847 128.512 72.1236Z" fill="#FFDDD6"/>
<path d="M146.468 69.8363C147.418 72.4793 148.47 75.0845 149.622 77.6521C149.769 77.9554 149.891 78.2697 149.987 78.5918C150.064 78.8788 150.099 79.1748 150.149 79.4675C150.41 80.9909 151.174 82.5192 152.537 83.2904C152.774 83.4432 153.051 83.5253 153.334 83.5267C153.897 83.4947 154.298 82.9572 154.453 82.4247C154.561 82.052 154.591 81.6616 154.541 81.2772C154.535 81.179 154.502 81.0843 154.444 81.0043C154.375 80.9377 154.291 80.8886 154.199 80.8612C153.367 80.5372 152.518 80.0859 152.098 79.3092C151.913 78.9223 151.787 78.5108 151.723 78.0879L150.91 74.0307C150.814 73.5483 150.717 73.0654 150.583 72.5916C150.474 72.2036 150.34 71.8227 150.206 71.4421L149.318 68.9145L148.664 67.0535C148.66 67.016 148.648 66.9797 148.629 66.9469C148.61 66.9142 148.584 66.8857 148.553 66.8633C148.522 66.8409 148.487 66.825 148.449 66.8167C148.412 66.8084 148.373 66.8078 148.335 66.815L146.506 66.8134C145.293 66.8124 146.244 69.2156 146.468 69.8363Z" fill="#FFDDD6"/>
<path d="M137.942 51.9776C140.255 51.9776 142.13 50.1359 142.13 47.8641C142.13 45.5922 140.255 43.7505 137.942 43.7505C135.628 43.7505 133.753 45.5922 133.753 47.8641C133.753 50.1359 135.628 51.9776 137.942 51.9776Z" fill="#FFDDD6"/>
<path d="M135.742 52.8608C135.503 53.2235 135.112 53.458 134.734 53.6801C134.026 54.1254 133.279 54.5074 132.501 54.8214C131.801 55.0802 131.045 55.2359 130.436 55.6624C129.796 56.11 129.385 56.8178 129.16 57.5562C128.934 58.2946 128.877 59.0709 128.821 59.8398C128.798 59.9984 128.811 60.1602 128.86 60.3131C128.954 60.5415 129.193 60.6749 129.422 60.7744C130.59 61.2811 131.898 61.3577 133.174 61.4059C135.728 61.5025 138.284 61.5153 140.84 61.5281C141.836 61.5947 142.833 61.4312 143.753 61.0507L145.504 60.433C145.75 60.3585 145.985 60.2504 146.201 60.112C146.942 59.5869 146.97 58.5076 146.74 57.6393C146.566 56.9799 146.255 56.3108 145.673 55.9402C145.336 55.7545 144.975 55.6145 144.6 55.5241C143.349 55.1384 142.181 54.5307 141.153 53.7312C140.905 53.5554 140.691 53.3375 140.521 53.0879C140.207 52.5775 140.248 51.9406 140.247 51.3445C140.259 51.251 140.251 51.1563 140.224 51.0659C140.197 50.9756 140.152 50.8916 140.091 50.8191C139.968 50.731 139.819 50.6838 139.666 50.6842C138.672 50.5872 137.642 50.5133 136.664 50.7572C136.054 50.909 135.994 50.9426 136.019 51.5281C136.038 51.9861 136.003 52.4655 135.742 52.8608Z" fill="#FFDDD6"/>
<path d="M143.918 43.5256L140.131 41.5778L134.901 42.3746L133.819 47.0674L136.513 46.9657L137.265 45.2415V46.9373L138.508 46.8903L139.229 44.1455L139.68 47.0674L144.098 46.9788L143.918 43.5256Z" fill="#2F2E41"/>
<path opacity="0.1" d="M139.387 61.1449C139.219 58.6474 136.114 58.4301 136.082 58.4282L136.088 58.3349C136.118 58.3367 138.887 58.5294 139.406 60.6415C139.477 59.8522 139.79 58.404 141.128 58.3348L141.133 58.4282C139.393 58.5182 139.481 61.1137 139.482 61.1399L139.387 61.1449Z" fill="black"/>
<path d="M138.48 60.4241L129.035 58.6015C128.987 58.5831 128.935 58.5753 128.883 58.5789C128.831 58.5824 128.781 58.5971 128.735 58.6219C128.69 58.6468 128.651 58.6811 128.62 58.7226C128.59 58.764 128.569 58.8115 128.56 58.8617L128.218 59.5572C127.917 60.0943 127.737 60.6881 127.688 61.299L127.477 62.8515C127.467 63.1131 127.381 63.3662 127.228 63.5809C127.125 63.6867 127.005 63.7748 126.873 63.8416C126.554 63.9958 126.266 64.2039 126.022 64.4565C125.796 64.7247 125.684 65.1186 125.851 65.4258C126.119 65.9218 126.883 65.9015 127.276 66.309C127.639 66.6843 127.569 67.2953 127.36 67.7701C127.225 68.0767 127.038 68.3819 127.054 68.7155C127.076 68.9024 127.145 69.0808 127.256 69.2341C127.367 69.3873 127.516 69.5103 127.689 69.5916C128.036 69.7501 128.411 69.8408 128.794 69.8586C129.605 69.9389 130.42 69.9622 131.235 69.9285C131.645 69.9341 132.051 69.8566 132.429 69.7007C132.795 69.5241 133.102 69.1739 133.109 68.7729C133.12 68.1119 132.355 67.5895 132.452 66.9353C132.458 66.8705 132.482 66.8086 132.522 66.7562C132.653 66.5977 132.909 66.6629 133.11 66.6084C133.428 66.5219 133.559 66.126 133.488 65.8092C133.417 65.4924 133.207 65.2265 133.047 64.9427C132.762 64.4377 132.637 63.8605 132.688 63.2852C133.414 63.4596 132.475 64.1172 132.578 64.8445C132.831 66.6293 133.65 68.6697 133.321 70.4425C133.294 70.521 133.285 70.6042 133.295 70.6864C133.305 70.7685 133.333 70.8476 133.377 70.918C133.444 70.9837 133.529 71.0298 133.622 71.0512C134.825 71.4219 136.101 70.9252 137.341 70.697C138.205 70.5569 139.08 70.4926 139.956 70.5049C141.247 70.496 142.538 70.5332 143.828 70.6165C144.153 70.6375 144.495 70.6585 144.79 70.5215C145.084 70.3845 145.301 70.0294 145.165 69.7387C146.18 69.7196 147.135 70.3473 148.146 70.2632C149.236 70.1726 150.064 69.2987 150.778 68.4847C150.977 68.2952 151.119 68.0567 151.192 67.7943C151.244 67.4951 151.111 67.199 151.008 66.9126C150.894 66.5933 150.814 66.263 150.77 65.9271C150.724 65.717 150.75 65.4979 150.843 65.3036C150.975 65.085 151.245 64.9824 151.401 64.7797C151.716 64.3696 151.424 63.7612 151.011 63.4457C150.598 63.1301 150.074 62.9583 149.714 62.5862C149.209 62.0658 149.138 61.2881 149.011 60.5804C148.9 59.9564 148.713 59.3204 148.289 58.843C147.865 58.3656 147.152 58.0888 146.553 58.3238C146.369 58.4099 146.19 58.5058 146.017 58.6112C145.662 58.7774 145.286 58.8961 144.9 58.9642C142.746 59.4414 140.647 60.8422 138.48 60.4241Z" fill="#FA8181"/>
<path d="M124.514 81.5442C124.514 81.5442 129.456 83.5567 127.889 84.7405C126.322 85.9244 123.067 83.3199 123.188 82.9648C123.308 82.6096 122.706 81.781 122.706 81.781L124.514 81.5442Z" fill="#DA8C7B"/>
<path d="M120.174 65.681L121.741 67.1016L122.103 71.2449L123.308 75.6251C123.308 75.6251 125.358 79.7685 124.996 80.5971C124.635 81.4258 125.358 81.6626 125.358 81.6626L122.585 82.728C122.585 82.728 119.571 79.4133 119.571 78.703C119.571 77.9927 120.174 65.681 120.174 65.681Z" fill="#DAD2C4"/>
<path opacity="0.1" d="M120.174 65.681L121.741 67.1016L122.103 71.2449L123.308 75.6251C123.308 75.6251 125.358 79.7685 124.996 80.5971C124.635 81.4258 125.358 81.6626 125.358 81.6626L122.585 82.728C122.585 82.728 119.571 79.4133 119.571 78.703C119.571 77.9927 120.174 65.681 120.174 65.681Z" fill="black"/>
<path d="M135.002 111.757C135.002 111.757 134.399 114.48 134.279 114.717C134.158 114.954 136.569 115.782 136.569 115.782L139.462 113.77C139.462 113.77 138.257 111.165 138.257 110.692L135.002 111.757Z" fill="#DAD2C4"/>
<path d="M119.21 81.7809L120.054 82.728C120.054 82.728 137.533 84.8589 137.895 88.1736C138.257 91.4883 140.788 110.574 139.342 111.047C137.895 111.521 134.158 113.296 134.158 112.349C134.158 111.402 131.747 94.9214 132.229 92.5537C132.229 92.5537 111.374 89.9493 110.892 86.9898C110.41 84.0302 111.374 82.728 111.374 82.728L119.21 81.7809Z" fill="#2F2E41"/>
<path opacity="0.1" d="M119.21 81.7809L120.054 82.728C120.054 82.728 137.533 84.8589 137.895 88.1736C138.257 91.4883 140.788 110.574 139.342 111.047C137.895 111.521 134.158 113.296 134.158 112.349C134.158 111.402 131.747 94.9214 132.229 92.5537C132.229 92.5537 111.374 89.9493 110.892 86.9898C110.41 84.0302 111.374 82.728 111.374 82.728L119.21 81.7809Z" fill="black"/>
<path d="M134.761 114.48C134.761 114.48 134.279 113.415 134.037 113.77C133.796 114.125 132.953 118.268 133.796 118.268C134.64 118.268 142.355 120.163 143.44 119.926C144.525 119.689 146.575 120.044 146.334 118.86C146.093 117.676 144.887 117.558 144.887 117.558C144.887 117.558 140.427 114.954 140.186 113.651C139.944 112.349 138.618 113.06 138.618 113.06V113.888C138.618 113.888 136.087 115.782 134.761 114.48Z" fill="#2F2E41"/>
<path d="M111.856 56.6839C111.856 56.6839 112.7 60.7089 110.892 61.064C109.083 61.4192 113.182 63.7868 113.182 63.7868L115.834 65.2074L117.763 63.3133C117.763 63.3133 116.015 59.821 117.341 57.2166C118.667 54.6122 111.856 56.6839 111.856 56.6839Z" fill="#DA8C7B"/>
<path d="M117.763 63.3133L115.834 65.2074L113.182 63.7868C113.182 63.7868 109.083 61.4192 110.892 61.064C112.055 60.8355 112.12 59.0882 112.02 57.8713C111.987 57.4728 111.933 57.0765 111.856 56.6839C111.856 56.6839 118.667 54.6122 117.341 57.2166C117.14 57.6188 117 58.048 116.926 58.4904C116.52 60.8308 117.763 63.3133 117.763 63.3133Z" fill="#DA8C7B"/>
<path d="M124.514 111.732V114.454H129.095L129.456 113.389L128.974 110.548L124.514 111.732Z" fill="#DAD2C4"/>
<path d="M105.587 84.1486C105.587 84.1486 105.587 91.1332 108.481 91.3699C111.374 91.6067 121.741 92.9089 121.741 92.9089C121.741 92.9089 122.344 104.51 123.429 108.299C124.514 112.087 123.549 112.324 124.514 112.56C125.478 112.797 129.577 111.968 129.456 111.14C129.336 110.311 128.854 89.3574 128.854 89.3574C128.854 89.3574 129.939 84.8589 115.473 82.728L105.587 84.1486Z" fill="#2F2E41"/>
<path d="M124.876 113.626C124.876 113.626 124.152 112.087 124.032 112.56C123.911 113.034 122.465 117.177 123.911 117.532C125.358 117.888 129.939 119.782 132.952 119.663C135.966 119.545 136.328 119.426 136.328 119.426C136.328 119.426 137.172 118.243 136.087 117.532C135.002 116.822 130.541 112.679 130.3 112.205C130.059 111.732 128.251 111.376 128.251 112.205C128.251 113.034 125.719 114.691 124.876 113.626Z" fill="#2F2E41"/>
<path opacity="0.1" d="M117.341 58.1758C117.14 58.5779 117 59.0072 116.927 59.4496C116.326 59.8059 115.925 59.7147 115.171 59.7147C114.054 59.7147 113.603 58.3119 112.881 57.5839C112.824 56.9079 111.856 57.643 111.856 57.643C111.856 57.643 118.667 55.5714 117.341 58.1758Z" fill="black"/>
<path d="M115.011 59.4788C117.56 59.4788 119.627 57.449 119.627 54.9452C119.627 52.4413 117.56 50.4116 115.011 50.4116C112.461 50.4116 110.394 52.4413 110.394 54.9452C110.394 57.449 112.461 59.4788 115.011 59.4788Z" fill="#DA8C7B"/>
<path d="M121.741 67.1016C121.741 67.1016 121.139 71.3634 120.777 72.9023C120.415 74.4413 119.933 81.5442 119.692 82.4913C119.451 83.4383 118.004 83.6751 115.111 83.32C114.929 83.2975 114.747 83.2841 114.564 83.2797C112.782 83.2241 110.744 83.8787 108.857 84.3925C107.772 84.6885 106.736 84.9371 105.829 84.9773C104.454 85.0389 104.052 83.5425 104.099 81.9231C104.143 80.416 104.579 78.8001 104.985 78.2295C105.717 77.202 104.997 67.9764 105.267 64.934V64.9328C105.308 64.4688 105.372 64.1491 105.467 64.0236C106.19 63.0766 110.892 60.7089 111.419 60.8048C111.944 60.9007 116.437 63.6685 116.437 63.6685C117.522 63.6685 117.487 62.5131 117.487 62.5131C117.487 62.5131 118.245 63.9053 119.692 64.2604C121.139 64.6156 121.741 67.1016 121.741 67.1016Z" fill="#DAD2C4"/>
<path d="M113.683 82.449C113.683 82.449 121.448 82.6918 120.088 83.5978C118.727 84.5038 112.7 85.3324 112.579 84.1486C112.459 82.9648 113.683 82.449 113.683 82.449Z" fill="#DA8C7B"/>
<path opacity="0.1" d="M114.564 83.2796C114.589 83.7342 113.344 84.7582 112.941 85.4508C112.718 85.8343 110.992 85.3288 108.857 84.3924C107.218 83.6703 105.629 82.8455 104.099 81.923C104.143 80.416 104.578 78.8 104.985 78.2294C105.716 77.2019 104.997 67.9763 105.267 64.9339V64.9327C105.331 64.9006 105.398 64.8737 105.467 64.8522H106.913C111.856 67.1015 106.19 76.8089 106.19 76.8089C106.19 76.8089 113.664 82.8464 114.388 83.0831C114.435 83.0919 114.478 83.1161 114.51 83.1517C114.542 83.1873 114.561 83.2323 114.564 83.2796Z" fill="black"/>
<path d="M106.914 64.142H105.467C105.467 64.142 104.141 64.4971 103.056 66.8648C101.971 69.2324 97.9929 76.5721 101.489 79.4133C104.985 82.2545 112.459 85.5692 112.941 84.7405C113.423 83.9118 115.111 82.6096 114.388 82.3728C113.664 82.1361 106.19 76.0986 106.19 76.0986C106.19 76.0986 111.856 66.3912 106.914 64.142Z" fill="#DAD2C4"/>
<path d="M114.3 52.8356C114.3 52.8356 114.503 50.0814 117.002 51.2044C119.502 52.3274 119.338 49.2321 118.583 48.6851C117.828 48.1381 117.852 48.0027 115.089 48.3687C112.327 48.7347 106.964 49.3547 108.698 54.8092C110.432 60.2637 112.003 58.8606 112.003 58.8606C112.003 58.8606 110.624 53.9522 112.021 54.8874L113.418 55.8225L114.155 55.6692L114.3 52.8356Z" fill="#2F2E41"/>
<path opacity="0.4" d="M85.2392 44.9904C88.0485 44.9904 90.3259 42.7539 90.3259 39.9952C90.3259 37.2364 88.0485 35 85.2392 35C82.43 35 80.1526 37.2364 80.1526 39.9952C80.1526 42.7539 82.43 44.9904 85.2392 44.9904Z" fill="white"/>
<path opacity="0.4" d="M75.8252 45.885C77.7959 45.885 79.3935 44.3162 79.3935 42.3809C79.3935 40.4457 77.7959 38.8768 75.8252 38.8768C73.8545 38.8768 72.257 40.4457 72.257 42.3809C72.257 44.3162 73.8545 45.885 75.8252 45.885Z" fill="white"/>
<path opacity="0.4" d="M164.868 97.5187C166.839 97.5187 168.436 95.9498 168.436 94.0146C168.436 92.0793 166.839 90.5105 164.868 90.5105C162.897 90.5105 161.3 92.0793 161.3 94.0146C161.3 95.9498 162.897 97.5187 164.868 97.5187Z" fill="white"/>
<defs>
<linearGradient id="paint0_linear_192_4712" x1="100" y1="0" x2="100" y2="120" gradientUnits="userSpaceOnUse">
<stop stop-color="#FFB7B7"/>
<stop offset="1" stop-color="#FFDBDB"/>
</linearGradient>
</defs>
</svg>
