<svg width="144" height="208" viewBox="0 0 144 208" fill="none" xmlns="http://www.w3.org/2000/svg">
<mask id="mask0_177_3694" style="mask-type:alpha" maskUnits="userSpaceOnUse" x="0" y="0" width="144" height="208">
<rect width="144" height="208" fill="#DEDEDE"/>
</mask>
<g mask="url(#mask0_177_3694)">
<rect x="-71" width="345.429" height="208" fill="url(#paint0_linear_177_3694)"/>
<path d="M158.723 207.929L-15.7234 208C-15.7968 208 -15.8672 207.971 -15.919 207.919C-15.9709 207.868 -16 207.798 -16 207.726C-16 207.653 -15.9709 207.584 -15.919 207.532C-15.8672 207.481 -15.7968 207.452 -15.7234 207.452L158.723 207.381C158.797 207.381 158.867 207.41 158.919 207.462C158.971 207.513 159 207.583 159 207.655C159 207.728 158.971 207.797 158.919 207.849C158.867 207.9 158.797 207.929 158.723 207.929Z" fill="#CACACA"/>
<path d="M124.64 202.114V187.286C124.64 186.985 124.761 186.698 124.976 186.485C125.191 186.273 125.482 186.154 125.786 186.154H137.119C137.423 186.154 137.714 186.273 137.929 186.485C138.143 186.698 138.264 186.985 138.264 187.286V202.114C138.264 202.414 138.143 202.702 137.929 202.914C137.714 203.127 137.423 203.246 137.119 203.246H125.786C125.482 203.246 125.191 203.127 124.976 202.914C124.761 202.702 124.64 202.414 124.64 202.114Z" fill="#E6E6E6"/>
<path d="M125.509 197.635V188.102C125.51 187.821 125.623 187.551 125.824 187.353C126.025 187.154 126.298 187.042 126.582 187.042H136.322C136.607 187.042 136.879 187.154 137.081 187.353C137.282 187.551 137.395 187.821 137.395 188.102V201.298C137.395 201.579 137.282 201.848 137.081 202.047C136.879 202.246 136.607 202.358 136.322 202.358H130.289C129.022 202.356 127.807 201.858 126.911 200.973C126.015 200.088 125.511 198.887 125.509 197.635Z" fill="white"/>
<path d="M127.086 190.762C127.087 190.487 127.197 190.224 127.394 190.03C127.59 189.836 127.857 189.726 128.135 189.726H134.891C135.169 189.726 135.436 189.835 135.633 190.03C135.829 190.224 135.94 190.487 135.94 190.762C135.94 191.037 135.829 191.3 135.633 191.495C135.436 191.689 135.169 191.798 134.891 191.798H128.135C127.857 191.798 127.59 191.689 127.394 191.494C127.197 191.3 127.087 191.037 127.086 190.762Z" fill="#E6E6E6"/>
<path d="M127.086 193.985C127.087 193.711 127.197 193.447 127.394 193.253C127.59 193.059 127.857 192.95 128.135 192.949H134.891C135.169 192.949 135.436 193.058 135.633 193.253C135.829 193.447 135.94 193.711 135.94 193.985C135.94 194.26 135.829 194.524 135.633 194.718C135.436 194.912 135.169 195.021 134.891 195.021H128.135C127.857 195.021 127.59 194.912 127.394 194.718C127.197 194.523 127.087 194.26 127.086 193.985Z" fill="#E6E6E6"/>
<path d="M127.086 197.208C127.087 196.934 127.197 196.67 127.394 196.476C127.59 196.282 127.857 196.173 128.135 196.172H134.891C135.169 196.172 135.436 196.282 135.633 196.476C135.829 196.67 135.94 196.934 135.94 197.208C135.94 197.483 135.829 197.747 135.633 197.941C135.436 198.135 135.169 198.244 134.891 198.244H128.135C127.857 198.244 127.59 198.135 127.394 197.941C127.197 197.746 127.087 197.483 127.086 197.208Z" fill="#E6E6E6"/>
<path d="M126.741 125.288C122.473 132.175 118.221 145.823 112.296 146.303C104.345 146.946 97.8512 133.171 97.8512 125.288C97.8512 121.502 99.3731 117.872 102.082 115.195C104.791 112.518 108.465 111.014 112.296 111.014C120.274 111.014 130.908 118.565 126.741 125.288Z" fill="#4575AD"/>
<path d="M114.276 148.803C112.915 148.803 111.567 149.068 110.309 149.583C109.051 150.098 107.908 150.852 106.945 151.804C105.982 152.755 105.219 153.885 104.698 155.128C104.177 156.371 103.909 157.703 103.909 159.048L110.199 190.244V204.371C109.536 204.526 108.945 204.898 108.523 205.426C108.1 205.954 107.87 206.607 107.869 207.281H113.461V190.244H117.189V204.327C116.475 204.436 115.825 204.794 115.355 205.336C114.885 205.877 114.626 206.567 114.626 207.281H120.45V190.244L124.644 159.048C124.644 157.703 124.376 156.371 123.855 155.128C123.334 153.885 122.57 152.755 121.608 151.804C120.645 150.852 119.502 150.098 118.244 149.583C116.986 149.068 115.638 148.803 114.276 148.803Z" fill="#4575AD"/>
<path d="M84.6274 156.759C83.8516 155.993 82.4495 155.48 80.8434 155.48C78.3986 155.48 76.4167 156.665 76.4167 158.127C76.4167 159.59 78.3986 160.775 80.8434 160.775C81.9745 160.8 83.0899 160.511 84.0631 159.94L84.0618 159.954L108.43 161.143L108.755 157.936L84.6274 156.759Z" fill="#4575AD"/>
<path d="M123.074 182.711C122.51 183.64 122.344 185.108 122.732 186.648C123.322 188.993 124.965 190.607 126.401 190.254C127.837 189.901 128.523 187.714 127.932 185.37C127.683 184.279 127.13 183.28 126.335 182.484L126.349 182.482L121.633 158.827L118.405 159.29L123.074 182.711Z" fill="#4575AD"/>
<path d="M115.513 119.194C115.835 117.872 114.8 116.667 113.582 116.265C111.972 115.733 110.289 116.479 108.726 116.819C107.921 116.994 107.067 117.081 106.273 116.809C105.68 116.593 105.167 116.204 104.801 115.694C103.935 114.518 103.891 113.02 104.345 111.674C105.232 109.051 107.734 107.14 110.423 106.579C113.649 105.907 116.771 107.501 119.673 108.678L122.473 109.814C123.331 110.162 124.207 110.482 125.036 110.893C126.368 111.553 127.879 112.867 127.332 114.516C127.192 114.94 127.866 115.121 128.006 114.7C128.485 113.255 127.625 111.8 126.475 110.948C125.833 110.503 125.139 110.137 124.407 109.859C123.576 109.513 122.739 109.18 121.905 108.842C120.179 108.142 118.462 107.411 116.719 106.751C115.155 106.16 113.504 105.677 111.813 105.725C110.383 105.776 108.985 106.158 107.732 106.839C106.478 107.52 105.403 108.483 104.594 109.649C103.691 110.974 103.154 112.613 103.427 114.215C103.646 115.5 104.484 116.756 105.696 117.318C107.521 118.163 109.424 117.259 111.245 116.901C112.12 116.729 113.098 116.68 113.885 117.162C114.512 117.546 115.023 118.255 114.839 119.01C114.734 119.442 115.408 119.626 115.513 119.194Z" fill="#3F3D56"/>
<path d="M79.5478 158.015C77.0743 158.04 74.6028 157.87 72.1564 157.508C69.5955 157.08 68.4027 156.443 68.4027 155.503L68.4044 155.465L72.6027 123.87L70.5162 117.96C70.4027 117.644 70.3686 117.306 70.4171 116.975C70.4656 116.644 70.5951 116.329 70.7943 116.059C70.9886 115.783 71.2493 115.559 71.5529 115.407C71.8566 115.256 72.1937 115.181 72.5337 115.191L86.468 115.334C86.8001 115.338 87.1267 115.418 87.4212 115.57C87.7157 115.722 87.9697 115.94 88.1625 116.208C88.3553 116.475 88.4815 116.784 88.5307 117.108C88.5799 117.433 88.5508 117.764 88.4457 118.076L86.4924 123.866L90.6922 155.463V155.478C90.6927 156.496 89.349 157.161 86.4633 157.582C84.1705 157.878 81.8602 158.023 79.5478 158.015ZM72.4866 115.651C72.2287 115.651 71.9745 115.712 71.7458 115.83C71.517 115.947 71.3205 116.118 71.1728 116.327C71.0176 116.538 70.9167 116.783 70.879 117.041C70.8412 117.299 70.8677 117.562 70.9562 117.808L73.0791 123.822L73.0719 123.876L68.8681 155.508L68.8683 155.515C68.8687 155.954 69.4525 156.589 72.2341 157.054C74.6548 157.412 77.1004 157.579 79.5478 157.555C81.8374 157.562 84.125 157.419 86.3953 157.126C89.562 156.665 90.2264 155.982 90.2262 155.491L86.0164 123.821L88.0036 117.93C88.0855 117.687 88.1081 117.429 88.0698 117.176C88.0314 116.924 87.9332 116.683 87.783 116.475C87.6328 116.267 87.4349 116.097 87.2056 115.978C86.9762 115.86 86.7218 115.797 86.4631 115.795L72.5259 115.651C72.5128 115.651 72.4997 115.651 72.4866 115.651Z" fill="#3F3D56"/>
<path opacity="0.5" d="M87.4928 151.632H71.6032L74.1221 134.801L74.1907 134.338L75.24 127.331C75.3041 126.903 75.802 127.235 76.1541 126.979C78.3401 125.388 80.5523 125.342 82.7836 126.875C83.1285 127.112 83.605 126.835 83.6693 127.245L84.7717 134.273L84.8783 134.953L87.4928 151.632Z" fill="#5694EF"/>
<path d="M85.5319 153.989H73.5475C73.2333 153.989 72.9228 153.922 72.6371 153.793C72.3515 153.664 72.0974 153.475 71.8921 153.24C71.6868 153.005 71.5352 152.729 71.4476 152.431C71.3601 152.133 71.3385 151.82 71.3845 151.512L74.886 128.115C74.904 127.995 74.9538 127.883 75.0301 127.788C75.1065 127.694 75.2068 127.621 75.3208 127.577C75.4349 127.533 75.5586 127.519 75.6796 127.538C75.8006 127.557 75.9144 127.606 76.0096 127.682C78.1436 129.372 80.4695 129.334 82.9223 127.57C83.0174 127.501 83.1289 127.458 83.2459 127.444C83.363 127.431 83.4815 127.448 83.5901 127.493C83.7009 127.538 83.7981 127.61 83.872 127.703C83.946 127.797 83.9944 127.907 84.0123 128.024L87.6927 151.498C87.741 151.806 87.7212 152.121 87.6348 152.42C87.5484 152.72 87.3974 152.998 87.1921 153.235C86.9869 153.471 86.7322 153.661 86.4456 153.792C86.159 153.922 85.8473 153.989 85.5319 153.989Z" fill="#5694EF"/>
<path d="M80.7094 151.246H73.9005V151.625H80.7094V151.246Z" fill="white"/>
<path d="M80.7094 148.976H73.9005V149.355H80.7094V148.976Z" fill="white"/>
<path d="M80.7094 146.706H73.9005V147.084H80.7094V146.706Z" fill="white"/>
<path d="M80.7094 144.436H73.9005V144.814H80.7094V144.436Z" fill="white"/>
<path d="M80.7094 142.166H73.9005V142.544H80.7094V142.166Z" fill="white"/>
<path d="M85.1994 136.211C84.6713 136.729 84.036 137.128 83.3371 137.381C82.6382 137.633 81.8922 137.734 81.1504 137.675C80.3181 137.575 79.515 137.31 78.7899 136.894C78.0223 136.487 77.2795 136.001 76.4295 135.774C75.6848 135.575 74.8022 135.548 74.1628 136.04C74.1105 136.08 74.0467 136.103 73.9806 136.105C73.9145 136.106 73.8495 136.087 73.7952 136.05L73.868 135.558C74.223 135.331 74.6215 135.178 75.0388 135.109C75.456 135.041 75.8831 135.057 76.2935 135.159C78.0012 135.499 79.2973 136.895 81.047 137.096C81.8018 137.18 82.5659 137.077 83.2706 136.797C83.9754 136.517 84.5986 136.069 85.0845 135.492L85.0864 135.49L85.1994 136.211Z" fill="white"/>
<path d="M37.0423 83.4189C36.8056 88.4995 32.861 92.3294 27.7229 92.628C22.1669 92.9508 17.2146 89.426 18.4036 83.4189C19.7277 76.7293 22.6734 75.1909 27.7229 74.2098C33.6405 73.0602 37.298 77.9294 37.0423 83.4189Z" fill="#2F2E41"/>
<path d="M55.8423 119.047C55.5458 119.222 55.2142 119.33 54.8708 119.364C54.5274 119.399 54.1806 119.358 53.8549 119.245C53.5291 119.133 53.2323 118.951 52.9853 118.713C52.7383 118.475 52.5472 118.186 52.4254 117.867L41.527 119.957L30.8683 115.645L33.5892 111.343L41.5354 115.28L53.9518 114.78C54.5078 114.614 55.1064 114.654 55.6341 114.895C56.1618 115.135 56.582 115.558 56.815 116.084C57.0481 116.61 57.0777 117.202 56.8985 117.748C56.7192 118.295 56.3434 118.757 55.8423 119.047Z" fill="#FFB6B6"/>
<path d="M22.3284 110.313C22.3284 110.313 21.5969 111.311 24.0014 112.393C25.9264 113.26 36.2659 118.788 39.1655 119.25C39.1945 119.655 39.3593 120.04 39.6339 120.343C39.9085 120.646 40.2773 120.85 40.6823 120.923L42.3194 115.112C41.582 113.956 40.7628 114.377 40.3524 114.729L37.1705 112.252L28.4128 106.793L22.8442 109.582L22.3284 110.313Z" fill="#F2F2F2"/>
<path d="M37.5081 97.4628L33.4373 96.7773L25.969 100.151L21.7753 157.477L34.9451 151.459C37.0677 150.489 39.4699 150.294 41.7239 150.911C42.1122 151.017 42.5211 151.026 42.9139 150.937C43.3066 150.848 43.6707 150.664 43.9735 150.401C44.2762 150.138 44.508 149.805 44.648 149.432C44.788 149.059 44.8318 148.657 44.7754 148.262L37.5081 97.4628Z" fill="#F2F2F2"/>
<path d="M25.2985 202.275H28.4948L30.0157 190.093H25.2985V202.275Z" fill="#FFB6B6"/>
<path d="M23.6114 207.747H25.9035L26.3126 205.609L27.3604 207.747H33.4396C33.731 207.747 34.0148 207.655 34.2495 207.485C34.4843 207.314 34.6576 207.074 34.7444 206.799C34.8311 206.524 34.8266 206.229 34.7316 205.957C34.6366 205.684 34.456 205.449 34.2162 205.286L29.3615 201.973V199.811L24.2552 200.112L23.6114 207.747Z" fill="#2F2E41"/>
<path d="M9.36981 195.554L11.948 197.421L20.4613 188.483L16.6562 185.728L9.36981 195.554Z" fill="#FFB6B6"/>
<path d="M4.73611 198.983L6.58501 200.322L8.19404 198.836L7.76026 201.173L12.664 204.723C12.8991 204.894 13.183 204.985 13.4744 204.985C13.7658 204.984 14.0494 204.891 14.2838 204.72C14.5182 204.549 14.6911 204.309 14.7772 204.034C14.8634 203.758 14.8583 203.463 14.7627 203.191L12.8284 197.683L14.1214 195.94L9.82238 193.2L4.73611 198.983Z" fill="#2F2E41"/>
<path d="M37.0096 146.43C36.8325 148.856 33.8503 157.711 33.8503 157.711L33.3168 163.066L31.7977 178.323L30.1552 194.812C27.6995 199.147 23.4872 196.193 23.4872 196.193V193.43C23.4872 193.43 23.1587 190.937 22.8278 187.776C22.3386 183.128 21.8423 177.034 22.3642 175.279C22.3128 175.042 22.2739 174.802 22.2477 174.561C21.7119 170.454 20.4071 152.04 22.271 150.072C19.4579 147.303 17.7483 143.625 17.4552 139.712C17.4133 139.143 17.3784 138.547 17.3574 137.927C17.2153 134.013 19.9202 129.427 20.978 127.797C21.2342 127.401 21.0956 126.748 21.0956 126.748L36.5867 132.821L36.9187 133.268V135.172L37.0096 146.43Z" fill="#35323E"/>
<path d="M33.317 163.066L31.798 178.323L22.8281 187.776L18.6251 192.206C14.005 194.163 12.4859 189.284 12.4859 189.284L14.189 187.095C14.189 187.095 18.9699 178.956 22.248 174.561C23.1543 173.348 23.9464 172.418 24.4893 172.026C25.7148 171.147 29.4169 166.367 32.893 161.698L33.317 163.066Z" fill="#35323E"/>
<path d="M17.0168 127.324C17.0332 127.663 17.104 127.997 17.2264 128.314C17.2404 128.353 17.2544 128.39 17.2707 128.429C17.5582 129.108 18.0686 129.672 18.7199 130.029C18.9116 130.136 19.1137 130.223 19.3233 130.289L21.1382 130.577L36.7458 133.043L37.3726 131.18L36.1913 128.261L36.9742 125.751L37.0806 111.136C38.8757 107.648 39.2368 104.366 37.1512 101.435V101.416L34.3158 96.9476L32.4286 94.1227L26.3757 93.9316L25.516 96.0866L23.8176 97.0904C20.0525 99.3143 18.6966 103.387 18.7781 107.722C20.0758 112.688 19.1206 118.209 18.1537 124.128L17.3639 125.689C17.1079 126.195 16.9884 126.758 17.0168 127.324Z" fill="#5694EF"/>
<path opacity="0.2" d="M17.0165 127.324C17.033 127.663 17.1038 127.997 17.2262 128.314L18.7197 130.029C18.9113 130.136 19.1135 130.223 19.3231 130.289L21.138 130.577L18.5123 125.698L24.2833 113.213L17.0165 127.324Z" fill="black"/>
<path d="M31.2176 98.1532L25.5158 96.0864L18.0475 99.4599L18.4034 123.018C16.1873 124.825 15.741 127.431 17.3339 130.956L14.4537 152.334C14.3947 152.772 14.4558 153.218 14.6308 153.625C14.8058 154.032 15.0882 154.385 15.4485 154.648C15.8088 154.91 16.2337 155.072 16.679 155.116C17.1242 155.161 17.5734 155.087 17.9796 154.901L23.6617 152.304C27.9549 150.342 32.8135 149.949 37.3724 151.196L31.2176 98.1532Z" fill="#F2F2F2"/>
<path d="M22.0277 86.6252C22.2931 88.5384 23.3163 90.2692 24.8725 91.4373C26.4287 92.6055 28.3905 93.1153 30.3269 92.8549C32.2632 92.5945 34.0158 91.5851 35.1994 90.0485C36.3831 88.5119 36.9009 86.5738 36.6393 84.6601L36.625 84.5566C36.3195 82.6686 35.2752 80.975 33.7174 79.841C32.1596 78.707 30.213 78.2235 28.2978 78.495C26.3825 78.7664 24.6519 79.7709 23.4793 81.2918C22.3068 82.8127 21.7862 84.7281 22.03 86.6249L22.0277 86.6252Z" fill="#FFB8B8"/>
<path d="M39.3721 83.8793C37.7674 84.2758 36.0887 84.2758 34.4841 83.8793C34.3883 83.4058 34.2135 82.9515 33.9668 82.5347C33.9354 82.995 33.8349 83.4481 33.6686 83.8793C32.3228 84.8013 29.274 84.2985 26.325 83.8793V76.512H31.9166C36.65 76.0928 40.0851 79.3263 39.3721 83.8793Z" fill="#2F2E41"/>
<path d="M25.2477 72.8332C24.8226 72.2477 23.9831 71.9922 23.2298 72.0586C22.4925 72.1572 21.7887 72.4246 21.1746 72.8397C20.124 73.4792 19.1776 74.2727 18.368 75.1929C17.6696 75.9902 17.0769 77.095 17.6245 78.0217C18.0814 78.795 19.1972 79.094 20.1233 78.9219C21.0493 78.7499 21.8235 78.2127 22.5404 77.6665C23.2573 77.1202 23.9729 76.5383 24.8577 76.2467L24.1441 76.191C24.6293 75.7558 25.0344 75.2407 25.3415 74.6687C25.4893 74.3813 25.5584 74.0606 25.542 73.7386C25.5255 73.4166 25.4241 73.1045 25.2477 72.8332Z" fill="#2F2E41"/>
<path d="M32.1497 77.6631H26.1507C24.5286 77.6631 22.9729 78.2999 21.8259 79.4333C20.6789 80.5667 20.0345 82.104 20.0345 83.707C20.0347 86.0416 20.9158 88.2922 22.5057 90.0191C24.0956 91.746 26.2799 92.8251 28.6319 93.0454L26.558 87.1024L30.5619 93.0883H32.1497C26.7346 88.6233 28.2534 83.2918 32.1497 77.6631Z" fill="#2F2E41"/>
<path d="M50.6849 205.248C49.9034 205.256 49.1226 205.203 48.3497 205.089C47.6301 204.968 47.2652 204.797 47.2652 204.581L47.2654 204.577L48.6079 194.476L47.9318 192.561C47.9034 192.481 47.895 192.395 47.9074 192.31C47.9197 192.226 47.9524 192.146 48.0027 192.077C48.0529 192.008 48.1193 191.951 48.1962 191.913C48.2731 191.874 48.3582 191.855 48.4444 191.856L52.8909 191.901C52.9755 191.902 53.0587 191.923 53.1337 191.962C53.2087 192 53.2734 192.056 53.3225 192.124C53.3716 192.192 53.4038 192.271 53.4163 192.353C53.4289 192.436 53.4214 192.521 53.3947 192.6L52.7618 194.476L54.1043 204.577C54.1046 205.108 51.955 205.248 50.6849 205.248Z" fill="#F2F2F2"/>
<path d="M50.3226 203.827H48.1507V203.947H50.3226V203.827Z" fill="#4575AD"/>
<path d="M50.3226 203.102H48.1507V203.223H50.3226V203.102Z" fill="#4575AD"/>
<path d="M50.3226 202.378H48.1507V202.499H50.3226V202.378Z" fill="#4575AD"/>
<path d="M50.3226 201.654H48.1507V201.775H50.3226V201.654Z" fill="#4575AD"/>
<path d="M50.3226 200.93H48.1507V201.051H50.3226V200.93Z" fill="#4575AD"/>
<path d="M70.2261 205.248C69.4446 205.256 68.6638 205.203 67.8909 205.089C67.1713 204.968 66.8064 204.797 66.8064 204.581L66.8066 204.577L68.1491 194.476L67.473 192.561C67.4446 192.481 67.4362 192.395 67.4485 192.31C67.4609 192.226 67.4936 192.146 67.5439 192.077C67.5941 192.008 67.6605 191.951 67.7374 191.913C67.8143 191.874 67.8994 191.855 67.9856 191.856L72.4321 191.901C72.5167 191.902 72.5999 191.923 72.6749 191.962C72.7499 192 72.8146 192.056 72.8637 192.124C72.9128 192.192 72.945 192.271 72.9575 192.353C72.9701 192.436 72.9626 192.521 72.9359 192.6L72.303 194.476L73.6455 204.577C73.6458 205.108 71.4962 205.248 70.2261 205.248Z" fill="#F2F2F2"/>
<path d="M69.8638 203.827H67.6919V203.947H69.8638V203.827Z" fill="#4575AD"/>
<path d="M69.8638 203.102H67.6919V203.223H69.8638V203.102Z" fill="#4575AD"/>
<path d="M69.8638 202.378H67.6919V202.499H69.8638V202.378Z" fill="#4575AD"/>
<path d="M69.8638 201.654H67.6919V201.775H69.8638V201.654Z" fill="#4575AD"/>
<path d="M69.8638 200.93H67.6919V201.051H69.8638V200.93Z" fill="#4575AD"/>
<path d="M61.0663 205.248C60.2849 205.256 59.504 205.203 58.7312 205.089C58.0115 204.968 57.6466 204.797 57.6466 204.581L57.6469 204.577L58.9894 194.476L58.3132 192.561C58.2848 192.481 58.2765 192.395 58.2888 192.31C58.3011 192.226 58.3338 192.146 58.3841 192.077C58.4344 192.008 58.5008 191.951 58.5777 191.913C58.6546 191.874 58.7397 191.855 58.8259 191.856L63.2723 191.901C63.3569 191.902 63.4401 191.923 63.5151 191.962C63.5901 192 63.6548 192.056 63.704 192.124C63.7531 192.192 63.7852 192.271 63.7978 192.353C63.8103 192.436 63.8029 192.521 63.7761 192.6L63.1432 194.476L64.4857 204.577C64.486 205.108 62.3364 205.248 61.0663 205.248Z" fill="#F2F2F2"/>
<path d="M60.7038 203.827H58.5318V203.947H60.7038V203.827Z" fill="#4575AD"/>
<path d="M60.7038 203.102H58.5318V203.223H60.7038V203.102Z" fill="#4575AD"/>
<path d="M60.7038 202.378H58.5318V202.499H60.7038V202.378Z" fill="#4575AD"/>
<path d="M60.7038 201.654H58.5318V201.775H60.7038V201.654Z" fill="#4575AD"/>
<path d="M60.7038 200.93H58.5318V201.051H60.7038V200.93Z" fill="#4575AD"/>
<path d="M75.5084 205.999H71.3558V199.12H75.5084C75.7349 199.119 75.952 199.03 76.112 198.872C76.272 198.713 76.3619 198.499 76.3619 198.275C76.3619 198.051 76.272 197.836 76.112 197.678C75.952 197.52 75.7349 197.43 75.5084 197.43H46.5629C46.3364 197.43 46.1193 197.52 45.9593 197.678C45.7993 197.836 45.7094 198.051 45.7094 198.275C45.7094 198.499 45.7993 198.713 45.9593 198.872C46.1193 199.03 46.3364 199.119 46.5629 199.12H50.1047V205.999H46.5629C46.3364 205.999 46.1193 206.088 45.9593 206.247C45.7993 206.405 45.7094 206.62 45.7094 206.844C45.7094 207.068 45.7993 207.282 45.9593 207.441C46.1193 207.599 46.3364 207.688 46.5629 207.689H75.5084C75.7349 207.688 75.952 207.599 76.112 207.441C76.272 207.282 76.3619 207.068 76.3619 206.844C76.3619 206.62 76.272 206.405 76.112 206.247C75.952 206.088 75.7349 205.999 75.5084 205.999ZM51.8146 205.999V199.12H69.646V205.999H51.8146Z" fill="#4575AD"/>
<path d="M38.2618 151.028V136.199C38.2622 135.899 38.383 135.611 38.5977 135.399C38.8125 135.187 39.1037 135.068 39.4074 135.067H50.7406C51.0443 135.068 51.3355 135.187 51.5502 135.399C51.765 135.611 51.8858 135.899 51.8862 136.199V151.028C51.8858 151.328 51.765 151.616 51.5502 151.828C51.3355 152.04 51.0443 152.16 50.7406 152.16H39.4074C39.1037 152.16 38.8125 152.04 38.5977 151.828C38.383 151.616 38.2622 151.328 38.2618 151.028Z" fill="#E6E6E6"/>
<path d="M39.1311 146.549V137.016C39.1315 136.735 39.2446 136.465 39.4457 136.267C39.6469 136.068 39.9196 135.956 40.204 135.956H49.9439C50.2284 135.956 50.5011 136.068 50.7022 136.267C50.9034 136.465 51.0165 136.735 51.0169 137.016V150.211C51.0165 150.493 50.9034 150.762 50.7022 150.961C50.5011 151.16 50.2284 151.271 49.9439 151.272H43.9103C42.6432 151.27 41.4284 150.772 40.5325 149.887C39.6365 149.002 39.1326 147.801 39.1311 146.549Z" fill="white"/>
<path d="M40.7081 139.676C40.7084 139.401 40.8189 139.138 41.0155 138.944C41.212 138.749 41.4785 138.64 41.7565 138.64H48.513C48.7911 138.64 49.0578 138.749 49.2544 138.943C49.451 139.138 49.5615 139.401 49.5615 139.676C49.5615 139.951 49.451 140.214 49.2544 140.408C49.0578 140.603 48.7911 140.712 48.513 140.712H41.7565C41.4785 140.712 41.212 140.602 41.0155 140.408C40.8189 140.214 40.7084 139.951 40.7081 139.676Z" fill="#E6E6E6"/>
<path d="M40.7081 142.899C40.7084 142.624 40.8189 142.361 41.0155 142.167C41.212 141.972 41.4785 141.863 41.7565 141.863H48.513C48.7911 141.863 49.0578 141.972 49.2544 142.166C49.451 142.361 49.5615 142.624 49.5615 142.899C49.5615 143.174 49.451 143.437 49.2544 143.631C49.0578 143.826 48.7911 143.935 48.513 143.935H41.7565C41.4785 143.935 41.212 143.825 41.0155 143.631C40.8189 143.437 40.7084 143.173 40.7081 142.899Z" fill="#E6E6E6"/>
<path d="M40.7081 146.122C40.7084 145.848 40.8189 145.584 41.0155 145.39C41.212 145.196 41.4785 145.086 41.7565 145.086H48.513C48.7911 145.086 49.0578 145.195 49.2544 145.39C49.451 145.584 49.5615 145.847 49.5615 146.122C49.5615 146.397 49.451 146.66 49.2544 146.855C49.0578 147.049 48.7911 147.158 48.513 147.158H41.7565C41.4785 147.158 41.212 147.049 41.0155 146.854C40.8189 146.66 40.7084 146.397 40.7081 146.122Z" fill="#E6E6E6"/>
<path d="M38.4541 136.665C38.1352 136.534 37.849 136.337 37.6158 136.085C37.3826 135.834 37.2079 135.535 37.1042 135.21C37.0005 134.884 36.9703 134.541 37.0156 134.203C37.0608 133.864 37.1806 133.54 37.3664 133.253L29.149 125.876L26.2663 114.857L31.3824 114.437L32.9463 123.084L40.7821 132.614C41.25 132.955 41.5753 133.453 41.6963 134.014C41.8173 134.576 41.7257 135.162 41.4387 135.661C41.1518 136.16 40.6895 136.538 40.1394 136.723C39.5893 136.908 38.9897 136.887 38.4541 136.665Z" fill="#FFB6B6"/>
<path d="M25.478 104.906C25.478 104.906 24.2311 104.924 24.7927 107.476C25.2424 109.518 26.9483 121.012 28.3098 123.583C27.9982 123.849 27.785 124.21 27.7037 124.609C27.6223 125.007 27.6776 125.422 27.8607 125.786L33.5515 123.604C34.0475 122.329 33.2158 121.932 32.6851 121.818L32.7893 117.816L31.9734 107.616L26.3792 104.877L25.478 104.906Z" fill="#F2F2F2"/>
</g>
<defs>
<linearGradient id="paint0_linear_177_3694" x1="101.714" y1="0" x2="101.714" y2="208" gradientUnits="userSpaceOnUse">
<stop stop-color="#749AD2"/>
<stop offset="1" stop-color="#B9DBFA"/>
</linearGradient>
</defs>
</svg>
