<svg width="201" height="120" viewBox="0 0 201 120" fill="none" xmlns="http://www.w3.org/2000/svg">
<rect x="0.0384521" width="200" height="120" fill="url(#paint0_linear_219_5084)"/>
<path d="M146.519 119.948L18.2035 120C18.1494 120 18.0977 119.978 18.0596 119.941C18.0214 119.903 18 119.852 18 119.798C18 119.745 18.0214 119.694 18.0596 119.656C18.0977 119.618 18.1494 119.597 18.2035 119.597L146.519 119.545C146.573 119.545 146.624 119.566 146.663 119.604C146.701 119.642 146.722 119.693 146.722 119.746C146.722 119.8 146.701 119.851 146.663 119.889C146.624 119.926 146.573 119.948 146.519 119.948Z" fill="#CACACA"/>
<path d="M121.448 115.671V104.763C121.449 104.543 121.538 104.331 121.696 104.175C121.854 104.019 122.068 103.931 122.291 103.931H130.627C130.851 103.931 131.065 104.019 131.223 104.175C131.381 104.331 131.47 104.543 131.47 104.763V115.671C131.47 115.891 131.381 116.103 131.223 116.259C131.065 116.415 130.851 116.503 130.627 116.503H122.291C122.068 116.503 121.854 116.415 121.696 116.259C121.538 116.103 121.449 115.891 121.448 115.671Z" fill="#E6E6E6"/>
<path d="M122.088 112.376V105.364C122.088 105.157 122.171 104.959 122.319 104.813C122.467 104.667 122.668 104.584 122.877 104.584H130.041C130.251 104.584 130.451 104.667 130.599 104.813C130.747 104.959 130.83 105.157 130.83 105.364V115.07C130.83 115.277 130.747 115.475 130.599 115.621C130.451 115.767 130.251 115.85 130.041 115.85H125.603C124.671 115.849 123.778 115.482 123.119 114.831C122.46 114.18 122.089 113.297 122.088 112.376Z" fill="white"/>
<path d="M123.248 107.321C123.248 107.119 123.329 106.925 123.474 106.782C123.619 106.639 123.815 106.559 124.019 106.559H128.989C129.193 106.559 129.39 106.639 129.534 106.782C129.679 106.925 129.76 107.118 129.76 107.321C129.76 107.523 129.679 107.717 129.534 107.859C129.39 108.002 129.193 108.083 128.989 108.083H124.019C123.815 108.082 123.619 108.002 123.474 107.859C123.329 107.716 123.248 107.523 123.248 107.321Z" fill="#E6E6E6"/>
<path d="M123.248 109.691C123.248 109.489 123.329 109.296 123.474 109.153C123.619 109.01 123.815 108.929 124.019 108.929H128.989C129.193 108.929 129.39 109.01 129.534 109.152C129.679 109.295 129.76 109.489 129.76 109.691C129.76 109.893 129.679 110.087 129.534 110.23C129.39 110.373 129.193 110.453 128.989 110.453H124.019C123.815 110.453 123.619 110.373 123.474 110.23C123.329 110.087 123.248 109.893 123.248 109.691Z" fill="#E6E6E6"/>
<path d="M123.248 112.062C123.248 111.86 123.329 111.666 123.474 111.523C123.619 111.381 123.815 111.3 124.019 111.3H128.989C129.193 111.3 129.39 111.38 129.534 111.523C129.679 111.666 129.76 111.86 129.76 112.062C129.76 112.264 129.679 112.458 129.534 112.601C129.39 112.744 129.193 112.824 128.989 112.824H124.019C123.815 112.824 123.619 112.744 123.474 112.601C123.329 112.458 123.248 112.264 123.248 112.062Z" fill="#E6E6E6"/>
<path d="M122.994 59.1608C119.854 64.2267 116.727 74.2657 112.369 74.6182C106.52 75.0913 101.744 64.9594 101.744 59.1608C101.744 56.3762 102.863 53.7056 104.856 51.7366C106.848 49.7676 109.551 48.6614 112.369 48.6614C118.237 48.6614 126.059 54.2159 122.994 59.1608Z" fill="#4575AD"/>
<path d="M113.825 76.4573C112.824 76.4573 111.832 76.6523 110.907 77.031C109.982 77.4097 109.141 77.9648 108.433 78.6645C107.725 79.3643 107.163 80.195 106.78 81.1093C106.396 82.0236 106.199 83.0035 106.199 83.9931L110.826 106.939V117.331C110.339 117.445 109.904 117.718 109.593 118.106C109.282 118.495 109.113 118.976 109.113 119.471H113.225V106.939H115.967V117.298C115.443 117.378 114.964 117.642 114.619 118.04C114.273 118.439 114.083 118.946 114.082 119.471H118.367V106.939L121.451 83.9931C121.451 83.0035 121.254 82.0236 120.871 81.1093C120.488 80.195 119.926 79.3643 119.218 78.6645C118.51 77.9647 117.669 77.4097 116.744 77.031C115.818 76.6523 114.827 76.4573 113.825 76.4573Z" fill="#4575AD"/>
<path d="M92.017 82.309C91.4463 81.7459 90.415 81.3683 89.2336 81.3683C87.4353 81.3683 85.9775 82.2402 85.9775 83.3157C85.9775 84.3913 87.4353 85.2632 89.2336 85.2632C90.0656 85.2814 90.8861 85.0688 91.6019 84.6494L91.6009 84.6594L109.525 85.5339L109.764 83.1748L92.017 82.309Z" fill="#4575AD"/>
<path d="M120.297 101.399C119.882 102.082 119.76 103.162 120.045 104.295C120.479 106.019 121.687 107.207 122.744 106.947C123.8 106.687 124.304 105.079 123.87 103.354C123.687 102.552 123.28 101.817 122.695 101.231L122.705 101.23L119.237 83.8307L116.862 84.1712L120.297 101.399Z" fill="#4575AD"/>
<path d="M114.735 54.6778C114.972 53.7061 114.21 52.8192 113.314 52.5234C112.13 52.1326 110.892 52.6814 109.743 52.9309C109.151 53.0596 108.523 53.1241 107.938 52.9242C107.502 52.7649 107.125 52.4789 106.856 52.1038C106.218 51.2385 106.186 50.1366 106.521 49.1471C107.173 47.2173 109.013 45.8118 110.991 45.3994C113.364 44.9048 115.66 46.077 117.795 46.9429L119.855 47.7786C120.485 48.0344 121.13 48.2703 121.74 48.5724C122.72 49.0575 123.831 50.024 123.429 51.2374C123.325 51.5488 123.822 51.6823 123.924 51.3725C124.277 50.3099 123.644 49.2397 122.798 48.6131C122.326 48.2853 121.815 48.0161 121.277 47.8115C120.666 47.5575 120.05 47.3126 119.437 47.0637C118.167 46.5486 116.904 46.0109 115.622 45.526C114.472 45.091 113.257 44.7354 112.013 44.7712C110.962 44.8086 109.934 45.0892 109.011 45.5904C108.089 46.0916 107.299 46.7994 106.704 47.657C106.039 48.6316 105.644 49.8378 105.845 51.0158C106.006 51.961 106.622 52.8848 107.514 53.298C108.857 53.92 110.256 53.2552 111.596 52.9919C112.24 52.8653 112.958 52.8292 113.537 53.1837C113.999 53.4662 114.375 53.9872 114.239 54.5428C114.162 54.8605 114.658 54.996 114.735 54.6778Z" fill="#3F3D56"/>
<path d="M88.2807 83.2332C86.4613 83.2513 84.6434 83.1267 82.8439 82.8606C80.9602 82.5456 80.0829 82.0769 80.0829 81.3853L80.0841 81.3579L83.1722 58.1177L81.6375 53.7703C81.554 53.5383 81.5289 53.2897 81.5646 53.0461C81.6002 52.8024 81.6955 52.571 81.842 52.3719C81.9849 52.1689 82.1767 52.0043 82.4001 51.8929C82.6234 51.7815 82.8714 51.7267 83.1215 51.7337L93.3709 51.8391C93.6152 51.8416 93.8554 51.9011 94.072 52.0128C94.2886 52.1244 94.4755 52.2851 94.6173 52.4817C94.7591 52.6783 94.8519 52.9052 94.8881 53.144C94.9243 53.3827 94.9029 53.6266 94.8256 53.8556L93.3888 58.1149L96.478 81.3562V81.3673C96.4784 82.1163 95.49 82.6051 93.3674 82.9147C91.6809 83.1326 89.9816 83.239 88.2807 83.2332ZM83.0868 52.072C82.8971 52.0718 82.7102 52.117 82.5419 52.2036C82.3737 52.2903 82.2291 52.4158 82.1204 52.5695C82.0063 52.7246 81.9321 52.9048 81.9043 53.0946C81.8766 53.2844 81.8961 53.4781 81.9611 53.6587L83.5226 58.0821L83.5174 58.122L80.4252 81.389L80.4254 81.3944C80.4256 81.7172 80.8551 82.1846 82.9011 82.5266C84.6816 82.7896 86.4805 82.9126 88.2807 82.8945C89.9648 82.9004 91.6475 82.7952 93.3174 82.5797C95.6467 82.24 96.1354 81.7377 96.1353 81.3764L93.0387 58.0817L94.5004 53.7484C94.5606 53.57 94.5773 53.3801 94.5491 53.1942C94.5209 53.0082 94.4486 52.8314 94.3381 52.6783C94.2277 52.5252 94.0821 52.4 93.9134 52.3131C93.7447 52.2261 93.5576 52.1797 93.3673 52.1778L83.1157 52.0723C83.1061 52.072 83.0965 52.072 83.0868 52.072Z" fill="#3F3D56"/>
<path opacity="0.5" d="M94.1247 78.5385H82.437L84.2898 66.1583L84.3402 65.8171L85.1121 60.6632C85.1592 60.3488 85.5255 60.593 85.7844 60.4045C87.3924 59.2344 89.0195 59.2005 90.6608 60.3283C90.9145 60.5026 91.265 60.2986 91.3123 60.6003L92.1232 65.7699L92.2015 66.2699L94.1247 78.5385Z" fill="#5694EF"/>
<path d="M92.6822 80.2722H83.867C83.6359 80.2722 83.4075 80.223 83.1974 80.1279C82.9872 80.0328 82.8003 79.8941 82.6493 79.7212C82.4984 79.5483 82.3869 79.3453 82.3224 79.126C82.258 78.9067 82.2422 78.6762 82.276 78.4503L84.8515 61.2403C84.8648 61.1523 84.9014 61.0693 84.9575 60.9998C85.0137 60.9302 85.0875 60.8766 85.1714 60.8443C85.2552 60.812 85.3463 60.8021 85.4353 60.8158C85.5242 60.8294 85.608 60.866 85.678 60.9219C87.2477 62.1644 88.9585 62.1365 90.7627 60.8391C90.8326 60.7886 90.9146 60.7568 91.0007 60.7469C91.0868 60.737 91.174 60.7493 91.2539 60.7826C91.3354 60.8157 91.4068 60.869 91.4613 60.9375C91.5157 61.006 91.5512 61.0872 91.5644 61.1733L94.2716 78.4396C94.3071 78.6662 94.2926 78.8976 94.229 79.1182C94.1654 79.3387 94.0544 79.543 93.9034 79.7171C93.7524 79.8912 93.565 80.0309 93.3543 80.1267C93.1435 80.2225 92.9142 80.2722 92.6822 80.2722Z" fill="#5694EF"/>
<path d="M89.135 78.2545H84.1266V78.5328H89.135V78.2545Z" fill="white"/>
<path d="M89.135 76.5847H84.1266V76.863H89.135V76.5847Z" fill="white"/>
<path d="M89.135 74.9149H84.1266V75.1932H89.135V74.9149Z" fill="white"/>
<path d="M89.135 73.2452H84.1266V73.5235H89.135V73.2452Z" fill="white"/>
<path d="M89.135 71.5753H84.1266V71.8536H89.135V71.5753Z" fill="white"/>
<path d="M92.4376 67.1949C92.0491 67.5761 91.5818 67.8697 91.0678 68.0556C90.5537 68.2415 90.005 68.3153 89.4593 68.2719C88.8471 68.1988 88.2564 68.0032 87.7231 67.6972C87.1584 67.3981 86.612 67.0405 85.9868 66.8735C85.439 66.7274 84.7899 66.7079 84.3196 67.0697C84.2811 67.0991 84.2342 67.1157 84.1855 67.1169C84.1369 67.1182 84.0891 67.1041 84.0492 67.0766L84.1027 66.7149C84.3638 66.5477 84.657 66.4353 84.9639 66.3848C85.2708 66.3343 85.585 66.3467 85.8868 66.4212C87.1429 66.6717 88.0962 67.6986 89.3833 67.8461C89.9385 67.9079 90.5005 67.8324 91.0189 67.6264C91.5372 67.4205 91.9957 67.0905 92.3531 66.6661L92.3545 66.6647L92.4376 67.1949Z" fill="white"/>
<path d="M57.0156 28.3637C56.8415 32.1008 53.94 34.9179 50.1607 35.1375C46.0739 35.3749 42.4312 32.7823 43.3058 28.3637C44.2797 23.4432 46.4464 22.3116 50.1607 21.5899C54.5134 20.7443 57.2037 24.3259 57.0156 28.3637Z" fill="#2F2E41"/>
<path d="M70.8439 54.5704C70.6258 54.6988 70.3819 54.7784 70.1293 54.8035C69.8767 54.8287 69.6216 54.7988 69.382 54.716C69.1424 54.6332 68.924 54.4995 68.7424 54.3243C68.5607 54.1491 68.4201 53.9366 68.3305 53.7019L60.3142 55.2396L52.4741 52.0674L54.4755 48.9031L60.3204 51.799L69.4533 51.4318C69.8623 51.3092 70.3026 51.3391 70.6907 51.5158C71.0789 51.6926 71.388 52.0039 71.5594 52.3908C71.7308 52.7776 71.7526 53.2132 71.6207 53.6149C71.4889 54.0167 71.2125 54.3566 70.8439 54.5704Z" fill="#FFB6B6"/>
<path d="M46.1926 48.1458C46.1926 48.1458 45.6545 48.88 47.4232 49.676C48.8392 50.3133 56.4444 54.3799 58.5772 54.7191C58.5986 55.0175 58.7198 55.3005 58.9218 55.5234C59.1238 55.7463 59.3951 55.8964 59.6929 55.9502L60.8971 51.676C60.3547 50.8255 59.7521 51.1353 59.4502 51.3939L57.1098 49.5717L50.668 45.5565L46.572 47.6084L46.1926 48.1458Z" fill="#F2F2F2"/>
<path d="M57.358 38.6937L54.3637 38.1895L48.8704 40.6709L45.7856 82.8377L55.4728 78.4107C57.0341 77.6972 58.801 77.5543 60.4589 78.0075C60.7446 78.0856 61.0454 78.0922 61.3342 78.0268C61.6231 77.9614 61.891 77.8259 62.1136 77.6326C62.3363 77.4394 62.5068 77.1944 62.6098 76.9198C62.7128 76.6452 62.745 76.3496 62.7035 76.0596L57.358 38.6937Z" fill="#F2F2F2"/>
<path d="M48.3772 115.789H50.7283L51.847 106.828H48.3772V115.789Z" fill="#FFB6B6"/>
<path d="M47.1362 119.814H48.8222L49.1231 118.241L49.8939 119.814H54.3655C54.5798 119.814 54.7885 119.746 54.9612 119.621C55.1339 119.495 55.2614 119.319 55.3252 119.116C55.389 118.914 55.3857 118.697 55.3158 118.497C55.2459 118.297 55.113 118.124 54.9366 118.003L51.3658 115.566V113.976L47.6098 114.198L47.1362 119.814Z" fill="#2F2E41"/>
<path d="M36.6608 110.845L38.5572 112.218L44.8191 105.644L42.0203 103.617L36.6608 110.845Z" fill="#FFB6B6"/>
<path d="M33.2524 113.368L34.6124 114.352L35.7959 113.259L35.4769 114.978L39.0838 117.59C39.2567 117.715 39.4656 117.782 39.6799 117.782C39.8943 117.782 40.1029 117.713 40.2753 117.588C40.4477 117.462 40.5748 117.285 40.6382 117.082C40.7016 116.88 40.6979 116.663 40.6276 116.463L39.2048 112.412L40.1559 111.129L36.9937 109.114L33.2524 113.368Z" fill="#2F2E41"/>
<path d="M56.9913 74.7114C56.8611 76.4963 54.6675 83.0093 54.6675 83.0093L54.2751 86.9483L53.1577 98.1707L51.9496 110.299C50.1433 113.488 47.0449 111.315 47.0449 111.315V109.283C47.0449 109.283 46.8032 107.449 46.5599 105.124C46.2 101.705 45.835 97.2224 46.2189 95.932C46.181 95.7575 46.1524 95.5811 46.1332 95.4036C45.739 92.3825 44.7793 78.8384 46.1503 77.3905C44.0811 75.3535 42.8236 72.6483 42.608 69.77C42.5772 69.3517 42.5515 68.9131 42.5361 68.4575C42.4315 65.5787 44.4212 62.2054 45.1992 61.0064C45.3877 60.7151 45.2858 60.2343 45.2858 60.2343L56.6803 64.7016L56.9245 65.03V66.4305L56.9913 74.7114Z" fill="#35323E"/>
<path d="M54.2754 86.9484L53.1581 98.1709L46.5602 105.124L43.4687 108.382C40.0704 109.822 38.953 106.233 38.953 106.233L40.2057 104.623C40.2057 104.623 43.7223 98.6366 46.1335 95.4038C46.8002 94.5113 47.3828 93.8272 47.7821 93.5393C48.6835 92.8924 51.4066 89.3768 53.9635 85.9425L54.2754 86.9484Z" fill="#35323E"/>
<path d="M42.2856 60.6581C42.2977 60.9073 42.3498 61.1531 42.4398 61.3863C42.4501 61.4151 42.4604 61.4421 42.4724 61.4709C42.6838 61.9704 43.0593 62.385 43.5383 62.6479C43.6793 62.7264 43.828 62.7905 43.9822 62.8392L45.3172 63.0509L56.7974 64.8646L57.2584 63.4946L56.3896 61.3473L56.9654 59.5015L57.0436 48.7514C58.364 46.1858 58.6297 43.7714 57.0956 41.6153V41.6018L55.01 38.3148L53.6219 36.2369L49.1696 36.0964L48.5373 37.6814L47.288 38.4198C44.5186 40.0556 43.5212 43.0513 43.5812 46.2401C44.5357 49.8929 43.8331 53.9537 43.1219 58.3076L42.5409 59.4557C42.3527 59.8282 42.2647 60.2423 42.2856 60.6581Z" fill="#5694EF"/>
<path opacity="0.2" d="M42.2855 60.658C42.2976 60.9073 42.3497 61.1531 42.4398 61.3862L43.5383 62.6478C43.6793 62.7263 43.828 62.7905 43.9821 62.8392L45.3171 63.0509L43.3857 59.4625L47.6306 50.2789L42.2855 60.658Z" fill="black"/>
<path d="M52.731 39.2015L48.537 37.6813L43.0437 40.1627L43.3055 57.4907C41.6754 58.8203 41.3471 60.7369 42.5188 63.3299L40.4002 79.0543C40.3568 79.3768 40.4018 79.7048 40.5305 80.0042C40.6592 80.3036 40.8669 80.5633 41.1319 80.7563C41.3969 80.9492 41.7095 81.0683 42.037 81.1011C42.3645 81.1338 42.6949 81.0791 42.9937 80.9426L47.1732 79.0325C50.3311 77.5894 53.9048 77.3004 57.2582 78.2172L52.731 39.2015Z" fill="#F2F2F2"/>
<path d="M45.9714 30.7221C46.1666 32.1293 46.9192 33.4025 48.0639 34.2617C49.2085 35.1209 50.6515 35.496 52.0758 35.3044C53.5002 35.1128 54.7893 34.3704 55.6599 33.2401C56.5305 32.1098 56.9114 30.6843 56.719 29.2766L56.7085 29.2006C56.4838 27.8118 55.7156 26.566 54.5698 25.7319C53.4239 24.8978 51.9921 24.5422 50.5833 24.7419C49.1745 24.9415 47.9016 25.6804 47.0391 26.7991C46.1766 27.9178 45.7937 29.3267 45.973 30.7219L45.9714 30.7221Z" fill="#FFB8B8"/>
<path d="M58.7292 28.7023C57.5489 28.994 56.3141 28.994 55.1338 28.7023C55.0633 28.3541 54.9348 28.0199 54.7533 27.7133C54.7302 28.0519 54.6563 28.3852 54.534 28.7023C53.5441 29.3805 51.3015 29.0107 49.1323 28.7023V23.2833H53.2453C56.7269 22.9749 59.2537 25.3534 58.7292 28.7023Z" fill="#2F2E41"/>
<path d="M48.34 20.5773C48.0273 20.1467 47.4098 19.9587 46.8557 20.0075C46.3134 20.08 45.7957 20.2768 45.344 20.5821C44.5712 21.0525 43.8751 21.6361 43.2795 22.313C42.7658 22.8995 42.3299 23.7121 42.7327 24.3937C43.0687 24.9625 43.8895 25.1824 44.5707 25.0559C45.2518 24.9294 45.8213 24.5342 46.3486 24.1324C46.8759 23.7306 47.4023 23.3026 48.0531 23.0881L47.5282 23.0472C47.8851 22.727 48.1831 22.3482 48.409 21.9274C48.5177 21.716 48.5685 21.4801 48.5564 21.2433C48.5443 21.0064 48.4697 20.7768 48.34 20.5773Z" fill="#2F2E41"/>
<path d="M53.4166 24.1299H49.0041C47.8109 24.1299 46.6666 24.5983 45.8229 25.432C44.9792 26.2657 44.5052 27.3965 44.5052 28.5756C44.5054 30.2928 45.1535 31.9483 46.323 33.2185C47.4924 34.4887 49.0991 35.2824 50.8291 35.4445L49.3037 31.0731L52.2488 35.476H53.4166C49.4336 32.1918 50.5507 28.2702 53.4166 24.1299Z" fill="#2F2E41"/>
<path d="M67.0503 117.976C66.4755 117.982 65.9012 117.942 65.3327 117.858C64.8033 117.77 64.5349 117.644 64.5349 117.485L64.5351 117.482L65.5226 110.053L65.0253 108.644C65.0044 108.585 64.9982 108.521 65.0073 108.459C65.0164 108.397 65.0404 108.338 65.0774 108.288C65.1144 108.237 65.1632 108.195 65.2198 108.167C65.2763 108.139 65.3389 108.124 65.4023 108.125L68.6729 108.159C68.7352 108.159 68.7964 108.174 68.8515 108.203C68.9067 108.231 68.9543 108.272 68.9904 108.322C69.0266 108.372 69.0502 108.43 69.0594 108.491C69.0687 108.552 69.0632 108.614 69.0435 108.672L68.578 110.052L69.5655 117.482C69.5657 117.873 67.9846 117.976 67.0503 117.976Z" fill="#F2F2F2"/>
<path d="M66.784 116.93H65.1864V117.019H66.784V116.93Z" fill="#4575AD"/>
<path d="M66.784 116.398H65.1864V116.486H66.784V116.398Z" fill="#4575AD"/>
<path d="M66.784 115.865H65.1864V115.954H66.784V115.865Z" fill="#4575AD"/>
<path d="M66.784 115.332H65.1864V115.421H66.784V115.332Z" fill="#4575AD"/>
<path d="M66.784 114.8H65.1864V114.888H66.784V114.8Z" fill="#4575AD"/>
<path d="M81.4238 117.976C80.849 117.982 80.2747 117.942 79.7062 117.858C79.1769 117.77 78.9084 117.644 78.9084 117.485L78.9086 117.482L79.8961 110.053L79.3988 108.644C79.3779 108.585 79.3717 108.521 79.3808 108.459C79.3899 108.397 79.4139 108.338 79.4509 108.288C79.4879 108.237 79.5367 108.195 79.5933 108.167C79.6499 108.139 79.7125 108.124 79.7759 108.125L83.0465 108.159C83.1087 108.159 83.1699 108.174 83.2251 108.203C83.2803 108.231 83.3278 108.272 83.364 108.322C83.4001 108.372 83.4237 108.43 83.433 108.491C83.4422 108.552 83.4367 108.614 83.4171 108.672L82.9515 110.052L83.939 117.482C83.9392 117.873 82.3581 117.976 81.4238 117.976Z" fill="#F2F2F2"/>
<path d="M81.1575 116.93H79.5599V117.019H81.1575V116.93Z" fill="#4575AD"/>
<path d="M81.1575 116.398H79.5599V116.486H81.1575V116.398Z" fill="#4575AD"/>
<path d="M81.1575 115.865H79.5599V115.954H81.1575V115.865Z" fill="#4575AD"/>
<path d="M81.1575 115.332H79.5599V115.421H81.1575V115.332Z" fill="#4575AD"/>
<path d="M81.1575 114.8H79.5599V114.888H81.1575V114.8Z" fill="#4575AD"/>
<path d="M74.6865 117.976C74.1117 117.982 73.5374 117.942 72.9689 117.858C72.4396 117.77 72.1711 117.644 72.1711 117.485L72.1713 117.482L73.1588 110.053L72.6615 108.644C72.6406 108.585 72.6344 108.521 72.6435 108.459C72.6526 108.397 72.6766 108.338 72.7136 108.288C72.7506 108.237 72.7994 108.195 72.856 108.167C72.9126 108.139 72.9752 108.124 73.0386 108.125L76.3092 108.159C76.3714 108.159 76.4326 108.174 76.4878 108.203C76.543 108.231 76.5905 108.272 76.6267 108.322C76.6628 108.372 76.6864 108.43 76.6957 108.491C76.7049 108.552 76.6994 108.614 76.6798 108.672L76.2142 110.052L77.2017 117.482C77.2019 117.873 75.6208 117.976 74.6865 117.976Z" fill="#F2F2F2"/>
<path d="M74.4198 116.93H72.8223V117.019H74.4198V116.93Z" fill="#4575AD"/>
<path d="M74.4198 116.398H72.8223V116.486H74.4198V116.398Z" fill="#4575AD"/>
<path d="M74.4198 115.865H72.8223V115.954H74.4198V115.865Z" fill="#4575AD"/>
<path d="M74.4198 115.332H72.8223V115.421H74.4198V115.332Z" fill="#4575AD"/>
<path d="M74.4198 114.8H72.8223V114.888H74.4198V114.8Z" fill="#4575AD"/>
<path d="M85.3093 118.528H82.2549V113.468H85.3093C85.4759 113.468 85.6356 113.402 85.7533 113.286C85.871 113.169 85.9371 113.011 85.9371 112.847C85.9371 112.682 85.871 112.524 85.7533 112.408C85.6356 112.291 85.4759 112.225 85.3093 112.225H64.0183C63.8517 112.225 63.692 112.291 63.5743 112.408C63.4566 112.524 63.3905 112.682 63.3905 112.847C63.3905 113.011 63.4566 113.169 63.5743 113.286C63.692 113.402 63.8517 113.468 64.0183 113.468H66.6235V118.528H64.0183C63.8517 118.528 63.692 118.594 63.5743 118.71C63.4566 118.827 63.3905 118.985 63.3905 119.149C63.3905 119.314 63.4566 119.472 63.5743 119.588C63.692 119.705 63.8517 119.771 64.0183 119.771H85.3093C85.4759 119.771 85.6356 119.705 85.7533 119.588C85.871 119.472 85.9371 119.314 85.9371 119.149C85.9371 118.985 85.871 118.827 85.7533 118.71C85.6356 118.594 85.4759 118.528 85.3093 118.528ZM67.8812 118.528V113.468H80.9972V118.528H67.8812Z" fill="#4575AD"/>
<path d="M57.9125 78.0938V67.1864C57.9127 66.9657 58.0016 66.754 58.1596 66.5979C58.3175 66.4418 58.5317 66.354 58.7551 66.3538H67.0913C67.3147 66.354 67.5289 66.4418 67.6869 66.5979C67.8448 66.754 67.9337 66.9657 67.9339 67.1864V78.0938C67.9337 78.3146 67.8448 78.5262 67.6869 78.6823C67.5289 78.8384 67.3147 78.9263 67.0913 78.9265H58.7551C58.5317 78.9263 58.3175 78.8385 58.1596 78.6823C58.0016 78.5262 57.9127 78.3146 57.9125 78.0938Z" fill="#E6E6E6"/>
<path d="M58.552 74.7995V67.7872C58.5522 67.5805 58.6355 67.3822 58.7834 67.236C58.9314 67.0899 59.1319 67.0076 59.3412 67.0074H66.5054C66.7146 67.0076 66.9152 67.0898 67.0632 67.236C67.2111 67.3822 67.2944 67.5805 67.2946 67.7872V77.4933C67.2944 77.7001 67.2111 77.8983 67.0632 78.0445C66.9152 78.1907 66.7146 78.2729 66.5054 78.2731H62.0673C61.1353 78.2721 60.2418 77.9058 59.5828 77.2546C58.9238 76.6034 58.5531 75.7204 58.552 74.7995Z" fill="white"/>
<path d="M59.7119 69.7439C59.7121 69.5418 59.7935 69.3481 59.938 69.2053C60.0826 69.0624 60.2786 68.982 60.4831 68.9818H65.4529C65.6574 68.9818 65.8536 69.0621 65.9982 69.205C66.1428 69.3479 66.2241 69.5418 66.2241 69.7439C66.2241 69.946 66.1428 70.1398 65.9982 70.2827C65.8536 70.4256 65.6574 70.5059 65.4529 70.5059H60.4831C60.2786 70.5057 60.0826 70.4253 59.938 70.2825C59.7935 70.1396 59.7121 69.9459 59.7119 69.7439Z" fill="#E6E6E6"/>
<path d="M59.7119 72.1145C59.7121 71.9124 59.7935 71.7187 59.938 71.5759C60.0826 71.433 60.2786 71.3526 60.4831 71.3524H65.4529C65.6574 71.3524 65.8536 71.4327 65.9982 71.5756C66.1428 71.7185 66.2241 71.9124 66.2241 72.1145C66.2241 72.3166 66.1428 72.5104 65.9982 72.6533C65.8536 72.7962 65.6574 72.8765 65.4529 72.8765H60.4831C60.2786 72.8763 60.0826 72.7959 59.938 72.6531C59.7935 72.5102 59.7121 72.3165 59.7119 72.1145Z" fill="#E6E6E6"/>
<path d="M59.7119 74.4854C59.7121 74.2833 59.7935 74.0896 59.938 73.9468C60.0826 73.8039 60.2786 73.7235 60.4831 73.7233H65.4529C65.6574 73.7233 65.8536 73.8036 65.9982 73.9465C66.1428 74.0894 66.2241 74.2833 66.2241 74.4854C66.2241 74.6875 66.1428 74.8813 65.9982 75.0242C65.8536 75.1671 65.6574 75.2474 65.4529 75.2474H60.4831C60.2786 75.2472 60.0826 75.1668 59.938 75.024C59.7935 74.8811 59.7121 74.6874 59.7119 74.4854Z" fill="#E6E6E6"/>
<path d="M58.054 67.5287C57.8194 67.4329 57.6089 67.2874 57.4374 67.1025C57.2658 66.9176 57.1374 66.6978 57.0611 66.4586C56.9848 66.2193 56.9626 65.9664 56.9959 65.7178C57.0292 65.4691 57.1173 65.2306 57.2539 65.0192L51.2096 59.5934L49.0892 51.4883L52.8524 51.1789L54.0027 57.5391L59.7664 64.5494C60.1106 64.7998 60.3498 65.1663 60.4388 65.5793C60.5278 65.9924 60.4604 66.4234 60.2494 66.7906C60.0383 67.1579 59.6982 67.4358 59.2936 67.5719C58.889 67.7079 58.448 67.6926 58.054 67.5287Z" fill="#FFB6B6"/>
<path d="M48.5092 44.1686C48.5092 44.1686 47.592 44.182 48.0051 46.0586C48.3359 47.5609 49.5907 56.0155 50.5921 57.9069C50.3629 58.1024 50.2061 58.3677 50.1463 58.661C50.0865 58.9543 50.1271 59.2589 50.2618 59.5269L54.4477 57.9221C54.8125 56.9838 54.2008 56.6921 53.8104 56.6079L53.887 53.6645L53.2869 46.1619L49.172 44.1472L48.5092 44.1686Z" fill="#F2F2F2"/>
<defs>
<linearGradient id="paint0_linear_219_5084" x1="100.038" y1="0" x2="100.038" y2="120" gradientUnits="userSpaceOnUse">
<stop stop-color="#749AD2"/>
<stop offset="1" stop-color="#B9DBFA"/>
</linearGradient>
</defs>
</svg>
